<?xml version="1.0" encoding="utf-8" standalone="no"?>
<!DOCTYPE svg PUBLIC "-//W3C//DTD SVG 1.1//EN"
  "http://www.w3.org/Graphics/SVG/1.1/DTD/svg11.dtd">
<!-- Created with matplotlib (https://matplotlib.org/) -->
<svg height="693.5285pt" version="1.1" viewBox="0 0 963.261875 693.5285" width="963.261875pt" xmlns="http://www.w3.org/2000/svg" xmlns:xlink="http://www.w3.org/1999/xlink">
 <defs>
  <style type="text/css">
*{stroke-linecap:butt;stroke-linejoin:round;}
  </style>
 </defs>
 <g id="figure_1">
  <g id="patch_1">
   <path d="M 0 693.5285 
L 963.261875 693.5285 
L 963.261875 0 
L 0 0 
z
" style="fill:#ffffff;"/>
  </g>
  <g id="axes_1">
   <g id="patch_2">
    <path d="M 99.314375 325.44 
L 471.626875 325.44 
L 471.626875 132.59 
L 99.314375 132.59 
z
" style="fill:#ffffff;"/>
   </g>
   <g id="matplotlib.axis_1">
    <g id="xtick_1">
     <g id="line2d_1">
      <path clip-path="url(#p7773c812a6)" d="M 99.314375 325.44 
L 99.314375 132.59 
" style="fill:none;stroke:#000000;stroke-linecap:square;stroke-opacity:0.2;stroke-width:0.5;"/>
     </g>
     <g id="line2d_2">
      <defs>
       <path d="M 0 0 
L 0 3.5 
" id="maf228ae6e7" style="stroke:#000000;stroke-width:0.8;"/>
      </defs>
      <g>
       <use style="stroke:#000000;stroke-width:0.8;" x="99.314375" xlink:href="#maf228ae6e7" y="325.44"/>
      </g>
     </g>
     <g id="text_1">
      <!-- 27 -->
      <defs>
       <path d="M 19.1875 8.296875 
L 53.609375 8.296875 
L 53.609375 0 
L 7.328125 0 
L 7.328125 8.296875 
Q 12.9375 14.109375 22.625 23.890625 
Q 32.328125 33.6875 34.8125 36.53125 
Q 39.546875 41.84375 41.421875 45.53125 
Q 43.3125 49.21875 43.3125 52.78125 
Q 43.3125 58.59375 39.234375 62.25 
Q 35.15625 65.921875 28.609375 65.921875 
Q 23.96875 65.921875 18.8125 64.3125 
Q 13.671875 62.703125 7.8125 59.421875 
L 7.8125 69.390625 
Q 13.765625 71.78125 18.9375 73 
Q 24.125 74.21875 28.421875 74.21875 
Q 39.75 74.21875 46.484375 68.546875 
Q 53.21875 62.890625 53.21875 53.421875 
Q 53.21875 48.921875 51.53125 44.890625 
Q 49.859375 40.875 45.40625 35.40625 
Q 44.1875 33.984375 37.640625 27.21875 
Q 31.109375 20.453125 19.1875 8.296875 
z
" id="DejaVuSans-50"/>
       <path d="M 8.203125 72.90625 
L 55.078125 72.90625 
L 55.078125 68.703125 
L 28.609375 0 
L 18.3125 0 
L 43.21875 64.59375 
L 8.203125 64.59375 
z
" id="DejaVuSans-55"/>
      </defs>
      <g transform="translate(91.679375 341.558125)scale(0.12 -0.12)">
       <use xlink:href="#DejaVuSans-50"/>
       <use x="63.623047" xlink:href="#DejaVuSans-55"/>
      </g>
     </g>
    </g>
    <g id="xtick_2">
     <g id="line2d_3">
      <path clip-path="url(#p7773c812a6)" d="M 234.700739 325.44 
L 234.700739 132.59 
" style="fill:none;stroke:#000000;stroke-linecap:square;stroke-opacity:0.2;stroke-width:0.5;"/>
     </g>
     <g id="line2d_4">
      <g>
       <use style="stroke:#000000;stroke-width:0.8;" x="234.700739" xlink:href="#maf228ae6e7" y="325.44"/>
      </g>
     </g>
     <g id="text_2">
      <!-- 01 -->
      <defs>
       <path d="M 31.78125 66.40625 
Q 24.171875 66.40625 20.328125 58.90625 
Q 16.5 51.421875 16.5 36.375 
Q 16.5 21.390625 20.328125 13.890625 
Q 24.171875 6.390625 31.78125 6.390625 
Q 39.453125 6.390625 43.28125 13.890625 
Q 47.125 21.390625 47.125 36.375 
Q 47.125 51.421875 43.28125 58.90625 
Q 39.453125 66.40625 31.78125 66.40625 
z
M 31.78125 74.21875 
Q 44.046875 74.21875 50.515625 64.515625 
Q 56.984375 54.828125 56.984375 36.375 
Q 56.984375 17.96875 50.515625 8.265625 
Q 44.046875 -1.421875 31.78125 -1.421875 
Q 19.53125 -1.421875 13.0625 8.265625 
Q 6.59375 17.96875 6.59375 36.375 
Q 6.59375 54.828125 13.0625 64.515625 
Q 19.53125 74.21875 31.78125 74.21875 
z
" id="DejaVuSans-48"/>
       <path d="M 12.40625 8.296875 
L 28.515625 8.296875 
L 28.515625 63.921875 
L 10.984375 60.40625 
L 10.984375 69.390625 
L 28.421875 72.90625 
L 38.28125 72.90625 
L 38.28125 8.296875 
L 54.390625 8.296875 
L 54.390625 0 
L 12.40625 0 
z
" id="DejaVuSans-49"/>
      </defs>
      <g transform="translate(227.065739 341.558125)scale(0.12 -0.12)">
       <use xlink:href="#DejaVuSans-48"/>
       <use x="63.623047" xlink:href="#DejaVuSans-49"/>
      </g>
      <!-- May -->
      <defs>
       <path d="M 9.8125 72.90625 
L 24.515625 72.90625 
L 43.109375 23.296875 
L 61.8125 72.90625 
L 76.515625 72.90625 
L 76.515625 0 
L 66.890625 0 
L 66.890625 64.015625 
L 48.09375 14.015625 
L 38.1875 14.015625 
L 19.390625 64.015625 
L 19.390625 0 
L 9.8125 0 
z
" id="DejaVuSans-77"/>
       <path d="M 34.28125 27.484375 
Q 23.390625 27.484375 19.1875 25 
Q 14.984375 22.515625 14.984375 16.5 
Q 14.984375 11.71875 18.140625 8.90625 
Q 21.296875 6.109375 26.703125 6.109375 
Q 34.1875 6.109375 38.703125 11.40625 
Q 43.21875 16.703125 43.21875 25.484375 
L 43.21875 27.484375 
z
M 52.203125 31.203125 
L 52.203125 0 
L 43.21875 0 
L 43.21875 8.296875 
Q 40.140625 3.328125 35.546875 0.953125 
Q 30.953125 -1.421875 24.3125 -1.421875 
Q 15.921875 -1.421875 10.953125 3.296875 
Q 6 8.015625 6 15.921875 
Q 6 25.140625 12.171875 29.828125 
Q 18.359375 34.515625 30.609375 34.515625 
L 43.21875 34.515625 
L 43.21875 35.40625 
Q 43.21875 41.609375 39.140625 45 
Q 35.0625 48.390625 27.6875 48.390625 
Q 23 48.390625 18.546875 47.265625 
Q 14.109375 46.140625 10.015625 43.890625 
L 10.015625 52.203125 
Q 14.9375 54.109375 19.578125 55.046875 
Q 24.21875 56 28.609375 56 
Q 40.484375 56 46.34375 49.84375 
Q 52.203125 43.703125 52.203125 31.203125 
z
" id="DejaVuSans-97"/>
       <path d="M 32.171875 -5.078125 
Q 28.375 -14.84375 24.75 -17.8125 
Q 21.140625 -20.796875 15.09375 -20.796875 
L 7.90625 -20.796875 
L 7.90625 -13.28125 
L 13.1875 -13.28125 
Q 16.890625 -13.28125 18.9375 -11.515625 
Q 21 -9.765625 23.484375 -3.21875 
L 25.09375 0.875 
L 2.984375 54.6875 
L 12.5 54.6875 
L 29.59375 11.921875 
L 46.6875 54.6875 
L 56.203125 54.6875 
z
" id="DejaVuSans-121"/>
      </defs>
      <g transform="translate(222.295739 354.9955)scale(0.12 -0.12)">
       <use xlink:href="#DejaVuSans-77"/>
       <use x="86.279297" xlink:href="#DejaVuSans-97"/>
       <use x="147.558594" xlink:href="#DejaVuSans-121"/>
      </g>
      <!-- 2020 -->
      <g transform="translate(219.430739 368.432875)scale(0.12 -0.12)">
       <use xlink:href="#DejaVuSans-50"/>
       <use x="63.623047" xlink:href="#DejaVuSans-48"/>
       <use x="127.246094" xlink:href="#DejaVuSans-50"/>
       <use x="190.869141" xlink:href="#DejaVuSans-48"/>
      </g>
     </g>
    </g>
    <g id="xtick_3">
     <g id="line2d_5">
      <path clip-path="url(#p7773c812a6)" d="M 471.626875 325.44 
L 471.626875 132.59 
" style="fill:none;stroke:#000000;stroke-linecap:square;stroke-opacity:0.2;stroke-width:0.5;"/>
     </g>
     <g id="line2d_6">
      <g>
       <use style="stroke:#000000;stroke-width:0.8;" x="471.626875" xlink:href="#maf228ae6e7" y="325.44"/>
      </g>
     </g>
     <g id="text_3">
      <!-- 08 -->
      <defs>
       <path d="M 31.78125 34.625 
Q 24.75 34.625 20.71875 30.859375 
Q 16.703125 27.09375 16.703125 20.515625 
Q 16.703125 13.921875 20.71875 10.15625 
Q 24.75 6.390625 31.78125 6.390625 
Q 38.8125 6.390625 42.859375 10.171875 
Q 46.921875 13.96875 46.921875 20.515625 
Q 46.921875 27.09375 42.890625 30.859375 
Q 38.875 34.625 31.78125 34.625 
z
M 21.921875 38.8125 
Q 15.578125 40.375 12.03125 44.71875 
Q 8.5 49.078125 8.5 55.328125 
Q 8.5 64.0625 14.71875 69.140625 
Q 20.953125 74.21875 31.78125 74.21875 
Q 42.671875 74.21875 48.875 69.140625 
Q 55.078125 64.0625 55.078125 55.328125 
Q 55.078125 49.078125 51.53125 44.71875 
Q 48 40.375 41.703125 38.8125 
Q 48.828125 37.15625 52.796875 32.3125 
Q 56.78125 27.484375 56.78125 20.515625 
Q 56.78125 9.90625 50.3125 4.234375 
Q 43.84375 -1.421875 31.78125 -1.421875 
Q 19.734375 -1.421875 13.25 4.234375 
Q 6.78125 9.90625 6.78125 20.515625 
Q 6.78125 27.484375 10.78125 32.3125 
Q 14.796875 37.15625 21.921875 38.8125 
z
M 18.3125 54.390625 
Q 18.3125 48.734375 21.84375 45.5625 
Q 25.390625 42.390625 31.78125 42.390625 
Q 38.140625 42.390625 41.71875 45.5625 
Q 45.3125 48.734375 45.3125 54.390625 
Q 45.3125 60.0625 41.71875 63.234375 
Q 38.140625 66.40625 31.78125 66.40625 
Q 25.390625 66.40625 21.84375 63.234375 
Q 18.3125 60.0625 18.3125 54.390625 
z
" id="DejaVuSans-56"/>
      </defs>
      <g transform="translate(463.991875 341.558125)scale(0.12 -0.12)">
       <use xlink:href="#DejaVuSans-48"/>
       <use x="63.623047" xlink:href="#DejaVuSans-56"/>
      </g>
     </g>
    </g>
    <g id="xtick_4">
     <g id="line2d_7">
      <defs>
       <path d="M 0 0 
L 0 2 
" id="ma067b769eb" style="stroke:#000000;stroke-width:0.6;"/>
      </defs>
      <g>
       <use style="stroke:#000000;stroke-width:0.6;" x="133.160966" xlink:href="#ma067b769eb" y="325.44"/>
      </g>
     </g>
     <g id="text_4">
      <!-- 28 -->
      <g transform="translate(125.525966 339.958125)scale(0.12 -0.12)">
       <use xlink:href="#DejaVuSans-50"/>
       <use x="63.623047" xlink:href="#DejaVuSans-56"/>
      </g>
     </g>
    </g>
    <g id="xtick_5">
     <g id="line2d_8">
      <g>
       <use style="stroke:#000000;stroke-width:0.6;" x="167.007557" xlink:href="#ma067b769eb" y="325.44"/>
      </g>
     </g>
     <g id="text_5">
      <!-- 29 -->
      <defs>
       <path d="M 10.984375 1.515625 
L 10.984375 10.5 
Q 14.703125 8.734375 18.5 7.8125 
Q 22.3125 6.890625 25.984375 6.890625 
Q 35.75 6.890625 40.890625 13.453125 
Q 46.046875 20.015625 46.78125 33.40625 
Q 43.953125 29.203125 39.59375 26.953125 
Q 35.25 24.703125 29.984375 24.703125 
Q 19.046875 24.703125 12.671875 31.3125 
Q 6.296875 37.9375 6.296875 49.421875 
Q 6.296875 60.640625 12.9375 67.421875 
Q 19.578125 74.21875 30.609375 74.21875 
Q 43.265625 74.21875 49.921875 64.515625 
Q 56.59375 54.828125 56.59375 36.375 
Q 56.59375 19.140625 48.40625 8.859375 
Q 40.234375 -1.421875 26.421875 -1.421875 
Q 22.703125 -1.421875 18.890625 -0.6875 
Q 15.09375 0.046875 10.984375 1.515625 
z
M 30.609375 32.421875 
Q 37.25 32.421875 41.125 36.953125 
Q 45.015625 41.5 45.015625 49.421875 
Q 45.015625 57.28125 41.125 61.84375 
Q 37.25 66.40625 30.609375 66.40625 
Q 23.96875 66.40625 20.09375 61.84375 
Q 16.21875 57.28125 16.21875 49.421875 
Q 16.21875 41.5 20.09375 36.953125 
Q 23.96875 32.421875 30.609375 32.421875 
z
" id="DejaVuSans-57"/>
      </defs>
      <g transform="translate(159.372557 339.958125)scale(0.12 -0.12)">
       <use xlink:href="#DejaVuSans-50"/>
       <use x="63.623047" xlink:href="#DejaVuSans-57"/>
      </g>
     </g>
    </g>
    <g id="xtick_6">
     <g id="line2d_9">
      <g>
       <use style="stroke:#000000;stroke-width:0.6;" x="200.854148" xlink:href="#ma067b769eb" y="325.44"/>
      </g>
     </g>
     <g id="text_6">
      <!-- 30 -->
      <defs>
       <path d="M 40.578125 39.3125 
Q 47.65625 37.796875 51.625 33 
Q 55.609375 28.21875 55.609375 21.1875 
Q 55.609375 10.40625 48.1875 4.484375 
Q 40.765625 -1.421875 27.09375 -1.421875 
Q 22.515625 -1.421875 17.65625 -0.515625 
Q 12.796875 0.390625 7.625 2.203125 
L 7.625 11.71875 
Q 11.71875 9.328125 16.59375 8.109375 
Q 21.484375 6.890625 26.8125 6.890625 
Q 36.078125 6.890625 40.9375 10.546875 
Q 45.796875 14.203125 45.796875 21.1875 
Q 45.796875 27.640625 41.28125 31.265625 
Q 36.765625 34.90625 28.71875 34.90625 
L 20.21875 34.90625 
L 20.21875 43.015625 
L 29.109375 43.015625 
Q 36.375 43.015625 40.234375 45.921875 
Q 44.09375 48.828125 44.09375 54.296875 
Q 44.09375 59.90625 40.109375 62.90625 
Q 36.140625 65.921875 28.71875 65.921875 
Q 24.65625 65.921875 20.015625 65.03125 
Q 15.375 64.15625 9.8125 62.3125 
L 9.8125 71.09375 
Q 15.4375 72.65625 20.34375 73.4375 
Q 25.25 74.21875 29.59375 74.21875 
Q 40.828125 74.21875 47.359375 69.109375 
Q 53.90625 64.015625 53.90625 55.328125 
Q 53.90625 49.265625 50.4375 45.09375 
Q 46.96875 40.921875 40.578125 39.3125 
z
" id="DejaVuSans-51"/>
      </defs>
      <g transform="translate(193.219148 339.958125)scale(0.12 -0.12)">
       <use xlink:href="#DejaVuSans-51"/>
       <use x="63.623047" xlink:href="#DejaVuSans-48"/>
      </g>
     </g>
    </g>
    <g id="xtick_7">
     <g id="line2d_10">
      <g>
       <use style="stroke:#000000;stroke-width:0.6;" x="268.54733" xlink:href="#ma067b769eb" y="325.44"/>
      </g>
     </g>
     <g id="text_7">
      <!-- 02 -->
      <g transform="translate(260.91233 339.958125)scale(0.12 -0.12)">
       <use xlink:href="#DejaVuSans-48"/>
       <use x="63.623047" xlink:href="#DejaVuSans-50"/>
      </g>
     </g>
    </g>
    <g id="xtick_8">
     <g id="line2d_11">
      <g>
       <use style="stroke:#000000;stroke-width:0.6;" x="302.39392" xlink:href="#ma067b769eb" y="325.44"/>
      </g>
     </g>
     <g id="text_8">
      <!-- 03 -->
      <g transform="translate(294.75892 339.958125)scale(0.12 -0.12)">
       <use xlink:href="#DejaVuSans-48"/>
       <use x="63.623047" xlink:href="#DejaVuSans-51"/>
      </g>
     </g>
    </g>
    <g id="xtick_9">
     <g id="line2d_12">
      <g>
       <use style="stroke:#000000;stroke-width:0.6;" x="336.240511" xlink:href="#ma067b769eb" y="325.44"/>
      </g>
     </g>
     <g id="text_9">
      <!-- 04 -->
      <defs>
       <path d="M 37.796875 64.3125 
L 12.890625 25.390625 
L 37.796875 25.390625 
z
M 35.203125 72.90625 
L 47.609375 72.90625 
L 47.609375 25.390625 
L 58.015625 25.390625 
L 58.015625 17.1875 
L 47.609375 17.1875 
L 47.609375 0 
L 37.796875 0 
L 37.796875 17.1875 
L 4.890625 17.1875 
L 4.890625 26.703125 
z
" id="DejaVuSans-52"/>
      </defs>
      <g transform="translate(328.605511 339.958125)scale(0.12 -0.12)">
       <use xlink:href="#DejaVuSans-48"/>
       <use x="63.623047" xlink:href="#DejaVuSans-52"/>
      </g>
     </g>
    </g>
    <g id="xtick_10">
     <g id="line2d_13">
      <g>
       <use style="stroke:#000000;stroke-width:0.6;" x="370.087102" xlink:href="#ma067b769eb" y="325.44"/>
      </g>
     </g>
     <g id="text_10">
      <!-- 05 -->
      <defs>
       <path d="M 10.796875 72.90625 
L 49.515625 72.90625 
L 49.515625 64.59375 
L 19.828125 64.59375 
L 19.828125 46.734375 
Q 21.96875 47.46875 24.109375 47.828125 
Q 26.265625 48.1875 28.421875 48.1875 
Q 40.625 48.1875 47.75 41.5 
Q 54.890625 34.8125 54.890625 23.390625 
Q 54.890625 11.625 47.5625 5.09375 
Q 40.234375 -1.421875 26.90625 -1.421875 
Q 22.3125 -1.421875 17.546875 -0.640625 
Q 12.796875 0.140625 7.71875 1.703125 
L 7.71875 11.625 
Q 12.109375 9.234375 16.796875 8.0625 
Q 21.484375 6.890625 26.703125 6.890625 
Q 35.15625 6.890625 40.078125 11.328125 
Q 45.015625 15.765625 45.015625 23.390625 
Q 45.015625 31 40.078125 35.4375 
Q 35.15625 39.890625 26.703125 39.890625 
Q 22.75 39.890625 18.8125 39.015625 
Q 14.890625 38.140625 10.796875 36.28125 
z
" id="DejaVuSans-53"/>
      </defs>
      <g transform="translate(362.452102 339.958125)scale(0.12 -0.12)">
       <use xlink:href="#DejaVuSans-48"/>
       <use x="63.623047" xlink:href="#DejaVuSans-53"/>
      </g>
     </g>
    </g>
    <g id="xtick_11">
     <g id="line2d_14">
      <g>
       <use style="stroke:#000000;stroke-width:0.6;" x="403.933693" xlink:href="#ma067b769eb" y="325.44"/>
      </g>
     </g>
     <g id="text_11">
      <!-- 06 -->
      <defs>
       <path d="M 33.015625 40.375 
Q 26.375 40.375 22.484375 35.828125 
Q 18.609375 31.296875 18.609375 23.390625 
Q 18.609375 15.53125 22.484375 10.953125 
Q 26.375 6.390625 33.015625 6.390625 
Q 39.65625 6.390625 43.53125 10.953125 
Q 47.40625 15.53125 47.40625 23.390625 
Q 47.40625 31.296875 43.53125 35.828125 
Q 39.65625 40.375 33.015625 40.375 
z
M 52.59375 71.296875 
L 52.59375 62.3125 
Q 48.875 64.0625 45.09375 64.984375 
Q 41.3125 65.921875 37.59375 65.921875 
Q 27.828125 65.921875 22.671875 59.328125 
Q 17.53125 52.734375 16.796875 39.40625 
Q 19.671875 43.65625 24.015625 45.921875 
Q 28.375 48.1875 33.59375 48.1875 
Q 44.578125 48.1875 50.953125 41.515625 
Q 57.328125 34.859375 57.328125 23.390625 
Q 57.328125 12.15625 50.6875 5.359375 
Q 44.046875 -1.421875 33.015625 -1.421875 
Q 20.359375 -1.421875 13.671875 8.265625 
Q 6.984375 17.96875 6.984375 36.375 
Q 6.984375 53.65625 15.1875 63.9375 
Q 23.390625 74.21875 37.203125 74.21875 
Q 40.921875 74.21875 44.703125 73.484375 
Q 48.484375 72.75 52.59375 71.296875 
z
" id="DejaVuSans-54"/>
      </defs>
      <g transform="translate(396.298693 339.958125)scale(0.12 -0.12)">
       <use xlink:href="#DejaVuSans-48"/>
       <use x="63.623047" xlink:href="#DejaVuSans-54"/>
      </g>
     </g>
    </g>
    <g id="xtick_12">
     <g id="line2d_15">
      <g>
       <use style="stroke:#000000;stroke-width:0.6;" x="437.780284" xlink:href="#ma067b769eb" y="325.44"/>
      </g>
     </g>
     <g id="text_12">
      <!-- 07 -->
      <g transform="translate(430.145284 339.958125)scale(0.12 -0.12)">
       <use xlink:href="#DejaVuSans-48"/>
       <use x="63.623047" xlink:href="#DejaVuSans-55"/>
      </g>
     </g>
    </g>
   </g>
   <g id="matplotlib.axis_2">
    <g id="ytick_1">
     <g id="line2d_16">
      <path clip-path="url(#p7773c812a6)" d="M 99.314375 323.829935 
L 471.626875 323.829935 
" style="fill:none;stroke:#000000;stroke-linecap:square;stroke-opacity:0.2;stroke-width:0.5;"/>
     </g>
     <g id="line2d_17">
      <defs>
       <path d="M 0 0 
L -3.5 0 
" id="mba20733cc7" style="stroke:#000000;stroke-width:0.8;"/>
      </defs>
      <g>
       <use style="stroke:#000000;stroke-width:0.8;" x="99.314375" xlink:href="#mba20733cc7" y="323.829935"/>
      </g>
     </g>
     <g id="text_13">
      <!-- 0 -->
      <g transform="translate(84.679375 328.388998)scale(0.12 -0.12)">
       <use xlink:href="#DejaVuSans-48"/>
      </g>
     </g>
    </g>
    <g id="ytick_2">
     <g id="line2d_18">
      <path clip-path="url(#p7773c812a6)" d="M 99.314375 288.050714 
L 471.626875 288.050714 
" style="fill:none;stroke:#000000;stroke-linecap:square;stroke-opacity:0.2;stroke-width:0.5;"/>
     </g>
     <g id="line2d_19">
      <g>
       <use style="stroke:#000000;stroke-width:0.8;" x="99.314375" xlink:href="#mba20733cc7" y="288.050714"/>
      </g>
     </g>
     <g id="text_14">
      <!-- 10 -->
      <g transform="translate(77.044375 292.609777)scale(0.12 -0.12)">
       <use xlink:href="#DejaVuSans-49"/>
       <use x="63.623047" xlink:href="#DejaVuSans-48"/>
      </g>
     </g>
    </g>
    <g id="ytick_3">
     <g id="line2d_20">
      <path clip-path="url(#p7773c812a6)" d="M 99.314375 252.271494 
L 471.626875 252.271494 
" style="fill:none;stroke:#000000;stroke-linecap:square;stroke-opacity:0.2;stroke-width:0.5;"/>
     </g>
     <g id="line2d_21">
      <g>
       <use style="stroke:#000000;stroke-width:0.8;" x="99.314375" xlink:href="#mba20733cc7" y="252.271494"/>
      </g>
     </g>
     <g id="text_15">
      <!-- 20 -->
      <g transform="translate(77.044375 256.830556)scale(0.12 -0.12)">
       <use xlink:href="#DejaVuSans-50"/>
       <use x="63.623047" xlink:href="#DejaVuSans-48"/>
      </g>
     </g>
    </g>
    <g id="ytick_4">
     <g id="line2d_22">
      <path clip-path="url(#p7773c812a6)" d="M 99.314375 216.492273 
L 471.626875 216.492273 
" style="fill:none;stroke:#000000;stroke-linecap:square;stroke-opacity:0.2;stroke-width:0.5;"/>
     </g>
     <g id="line2d_23">
      <g>
       <use style="stroke:#000000;stroke-width:0.8;" x="99.314375" xlink:href="#mba20733cc7" y="216.492273"/>
      </g>
     </g>
     <g id="text_16">
      <!-- 30 -->
      <g transform="translate(77.044375 221.051335)scale(0.12 -0.12)">
       <use xlink:href="#DejaVuSans-51"/>
       <use x="63.623047" xlink:href="#DejaVuSans-48"/>
      </g>
     </g>
    </g>
    <g id="ytick_5">
     <g id="line2d_24">
      <path clip-path="url(#p7773c812a6)" d="M 99.314375 180.713052 
L 471.626875 180.713052 
" style="fill:none;stroke:#000000;stroke-linecap:square;stroke-opacity:0.2;stroke-width:0.5;"/>
     </g>
     <g id="line2d_25">
      <g>
       <use style="stroke:#000000;stroke-width:0.8;" x="99.314375" xlink:href="#mba20733cc7" y="180.713052"/>
      </g>
     </g>
     <g id="text_17">
      <!-- 40 -->
      <g transform="translate(77.044375 185.272114)scale(0.12 -0.12)">
       <use xlink:href="#DejaVuSans-52"/>
       <use x="63.623047" xlink:href="#DejaVuSans-48"/>
      </g>
     </g>
    </g>
    <g id="ytick_6">
     <g id="line2d_26">
      <path clip-path="url(#p7773c812a6)" d="M 99.314375 144.933831 
L 471.626875 144.933831 
" style="fill:none;stroke:#000000;stroke-linecap:square;stroke-opacity:0.2;stroke-width:0.5;"/>
     </g>
     <g id="line2d_27">
      <g>
       <use style="stroke:#000000;stroke-width:0.8;" x="99.314375" xlink:href="#mba20733cc7" y="144.933831"/>
      </g>
     </g>
     <g id="text_18">
      <!-- 50 -->
      <g transform="translate(77.044375 149.492894)scale(0.12 -0.12)">
       <use xlink:href="#DejaVuSans-53"/>
       <use x="63.623047" xlink:href="#DejaVuSans-48"/>
      </g>
     </g>
    </g>
    <g id="text_19">
     <!-- Cases -->
     <defs>
      <path d="M 64.40625 67.28125 
L 64.40625 56.890625 
Q 59.421875 61.53125 53.78125 63.8125 
Q 48.140625 66.109375 41.796875 66.109375 
Q 29.296875 66.109375 22.65625 58.46875 
Q 16.015625 50.828125 16.015625 36.375 
Q 16.015625 21.96875 22.65625 14.328125 
Q 29.296875 6.6875 41.796875 6.6875 
Q 48.140625 6.6875 53.78125 8.984375 
Q 59.421875 11.28125 64.40625 15.921875 
L 64.40625 5.609375 
Q 59.234375 2.09375 53.4375 0.328125 
Q 47.65625 -1.421875 41.21875 -1.421875 
Q 24.65625 -1.421875 15.125 8.703125 
Q 5.609375 18.84375 5.609375 36.375 
Q 5.609375 53.953125 15.125 64.078125 
Q 24.65625 74.21875 41.21875 74.21875 
Q 47.75 74.21875 53.53125 72.484375 
Q 59.328125 70.75 64.40625 67.28125 
z
" id="DejaVuSans-67"/>
      <path d="M 44.28125 53.078125 
L 44.28125 44.578125 
Q 40.484375 46.53125 36.375 47.5 
Q 32.28125 48.484375 27.875 48.484375 
Q 21.1875 48.484375 17.84375 46.4375 
Q 14.5 44.390625 14.5 40.28125 
Q 14.5 37.15625 16.890625 35.375 
Q 19.28125 33.59375 26.515625 31.984375 
L 29.59375 31.296875 
Q 39.15625 29.25 43.1875 25.515625 
Q 47.21875 21.78125 47.21875 15.09375 
Q 47.21875 7.46875 41.1875 3.015625 
Q 35.15625 -1.421875 24.609375 -1.421875 
Q 20.21875 -1.421875 15.453125 -0.5625 
Q 10.6875 0.296875 5.421875 2 
L 5.421875 11.28125 
Q 10.40625 8.6875 15.234375 7.390625 
Q 20.0625 6.109375 24.8125 6.109375 
Q 31.15625 6.109375 34.5625 8.28125 
Q 37.984375 10.453125 37.984375 14.40625 
Q 37.984375 18.0625 35.515625 20.015625 
Q 33.0625 21.96875 24.703125 23.78125 
L 21.578125 24.515625 
Q 13.234375 26.265625 9.515625 29.90625 
Q 5.8125 33.546875 5.8125 39.890625 
Q 5.8125 47.609375 11.28125 51.796875 
Q 16.75 56 26.8125 56 
Q 31.78125 56 36.171875 55.265625 
Q 40.578125 54.546875 44.28125 53.078125 
z
" id="DejaVuSans-115"/>
      <path d="M 56.203125 29.59375 
L 56.203125 25.203125 
L 14.890625 25.203125 
Q 15.484375 15.921875 20.484375 11.0625 
Q 25.484375 6.203125 34.421875 6.203125 
Q 39.59375 6.203125 44.453125 7.46875 
Q 49.3125 8.734375 54.109375 11.28125 
L 54.109375 2.78125 
Q 49.265625 0.734375 44.1875 -0.34375 
Q 39.109375 -1.421875 33.890625 -1.421875 
Q 20.796875 -1.421875 13.15625 6.1875 
Q 5.515625 13.8125 5.515625 26.8125 
Q 5.515625 40.234375 12.765625 48.109375 
Q 20.015625 56 32.328125 56 
Q 43.359375 56 49.78125 48.890625 
Q 56.203125 41.796875 56.203125 29.59375 
z
M 47.21875 32.234375 
Q 47.125 39.59375 43.09375 43.984375 
Q 39.0625 48.390625 32.421875 48.390625 
Q 24.90625 48.390625 20.390625 44.140625 
Q 15.875 39.890625 15.1875 32.171875 
z
" id="DejaVuSans-101"/>
     </defs>
     <g transform="translate(70.132813 249.792969)rotate(-90)scale(0.14 -0.14)">
      <use xlink:href="#DejaVuSans-67"/>
      <use x="69.824219" xlink:href="#DejaVuSans-97"/>
      <use x="131.103516" xlink:href="#DejaVuSans-115"/>
      <use x="183.203125" xlink:href="#DejaVuSans-101"/>
      <use x="244.726562" xlink:href="#DejaVuSans-115"/>
     </g>
    </g>
   </g>
   <g id="line2d_28">
    <path clip-path="url(#p7773c812a6)" d="M 99.314375 285.718576 
L 133.160966 284.992172 
L 167.007557 286.708455 
L 200.854148 290.797328 
L 234.700739 296.158355 
L 268.54733 301.686235 
L 302.39392 306.142475 
L 336.240511 308.980216 
L 370.087102 310.85812 
L 403.933693 311.4275 
L 437.780284 311.477629 
L 471.626875 310.879365 
" style="fill:none;stroke:#1f77b4;stroke-linecap:square;stroke-width:3;"/>
   </g>
   <g id="line2d_29">
    <defs>
     <path d="M -3 3 
L 3 -3 
M -3 -3 
L 3 3 
" id="m61051d611f" style="stroke:#000000;"/>
    </defs>
    <g clip-path="url(#p7773c812a6)">
     <use style="stroke:#000000;" x="99.314375" xlink:href="#m61051d611f" y="141.355909"/>
     <use style="stroke:#000000;" x="133.160966" xlink:href="#m61051d611f" y="305.940325"/>
     <use style="stroke:#000000;" x="167.007557" xlink:href="#m61051d611f" y="255.849416"/>
     <use style="stroke:#000000;" x="200.854148" xlink:href="#m61051d611f" y="313.096169"/>
     <use style="stroke:#000000;" x="234.700739" xlink:href="#m61051d611f" y="316.674091"/>
     <use style="stroke:#000000;" x="268.54733" xlink:href="#m61051d611f" y="313.096169"/>
     <use style="stroke:#000000;" x="302.39392" xlink:href="#m61051d611f" y="313.096169"/>
     <use style="stroke:#000000;" x="336.240511" xlink:href="#m61051d611f" y="313.096169"/>
     <use style="stroke:#000000;" x="370.087102" xlink:href="#m61051d611f" y="313.096169"/>
     <use style="stroke:#000000;" x="403.933693" xlink:href="#m61051d611f" y="313.096169"/>
     <use style="stroke:#000000;" x="437.780284" xlink:href="#m61051d611f" y="313.096169"/>
     <use style="stroke:#000000;" x="471.626875" xlink:href="#m61051d611f" y="305.940325"/>
    </g>
   </g>
   <g id="patch_3">
    <path d="M 99.314375 325.44 
L 99.314375 132.59 
" style="fill:none;stroke:#000000;stroke-linecap:square;stroke-linejoin:miter;"/>
   </g>
   <g id="patch_4">
    <path d="M 471.626875 325.44 
L 471.626875 132.59 
" style="fill:none;stroke:#000000;stroke-linecap:square;stroke-linejoin:miter;"/>
   </g>
   <g id="patch_5">
    <path d="M 99.314375 325.44 
L 471.626875 325.44 
" style="fill:none;stroke:#000000;stroke-linecap:square;stroke-linejoin:miter;"/>
   </g>
   <g id="patch_6">
    <path d="M 99.314375 132.59 
L 471.626875 132.59 
" style="fill:none;stroke:#000000;stroke-linecap:square;stroke-linejoin:miter;"/>
   </g>
   <g id="text_20">
    <!-- Daily Cases -->
    <defs>
     <path d="M 19.671875 64.796875 
L 19.671875 8.109375 
L 31.59375 8.109375 
Q 46.6875 8.109375 53.6875 14.9375 
Q 60.6875 21.78125 60.6875 36.53125 
Q 60.6875 51.171875 53.6875 57.984375 
Q 46.6875 64.796875 31.59375 64.796875 
z
M 9.8125 72.90625 
L 30.078125 72.90625 
Q 51.265625 72.90625 61.171875 64.09375 
Q 71.09375 55.28125 71.09375 36.53125 
Q 71.09375 17.671875 61.125 8.828125 
Q 51.171875 0 30.078125 0 
L 9.8125 0 
z
" id="DejaVuSans-68"/>
     <path d="M 9.421875 54.6875 
L 18.40625 54.6875 
L 18.40625 0 
L 9.421875 0 
z
M 9.421875 75.984375 
L 18.40625 75.984375 
L 18.40625 64.59375 
L 9.421875 64.59375 
z
" id="DejaVuSans-105"/>
     <path d="M 9.421875 75.984375 
L 18.40625 75.984375 
L 18.40625 0 
L 9.421875 0 
z
" id="DejaVuSans-108"/>
     <path id="DejaVuSans-32"/>
    </defs>
    <g transform="translate(227.306563 117.59)scale(0.2 -0.2)">
     <use xlink:href="#DejaVuSans-68"/>
     <use x="77.001953" xlink:href="#DejaVuSans-97"/>
     <use x="138.28125" xlink:href="#DejaVuSans-105"/>
     <use x="166.064453" xlink:href="#DejaVuSans-108"/>
     <use x="193.847656" xlink:href="#DejaVuSans-121"/>
     <use x="253.027344" xlink:href="#DejaVuSans-32"/>
     <use x="284.814453" xlink:href="#DejaVuSans-67"/>
     <use x="354.638672" xlink:href="#DejaVuSans-97"/>
     <use x="415.917969" xlink:href="#DejaVuSans-115"/>
     <use x="468.017578" xlink:href="#DejaVuSans-101"/>
     <use x="529.541016" xlink:href="#DejaVuSans-115"/>
    </g>
   </g>
  </g>
  <g id="axes_2">
   <g id="patch_7">
    <path d="M 547.314375 325.44 
L 919.626875 325.44 
L 919.626875 132.59 
L 547.314375 132.59 
z
" style="fill:#ffffff;"/>
   </g>
   <g id="matplotlib.axis_3">
    <g id="xtick_13">
     <g id="line2d_30">
      <path clip-path="url(#pd372561b7b)" d="M 547.314375 325.44 
L 547.314375 132.59 
" style="fill:none;stroke:#000000;stroke-linecap:square;stroke-opacity:0.2;stroke-width:0.5;"/>
     </g>
     <g id="line2d_31">
      <g>
       <use style="stroke:#000000;stroke-width:0.8;" x="547.314375" xlink:href="#maf228ae6e7" y="325.44"/>
      </g>
     </g>
     <g id="text_21">
      <!-- 27 -->
      <g transform="translate(539.679375 341.558125)scale(0.12 -0.12)">
       <use xlink:href="#DejaVuSans-50"/>
       <use x="63.623047" xlink:href="#DejaVuSans-55"/>
      </g>
     </g>
    </g>
    <g id="xtick_14">
     <g id="line2d_32">
      <path clip-path="url(#pd372561b7b)" d="M 682.700739 325.44 
L 682.700739 132.59 
" style="fill:none;stroke:#000000;stroke-linecap:square;stroke-opacity:0.2;stroke-width:0.5;"/>
     </g>
     <g id="line2d_33">
      <g>
       <use style="stroke:#000000;stroke-width:0.8;" x="682.700739" xlink:href="#maf228ae6e7" y="325.44"/>
      </g>
     </g>
     <g id="text_22">
      <!-- 01 -->
      <g transform="translate(675.065739 341.558125)scale(0.12 -0.12)">
       <use xlink:href="#DejaVuSans-48"/>
       <use x="63.623047" xlink:href="#DejaVuSans-49"/>
      </g>
      <!-- May -->
      <g transform="translate(670.295739 354.9955)scale(0.12 -0.12)">
       <use xlink:href="#DejaVuSans-77"/>
       <use x="86.279297" xlink:href="#DejaVuSans-97"/>
       <use x="147.558594" xlink:href="#DejaVuSans-121"/>
      </g>
      <!-- 2020 -->
      <g transform="translate(667.430739 368.432875)scale(0.12 -0.12)">
       <use xlink:href="#DejaVuSans-50"/>
       <use x="63.623047" xlink:href="#DejaVuSans-48"/>
       <use x="127.246094" xlink:href="#DejaVuSans-50"/>
       <use x="190.869141" xlink:href="#DejaVuSans-48"/>
      </g>
     </g>
    </g>
    <g id="xtick_15">
     <g id="line2d_34">
      <path clip-path="url(#pd372561b7b)" d="M 919.626875 325.44 
L 919.626875 132.59 
" style="fill:none;stroke:#000000;stroke-linecap:square;stroke-opacity:0.2;stroke-width:0.5;"/>
     </g>
     <g id="line2d_35">
      <g>
       <use style="stroke:#000000;stroke-width:0.8;" x="919.626875" xlink:href="#maf228ae6e7" y="325.44"/>
      </g>
     </g>
     <g id="text_23">
      <!-- 08 -->
      <g transform="translate(911.991875 341.558125)scale(0.12 -0.12)">
       <use xlink:href="#DejaVuSans-48"/>
       <use x="63.623047" xlink:href="#DejaVuSans-56"/>
      </g>
     </g>
    </g>
    <g id="xtick_16">
     <g id="line2d_36">
      <g>
       <use style="stroke:#000000;stroke-width:0.6;" x="581.160966" xlink:href="#ma067b769eb" y="325.44"/>
      </g>
     </g>
     <g id="text_24">
      <!-- 28 -->
      <g transform="translate(573.525966 339.958125)scale(0.12 -0.12)">
       <use xlink:href="#DejaVuSans-50"/>
       <use x="63.623047" xlink:href="#DejaVuSans-56"/>
      </g>
     </g>
    </g>
    <g id="xtick_17">
     <g id="line2d_37">
      <g>
       <use style="stroke:#000000;stroke-width:0.6;" x="615.007557" xlink:href="#ma067b769eb" y="325.44"/>
      </g>
     </g>
     <g id="text_25">
      <!-- 29 -->
      <g transform="translate(607.372557 339.958125)scale(0.12 -0.12)">
       <use xlink:href="#DejaVuSans-50"/>
       <use x="63.623047" xlink:href="#DejaVuSans-57"/>
      </g>
     </g>
    </g>
    <g id="xtick_18">
     <g id="line2d_38">
      <g>
       <use style="stroke:#000000;stroke-width:0.6;" x="648.854148" xlink:href="#ma067b769eb" y="325.44"/>
      </g>
     </g>
     <g id="text_26">
      <!-- 30 -->
      <g transform="translate(641.219148 339.958125)scale(0.12 -0.12)">
       <use xlink:href="#DejaVuSans-51"/>
       <use x="63.623047" xlink:href="#DejaVuSans-48"/>
      </g>
     </g>
    </g>
    <g id="xtick_19">
     <g id="line2d_39">
      <g>
       <use style="stroke:#000000;stroke-width:0.6;" x="716.54733" xlink:href="#ma067b769eb" y="325.44"/>
      </g>
     </g>
     <g id="text_27">
      <!-- 02 -->
      <g transform="translate(708.91233 339.958125)scale(0.12 -0.12)">
       <use xlink:href="#DejaVuSans-48"/>
       <use x="63.623047" xlink:href="#DejaVuSans-50"/>
      </g>
     </g>
    </g>
    <g id="xtick_20">
     <g id="line2d_40">
      <g>
       <use style="stroke:#000000;stroke-width:0.6;" x="750.39392" xlink:href="#ma067b769eb" y="325.44"/>
      </g>
     </g>
     <g id="text_28">
      <!-- 03 -->
      <g transform="translate(742.75892 339.958125)scale(0.12 -0.12)">
       <use xlink:href="#DejaVuSans-48"/>
       <use x="63.623047" xlink:href="#DejaVuSans-51"/>
      </g>
     </g>
    </g>
    <g id="xtick_21">
     <g id="line2d_41">
      <g>
       <use style="stroke:#000000;stroke-width:0.6;" x="784.240511" xlink:href="#ma067b769eb" y="325.44"/>
      </g>
     </g>
     <g id="text_29">
      <!-- 04 -->
      <g transform="translate(776.605511 339.958125)scale(0.12 -0.12)">
       <use xlink:href="#DejaVuSans-48"/>
       <use x="63.623047" xlink:href="#DejaVuSans-52"/>
      </g>
     </g>
    </g>
    <g id="xtick_22">
     <g id="line2d_42">
      <g>
       <use style="stroke:#000000;stroke-width:0.6;" x="818.087102" xlink:href="#ma067b769eb" y="325.44"/>
      </g>
     </g>
     <g id="text_30">
      <!-- 05 -->
      <g transform="translate(810.452102 339.958125)scale(0.12 -0.12)">
       <use xlink:href="#DejaVuSans-48"/>
       <use x="63.623047" xlink:href="#DejaVuSans-53"/>
      </g>
     </g>
    </g>
    <g id="xtick_23">
     <g id="line2d_43">
      <g>
       <use style="stroke:#000000;stroke-width:0.6;" x="851.933693" xlink:href="#ma067b769eb" y="325.44"/>
      </g>
     </g>
     <g id="text_31">
      <!-- 06 -->
      <g transform="translate(844.298693 339.958125)scale(0.12 -0.12)">
       <use xlink:href="#DejaVuSans-48"/>
       <use x="63.623047" xlink:href="#DejaVuSans-54"/>
      </g>
     </g>
    </g>
    <g id="xtick_24">
     <g id="line2d_44">
      <g>
       <use style="stroke:#000000;stroke-width:0.6;" x="885.780284" xlink:href="#ma067b769eb" y="325.44"/>
      </g>
     </g>
     <g id="text_32">
      <!-- 07 -->
      <g transform="translate(878.145284 339.958125)scale(0.12 -0.12)">
       <use xlink:href="#DejaVuSans-48"/>
       <use x="63.623047" xlink:href="#DejaVuSans-55"/>
      </g>
     </g>
    </g>
   </g>
   <g id="matplotlib.axis_4">
    <g id="ytick_7">
     <g id="line2d_45">
      <path clip-path="url(#pd372561b7b)" d="M 547.314375 299.816573 
L 919.626875 299.816573 
" style="fill:none;stroke:#000000;stroke-linecap:square;stroke-opacity:0.2;stroke-width:0.5;"/>
     </g>
     <g id="line2d_46">
      <g>
       <use style="stroke:#000000;stroke-width:0.8;" x="547.314375" xlink:href="#mba20733cc7" y="299.816573"/>
      </g>
     </g>
     <g id="text_33">
      <!-- 70 -->
      <g transform="translate(525.044375 304.375636)scale(0.12 -0.12)">
       <use xlink:href="#DejaVuSans-55"/>
       <use x="63.623047" xlink:href="#DejaVuSans-48"/>
      </g>
     </g>
    </g>
    <g id="ytick_8">
     <g id="line2d_47">
      <path clip-path="url(#pd372561b7b)" d="M 547.314375 266.101538 
L 919.626875 266.101538 
" style="fill:none;stroke:#000000;stroke-linecap:square;stroke-opacity:0.2;stroke-width:0.5;"/>
     </g>
     <g id="line2d_48">
      <g>
       <use style="stroke:#000000;stroke-width:0.8;" x="547.314375" xlink:href="#mba20733cc7" y="266.101538"/>
      </g>
     </g>
     <g id="text_34">
      <!-- 80 -->
      <g transform="translate(525.044375 270.660601)scale(0.12 -0.12)">
       <use xlink:href="#DejaVuSans-56"/>
       <use x="63.623047" xlink:href="#DejaVuSans-48"/>
      </g>
     </g>
    </g>
    <g id="ytick_9">
     <g id="line2d_49">
      <path clip-path="url(#pd372561b7b)" d="M 547.314375 232.386503 
L 919.626875 232.386503 
" style="fill:none;stroke:#000000;stroke-linecap:square;stroke-opacity:0.2;stroke-width:0.5;"/>
     </g>
     <g id="line2d_50">
      <g>
       <use style="stroke:#000000;stroke-width:0.8;" x="547.314375" xlink:href="#mba20733cc7" y="232.386503"/>
      </g>
     </g>
     <g id="text_35">
      <!-- 90 -->
      <g transform="translate(525.044375 236.945566)scale(0.12 -0.12)">
       <use xlink:href="#DejaVuSans-57"/>
       <use x="63.623047" xlink:href="#DejaVuSans-48"/>
      </g>
     </g>
    </g>
    <g id="ytick_10">
     <g id="line2d_51">
      <path clip-path="url(#pd372561b7b)" d="M 547.314375 198.671469 
L 919.626875 198.671469 
" style="fill:none;stroke:#000000;stroke-linecap:square;stroke-opacity:0.2;stroke-width:0.5;"/>
     </g>
     <g id="line2d_52">
      <g>
       <use style="stroke:#000000;stroke-width:0.8;" x="547.314375" xlink:href="#mba20733cc7" y="198.671469"/>
      </g>
     </g>
     <g id="text_36">
      <!-- 100 -->
      <g transform="translate(517.409375 203.230531)scale(0.12 -0.12)">
       <use xlink:href="#DejaVuSans-49"/>
       <use x="63.623047" xlink:href="#DejaVuSans-48"/>
       <use x="127.246094" xlink:href="#DejaVuSans-48"/>
      </g>
     </g>
    </g>
    <g id="ytick_11">
     <g id="line2d_53">
      <path clip-path="url(#pd372561b7b)" d="M 547.314375 164.956434 
L 919.626875 164.956434 
" style="fill:none;stroke:#000000;stroke-linecap:square;stroke-opacity:0.2;stroke-width:0.5;"/>
     </g>
     <g id="line2d_54">
      <g>
       <use style="stroke:#000000;stroke-width:0.8;" x="547.314375" xlink:href="#mba20733cc7" y="164.956434"/>
      </g>
     </g>
     <g id="text_37">
      <!-- 110 -->
      <g transform="translate(517.409375 169.515496)scale(0.12 -0.12)">
       <use xlink:href="#DejaVuSans-49"/>
       <use x="63.623047" xlink:href="#DejaVuSans-49"/>
       <use x="127.246094" xlink:href="#DejaVuSans-48"/>
      </g>
     </g>
    </g>
    <g id="text_38">
     <!-- Cases -->
     <g transform="translate(510.497813 249.792969)rotate(-90)scale(0.14 -0.14)">
      <use xlink:href="#DejaVuSans-67"/>
      <use x="69.824219" xlink:href="#DejaVuSans-97"/>
      <use x="131.103516" xlink:href="#DejaVuSans-115"/>
      <use x="183.203125" xlink:href="#DejaVuSans-101"/>
      <use x="244.726562" xlink:href="#DejaVuSans-115"/>
     </g>
    </g>
   </g>
   <g id="line2d_55">
    <path clip-path="url(#pd372561b7b)" d="M 547.314375 316.674091 
L 581.160966 299.816573 
L 615.007557 235.758007 
L 648.854148 225.643497 
L 682.700739 218.90049 
L 716.54733 208.785979 
L 750.39392 198.671469 
L 784.240511 188.556958 
L 818.087102 178.442448 
L 851.933693 168.327937 
L 885.780284 158.213427 
L 919.626875 141.355909 
" style="fill:none;stroke:#1f77b4;stroke-linecap:square;stroke-width:3;"/>
   </g>
   <g id="patch_8">
    <path d="M 547.314375 325.44 
L 547.314375 132.59 
" style="fill:none;stroke:#000000;stroke-linecap:square;stroke-linejoin:miter;"/>
   </g>
   <g id="patch_9">
    <path d="M 919.626875 325.44 
L 919.626875 132.59 
" style="fill:none;stroke:#000000;stroke-linecap:square;stroke-linejoin:miter;"/>
   </g>
   <g id="patch_10">
    <path d="M 547.314375 325.44 
L 919.626875 325.44 
" style="fill:none;stroke:#000000;stroke-linecap:square;stroke-linejoin:miter;"/>
   </g>
   <g id="patch_11">
    <path d="M 547.314375 132.59 
L 919.626875 132.59 
" style="fill:none;stroke:#000000;stroke-linecap:square;stroke-linejoin:miter;"/>
   </g>
   <g id="text_39">
    <!-- Cumulative Cases -->
    <defs>
     <path d="M 8.5 21.578125 
L 8.5 54.6875 
L 17.484375 54.6875 
L 17.484375 21.921875 
Q 17.484375 14.15625 20.5 10.265625 
Q 23.53125 6.390625 29.59375 6.390625 
Q 36.859375 6.390625 41.078125 11.03125 
Q 45.3125 15.671875 45.3125 23.6875 
L 45.3125 54.6875 
L 54.296875 54.6875 
L 54.296875 0 
L 45.3125 0 
L 45.3125 8.40625 
Q 42.046875 3.421875 37.71875 1 
Q 33.40625 -1.421875 27.6875 -1.421875 
Q 18.265625 -1.421875 13.375 4.4375 
Q 8.5 10.296875 8.5 21.578125 
z
M 31.109375 56 
z
" id="DejaVuSans-117"/>
     <path d="M 52 44.1875 
Q 55.375 50.25 60.0625 53.125 
Q 64.75 56 71.09375 56 
Q 79.640625 56 84.28125 50.015625 
Q 88.921875 44.046875 88.921875 33.015625 
L 88.921875 0 
L 79.890625 0 
L 79.890625 32.71875 
Q 79.890625 40.578125 77.09375 44.375 
Q 74.3125 48.1875 68.609375 48.1875 
Q 61.625 48.1875 57.5625 43.546875 
Q 53.515625 38.921875 53.515625 30.90625 
L 53.515625 0 
L 44.484375 0 
L 44.484375 32.71875 
Q 44.484375 40.625 41.703125 44.40625 
Q 38.921875 48.1875 33.109375 48.1875 
Q 26.21875 48.1875 22.15625 43.53125 
Q 18.109375 38.875 18.109375 30.90625 
L 18.109375 0 
L 9.078125 0 
L 9.078125 54.6875 
L 18.109375 54.6875 
L 18.109375 46.1875 
Q 21.1875 51.21875 25.484375 53.609375 
Q 29.78125 56 35.6875 56 
Q 41.65625 56 45.828125 52.96875 
Q 50 49.953125 52 44.1875 
z
" id="DejaVuSans-109"/>
     <path d="M 18.3125 70.21875 
L 18.3125 54.6875 
L 36.8125 54.6875 
L 36.8125 47.703125 
L 18.3125 47.703125 
L 18.3125 18.015625 
Q 18.3125 11.328125 20.140625 9.421875 
Q 21.96875 7.515625 27.59375 7.515625 
L 36.8125 7.515625 
L 36.8125 0 
L 27.59375 0 
Q 17.1875 0 13.234375 3.875 
Q 9.28125 7.765625 9.28125 18.015625 
L 9.28125 47.703125 
L 2.6875 47.703125 
L 2.6875 54.6875 
L 9.28125 54.6875 
L 9.28125 70.21875 
z
" id="DejaVuSans-116"/>
     <path d="M 2.984375 54.6875 
L 12.5 54.6875 
L 29.59375 8.796875 
L 46.6875 54.6875 
L 56.203125 54.6875 
L 35.6875 0 
L 23.484375 0 
z
" id="DejaVuSans-118"/>
    </defs>
    <g transform="translate(643.534688 117.59)scale(0.2 -0.2)">
     <use xlink:href="#DejaVuSans-67"/>
     <use x="69.824219" xlink:href="#DejaVuSans-117"/>
     <use x="133.203125" xlink:href="#DejaVuSans-109"/>
     <use x="230.615234" xlink:href="#DejaVuSans-117"/>
     <use x="293.994141" xlink:href="#DejaVuSans-108"/>
     <use x="321.777344" xlink:href="#DejaVuSans-97"/>
     <use x="383.056641" xlink:href="#DejaVuSans-116"/>
     <use x="422.265625" xlink:href="#DejaVuSans-105"/>
     <use x="450.048828" xlink:href="#DejaVuSans-118"/>
     <use x="509.228516" xlink:href="#DejaVuSans-101"/>
     <use x="570.751953" xlink:href="#DejaVuSans-32"/>
     <use x="602.539062" xlink:href="#DejaVuSans-67"/>
     <use x="672.363281" xlink:href="#DejaVuSans-97"/>
     <use x="733.642578" xlink:href="#DejaVuSans-115"/>
     <use x="785.742188" xlink:href="#DejaVuSans-101"/>
     <use x="847.265625" xlink:href="#DejaVuSans-115"/>
    </g>
   </g>
  </g>
  <g id="axes_3">
   <g id="patch_12">
    <path d="M 99.314375 612.04 
L 471.626875 612.04 
L 471.626875 419.19 
L 99.314375 419.19 
z
" style="fill:#ffffff;"/>
   </g>
   <g id="matplotlib.axis_5">
    <g id="xtick_25">
     <g id="line2d_56">
      <path clip-path="url(#pc2294b49bb)" d="M 99.314375 612.04 
L 99.314375 419.19 
" style="fill:none;stroke:#000000;stroke-linecap:square;stroke-opacity:0.2;stroke-width:0.5;"/>
     </g>
     <g id="line2d_57">
      <g>
       <use style="stroke:#000000;stroke-width:0.8;" x="99.314375" xlink:href="#maf228ae6e7" y="612.04"/>
      </g>
     </g>
     <g id="text_40">
      <!-- 27 -->
      <g transform="translate(91.679375 628.158125)scale(0.12 -0.12)">
       <use xlink:href="#DejaVuSans-50"/>
       <use x="63.623047" xlink:href="#DejaVuSans-55"/>
      </g>
     </g>
    </g>
    <g id="xtick_26">
     <g id="line2d_58">
      <path clip-path="url(#pc2294b49bb)" d="M 234.700739 612.04 
L 234.700739 419.19 
" style="fill:none;stroke:#000000;stroke-linecap:square;stroke-opacity:0.2;stroke-width:0.5;"/>
     </g>
     <g id="line2d_59">
      <g>
       <use style="stroke:#000000;stroke-width:0.8;" x="234.700739" xlink:href="#maf228ae6e7" y="612.04"/>
      </g>
     </g>
     <g id="text_41">
      <!-- 01 -->
      <g transform="translate(227.065739 628.158125)scale(0.12 -0.12)">
       <use xlink:href="#DejaVuSans-48"/>
       <use x="63.623047" xlink:href="#DejaVuSans-49"/>
      </g>
      <!-- May -->
      <g transform="translate(222.295739 641.5955)scale(0.12 -0.12)">
       <use xlink:href="#DejaVuSans-77"/>
       <use x="86.279297" xlink:href="#DejaVuSans-97"/>
       <use x="147.558594" xlink:href="#DejaVuSans-121"/>
      </g>
      <!-- 2020 -->
      <g transform="translate(219.430739 655.032875)scale(0.12 -0.12)">
       <use xlink:href="#DejaVuSans-50"/>
       <use x="63.623047" xlink:href="#DejaVuSans-48"/>
       <use x="127.246094" xlink:href="#DejaVuSans-50"/>
       <use x="190.869141" xlink:href="#DejaVuSans-48"/>
      </g>
     </g>
    </g>
    <g id="xtick_27">
     <g id="line2d_60">
      <path clip-path="url(#pc2294b49bb)" d="M 471.626875 612.04 
L 471.626875 419.19 
" style="fill:none;stroke:#000000;stroke-linecap:square;stroke-opacity:0.2;stroke-width:0.5;"/>
     </g>
     <g id="line2d_61">
      <g>
       <use style="stroke:#000000;stroke-width:0.8;" x="471.626875" xlink:href="#maf228ae6e7" y="612.04"/>
      </g>
     </g>
     <g id="text_42">
      <!-- 08 -->
      <g transform="translate(463.991875 628.158125)scale(0.12 -0.12)">
       <use xlink:href="#DejaVuSans-48"/>
       <use x="63.623047" xlink:href="#DejaVuSans-56"/>
      </g>
     </g>
    </g>
    <g id="xtick_28">
     <g id="line2d_62">
      <g>
       <use style="stroke:#000000;stroke-width:0.6;" x="133.160966" xlink:href="#ma067b769eb" y="612.04"/>
      </g>
     </g>
     <g id="text_43">
      <!-- 28 -->
      <g transform="translate(125.525966 626.558125)scale(0.12 -0.12)">
       <use xlink:href="#DejaVuSans-50"/>
       <use x="63.623047" xlink:href="#DejaVuSans-56"/>
      </g>
     </g>
    </g>
    <g id="xtick_29">
     <g id="line2d_63">
      <g>
       <use style="stroke:#000000;stroke-width:0.6;" x="167.007557" xlink:href="#ma067b769eb" y="612.04"/>
      </g>
     </g>
     <g id="text_44">
      <!-- 29 -->
      <g transform="translate(159.372557 626.558125)scale(0.12 -0.12)">
       <use xlink:href="#DejaVuSans-50"/>
       <use x="63.623047" xlink:href="#DejaVuSans-57"/>
      </g>
     </g>
    </g>
    <g id="xtick_30">
     <g id="line2d_64">
      <g>
       <use style="stroke:#000000;stroke-width:0.6;" x="200.854148" xlink:href="#ma067b769eb" y="612.04"/>
      </g>
     </g>
     <g id="text_45">
      <!-- 30 -->
      <g transform="translate(193.219148 626.558125)scale(0.12 -0.12)">
       <use xlink:href="#DejaVuSans-51"/>
       <use x="63.623047" xlink:href="#DejaVuSans-48"/>
      </g>
     </g>
    </g>
    <g id="xtick_31">
     <g id="line2d_65">
      <g>
       <use style="stroke:#000000;stroke-width:0.6;" x="268.54733" xlink:href="#ma067b769eb" y="612.04"/>
      </g>
     </g>
     <g id="text_46">
      <!-- 02 -->
      <g transform="translate(260.91233 626.558125)scale(0.12 -0.12)">
       <use xlink:href="#DejaVuSans-48"/>
       <use x="63.623047" xlink:href="#DejaVuSans-50"/>
      </g>
     </g>
    </g>
    <g id="xtick_32">
     <g id="line2d_66">
      <g>
       <use style="stroke:#000000;stroke-width:0.6;" x="302.39392" xlink:href="#ma067b769eb" y="612.04"/>
      </g>
     </g>
     <g id="text_47">
      <!-- 03 -->
      <g transform="translate(294.75892 626.558125)scale(0.12 -0.12)">
       <use xlink:href="#DejaVuSans-48"/>
       <use x="63.623047" xlink:href="#DejaVuSans-51"/>
      </g>
     </g>
    </g>
    <g id="xtick_33">
     <g id="line2d_67">
      <g>
       <use style="stroke:#000000;stroke-width:0.6;" x="336.240511" xlink:href="#ma067b769eb" y="612.04"/>
      </g>
     </g>
     <g id="text_48">
      <!-- 04 -->
      <g transform="translate(328.605511 626.558125)scale(0.12 -0.12)">
       <use xlink:href="#DejaVuSans-48"/>
       <use x="63.623047" xlink:href="#DejaVuSans-52"/>
      </g>
     </g>
    </g>
    <g id="xtick_34">
     <g id="line2d_68">
      <g>
       <use style="stroke:#000000;stroke-width:0.6;" x="370.087102" xlink:href="#ma067b769eb" y="612.04"/>
      </g>
     </g>
     <g id="text_49">
      <!-- 05 -->
      <g transform="translate(362.452102 626.558125)scale(0.12 -0.12)">
       <use xlink:href="#DejaVuSans-48"/>
       <use x="63.623047" xlink:href="#DejaVuSans-53"/>
      </g>
     </g>
    </g>
    <g id="xtick_35">
     <g id="line2d_69">
      <g>
       <use style="stroke:#000000;stroke-width:0.6;" x="403.933693" xlink:href="#ma067b769eb" y="612.04"/>
      </g>
     </g>
     <g id="text_50">
      <!-- 06 -->
      <g transform="translate(396.298693 626.558125)scale(0.12 -0.12)">
       <use xlink:href="#DejaVuSans-48"/>
       <use x="63.623047" xlink:href="#DejaVuSans-54"/>
      </g>
     </g>
    </g>
    <g id="xtick_36">
     <g id="line2d_70">
      <g>
       <use style="stroke:#000000;stroke-width:0.6;" x="437.780284" xlink:href="#ma067b769eb" y="612.04"/>
      </g>
     </g>
     <g id="text_51">
      <!-- 07 -->
      <g transform="translate(430.145284 626.558125)scale(0.12 -0.12)">
       <use xlink:href="#DejaVuSans-48"/>
       <use x="63.623047" xlink:href="#DejaVuSans-55"/>
      </g>
     </g>
    </g>
   </g>
   <g id="matplotlib.axis_6">
    <g id="ytick_12">
     <g id="line2d_71">
      <path clip-path="url(#pc2294b49bb)" d="M 99.314375 594.642815 
L 471.626875 594.642815 
" style="fill:none;stroke:#000000;stroke-linecap:square;stroke-opacity:0.2;stroke-width:0.5;"/>
     </g>
     <g id="line2d_72">
      <g>
       <use style="stroke:#000000;stroke-width:0.8;" x="99.314375" xlink:href="#mba20733cc7" y="594.642815"/>
      </g>
     </g>
     <g id="text_52">
      <!-- −0.05 -->
      <defs>
       <path d="M 10.59375 35.5 
L 73.1875 35.5 
L 73.1875 27.203125 
L 10.59375 27.203125 
z
" id="DejaVuSans-8722"/>
       <path d="M 10.6875 12.40625 
L 21 12.40625 
L 21 0 
L 10.6875 0 
z
" id="DejaVuSans-46"/>
      </defs>
      <g transform="translate(55.54 599.201877)scale(0.12 -0.12)">
       <use xlink:href="#DejaVuSans-8722"/>
       <use x="83.789062" xlink:href="#DejaVuSans-48"/>
       <use x="147.412109" xlink:href="#DejaVuSans-46"/>
       <use x="179.199219" xlink:href="#DejaVuSans-48"/>
       <use x="242.822266" xlink:href="#DejaVuSans-53"/>
      </g>
     </g>
    </g>
    <g id="ytick_13">
     <g id="line2d_73">
      <path clip-path="url(#pc2294b49bb)" d="M 99.314375 556.332738 
L 471.626875 556.332738 
" style="fill:none;stroke:#000000;stroke-linecap:square;stroke-opacity:0.2;stroke-width:0.5;"/>
     </g>
     <g id="line2d_74">
      <g>
       <use style="stroke:#000000;stroke-width:0.8;" x="99.314375" xlink:href="#mba20733cc7" y="556.332738"/>
      </g>
     </g>
     <g id="text_53">
      <!-- 0.00 -->
      <g transform="translate(65.595625 560.8918)scale(0.12 -0.12)">
       <use xlink:href="#DejaVuSans-48"/>
       <use x="63.623047" xlink:href="#DejaVuSans-46"/>
       <use x="95.410156" xlink:href="#DejaVuSans-48"/>
       <use x="159.033203" xlink:href="#DejaVuSans-48"/>
      </g>
     </g>
    </g>
    <g id="ytick_14">
     <g id="line2d_75">
      <path clip-path="url(#pc2294b49bb)" d="M 99.314375 518.022661 
L 471.626875 518.022661 
" style="fill:none;stroke:#000000;stroke-linecap:square;stroke-opacity:0.2;stroke-width:0.5;"/>
     </g>
     <g id="line2d_76">
      <g>
       <use style="stroke:#000000;stroke-width:0.8;" x="99.314375" xlink:href="#mba20733cc7" y="518.022661"/>
      </g>
     </g>
     <g id="text_54">
      <!-- 0.05 -->
      <g transform="translate(65.595625 522.581723)scale(0.12 -0.12)">
       <use xlink:href="#DejaVuSans-48"/>
       <use x="63.623047" xlink:href="#DejaVuSans-46"/>
       <use x="95.410156" xlink:href="#DejaVuSans-48"/>
       <use x="159.033203" xlink:href="#DejaVuSans-53"/>
      </g>
     </g>
    </g>
    <g id="ytick_15">
     <g id="line2d_77">
      <path clip-path="url(#pc2294b49bb)" d="M 99.314375 479.712584 
L 471.626875 479.712584 
" style="fill:none;stroke:#000000;stroke-linecap:square;stroke-opacity:0.2;stroke-width:0.5;"/>
     </g>
     <g id="line2d_78">
      <g>
       <use style="stroke:#000000;stroke-width:0.8;" x="99.314375" xlink:href="#mba20733cc7" y="479.712584"/>
      </g>
     </g>
     <g id="text_55">
      <!-- 0.10 -->
      <g transform="translate(65.595625 484.271646)scale(0.12 -0.12)">
       <use xlink:href="#DejaVuSans-48"/>
       <use x="63.623047" xlink:href="#DejaVuSans-46"/>
       <use x="95.410156" xlink:href="#DejaVuSans-49"/>
       <use x="159.033203" xlink:href="#DejaVuSans-48"/>
      </g>
     </g>
    </g>
    <g id="ytick_16">
     <g id="line2d_79">
      <path clip-path="url(#pc2294b49bb)" d="M 99.314375 441.402507 
L 471.626875 441.402507 
" style="fill:none;stroke:#000000;stroke-linecap:square;stroke-opacity:0.2;stroke-width:0.5;"/>
     </g>
     <g id="line2d_80">
      <g>
       <use style="stroke:#000000;stroke-width:0.8;" x="99.314375" xlink:href="#mba20733cc7" y="441.402507"/>
      </g>
     </g>
     <g id="text_56">
      <!-- 0.15 -->
      <g transform="translate(65.595625 445.961569)scale(0.12 -0.12)">
       <use xlink:href="#DejaVuSans-48"/>
       <use x="63.623047" xlink:href="#DejaVuSans-46"/>
       <use x="95.410156" xlink:href="#DejaVuSans-49"/>
       <use x="159.033203" xlink:href="#DejaVuSans-53"/>
      </g>
     </g>
    </g>
    <g id="text_57">
     <!-- Days${}^{-1}$ -->
     <g transform="translate(48.6 540.605)rotate(-90)scale(0.14 -0.14)">
      <use transform="translate(0 0.684375)" xlink:href="#DejaVuSans-68"/>
      <use transform="translate(77.001953 0.684375)" xlink:href="#DejaVuSans-97"/>
      <use transform="translate(138.28125 0.684375)" xlink:href="#DejaVuSans-121"/>
      <use transform="translate(197.460938 0.684375)" xlink:href="#DejaVuSans-115"/>
      <use transform="translate(250.517578 38.965625)scale(0.7)" xlink:href="#DejaVuSans-8722"/>
      <use transform="translate(309.169922 38.965625)scale(0.7)" xlink:href="#DejaVuSans-49"/>
     </g>
    </g>
   </g>
   <g id="line2d_81">
    <path clip-path="url(#pc2294b49bb)" d="M 99.314375 427.955909 
L 133.160966 448.3055 
L 167.007557 472.623266 
L 200.854148 498.479164 
L 234.700739 523.504707 
L 268.54733 545.810122 
L 302.39392 563.837095 
L 336.240511 579.018987 
L 370.087102 590.925876 
L 403.933693 599.115232 
L 437.780284 603.226007 
L 471.626875 603.274091 
" style="fill:none;stroke:#1f77b4;stroke-linecap:square;stroke-width:3;"/>
   </g>
   <g id="line2d_82">
    <path clip-path="url(#pc2294b49bb)" d="M 99.314375 556.332738 
L 471.626875 556.332738 
" style="fill:none;stroke:#000000;stroke-linecap:square;stroke-opacity:0.4;stroke-width:2;"/>
   </g>
   <g id="patch_13">
    <path d="M 99.314375 612.04 
L 99.314375 419.19 
" style="fill:none;stroke:#000000;stroke-linecap:square;stroke-linejoin:miter;"/>
   </g>
   <g id="patch_14">
    <path d="M 471.626875 612.04 
L 471.626875 419.19 
" style="fill:none;stroke:#000000;stroke-linecap:square;stroke-linejoin:miter;"/>
   </g>
   <g id="patch_15">
    <path d="M 99.314375 612.04 
L 471.626875 612.04 
" style="fill:none;stroke:#000000;stroke-linecap:square;stroke-linejoin:miter;"/>
   </g>
   <g id="patch_16">
    <path d="M 99.314375 419.19 
L 471.626875 419.19 
" style="fill:none;stroke:#000000;stroke-linecap:square;stroke-linejoin:miter;"/>
   </g>
   <g id="text_58">
    <!-- Logarithmic Growth Rate -->
    <defs>
     <path d="M 9.8125 72.90625 
L 19.671875 72.90625 
L 19.671875 8.296875 
L 55.171875 8.296875 
L 55.171875 0 
L 9.8125 0 
z
" id="DejaVuSans-76"/>
     <path d="M 30.609375 48.390625 
Q 23.390625 48.390625 19.1875 42.75 
Q 14.984375 37.109375 14.984375 27.296875 
Q 14.984375 17.484375 19.15625 11.84375 
Q 23.34375 6.203125 30.609375 6.203125 
Q 37.796875 6.203125 41.984375 11.859375 
Q 46.1875 17.53125 46.1875 27.296875 
Q 46.1875 37.015625 41.984375 42.703125 
Q 37.796875 48.390625 30.609375 48.390625 
z
M 30.609375 56 
Q 42.328125 56 49.015625 48.375 
Q 55.71875 40.765625 55.71875 27.296875 
Q 55.71875 13.875 49.015625 6.21875 
Q 42.328125 -1.421875 30.609375 -1.421875 
Q 18.84375 -1.421875 12.171875 6.21875 
Q 5.515625 13.875 5.515625 27.296875 
Q 5.515625 40.765625 12.171875 48.375 
Q 18.84375 56 30.609375 56 
z
" id="DejaVuSans-111"/>
     <path d="M 45.40625 27.984375 
Q 45.40625 37.75 41.375 43.109375 
Q 37.359375 48.484375 30.078125 48.484375 
Q 22.859375 48.484375 18.828125 43.109375 
Q 14.796875 37.75 14.796875 27.984375 
Q 14.796875 18.265625 18.828125 12.890625 
Q 22.859375 7.515625 30.078125 7.515625 
Q 37.359375 7.515625 41.375 12.890625 
Q 45.40625 18.265625 45.40625 27.984375 
z
M 54.390625 6.78125 
Q 54.390625 -7.171875 48.1875 -13.984375 
Q 42 -20.796875 29.203125 -20.796875 
Q 24.46875 -20.796875 20.265625 -20.09375 
Q 16.0625 -19.390625 12.109375 -17.921875 
L 12.109375 -9.1875 
Q 16.0625 -11.328125 19.921875 -12.34375 
Q 23.78125 -13.375 27.78125 -13.375 
Q 36.625 -13.375 41.015625 -8.765625 
Q 45.40625 -4.15625 45.40625 5.171875 
L 45.40625 9.625 
Q 42.625 4.78125 38.28125 2.390625 
Q 33.9375 0 27.875 0 
Q 17.828125 0 11.671875 7.65625 
Q 5.515625 15.328125 5.515625 27.984375 
Q 5.515625 40.671875 11.671875 48.328125 
Q 17.828125 56 27.875 56 
Q 33.9375 56 38.28125 53.609375 
Q 42.625 51.21875 45.40625 46.390625 
L 45.40625 54.6875 
L 54.390625 54.6875 
z
" id="DejaVuSans-103"/>
     <path d="M 41.109375 46.296875 
Q 39.59375 47.171875 37.8125 47.578125 
Q 36.03125 48 33.890625 48 
Q 26.265625 48 22.1875 43.046875 
Q 18.109375 38.09375 18.109375 28.8125 
L 18.109375 0 
L 9.078125 0 
L 9.078125 54.6875 
L 18.109375 54.6875 
L 18.109375 46.1875 
Q 20.953125 51.171875 25.484375 53.578125 
Q 30.03125 56 36.53125 56 
Q 37.453125 56 38.578125 55.875 
Q 39.703125 55.765625 41.0625 55.515625 
z
" id="DejaVuSans-114"/>
     <path d="M 54.890625 33.015625 
L 54.890625 0 
L 45.90625 0 
L 45.90625 32.71875 
Q 45.90625 40.484375 42.875 44.328125 
Q 39.84375 48.1875 33.796875 48.1875 
Q 26.515625 48.1875 22.3125 43.546875 
Q 18.109375 38.921875 18.109375 30.90625 
L 18.109375 0 
L 9.078125 0 
L 9.078125 75.984375 
L 18.109375 75.984375 
L 18.109375 46.1875 
Q 21.34375 51.125 25.703125 53.5625 
Q 30.078125 56 35.796875 56 
Q 45.21875 56 50.046875 50.171875 
Q 54.890625 44.34375 54.890625 33.015625 
z
" id="DejaVuSans-104"/>
     <path d="M 48.78125 52.59375 
L 48.78125 44.1875 
Q 44.96875 46.296875 41.140625 47.34375 
Q 37.3125 48.390625 33.40625 48.390625 
Q 24.65625 48.390625 19.8125 42.84375 
Q 14.984375 37.3125 14.984375 27.296875 
Q 14.984375 17.28125 19.8125 11.734375 
Q 24.65625 6.203125 33.40625 6.203125 
Q 37.3125 6.203125 41.140625 7.25 
Q 44.96875 8.296875 48.78125 10.40625 
L 48.78125 2.09375 
Q 45.015625 0.34375 40.984375 -0.53125 
Q 36.96875 -1.421875 32.421875 -1.421875 
Q 20.0625 -1.421875 12.78125 6.34375 
Q 5.515625 14.109375 5.515625 27.296875 
Q 5.515625 40.671875 12.859375 48.328125 
Q 20.21875 56 33.015625 56 
Q 37.15625 56 41.109375 55.140625 
Q 45.0625 54.296875 48.78125 52.59375 
z
" id="DejaVuSans-99"/>
     <path d="M 59.515625 10.40625 
L 59.515625 29.984375 
L 43.40625 29.984375 
L 43.40625 38.09375 
L 69.28125 38.09375 
L 69.28125 6.78125 
Q 63.578125 2.734375 56.6875 0.65625 
Q 49.8125 -1.421875 42 -1.421875 
Q 24.90625 -1.421875 15.25 8.5625 
Q 5.609375 18.5625 5.609375 36.375 
Q 5.609375 54.25 15.25 64.234375 
Q 24.90625 74.21875 42 74.21875 
Q 49.125 74.21875 55.546875 72.453125 
Q 61.96875 70.703125 67.390625 67.28125 
L 67.390625 56.78125 
Q 61.921875 61.421875 55.765625 63.765625 
Q 49.609375 66.109375 42.828125 66.109375 
Q 29.4375 66.109375 22.71875 58.640625 
Q 16.015625 51.171875 16.015625 36.375 
Q 16.015625 21.625 22.71875 14.15625 
Q 29.4375 6.6875 42.828125 6.6875 
Q 48.046875 6.6875 52.140625 7.59375 
Q 56.25 8.5 59.515625 10.40625 
z
" id="DejaVuSans-71"/>
     <path d="M 4.203125 54.6875 
L 13.1875 54.6875 
L 24.421875 12.015625 
L 35.59375 54.6875 
L 46.1875 54.6875 
L 57.421875 12.015625 
L 68.609375 54.6875 
L 77.59375 54.6875 
L 63.28125 0 
L 52.6875 0 
L 40.921875 44.828125 
L 29.109375 0 
L 18.5 0 
z
" id="DejaVuSans-119"/>
     <path d="M 44.390625 34.1875 
Q 47.5625 33.109375 50.5625 29.59375 
Q 53.5625 26.078125 56.59375 19.921875 
L 66.609375 0 
L 56 0 
L 46.6875 18.703125 
Q 43.0625 26.03125 39.671875 28.421875 
Q 36.28125 30.8125 30.421875 30.8125 
L 19.671875 30.8125 
L 19.671875 0 
L 9.8125 0 
L 9.8125 72.90625 
L 32.078125 72.90625 
Q 44.578125 72.90625 50.734375 67.671875 
Q 56.890625 62.453125 56.890625 51.90625 
Q 56.890625 45.015625 53.6875 40.46875 
Q 50.484375 35.9375 44.390625 34.1875 
z
M 19.671875 64.796875 
L 19.671875 38.921875 
L 32.078125 38.921875 
Q 39.203125 38.921875 42.84375 42.21875 
Q 46.484375 45.515625 46.484375 51.90625 
Q 46.484375 58.296875 42.84375 61.546875 
Q 39.203125 64.796875 32.078125 64.796875 
z
" id="DejaVuSans-82"/>
    </defs>
    <g transform="translate(160.844063 404.19)scale(0.2 -0.2)">
     <use xlink:href="#DejaVuSans-76"/>
     <use x="53.962891" xlink:href="#DejaVuSans-111"/>
     <use x="115.144531" xlink:href="#DejaVuSans-103"/>
     <use x="178.621094" xlink:href="#DejaVuSans-97"/>
     <use x="239.900391" xlink:href="#DejaVuSans-114"/>
     <use x="281.013672" xlink:href="#DejaVuSans-105"/>
     <use x="308.796875" xlink:href="#DejaVuSans-116"/>
     <use x="348.005859" xlink:href="#DejaVuSans-104"/>
     <use x="411.384766" xlink:href="#DejaVuSans-109"/>
     <use x="508.796875" xlink:href="#DejaVuSans-105"/>
     <use x="536.580078" xlink:href="#DejaVuSans-99"/>
     <use x="591.560547" xlink:href="#DejaVuSans-32"/>
     <use x="623.347656" xlink:href="#DejaVuSans-71"/>
     <use x="700.837891" xlink:href="#DejaVuSans-114"/>
     <use x="739.701172" xlink:href="#DejaVuSans-111"/>
     <use x="800.882812" xlink:href="#DejaVuSans-119"/>
     <use x="882.669922" xlink:href="#DejaVuSans-116"/>
     <use x="921.878906" xlink:href="#DejaVuSans-104"/>
     <use x="985.257812" xlink:href="#DejaVuSans-32"/>
     <use x="1017.044922" xlink:href="#DejaVuSans-82"/>
     <use x="1084.277344" xlink:href="#DejaVuSans-97"/>
     <use x="1145.556641" xlink:href="#DejaVuSans-116"/>
     <use x="1184.765625" xlink:href="#DejaVuSans-101"/>
    </g>
   </g>
  </g>
  <g id="axes_4">
   <g id="patch_17">
    <path d="M 547.314375 612.04 
L 919.626875 612.04 
L 919.626875 419.19 
L 547.314375 419.19 
z
" style="fill:#ffffff;"/>
   </g>
   <g id="PolyCollection_1">
    <path clip-path="url(#pd04def3202)" d="M 547.314375 447.751397 
L 547.314375 458.4729 
L 581.160966 472.657681 
L 615.007557 490.911522 
L 648.854148 512.118595 
L 682.700739 532.871611 
L 716.54733 549.405579 
L 750.39392 565.059561 
L 784.240511 577.80957 
L 818.087102 587.661646 
L 851.933693 594.392007 
L 885.780284 597.960003 
L 919.626875 599.211539 
L 919.626875 588.475955 
L 919.626875 588.475955 
L 885.780284 587.451168 
L 851.933693 584.235628 
L 818.087102 577.505267 
L 784.240511 567.653191 
L 750.39392 554.903182 
L 716.54733 539.2492 
L 682.700739 522.715233 
L 648.854148 501.962216 
L 615.007557 480.755143 
L 581.160966 462.331069 
L 547.314375 447.751397 
z
" style="fill-opacity:0.2;"/>
   </g>
   <g id="PolyCollection_2">
    <path clip-path="url(#pd04def3202)" d="M 547.314375 427.955909 
L 547.314375 466.687477 
L 581.160966 490.947877 
L 615.007557 504.107108 
L 648.854148 519.833844 
L 682.700739 538.965439 
L 716.54733 553.46813 
L 750.39392 569.122113 
L 784.240511 581.872122 
L 818.087102 591.724197 
L 851.933693 598.454559 
L 885.780284 602.022554 
L 919.626875 603.274091 
L 919.626875 582.961333 
L 919.626875 582.961333 
L 885.780284 581.709797 
L 851.933693 578.141801 
L 818.087102 571.41144 
L 784.240511 561.559364 
L 750.39392 548.809355 
L 716.54733 533.155372 
L 682.700739 518.652681 
L 648.854148 497.899665 
L 615.007557 471.590475 
L 581.160966 453.1664 
L 547.314375 427.955909 
z
" style="fill-opacity:0.1;"/>
   </g>
   <g id="matplotlib.axis_7">
    <g id="xtick_37">
     <g id="line2d_83">
      <path clip-path="url(#pd04def3202)" d="M 547.314375 612.04 
L 547.314375 419.19 
" style="fill:none;stroke:#000000;stroke-linecap:square;stroke-opacity:0.2;stroke-width:0.5;"/>
     </g>
     <g id="line2d_84">
      <g>
       <use style="stroke:#000000;stroke-width:0.8;" x="547.314375" xlink:href="#maf228ae6e7" y="612.04"/>
      </g>
     </g>
     <g id="text_59">
      <!-- 27 -->
      <g transform="translate(539.679375 628.158125)scale(0.12 -0.12)">
       <use xlink:href="#DejaVuSans-50"/>
       <use x="63.623047" xlink:href="#DejaVuSans-55"/>
      </g>
     </g>
    </g>
    <g id="xtick_38">
     <g id="line2d_85">
      <path clip-path="url(#pd04def3202)" d="M 682.700739 612.04 
L 682.700739 419.19 
" style="fill:none;stroke:#000000;stroke-linecap:square;stroke-opacity:0.2;stroke-width:0.5;"/>
     </g>
     <g id="line2d_86">
      <g>
       <use style="stroke:#000000;stroke-width:0.8;" x="682.700739" xlink:href="#maf228ae6e7" y="612.04"/>
      </g>
     </g>
     <g id="text_60">
      <!-- 01 -->
      <g transform="translate(675.065739 628.158125)scale(0.12 -0.12)">
       <use xlink:href="#DejaVuSans-48"/>
       <use x="63.623047" xlink:href="#DejaVuSans-49"/>
      </g>
      <!-- May -->
      <g transform="translate(670.295739 641.5955)scale(0.12 -0.12)">
       <use xlink:href="#DejaVuSans-77"/>
       <use x="86.279297" xlink:href="#DejaVuSans-97"/>
       <use x="147.558594" xlink:href="#DejaVuSans-121"/>
      </g>
      <!-- 2020 -->
      <g transform="translate(667.430739 655.032875)scale(0.12 -0.12)">
       <use xlink:href="#DejaVuSans-50"/>
       <use x="63.623047" xlink:href="#DejaVuSans-48"/>
       <use x="127.246094" xlink:href="#DejaVuSans-50"/>
       <use x="190.869141" xlink:href="#DejaVuSans-48"/>
      </g>
     </g>
    </g>
    <g id="xtick_39">
     <g id="line2d_87">
      <path clip-path="url(#pd04def3202)" d="M 919.626875 612.04 
L 919.626875 419.19 
" style="fill:none;stroke:#000000;stroke-linecap:square;stroke-opacity:0.2;stroke-width:0.5;"/>
     </g>
     <g id="line2d_88">
      <g>
       <use style="stroke:#000000;stroke-width:0.8;" x="919.626875" xlink:href="#maf228ae6e7" y="612.04"/>
      </g>
     </g>
     <g id="text_61">
      <!-- 08 -->
      <g transform="translate(911.991875 628.158125)scale(0.12 -0.12)">
       <use xlink:href="#DejaVuSans-48"/>
       <use x="63.623047" xlink:href="#DejaVuSans-56"/>
      </g>
     </g>
    </g>
    <g id="xtick_40">
     <g id="line2d_89">
      <g>
       <use style="stroke:#000000;stroke-width:0.6;" x="581.160966" xlink:href="#ma067b769eb" y="612.04"/>
      </g>
     </g>
     <g id="text_62">
      <!-- 28 -->
      <g transform="translate(573.525966 626.558125)scale(0.12 -0.12)">
       <use xlink:href="#DejaVuSans-50"/>
       <use x="63.623047" xlink:href="#DejaVuSans-56"/>
      </g>
     </g>
    </g>
    <g id="xtick_41">
     <g id="line2d_90">
      <g>
       <use style="stroke:#000000;stroke-width:0.6;" x="615.007557" xlink:href="#ma067b769eb" y="612.04"/>
      </g>
     </g>
     <g id="text_63">
      <!-- 29 -->
      <g transform="translate(607.372557 626.558125)scale(0.12 -0.12)">
       <use xlink:href="#DejaVuSans-50"/>
       <use x="63.623047" xlink:href="#DejaVuSans-57"/>
      </g>
     </g>
    </g>
    <g id="xtick_42">
     <g id="line2d_91">
      <g>
       <use style="stroke:#000000;stroke-width:0.6;" x="648.854148" xlink:href="#ma067b769eb" y="612.04"/>
      </g>
     </g>
     <g id="text_64">
      <!-- 30 -->
      <g transform="translate(641.219148 626.558125)scale(0.12 -0.12)">
       <use xlink:href="#DejaVuSans-51"/>
       <use x="63.623047" xlink:href="#DejaVuSans-48"/>
      </g>
     </g>
    </g>
    <g id="xtick_43">
     <g id="line2d_92">
      <g>
       <use style="stroke:#000000;stroke-width:0.6;" x="716.54733" xlink:href="#ma067b769eb" y="612.04"/>
      </g>
     </g>
     <g id="text_65">
      <!-- 02 -->
      <g transform="translate(708.91233 626.558125)scale(0.12 -0.12)">
       <use xlink:href="#DejaVuSans-48"/>
       <use x="63.623047" xlink:href="#DejaVuSans-50"/>
      </g>
     </g>
    </g>
    <g id="xtick_44">
     <g id="line2d_93">
      <g>
       <use style="stroke:#000000;stroke-width:0.6;" x="750.39392" xlink:href="#ma067b769eb" y="612.04"/>
      </g>
     </g>
     <g id="text_66">
      <!-- 03 -->
      <g transform="translate(742.75892 626.558125)scale(0.12 -0.12)">
       <use xlink:href="#DejaVuSans-48"/>
       <use x="63.623047" xlink:href="#DejaVuSans-51"/>
      </g>
     </g>
    </g>
    <g id="xtick_45">
     <g id="line2d_94">
      <g>
       <use style="stroke:#000000;stroke-width:0.6;" x="784.240511" xlink:href="#ma067b769eb" y="612.04"/>
      </g>
     </g>
     <g id="text_67">
      <!-- 04 -->
      <g transform="translate(776.605511 626.558125)scale(0.12 -0.12)">
       <use xlink:href="#DejaVuSans-48"/>
       <use x="63.623047" xlink:href="#DejaVuSans-52"/>
      </g>
     </g>
    </g>
    <g id="xtick_46">
     <g id="line2d_95">
      <g>
       <use style="stroke:#000000;stroke-width:0.6;" x="818.087102" xlink:href="#ma067b769eb" y="612.04"/>
      </g>
     </g>
     <g id="text_68">
      <!-- 05 -->
      <g transform="translate(810.452102 626.558125)scale(0.12 -0.12)">
       <use xlink:href="#DejaVuSans-48"/>
       <use x="63.623047" xlink:href="#DejaVuSans-53"/>
      </g>
     </g>
    </g>
    <g id="xtick_47">
     <g id="line2d_96">
      <g>
       <use style="stroke:#000000;stroke-width:0.6;" x="851.933693" xlink:href="#ma067b769eb" y="612.04"/>
      </g>
     </g>
     <g id="text_69">
      <!-- 06 -->
      <g transform="translate(844.298693 626.558125)scale(0.12 -0.12)">
       <use xlink:href="#DejaVuSans-48"/>
       <use x="63.623047" xlink:href="#DejaVuSans-54"/>
      </g>
     </g>
    </g>
    <g id="xtick_48">
     <g id="line2d_97">
      <g>
       <use style="stroke:#000000;stroke-width:0.6;" x="885.780284" xlink:href="#ma067b769eb" y="612.04"/>
      </g>
     </g>
     <g id="text_70">
      <!-- 07 -->
      <g transform="translate(878.145284 626.558125)scale(0.12 -0.12)">
       <use xlink:href="#DejaVuSans-48"/>
       <use x="63.623047" xlink:href="#DejaVuSans-55"/>
      </g>
     </g>
    </g>
   </g>
   <g id="matplotlib.axis_8">
    <g id="ytick_17">
     <g id="line2d_98">
      <path clip-path="url(#pd04def3202)" d="M 547.314375 596.604503 
L 919.626875 596.604503 
" style="fill:none;stroke:#000000;stroke-linecap:square;stroke-opacity:0.2;stroke-width:0.5;"/>
     </g>
     <g id="line2d_99">
      <g>
       <use style="stroke:#000000;stroke-width:0.8;" x="547.314375" xlink:href="#mba20733cc7" y="596.604503"/>
      </g>
     </g>
     <g id="text_71">
      <!-- 0.5 -->
      <g transform="translate(521.230625 601.163566)scale(0.12 -0.12)">
       <use xlink:href="#DejaVuSans-48"/>
       <use x="63.623047" xlink:href="#DejaVuSans-46"/>
       <use x="95.410156" xlink:href="#DejaVuSans-53"/>
      </g>
     </g>
    </g>
    <g id="ytick_18">
     <g id="line2d_100">
      <path clip-path="url(#pd04def3202)" d="M 547.314375 555.978988 
L 919.626875 555.978988 
" style="fill:none;stroke:#000000;stroke-linecap:square;stroke-opacity:0.2;stroke-width:0.5;"/>
     </g>
     <g id="line2d_101">
      <g>
       <use style="stroke:#000000;stroke-width:0.8;" x="547.314375" xlink:href="#mba20733cc7" y="555.978988"/>
      </g>
     </g>
     <g id="text_72">
      <!-- 1.0 -->
      <g transform="translate(521.230625 560.53805)scale(0.12 -0.12)">
       <use xlink:href="#DejaVuSans-49"/>
       <use x="63.623047" xlink:href="#DejaVuSans-46"/>
       <use x="95.410156" xlink:href="#DejaVuSans-48"/>
      </g>
     </g>
    </g>
    <g id="ytick_19">
     <g id="line2d_102">
      <path clip-path="url(#pd04def3202)" d="M 547.314375 515.353472 
L 919.626875 515.353472 
" style="fill:none;stroke:#000000;stroke-linecap:square;stroke-opacity:0.2;stroke-width:0.5;"/>
     </g>
     <g id="line2d_103">
      <g>
       <use style="stroke:#000000;stroke-width:0.8;" x="547.314375" xlink:href="#mba20733cc7" y="515.353472"/>
      </g>
     </g>
     <g id="text_73">
      <!-- 1.5 -->
      <g transform="translate(521.230625 519.912535)scale(0.12 -0.12)">
       <use xlink:href="#DejaVuSans-49"/>
       <use x="63.623047" xlink:href="#DejaVuSans-46"/>
       <use x="95.410156" xlink:href="#DejaVuSans-53"/>
      </g>
     </g>
    </g>
    <g id="ytick_20">
     <g id="line2d_104">
      <path clip-path="url(#pd04def3202)" d="M 547.314375 474.727957 
L 919.626875 474.727957 
" style="fill:none;stroke:#000000;stroke-linecap:square;stroke-opacity:0.2;stroke-width:0.5;"/>
     </g>
     <g id="line2d_105">
      <g>
       <use style="stroke:#000000;stroke-width:0.8;" x="547.314375" xlink:href="#mba20733cc7" y="474.727957"/>
      </g>
     </g>
     <g id="text_74">
      <!-- 2.0 -->
      <g transform="translate(521.230625 479.287019)scale(0.12 -0.12)">
       <use xlink:href="#DejaVuSans-50"/>
       <use x="63.623047" xlink:href="#DejaVuSans-46"/>
       <use x="95.410156" xlink:href="#DejaVuSans-48"/>
      </g>
     </g>
    </g>
    <g id="ytick_21">
     <g id="line2d_106">
      <path clip-path="url(#pd04def3202)" d="M 547.314375 434.102441 
L 919.626875 434.102441 
" style="fill:none;stroke:#000000;stroke-linecap:square;stroke-opacity:0.2;stroke-width:0.5;"/>
     </g>
     <g id="line2d_107">
      <g>
       <use style="stroke:#000000;stroke-width:0.8;" x="547.314375" xlink:href="#mba20733cc7" y="434.102441"/>
      </g>
     </g>
     <g id="text_75">
      <!-- 2.5 -->
      <g transform="translate(521.230625 438.661503)scale(0.12 -0.12)">
       <use xlink:href="#DejaVuSans-50"/>
       <use x="63.623047" xlink:href="#DejaVuSans-46"/>
       <use x="95.410156" xlink:href="#DejaVuSans-53"/>
      </g>
     </g>
    </g>
    <g id="text_76">
     <!-- $R_e$ -->
     <defs>
      <path d="M 25.203125 64.796875 
L 20.21875 38.921875 
L 32.90625 38.921875 
Q 40.375 38.921875 44.984375 43.046875 
Q 49.609375 47.171875 49.609375 53.8125 
Q 49.609375 59.125 46.5 61.953125 
Q 43.40625 64.796875 37.59375 64.796875 
z
M 43.3125 35.015625 
Q 46.4375 34.28125 48.515625 31.390625 
Q 50.59375 28.515625 53.328125 19.921875 
L 59.515625 0 
L 49.125 0 
L 43.40625 18.703125 
Q 41.21875 25.921875 38.328125 28.359375 
Q 35.453125 30.8125 29.5 30.8125 
L 18.609375 30.8125 
L 12.59375 0 
L 2.6875 0 
L 16.890625 72.90625 
L 39.109375 72.90625 
Q 49.21875 72.90625 54.609375 68.328125 
Q 60.015625 63.765625 60.015625 55.171875 
Q 60.015625 47.5625 55.421875 41.984375 
Q 50.828125 36.421875 43.3125 35.015625 
z
" id="DejaVuSans-Oblique-82"/>
      <path d="M 48.09375 32.234375 
Q 48.25 33.015625 48.3125 33.84375 
Q 48.390625 34.671875 48.390625 35.5 
Q 48.390625 41.453125 44.890625 44.921875 
Q 41.40625 48.390625 35.40625 48.390625 
Q 28.71875 48.390625 23.578125 44.15625 
Q 18.453125 39.9375 15.828125 32.171875 
z
M 55.90625 25.203125 
L 14.109375 25.203125 
Q 13.8125 23.34375 13.71875 22.265625 
Q 13.625 21.1875 13.625 20.40625 
Q 13.625 13.625 17.796875 9.90625 
Q 21.96875 6.203125 29.59375 6.203125 
Q 35.453125 6.203125 40.671875 7.515625 
Q 45.90625 8.84375 50.390625 11.375 
L 48.6875 2.484375 
Q 43.84375 0.53125 38.6875 -0.4375 
Q 33.546875 -1.421875 28.21875 -1.421875 
Q 16.84375 -1.421875 10.71875 4.015625 
Q 4.59375 9.46875 4.59375 19.484375 
Q 4.59375 28.03125 7.640625 35.375 
Q 10.6875 42.71875 16.609375 48.484375 
Q 20.40625 52.09375 25.65625 54.046875 
Q 30.90625 56 36.8125 56 
Q 46.09375 56 51.578125 50.4375 
Q 57.078125 44.875 57.078125 35.5 
Q 57.078125 33.25 56.78125 30.6875 
Q 56.5 28.125 55.90625 25.203125 
z
" id="DejaVuSans-Oblique-101"/>
     </defs>
     <g transform="translate(514.319063 523.735)rotate(-90)scale(0.14 -0.14)">
      <use transform="translate(0 0.09375)" xlink:href="#DejaVuSans-Oblique-82"/>
      <use transform="translate(69.482422 -16.3125)scale(0.7)" xlink:href="#DejaVuSans-Oblique-101"/>
     </g>
    </g>
   </g>
   <g id="line2d_108">
    <path clip-path="url(#pd04def3202)" d="M 547.314375 454.410349 
L 581.160966 466.39362 
L 615.007557 484.817694 
L 648.854148 506.024768 
L 682.700739 526.777784 
L 716.54733 545.343027 
L 750.39392 560.99701 
L 784.240511 573.747019 
L 818.087102 583.599094 
L 851.933693 590.329456 
L 885.780284 593.897451 
L 919.626875 595.148988 
" style="fill:none;stroke:#1f77b4;stroke-linecap:square;stroke-opacity:0;stroke-width:1.5;"/>
   </g>
   <g id="line2d_109">
    <path clip-path="url(#pd04def3202)" d="M 547.314375 454.410349 
L 550.134924 455.408955 
L 552.955473 456.407561 
L 555.776023 457.406167 
L 558.596572 458.404773 
L 561.417121 459.403379 
L 564.23767 460.401985 
L 567.05822 461.400591 
L 569.878769 462.399197 
L 572.699318 463.397802 
L 575.519867 464.396408 
L 578.340417 465.395014 
L 581.160966 466.39362 
L 583.981515 467.92896 
L 586.802064 469.464299 
L 589.622614 470.999639 
L 592.443163 472.534978 
L 595.263712 474.070318 
L 598.084261 475.605657 
L 600.904811 477.140997 
L 603.72536 478.676336 
L 606.545909 480.211676 
L 609.366458 481.747015 
L 612.187008 483.282355 
L 615.007557 484.817694 
L 617.828106 486.584951 
L 620.648655 488.352207 
L 623.469205 490.119463 
L 626.289754 491.886719 
L 629.110303 493.653975 
L 631.930852 495.421231 
L 634.751402 497.188487 
L 637.571951 498.955743 
L 640.3925 500.722999 
L 643.213049 502.490256 
L 646.033598 504.257512 
L 648.854148 506.024768 
L 651.674697 507.754186 
L 654.495246 509.483604 
L 657.315795 511.213022 
L 660.136345 512.94244 
L 662.956894 514.671858 
L 665.777443 516.401276 
L 668.597992 518.130694 
L 671.418542 519.860112 
L 674.239091 521.58953 
L 677.05964 523.318948 
L 679.880189 525.048366 
L 682.700739 526.777784 
L 685.521288 528.324888 
L 688.341837 529.871991 
L 691.162386 531.419095 
L 693.982936 532.966198 
" style="fill:none;stroke:#ae0868;stroke-linecap:square;stroke-width:3;"/>
   </g>
   <g id="line2d_110">
    <path clip-path="url(#pd04def3202)" d="M 693.982936 532.966198 
L 696.803485 534.513302 
L 699.624034 536.060406 
L 702.444583 537.607509 
L 705.265133 539.154613 
L 708.085682 540.701716 
L 710.906231 542.24882 
L 713.72678 543.795923 
L 716.54733 545.343027 
L 719.367879 546.647526 
L 722.188428 547.952024 
" style="fill:none;stroke:#e46511;stroke-linecap:square;stroke-width:3;"/>
   </g>
   <g id="line2d_111">
    <path clip-path="url(#pd04def3202)" d="M 722.188428 547.952024 
L 725.008977 549.256523 
L 727.829527 550.561021 
L 730.650076 551.86552 
L 733.470625 553.170018 
L 736.291174 554.474517 
L 739.111723 555.779015 
L 741.932273 557.083514 
L 744.752822 558.388013 
L 747.573371 559.692511 
L 750.39392 560.99701 
L 753.21447 562.05951 
L 756.035019 563.122011 
L 758.855568 564.184512 
" style="fill:none;stroke:#bc70c7;stroke-linecap:square;stroke-width:3;"/>
   </g>
   <g id="line2d_112">
    <path clip-path="url(#pd04def3202)" d="M 758.855568 564.184512 
L 761.676117 565.247013 
L 764.496667 566.309513 
L 767.317216 567.372014 
L 770.137765 568.434515 
L 772.958314 569.497016 
L 775.778864 570.559516 
L 778.599413 571.622017 
L 781.419962 572.684518 
L 784.240511 573.747019 
L 787.061061 574.568025 
L 789.88161 575.389031 
L 792.702159 576.210037 
L 795.522708 577.031044 
L 798.343258 577.85205 
L 801.163807 578.673056 
L 803.984356 579.494063 
L 806.804905 580.315069 
L 809.625455 581.136075 
L 812.446004 581.957082 
L 815.266553 582.778088 
L 818.087102 583.599094 
L 820.907652 584.159958 
L 823.728201 584.720821 
L 826.54875 585.281685 
L 829.369299 585.842548 
L 832.189848 586.403412 
L 835.010398 586.964275 
L 837.830947 587.525138 
L 840.651496 588.086002 
L 843.472045 588.646865 
L 846.292595 589.207729 
L 849.113144 589.768592 
L 851.933693 590.329456 
L 854.754242 590.626789 
L 857.574792 590.924122 
L 860.395341 591.221455 
L 863.21589 591.518788 
L 866.036439 591.816121 
L 868.856989 592.113454 
L 871.677538 592.410786 
L 874.498087 592.708119 
L 877.318636 593.005452 
L 880.139186 593.302785 
L 882.959735 593.600118 
L 885.780284 593.897451 
L 888.600833 594.001746 
L 891.421383 594.106041 
L 894.241932 594.210335 
L 897.062481 594.31463 
L 899.88303 594.418925 
L 902.70358 594.52322 
L 905.524129 594.627514 
L 908.344678 594.731809 
L 911.165227 594.836104 
L 913.985777 594.940398 
L 916.806326 595.044693 
L 919.626875 595.148988 
" style="fill:none;stroke:#008fe0;stroke-linecap:square;stroke-width:3;"/>
   </g>
   <g id="line2d_113">
    <path clip-path="url(#pd04def3202)" d="M 547.314375 555.978988 
L 919.626875 555.978988 
" style="fill:none;stroke:#000000;stroke-linecap:square;stroke-opacity:0.4;stroke-width:2;"/>
   </g>
   <g id="patch_18">
    <path d="M 547.314375 612.04 
L 547.314375 419.19 
" style="fill:none;stroke:#000000;stroke-linecap:square;stroke-linejoin:miter;"/>
   </g>
   <g id="patch_19">
    <path d="M 919.626875 612.04 
L 919.626875 419.19 
" style="fill:none;stroke:#000000;stroke-linecap:square;stroke-linejoin:miter;"/>
   </g>
   <g id="patch_20">
    <path d="M 547.314375 612.04 
L 919.626875 612.04 
" style="fill:none;stroke:#000000;stroke-linecap:square;stroke-linejoin:miter;"/>
   </g>
   <g id="patch_21">
    <path d="M 547.314375 419.19 
L 919.626875 419.19 
" style="fill:none;stroke:#000000;stroke-linecap:square;stroke-linejoin:miter;"/>
   </g>
   <g id="text_77">
    <!-- Cerner Reopening Risk Index and $R_e$ -->
    <defs>
     <path d="M 54.890625 33.015625 
L 54.890625 0 
L 45.90625 0 
L 45.90625 32.71875 
Q 45.90625 40.484375 42.875 44.328125 
Q 39.84375 48.1875 33.796875 48.1875 
Q 26.515625 48.1875 22.3125 43.546875 
Q 18.109375 38.921875 18.109375 30.90625 
L 18.109375 0 
L 9.078125 0 
L 9.078125 54.6875 
L 18.109375 54.6875 
L 18.109375 46.1875 
Q 21.34375 51.125 25.703125 53.5625 
Q 30.078125 56 35.796875 56 
Q 45.21875 56 50.046875 50.171875 
Q 54.890625 44.34375 54.890625 33.015625 
z
" id="DejaVuSans-110"/>
     <path d="M 18.109375 8.203125 
L 18.109375 -20.796875 
L 9.078125 -20.796875 
L 9.078125 54.6875 
L 18.109375 54.6875 
L 18.109375 46.390625 
Q 20.953125 51.265625 25.265625 53.625 
Q 29.59375 56 35.59375 56 
Q 45.5625 56 51.78125 48.09375 
Q 58.015625 40.1875 58.015625 27.296875 
Q 58.015625 14.40625 51.78125 6.484375 
Q 45.5625 -1.421875 35.59375 -1.421875 
Q 29.59375 -1.421875 25.265625 0.953125 
Q 20.953125 3.328125 18.109375 8.203125 
z
M 48.6875 27.296875 
Q 48.6875 37.203125 44.609375 42.84375 
Q 40.53125 48.484375 33.40625 48.484375 
Q 26.265625 48.484375 22.1875 42.84375 
Q 18.109375 37.203125 18.109375 27.296875 
Q 18.109375 17.390625 22.1875 11.75 
Q 26.265625 6.109375 33.40625 6.109375 
Q 40.53125 6.109375 44.609375 11.75 
Q 48.6875 17.390625 48.6875 27.296875 
z
" id="DejaVuSans-112"/>
     <path d="M 9.078125 75.984375 
L 18.109375 75.984375 
L 18.109375 31.109375 
L 44.921875 54.6875 
L 56.390625 54.6875 
L 27.390625 29.109375 
L 57.625 0 
L 45.90625 0 
L 18.109375 26.703125 
L 18.109375 0 
L 9.078125 0 
z
" id="DejaVuSans-107"/>
     <path d="M 9.8125 72.90625 
L 19.671875 72.90625 
L 19.671875 0 
L 9.8125 0 
z
" id="DejaVuSans-73"/>
     <path d="M 45.40625 46.390625 
L 45.40625 75.984375 
L 54.390625 75.984375 
L 54.390625 0 
L 45.40625 0 
L 45.40625 8.203125 
Q 42.578125 3.328125 38.25 0.953125 
Q 33.9375 -1.421875 27.875 -1.421875 
Q 17.96875 -1.421875 11.734375 6.484375 
Q 5.515625 14.40625 5.515625 27.296875 
Q 5.515625 40.1875 11.734375 48.09375 
Q 17.96875 56 27.875 56 
Q 33.9375 56 38.25 53.625 
Q 42.578125 51.265625 45.40625 46.390625 
z
M 14.796875 27.296875 
Q 14.796875 17.390625 18.875 11.75 
Q 22.953125 6.109375 30.078125 6.109375 
Q 37.203125 6.109375 41.296875 11.75 
Q 45.40625 17.390625 45.40625 27.296875 
Q 45.40625 37.203125 41.296875 42.84375 
Q 37.203125 48.484375 30.078125 48.484375 
Q 22.953125 48.484375 18.875 42.84375 
Q 14.796875 37.203125 14.796875 27.296875 
z
" id="DejaVuSans-100"/>
     <path d="M 54.890625 54.6875 
L 35.109375 28.078125 
L 55.90625 0 
L 45.3125 0 
L 29.390625 21.484375 
L 13.484375 0 
L 2.875 0 
L 24.125 28.609375 
L 4.6875 54.6875 
L 15.28125 54.6875 
L 29.78125 35.203125 
L 44.28125 54.6875 
z
" id="DejaVuSans-120"/>
    </defs>
    <g transform="translate(551.370625 404.19)scale(0.2 -0.2)">
     <use transform="translate(0 0.015625)" xlink:href="#DejaVuSans-67"/>
     <use transform="translate(69.824219 0.015625)" xlink:href="#DejaVuSans-101"/>
     <use transform="translate(131.347656 0.015625)" xlink:href="#DejaVuSans-114"/>
     <use transform="translate(172.460938 0.015625)" xlink:href="#DejaVuSans-110"/>
     <use transform="translate(235.839844 0.015625)" xlink:href="#DejaVuSans-101"/>
     <use transform="translate(297.363281 0.015625)" xlink:href="#DejaVuSans-114"/>
     <use transform="translate(338.476562 0.015625)" xlink:href="#DejaVuSans-32"/>
     <use transform="translate(370.263672 0.015625)" xlink:href="#DejaVuSans-82"/>
     <use transform="translate(439.746094 0.015625)" xlink:href="#DejaVuSans-101"/>
     <use transform="translate(501.269531 0.015625)" xlink:href="#DejaVuSans-111"/>
     <use transform="translate(562.451172 0.015625)" xlink:href="#DejaVuSans-112"/>
     <use transform="translate(625.927734 0.015625)" xlink:href="#DejaVuSans-101"/>
     <use transform="translate(687.451172 0.015625)" xlink:href="#DejaVuSans-110"/>
     <use transform="translate(750.830078 0.015625)" xlink:href="#DejaVuSans-105"/>
     <use transform="translate(778.613281 0.015625)" xlink:href="#DejaVuSans-110"/>
     <use transform="translate(841.992188 0.015625)" xlink:href="#DejaVuSans-103"/>
     <use transform="translate(905.46875 0.015625)" xlink:href="#DejaVuSans-32"/>
     <use transform="translate(937.255859 0.015625)" xlink:href="#DejaVuSans-82"/>
     <use transform="translate(1006.738281 0.015625)" xlink:href="#DejaVuSans-105"/>
     <use transform="translate(1034.521484 0.015625)" xlink:href="#DejaVuSans-115"/>
     <use transform="translate(1086.621094 0.015625)" xlink:href="#DejaVuSans-107"/>
     <use transform="translate(1144.53125 0.015625)" xlink:href="#DejaVuSans-32"/>
     <use transform="translate(1176.318359 0.015625)" xlink:href="#DejaVuSans-73"/>
     <use transform="translate(1205.810547 0.015625)" xlink:href="#DejaVuSans-110"/>
     <use transform="translate(1269.189453 0.015625)" xlink:href="#DejaVuSans-100"/>
     <use transform="translate(1332.666016 0.015625)" xlink:href="#DejaVuSans-101"/>
     <use transform="translate(1394.189453 0.015625)" xlink:href="#DejaVuSans-120"/>
     <use transform="translate(1453.369141 0.015625)" xlink:href="#DejaVuSans-32"/>
     <use transform="translate(1485.15625 0.015625)" xlink:href="#DejaVuSans-97"/>
     <use transform="translate(1546.435547 0.015625)" xlink:href="#DejaVuSans-110"/>
     <use transform="translate(1609.814453 0.015625)" xlink:href="#DejaVuSans-100"/>
     <use transform="translate(1673.291016 0.015625)" xlink:href="#DejaVuSans-32"/>
     <use transform="translate(1705.078125 0.015625)" xlink:href="#DejaVuSans-Oblique-82"/>
     <use transform="translate(1774.560547 -16.390625)scale(0.7)" xlink:href="#DejaVuSans-Oblique-101"/>
    </g>
   </g>
   <g id="legend_1">
    <g id="patch_22">
     <path d="M 861.454375 492.845 
L 914.026875 492.845 
Q 915.626875 492.845 915.626875 491.245 
L 915.626875 424.79 
Q 915.626875 423.19 914.026875 423.19 
L 861.454375 423.19 
Q 859.854375 423.19 859.854375 424.79 
L 859.854375 491.245 
Q 859.854375 492.845 861.454375 492.845 
z
" style="fill:#ffffff;opacity:0.5;stroke:#000000;stroke-linejoin:miter;"/>
    </g>
    <g id="line2d_114">
     <path d="M 861.454375 428.06875 
L 877.454375 428.06875 
" style="fill:none;stroke:#008fe0;stroke-linecap:square;stroke-width:3;"/>
    </g>
    <g id="line2d_115"/>
    <g id="text_78">
     <!-- CRRI 1 -->
     <g transform="translate(883.854375 430.86875)scale(0.08 -0.08)">
      <use xlink:href="#DejaVuSans-67"/>
      <use x="69.824219" xlink:href="#DejaVuSans-82"/>
      <use x="139.306641" xlink:href="#DejaVuSans-82"/>
      <use x="208.789062" xlink:href="#DejaVuSans-73"/>
      <use x="238.28125" xlink:href="#DejaVuSans-32"/>
      <use x="270.068359" xlink:href="#DejaVuSans-49"/>
     </g>
    </g>
    <g id="line2d_116">
     <path d="M 861.454375 439.81125 
L 877.454375 439.81125 
" style="fill:none;stroke:#bc70c7;stroke-linecap:square;stroke-width:3;"/>
    </g>
    <g id="line2d_117"/>
    <g id="text_79">
     <!-- CRRI 2 -->
     <g transform="translate(883.854375 442.61125)scale(0.08 -0.08)">
      <use xlink:href="#DejaVuSans-67"/>
      <use x="69.824219" xlink:href="#DejaVuSans-82"/>
      <use x="139.306641" xlink:href="#DejaVuSans-82"/>
      <use x="208.789062" xlink:href="#DejaVuSans-73"/>
      <use x="238.28125" xlink:href="#DejaVuSans-32"/>
      <use x="270.068359" xlink:href="#DejaVuSans-50"/>
     </g>
    </g>
    <g id="line2d_118">
     <path d="M 861.454375 451.55375 
L 877.454375 451.55375 
" style="fill:none;stroke:#e46511;stroke-linecap:square;stroke-width:3;"/>
    </g>
    <g id="line2d_119"/>
    <g id="text_80">
     <!-- CRRI 3 -->
     <g transform="translate(883.854375 454.35375)scale(0.08 -0.08)">
      <use xlink:href="#DejaVuSans-67"/>
      <use x="69.824219" xlink:href="#DejaVuSans-82"/>
      <use x="139.306641" xlink:href="#DejaVuSans-82"/>
      <use x="208.789062" xlink:href="#DejaVuSans-73"/>
      <use x="238.28125" xlink:href="#DejaVuSans-32"/>
      <use x="270.068359" xlink:href="#DejaVuSans-51"/>
     </g>
    </g>
    <g id="line2d_120">
     <path d="M 861.454375 463.29625 
L 877.454375 463.29625 
" style="fill:none;stroke:#ae0868;stroke-linecap:square;stroke-width:3;"/>
    </g>
    <g id="line2d_121"/>
    <g id="text_81">
     <!-- CRRI 4 -->
     <g transform="translate(883.854375 466.09625)scale(0.08 -0.08)">
      <use xlink:href="#DejaVuSans-67"/>
      <use x="69.824219" xlink:href="#DejaVuSans-82"/>
      <use x="139.306641" xlink:href="#DejaVuSans-82"/>
      <use x="208.789062" xlink:href="#DejaVuSans-73"/>
      <use x="238.28125" xlink:href="#DejaVuSans-32"/>
      <use x="270.068359" xlink:href="#DejaVuSans-52"/>
     </g>
    </g>
    <g id="patch_23">
     <path d="M 861.454375 477.83875 
L 877.454375 477.83875 
L 877.454375 472.23875 
L 861.454375 472.23875 
z
" style="opacity:0.3;"/>
    </g>
    <g id="text_82">
     <!-- ±1 Std. -->
     <defs>
      <path d="M 46 62.703125 
L 46 43.796875 
L 73.1875 43.796875 
L 73.1875 35.5 
L 46 35.5 
L 46 16.609375 
L 37.796875 16.609375 
L 37.796875 35.5 
L 10.59375 35.5 
L 10.59375 43.796875 
L 37.796875 43.796875 
L 37.796875 62.703125 
z
M 10.59375 8.296875 
L 73.1875 8.296875 
L 73.1875 0 
L 10.59375 0 
z
" id="DejaVuSans-177"/>
      <path d="M 53.515625 70.515625 
L 53.515625 60.890625 
Q 47.90625 63.578125 42.921875 64.890625 
Q 37.9375 66.21875 33.296875 66.21875 
Q 25.25 66.21875 20.875 63.09375 
Q 16.5 59.96875 16.5 54.203125 
Q 16.5 49.359375 19.40625 46.890625 
Q 22.3125 44.4375 30.421875 42.921875 
L 36.375 41.703125 
Q 47.40625 39.59375 52.65625 34.296875 
Q 57.90625 29 57.90625 20.125 
Q 57.90625 9.515625 50.796875 4.046875 
Q 43.703125 -1.421875 29.984375 -1.421875 
Q 24.8125 -1.421875 18.96875 -0.25 
Q 13.140625 0.921875 6.890625 3.21875 
L 6.890625 13.375 
Q 12.890625 10.015625 18.65625 8.296875 
Q 24.421875 6.59375 29.984375 6.59375 
Q 38.421875 6.59375 43.015625 9.90625 
Q 47.609375 13.234375 47.609375 19.390625 
Q 47.609375 24.75 44.3125 27.78125 
Q 41.015625 30.8125 33.5 32.328125 
L 27.484375 33.5 
Q 16.453125 35.6875 11.515625 40.375 
Q 6.59375 45.0625 6.59375 53.421875 
Q 6.59375 63.09375 13.40625 68.65625 
Q 20.21875 74.21875 32.171875 74.21875 
Q 37.3125 74.21875 42.625 73.28125 
Q 47.953125 72.359375 53.515625 70.515625 
z
" id="DejaVuSans-83"/>
     </defs>
     <g transform="translate(883.854375 477.83875)scale(0.08 -0.08)">
      <use xlink:href="#DejaVuSans-177"/>
      <use x="83.789062" xlink:href="#DejaVuSans-49"/>
      <use x="147.412109" xlink:href="#DejaVuSans-32"/>
      <use x="179.199219" xlink:href="#DejaVuSans-83"/>
      <use x="242.675781" xlink:href="#DejaVuSans-116"/>
      <use x="281.884766" xlink:href="#DejaVuSans-100"/>
      <use x="345.361328" xlink:href="#DejaVuSans-46"/>
     </g>
    </g>
    <g id="patch_24">
     <path d="M 861.454375 489.58125 
L 877.454375 489.58125 
L 877.454375 483.98125 
L 861.454375 483.98125 
z
" style="opacity:0.1;"/>
    </g>
    <g id="text_83">
     <!-- ±2 Std. -->
     <g transform="translate(883.854375 489.58125)scale(0.08 -0.08)">
      <use xlink:href="#DejaVuSans-177"/>
      <use x="83.789062" xlink:href="#DejaVuSans-50"/>
      <use x="147.412109" xlink:href="#DejaVuSans-32"/>
      <use x="179.199219" xlink:href="#DejaVuSans-83"/>
      <use x="242.675781" xlink:href="#DejaVuSans-116"/>
      <use x="281.884766" xlink:href="#DejaVuSans-100"/>
      <use x="345.361328" xlink:href="#DejaVuSans-46"/>
     </g>
    </g>
   </g>
  </g>
  <g id="text_84">
   <!-- Athens, TN μSA COVID-19 -->
   <defs>
    <path d="M 34.1875 63.1875 
L 20.796875 26.90625 
L 47.609375 26.90625 
z
M 28.609375 72.90625 
L 39.796875 72.90625 
L 67.578125 0 
L 57.328125 0 
L 50.6875 18.703125 
L 17.828125 18.703125 
L 11.1875 0 
L 0.78125 0 
z
" id="DejaVuSans-65"/>
    <path d="M 11.71875 12.40625 
L 22.015625 12.40625 
L 22.015625 4 
L 14.015625 -11.625 
L 7.71875 -11.625 
L 11.71875 4 
z
" id="DejaVuSans-44"/>
    <path d="M -0.296875 72.90625 
L 61.375 72.90625 
L 61.375 64.59375 
L 35.5 64.59375 
L 35.5 0 
L 25.59375 0 
L 25.59375 64.59375 
L -0.296875 64.59375 
z
" id="DejaVuSans-84"/>
    <path d="M 9.8125 72.90625 
L 23.09375 72.90625 
L 55.421875 11.921875 
L 55.421875 72.90625 
L 64.984375 72.90625 
L 64.984375 0 
L 51.703125 0 
L 19.390625 60.984375 
L 19.390625 0 
L 9.8125 0 
z
" id="DejaVuSans-78"/>
    <path d="M 8.5 -20.796875 
L 8.5 54.6875 
L 17.484375 54.6875 
L 17.484375 20.703125 
Q 17.484375 13.625 20.84375 10 
Q 24.21875 6.390625 30.8125 6.390625 
Q 38.03125 6.390625 41.671875 10.484375 
Q 45.3125 14.59375 45.3125 22.796875 
L 45.3125 54.6875 
L 54.296875 54.6875 
L 54.296875 12.59375 
Q 54.296875 9.671875 55.140625 8.28125 
Q 56 6.890625 57.8125 6.890625 
Q 58.25 6.890625 59.03125 7.15625 
Q 59.8125 7.421875 61.1875 8.015625 
L 61.1875 0.78125 
Q 59.1875 -0.34375 57.390625 -0.875 
Q 55.609375 -1.421875 53.90625 -1.421875 
Q 50.53125 -1.421875 48.53125 0.484375 
Q 46.53125 2.390625 45.796875 6.296875 
Q 43.359375 2.4375 39.8125 0.5 
Q 36.28125 -1.421875 31.5 -1.421875 
Q 26.515625 -1.421875 23.015625 0.484375 
Q 19.53125 2.390625 17.484375 6.203125 
L 17.484375 -20.796875 
z
" id="DejaVuSans-956"/>
    <path d="M 39.40625 66.21875 
Q 28.65625 66.21875 22.328125 58.203125 
Q 16.015625 50.203125 16.015625 36.375 
Q 16.015625 22.609375 22.328125 14.59375 
Q 28.65625 6.59375 39.40625 6.59375 
Q 50.140625 6.59375 56.421875 14.59375 
Q 62.703125 22.609375 62.703125 36.375 
Q 62.703125 50.203125 56.421875 58.203125 
Q 50.140625 66.21875 39.40625 66.21875 
z
M 39.40625 74.21875 
Q 54.734375 74.21875 63.90625 63.9375 
Q 73.09375 53.65625 73.09375 36.375 
Q 73.09375 19.140625 63.90625 8.859375 
Q 54.734375 -1.421875 39.40625 -1.421875 
Q 24.03125 -1.421875 14.8125 8.828125 
Q 5.609375 19.09375 5.609375 36.375 
Q 5.609375 53.65625 14.8125 63.9375 
Q 24.03125 74.21875 39.40625 74.21875 
z
" id="DejaVuSans-79"/>
    <path d="M 28.609375 0 
L 0.78125 72.90625 
L 11.078125 72.90625 
L 34.1875 11.53125 
L 57.328125 72.90625 
L 67.578125 72.90625 
L 39.796875 0 
z
" id="DejaVuSans-86"/>
    <path d="M 4.890625 31.390625 
L 31.203125 31.390625 
L 31.203125 23.390625 
L 4.890625 23.390625 
z
" id="DejaVuSans-45"/>
   </defs>
   <g transform="translate(339.730391 54.996094)scale(0.25 -0.25)">
    <use xlink:href="#DejaVuSans-65"/>
    <use x="66.658203" xlink:href="#DejaVuSans-116"/>
    <use x="105.867188" xlink:href="#DejaVuSans-104"/>
    <use x="169.246094" xlink:href="#DejaVuSans-101"/>
    <use x="230.769531" xlink:href="#DejaVuSans-110"/>
    <use x="294.148438" xlink:href="#DejaVuSans-115"/>
    <use x="346.248047" xlink:href="#DejaVuSans-44"/>
    <use x="378.035156" xlink:href="#DejaVuSans-32"/>
    <use x="409.822266" xlink:href="#DejaVuSans-84"/>
    <use x="470.90625" xlink:href="#DejaVuSans-78"/>
    <use x="545.710938" xlink:href="#DejaVuSans-32"/>
    <use x="577.498047" xlink:href="#DejaVuSans-956"/>
    <use x="641.121094" xlink:href="#DejaVuSans-83"/>
    <use x="706.472656" xlink:href="#DejaVuSans-65"/>
    <use x="774.880859" xlink:href="#DejaVuSans-32"/>
    <use x="806.667969" xlink:href="#DejaVuSans-67"/>
    <use x="876.492188" xlink:href="#DejaVuSans-79"/>
    <use x="953.453125" xlink:href="#DejaVuSans-86"/>
    <use x="1021.861328" xlink:href="#DejaVuSans-73"/>
    <use x="1051.353516" xlink:href="#DejaVuSans-68"/>
    <use x="1128.355469" xlink:href="#DejaVuSans-45"/>
    <use x="1164.439453" xlink:href="#DejaVuSans-49"/>
    <use x="1228.0625" xlink:href="#DejaVuSans-57"/>
   </g>
  </g>
 </g>
 <defs>
  <clipPath id="p7773c812a6">
   <rect height="192.85" width="372.3125" x="99.314375" y="132.59"/>
  </clipPath>
  <clipPath id="pd372561b7b">
   <rect height="192.85" width="372.3125" x="547.314375" y="132.59"/>
  </clipPath>
  <clipPath id="pc2294b49bb">
   <rect height="192.85" width="372.3125" x="99.314375" y="419.19"/>
  </clipPath>
  <clipPath id="pd04def3202">
   <rect height="192.85" width="372.3125" x="547.314375" y="419.19"/>
  </clipPath>
 </defs>
</svg>
