<?xml version="1.0" encoding="utf-8" standalone="no"?>
<!DOCTYPE svg PUBLIC "-//W3C//DTD SVG 1.1//EN"
  "http://www.w3.org/Graphics/SVG/1.1/DTD/svg11.dtd">
<!-- Created with matplotlib (https://matplotlib.org/) -->
<svg height="648pt" version="1.1" viewBox="0 0 936 648" width="936pt" xmlns="http://www.w3.org/2000/svg" xmlns:xlink="http://www.w3.org/1999/xlink">
 <defs>
  <style type="text/css">
*{stroke-linecap:butt;stroke-linejoin:round;}
  </style>
 </defs>
 <g id="figure_1">
  <g id="patch_1">
   <path d="M 0 648 
L 936 648 
L 936 0 
L 0 0 
z
" style="fill:#ffffff;"/>
  </g>
  <g id="axes_1">
   <g id="patch_2">
    <path d="M 66.125 302.4 
L 438.4375 302.4 
L 438.4375 109.55 
L 66.125 109.55 
z
" style="fill:#ffffff;"/>
   </g>
   <g id="matplotlib.axis_1">
    <g id="xtick_1">
     <g id="line2d_1">
      <path clip-path="url(#p86f9a8b301)" d="M 66.125 302.4 
L 66.125 109.55 
" style="fill:none;stroke:#000000;stroke-linecap:square;stroke-opacity:0.2;stroke-width:0.5;"/>
     </g>
     <g id="line2d_2">
      <defs>
       <path d="M 0 0 
L 0 3.5 
" id="m5c79e8ea79" style="stroke:#000000;stroke-width:0.8;"/>
      </defs>
      <g>
       <use style="stroke:#000000;stroke-width:0.8;" x="66.125" xlink:href="#m5c79e8ea79" y="302.4"/>
      </g>
     </g>
     <g id="text_1">
      <!-- 28 -->
      <defs>
       <path d="M 19.1875 8.296875 
L 53.609375 8.296875 
L 53.609375 0 
L 7.328125 0 
L 7.328125 8.296875 
Q 12.9375 14.109375 22.625 23.890625 
Q 32.328125 33.6875 34.8125 36.53125 
Q 39.546875 41.84375 41.421875 45.53125 
Q 43.3125 49.21875 43.3125 52.78125 
Q 43.3125 58.59375 39.234375 62.25 
Q 35.15625 65.921875 28.609375 65.921875 
Q 23.96875 65.921875 18.8125 64.3125 
Q 13.671875 62.703125 7.8125 59.421875 
L 7.8125 69.390625 
Q 13.765625 71.78125 18.9375 73 
Q 24.125 74.21875 28.421875 74.21875 
Q 39.75 74.21875 46.484375 68.546875 
Q 53.21875 62.890625 53.21875 53.421875 
Q 53.21875 48.921875 51.53125 44.890625 
Q 49.859375 40.875 45.40625 35.40625 
Q 44.1875 33.984375 37.640625 27.21875 
Q 31.109375 20.453125 19.1875 8.296875 
z
" id="DejaVuSans-50"/>
       <path d="M 31.78125 34.625 
Q 24.75 34.625 20.71875 30.859375 
Q 16.703125 27.09375 16.703125 20.515625 
Q 16.703125 13.921875 20.71875 10.15625 
Q 24.75 6.390625 31.78125 6.390625 
Q 38.8125 6.390625 42.859375 10.171875 
Q 46.921875 13.96875 46.921875 20.515625 
Q 46.921875 27.09375 42.890625 30.859375 
Q 38.875 34.625 31.78125 34.625 
z
M 21.921875 38.8125 
Q 15.578125 40.375 12.03125 44.71875 
Q 8.5 49.078125 8.5 55.328125 
Q 8.5 64.0625 14.71875 69.140625 
Q 20.953125 74.21875 31.78125 74.21875 
Q 42.671875 74.21875 48.875 69.140625 
Q 55.078125 64.0625 55.078125 55.328125 
Q 55.078125 49.078125 51.53125 44.71875 
Q 48 40.375 41.703125 38.8125 
Q 48.828125 37.15625 52.796875 32.3125 
Q 56.78125 27.484375 56.78125 20.515625 
Q 56.78125 9.90625 50.3125 4.234375 
Q 43.84375 -1.421875 31.78125 -1.421875 
Q 19.734375 -1.421875 13.25 4.234375 
Q 6.78125 9.90625 6.78125 20.515625 
Q 6.78125 27.484375 10.78125 32.3125 
Q 14.796875 37.15625 21.921875 38.8125 
z
M 18.3125 54.390625 
Q 18.3125 48.734375 21.84375 45.5625 
Q 25.390625 42.390625 31.78125 42.390625 
Q 38.140625 42.390625 41.71875 45.5625 
Q 45.3125 48.734375 45.3125 54.390625 
Q 45.3125 60.0625 41.71875 63.234375 
Q 38.140625 66.40625 31.78125 66.40625 
Q 25.390625 66.40625 21.84375 63.234375 
Q 18.3125 60.0625 18.3125 54.390625 
z
" id="DejaVuSans-56"/>
      </defs>
      <g transform="translate(58.49 318.518125)scale(0.12 -0.12)">
       <use xlink:href="#DejaVuSans-50"/>
       <use x="63.623047" xlink:href="#DejaVuSans-56"/>
      </g>
     </g>
    </g>
    <g id="xtick_2">
     <g id="line2d_3">
      <path clip-path="url(#p86f9a8b301)" d="M 190.229167 302.4 
L 190.229167 109.55 
" style="fill:none;stroke:#000000;stroke-linecap:square;stroke-opacity:0.2;stroke-width:0.5;"/>
     </g>
     <g id="line2d_4">
      <g>
       <use style="stroke:#000000;stroke-width:0.8;" x="190.229167" xlink:href="#m5c79e8ea79" y="302.4"/>
      </g>
     </g>
     <g id="text_2">
      <!-- 01 -->
      <defs>
       <path d="M 31.78125 66.40625 
Q 24.171875 66.40625 20.328125 58.90625 
Q 16.5 51.421875 16.5 36.375 
Q 16.5 21.390625 20.328125 13.890625 
Q 24.171875 6.390625 31.78125 6.390625 
Q 39.453125 6.390625 43.28125 13.890625 
Q 47.125 21.390625 47.125 36.375 
Q 47.125 51.421875 43.28125 58.90625 
Q 39.453125 66.40625 31.78125 66.40625 
z
M 31.78125 74.21875 
Q 44.046875 74.21875 50.515625 64.515625 
Q 56.984375 54.828125 56.984375 36.375 
Q 56.984375 17.96875 50.515625 8.265625 
Q 44.046875 -1.421875 31.78125 -1.421875 
Q 19.53125 -1.421875 13.0625 8.265625 
Q 6.59375 17.96875 6.59375 36.375 
Q 6.59375 54.828125 13.0625 64.515625 
Q 19.53125 74.21875 31.78125 74.21875 
z
" id="DejaVuSans-48"/>
       <path d="M 12.40625 8.296875 
L 28.515625 8.296875 
L 28.515625 63.921875 
L 10.984375 60.40625 
L 10.984375 69.390625 
L 28.421875 72.90625 
L 38.28125 72.90625 
L 38.28125 8.296875 
L 54.390625 8.296875 
L 54.390625 0 
L 12.40625 0 
z
" id="DejaVuSans-49"/>
      </defs>
      <g transform="translate(182.594167 318.518125)scale(0.12 -0.12)">
       <use xlink:href="#DejaVuSans-48"/>
       <use x="63.623047" xlink:href="#DejaVuSans-49"/>
      </g>
      <!-- May -->
      <defs>
       <path d="M 9.8125 72.90625 
L 24.515625 72.90625 
L 43.109375 23.296875 
L 61.8125 72.90625 
L 76.515625 72.90625 
L 76.515625 0 
L 66.890625 0 
L 66.890625 64.015625 
L 48.09375 14.015625 
L 38.1875 14.015625 
L 19.390625 64.015625 
L 19.390625 0 
L 9.8125 0 
z
" id="DejaVuSans-77"/>
       <path d="M 34.28125 27.484375 
Q 23.390625 27.484375 19.1875 25 
Q 14.984375 22.515625 14.984375 16.5 
Q 14.984375 11.71875 18.140625 8.90625 
Q 21.296875 6.109375 26.703125 6.109375 
Q 34.1875 6.109375 38.703125 11.40625 
Q 43.21875 16.703125 43.21875 25.484375 
L 43.21875 27.484375 
z
M 52.203125 31.203125 
L 52.203125 0 
L 43.21875 0 
L 43.21875 8.296875 
Q 40.140625 3.328125 35.546875 0.953125 
Q 30.953125 -1.421875 24.3125 -1.421875 
Q 15.921875 -1.421875 10.953125 3.296875 
Q 6 8.015625 6 15.921875 
Q 6 25.140625 12.171875 29.828125 
Q 18.359375 34.515625 30.609375 34.515625 
L 43.21875 34.515625 
L 43.21875 35.40625 
Q 43.21875 41.609375 39.140625 45 
Q 35.0625 48.390625 27.6875 48.390625 
Q 23 48.390625 18.546875 47.265625 
Q 14.109375 46.140625 10.015625 43.890625 
L 10.015625 52.203125 
Q 14.9375 54.109375 19.578125 55.046875 
Q 24.21875 56 28.609375 56 
Q 40.484375 56 46.34375 49.84375 
Q 52.203125 43.703125 52.203125 31.203125 
z
" id="DejaVuSans-97"/>
       <path d="M 32.171875 -5.078125 
Q 28.375 -14.84375 24.75 -17.8125 
Q 21.140625 -20.796875 15.09375 -20.796875 
L 7.90625 -20.796875 
L 7.90625 -13.28125 
L 13.1875 -13.28125 
Q 16.890625 -13.28125 18.9375 -11.515625 
Q 21 -9.765625 23.484375 -3.21875 
L 25.09375 0.875 
L 2.984375 54.6875 
L 12.5 54.6875 
L 29.59375 11.921875 
L 46.6875 54.6875 
L 56.203125 54.6875 
z
" id="DejaVuSans-121"/>
      </defs>
      <g transform="translate(177.824167 331.9555)scale(0.12 -0.12)">
       <use xlink:href="#DejaVuSans-77"/>
       <use x="86.279297" xlink:href="#DejaVuSans-97"/>
       <use x="147.558594" xlink:href="#DejaVuSans-121"/>
      </g>
      <!-- 2020 -->
      <g transform="translate(174.959167 345.392875)scale(0.12 -0.12)">
       <use xlink:href="#DejaVuSans-50"/>
       <use x="63.623047" xlink:href="#DejaVuSans-48"/>
       <use x="127.246094" xlink:href="#DejaVuSans-50"/>
       <use x="190.869141" xlink:href="#DejaVuSans-48"/>
      </g>
     </g>
    </g>
    <g id="xtick_3">
     <g id="line2d_5">
      <path clip-path="url(#p86f9a8b301)" d="M 438.4375 302.4 
L 438.4375 109.55 
" style="fill:none;stroke:#000000;stroke-linecap:square;stroke-opacity:0.2;stroke-width:0.5;"/>
     </g>
     <g id="line2d_6">
      <g>
       <use style="stroke:#000000;stroke-width:0.8;" x="438.4375" xlink:href="#m5c79e8ea79" y="302.4"/>
      </g>
     </g>
     <g id="text_3">
      <!-- 07 -->
      <defs>
       <path d="M 8.203125 72.90625 
L 55.078125 72.90625 
L 55.078125 68.703125 
L 28.609375 0 
L 18.3125 0 
L 43.21875 64.59375 
L 8.203125 64.59375 
z
" id="DejaVuSans-55"/>
      </defs>
      <g transform="translate(430.8025 318.518125)scale(0.12 -0.12)">
       <use xlink:href="#DejaVuSans-48"/>
       <use x="63.623047" xlink:href="#DejaVuSans-55"/>
      </g>
     </g>
    </g>
    <g id="xtick_4">
     <g id="line2d_7">
      <defs>
       <path d="M 0 0 
L 0 2 
" id="mfdde48a509" style="stroke:#000000;stroke-width:0.6;"/>
      </defs>
      <g>
       <use style="stroke:#000000;stroke-width:0.6;" x="107.493056" xlink:href="#mfdde48a509" y="302.4"/>
      </g>
     </g>
     <g id="text_4">
      <!-- 29 -->
      <defs>
       <path d="M 10.984375 1.515625 
L 10.984375 10.5 
Q 14.703125 8.734375 18.5 7.8125 
Q 22.3125 6.890625 25.984375 6.890625 
Q 35.75 6.890625 40.890625 13.453125 
Q 46.046875 20.015625 46.78125 33.40625 
Q 43.953125 29.203125 39.59375 26.953125 
Q 35.25 24.703125 29.984375 24.703125 
Q 19.046875 24.703125 12.671875 31.3125 
Q 6.296875 37.9375 6.296875 49.421875 
Q 6.296875 60.640625 12.9375 67.421875 
Q 19.578125 74.21875 30.609375 74.21875 
Q 43.265625 74.21875 49.921875 64.515625 
Q 56.59375 54.828125 56.59375 36.375 
Q 56.59375 19.140625 48.40625 8.859375 
Q 40.234375 -1.421875 26.421875 -1.421875 
Q 22.703125 -1.421875 18.890625 -0.6875 
Q 15.09375 0.046875 10.984375 1.515625 
z
M 30.609375 32.421875 
Q 37.25 32.421875 41.125 36.953125 
Q 45.015625 41.5 45.015625 49.421875 
Q 45.015625 57.28125 41.125 61.84375 
Q 37.25 66.40625 30.609375 66.40625 
Q 23.96875 66.40625 20.09375 61.84375 
Q 16.21875 57.28125 16.21875 49.421875 
Q 16.21875 41.5 20.09375 36.953125 
Q 23.96875 32.421875 30.609375 32.421875 
z
" id="DejaVuSans-57"/>
      </defs>
      <g transform="translate(99.858056 316.918125)scale(0.12 -0.12)">
       <use xlink:href="#DejaVuSans-50"/>
       <use x="63.623047" xlink:href="#DejaVuSans-57"/>
      </g>
     </g>
    </g>
    <g id="xtick_5">
     <g id="line2d_8">
      <g>
       <use style="stroke:#000000;stroke-width:0.6;" x="148.861111" xlink:href="#mfdde48a509" y="302.4"/>
      </g>
     </g>
     <g id="text_5">
      <!-- 30 -->
      <defs>
       <path d="M 40.578125 39.3125 
Q 47.65625 37.796875 51.625 33 
Q 55.609375 28.21875 55.609375 21.1875 
Q 55.609375 10.40625 48.1875 4.484375 
Q 40.765625 -1.421875 27.09375 -1.421875 
Q 22.515625 -1.421875 17.65625 -0.515625 
Q 12.796875 0.390625 7.625 2.203125 
L 7.625 11.71875 
Q 11.71875 9.328125 16.59375 8.109375 
Q 21.484375 6.890625 26.8125 6.890625 
Q 36.078125 6.890625 40.9375 10.546875 
Q 45.796875 14.203125 45.796875 21.1875 
Q 45.796875 27.640625 41.28125 31.265625 
Q 36.765625 34.90625 28.71875 34.90625 
L 20.21875 34.90625 
L 20.21875 43.015625 
L 29.109375 43.015625 
Q 36.375 43.015625 40.234375 45.921875 
Q 44.09375 48.828125 44.09375 54.296875 
Q 44.09375 59.90625 40.109375 62.90625 
Q 36.140625 65.921875 28.71875 65.921875 
Q 24.65625 65.921875 20.015625 65.03125 
Q 15.375 64.15625 9.8125 62.3125 
L 9.8125 71.09375 
Q 15.4375 72.65625 20.34375 73.4375 
Q 25.25 74.21875 29.59375 74.21875 
Q 40.828125 74.21875 47.359375 69.109375 
Q 53.90625 64.015625 53.90625 55.328125 
Q 53.90625 49.265625 50.4375 45.09375 
Q 46.96875 40.921875 40.578125 39.3125 
z
" id="DejaVuSans-51"/>
      </defs>
      <g transform="translate(141.226111 316.918125)scale(0.12 -0.12)">
       <use xlink:href="#DejaVuSans-51"/>
       <use x="63.623047" xlink:href="#DejaVuSans-48"/>
      </g>
     </g>
    </g>
    <g id="xtick_6">
     <g id="line2d_9">
      <g>
       <use style="stroke:#000000;stroke-width:0.6;" x="231.597222" xlink:href="#mfdde48a509" y="302.4"/>
      </g>
     </g>
     <g id="text_6">
      <!-- 02 -->
      <g transform="translate(223.962222 316.918125)scale(0.12 -0.12)">
       <use xlink:href="#DejaVuSans-48"/>
       <use x="63.623047" xlink:href="#DejaVuSans-50"/>
      </g>
     </g>
    </g>
    <g id="xtick_7">
     <g id="line2d_10">
      <g>
       <use style="stroke:#000000;stroke-width:0.6;" x="272.965278" xlink:href="#mfdde48a509" y="302.4"/>
      </g>
     </g>
     <g id="text_7">
      <!-- 03 -->
      <g transform="translate(265.330278 316.918125)scale(0.12 -0.12)">
       <use xlink:href="#DejaVuSans-48"/>
       <use x="63.623047" xlink:href="#DejaVuSans-51"/>
      </g>
     </g>
    </g>
    <g id="xtick_8">
     <g id="line2d_11">
      <g>
       <use style="stroke:#000000;stroke-width:0.6;" x="314.333333" xlink:href="#mfdde48a509" y="302.4"/>
      </g>
     </g>
     <g id="text_8">
      <!-- 04 -->
      <defs>
       <path d="M 37.796875 64.3125 
L 12.890625 25.390625 
L 37.796875 25.390625 
z
M 35.203125 72.90625 
L 47.609375 72.90625 
L 47.609375 25.390625 
L 58.015625 25.390625 
L 58.015625 17.1875 
L 47.609375 17.1875 
L 47.609375 0 
L 37.796875 0 
L 37.796875 17.1875 
L 4.890625 17.1875 
L 4.890625 26.703125 
z
" id="DejaVuSans-52"/>
      </defs>
      <g transform="translate(306.698333 316.918125)scale(0.12 -0.12)">
       <use xlink:href="#DejaVuSans-48"/>
       <use x="63.623047" xlink:href="#DejaVuSans-52"/>
      </g>
     </g>
    </g>
    <g id="xtick_9">
     <g id="line2d_12">
      <g>
       <use style="stroke:#000000;stroke-width:0.6;" x="355.701389" xlink:href="#mfdde48a509" y="302.4"/>
      </g>
     </g>
     <g id="text_9">
      <!-- 05 -->
      <defs>
       <path d="M 10.796875 72.90625 
L 49.515625 72.90625 
L 49.515625 64.59375 
L 19.828125 64.59375 
L 19.828125 46.734375 
Q 21.96875 47.46875 24.109375 47.828125 
Q 26.265625 48.1875 28.421875 48.1875 
Q 40.625 48.1875 47.75 41.5 
Q 54.890625 34.8125 54.890625 23.390625 
Q 54.890625 11.625 47.5625 5.09375 
Q 40.234375 -1.421875 26.90625 -1.421875 
Q 22.3125 -1.421875 17.546875 -0.640625 
Q 12.796875 0.140625 7.71875 1.703125 
L 7.71875 11.625 
Q 12.109375 9.234375 16.796875 8.0625 
Q 21.484375 6.890625 26.703125 6.890625 
Q 35.15625 6.890625 40.078125 11.328125 
Q 45.015625 15.765625 45.015625 23.390625 
Q 45.015625 31 40.078125 35.4375 
Q 35.15625 39.890625 26.703125 39.890625 
Q 22.75 39.890625 18.8125 39.015625 
Q 14.890625 38.140625 10.796875 36.28125 
z
" id="DejaVuSans-53"/>
      </defs>
      <g transform="translate(348.066389 316.918125)scale(0.12 -0.12)">
       <use xlink:href="#DejaVuSans-48"/>
       <use x="63.623047" xlink:href="#DejaVuSans-53"/>
      </g>
     </g>
    </g>
    <g id="xtick_10">
     <g id="line2d_13">
      <g>
       <use style="stroke:#000000;stroke-width:0.6;" x="397.069444" xlink:href="#mfdde48a509" y="302.4"/>
      </g>
     </g>
     <g id="text_10">
      <!-- 06 -->
      <defs>
       <path d="M 33.015625 40.375 
Q 26.375 40.375 22.484375 35.828125 
Q 18.609375 31.296875 18.609375 23.390625 
Q 18.609375 15.53125 22.484375 10.953125 
Q 26.375 6.390625 33.015625 6.390625 
Q 39.65625 6.390625 43.53125 10.953125 
Q 47.40625 15.53125 47.40625 23.390625 
Q 47.40625 31.296875 43.53125 35.828125 
Q 39.65625 40.375 33.015625 40.375 
z
M 52.59375 71.296875 
L 52.59375 62.3125 
Q 48.875 64.0625 45.09375 64.984375 
Q 41.3125 65.921875 37.59375 65.921875 
Q 27.828125 65.921875 22.671875 59.328125 
Q 17.53125 52.734375 16.796875 39.40625 
Q 19.671875 43.65625 24.015625 45.921875 
Q 28.375 48.1875 33.59375 48.1875 
Q 44.578125 48.1875 50.953125 41.515625 
Q 57.328125 34.859375 57.328125 23.390625 
Q 57.328125 12.15625 50.6875 5.359375 
Q 44.046875 -1.421875 33.015625 -1.421875 
Q 20.359375 -1.421875 13.671875 8.265625 
Q 6.984375 17.96875 6.984375 36.375 
Q 6.984375 53.65625 15.1875 63.9375 
Q 23.390625 74.21875 37.203125 74.21875 
Q 40.921875 74.21875 44.703125 73.484375 
Q 48.484375 72.75 52.59375 71.296875 
z
" id="DejaVuSans-54"/>
      </defs>
      <g transform="translate(389.434444 316.918125)scale(0.12 -0.12)">
       <use xlink:href="#DejaVuSans-48"/>
       <use x="63.623047" xlink:href="#DejaVuSans-54"/>
      </g>
     </g>
    </g>
   </g>
   <g id="matplotlib.axis_2">
    <g id="ytick_1">
     <g id="line2d_14">
      <path clip-path="url(#p86f9a8b301)" d="M 66.125 279.024242 
L 438.4375 279.024242 
" style="fill:none;stroke:#000000;stroke-linecap:square;stroke-opacity:0.2;stroke-width:0.5;"/>
     </g>
     <g id="line2d_15">
      <defs>
       <path d="M 0 0 
L -3.5 0 
" id="m9ac6e1e20c" style="stroke:#000000;stroke-width:0.8;"/>
      </defs>
      <g>
       <use style="stroke:#000000;stroke-width:0.8;" x="66.125" xlink:href="#m9ac6e1e20c" y="279.024242"/>
      </g>
     </g>
     <g id="text_11">
      <!-- 10 -->
      <g transform="translate(43.855 283.583305)scale(0.12 -0.12)">
       <use xlink:href="#DejaVuSans-49"/>
       <use x="63.623047" xlink:href="#DejaVuSans-48"/>
      </g>
     </g>
    </g>
    <g id="ytick_2">
     <g id="line2d_16">
      <path clip-path="url(#p86f9a8b301)" d="M 66.125 242.499621 
L 438.4375 242.499621 
" style="fill:none;stroke:#000000;stroke-linecap:square;stroke-opacity:0.2;stroke-width:0.5;"/>
     </g>
     <g id="line2d_17">
      <g>
       <use style="stroke:#000000;stroke-width:0.8;" x="66.125" xlink:href="#m9ac6e1e20c" y="242.499621"/>
      </g>
     </g>
     <g id="text_12">
      <!-- 20 -->
      <g transform="translate(43.855 247.058684)scale(0.12 -0.12)">
       <use xlink:href="#DejaVuSans-50"/>
       <use x="63.623047" xlink:href="#DejaVuSans-48"/>
      </g>
     </g>
    </g>
    <g id="ytick_3">
     <g id="line2d_18">
      <path clip-path="url(#p86f9a8b301)" d="M 66.125 205.975 
L 438.4375 205.975 
" style="fill:none;stroke:#000000;stroke-linecap:square;stroke-opacity:0.2;stroke-width:0.5;"/>
     </g>
     <g id="line2d_19">
      <g>
       <use style="stroke:#000000;stroke-width:0.8;" x="66.125" xlink:href="#m9ac6e1e20c" y="205.975"/>
      </g>
     </g>
     <g id="text_13">
      <!-- 30 -->
      <g transform="translate(43.855 210.534062)scale(0.12 -0.12)">
       <use xlink:href="#DejaVuSans-51"/>
       <use x="63.623047" xlink:href="#DejaVuSans-48"/>
      </g>
     </g>
    </g>
    <g id="ytick_4">
     <g id="line2d_20">
      <path clip-path="url(#p86f9a8b301)" d="M 66.125 169.450379 
L 438.4375 169.450379 
" style="fill:none;stroke:#000000;stroke-linecap:square;stroke-opacity:0.2;stroke-width:0.5;"/>
     </g>
     <g id="line2d_21">
      <g>
       <use style="stroke:#000000;stroke-width:0.8;" x="66.125" xlink:href="#m9ac6e1e20c" y="169.450379"/>
      </g>
     </g>
     <g id="text_14">
      <!-- 40 -->
      <g transform="translate(43.855 174.009441)scale(0.12 -0.12)">
       <use xlink:href="#DejaVuSans-52"/>
       <use x="63.623047" xlink:href="#DejaVuSans-48"/>
      </g>
     </g>
    </g>
    <g id="ytick_5">
     <g id="line2d_22">
      <path clip-path="url(#p86f9a8b301)" d="M 66.125 132.925758 
L 438.4375 132.925758 
" style="fill:none;stroke:#000000;stroke-linecap:square;stroke-opacity:0.2;stroke-width:0.5;"/>
     </g>
     <g id="line2d_23">
      <g>
       <use style="stroke:#000000;stroke-width:0.8;" x="66.125" xlink:href="#m9ac6e1e20c" y="132.925758"/>
      </g>
     </g>
     <g id="text_15">
      <!-- 50 -->
      <g transform="translate(43.855 137.48482)scale(0.12 -0.12)">
       <use xlink:href="#DejaVuSans-53"/>
       <use x="63.623047" xlink:href="#DejaVuSans-48"/>
      </g>
     </g>
    </g>
    <g id="text_16">
     <!-- Cases -->
     <defs>
      <path d="M 64.40625 67.28125 
L 64.40625 56.890625 
Q 59.421875 61.53125 53.78125 63.8125 
Q 48.140625 66.109375 41.796875 66.109375 
Q 29.296875 66.109375 22.65625 58.46875 
Q 16.015625 50.828125 16.015625 36.375 
Q 16.015625 21.96875 22.65625 14.328125 
Q 29.296875 6.6875 41.796875 6.6875 
Q 48.140625 6.6875 53.78125 8.984375 
Q 59.421875 11.28125 64.40625 15.921875 
L 64.40625 5.609375 
Q 59.234375 2.09375 53.4375 0.328125 
Q 47.65625 -1.421875 41.21875 -1.421875 
Q 24.65625 -1.421875 15.125 8.703125 
Q 5.609375 18.84375 5.609375 36.375 
Q 5.609375 53.953125 15.125 64.078125 
Q 24.65625 74.21875 41.21875 74.21875 
Q 47.75 74.21875 53.53125 72.484375 
Q 59.328125 70.75 64.40625 67.28125 
z
" id="DejaVuSans-67"/>
      <path d="M 44.28125 53.078125 
L 44.28125 44.578125 
Q 40.484375 46.53125 36.375 47.5 
Q 32.28125 48.484375 27.875 48.484375 
Q 21.1875 48.484375 17.84375 46.4375 
Q 14.5 44.390625 14.5 40.28125 
Q 14.5 37.15625 16.890625 35.375 
Q 19.28125 33.59375 26.515625 31.984375 
L 29.59375 31.296875 
Q 39.15625 29.25 43.1875 25.515625 
Q 47.21875 21.78125 47.21875 15.09375 
Q 47.21875 7.46875 41.1875 3.015625 
Q 35.15625 -1.421875 24.609375 -1.421875 
Q 20.21875 -1.421875 15.453125 -0.5625 
Q 10.6875 0.296875 5.421875 2 
L 5.421875 11.28125 
Q 10.40625 8.6875 15.234375 7.390625 
Q 20.0625 6.109375 24.8125 6.109375 
Q 31.15625 6.109375 34.5625 8.28125 
Q 37.984375 10.453125 37.984375 14.40625 
Q 37.984375 18.0625 35.515625 20.015625 
Q 33.0625 21.96875 24.703125 23.78125 
L 21.578125 24.515625 
Q 13.234375 26.265625 9.515625 29.90625 
Q 5.8125 33.546875 5.8125 39.890625 
Q 5.8125 47.609375 11.28125 51.796875 
Q 16.75 56 26.8125 56 
Q 31.78125 56 36.171875 55.265625 
Q 40.578125 54.546875 44.28125 53.078125 
z
" id="DejaVuSans-115"/>
      <path d="M 56.203125 29.59375 
L 56.203125 25.203125 
L 14.890625 25.203125 
Q 15.484375 15.921875 20.484375 11.0625 
Q 25.484375 6.203125 34.421875 6.203125 
Q 39.59375 6.203125 44.453125 7.46875 
Q 49.3125 8.734375 54.109375 11.28125 
L 54.109375 2.78125 
Q 49.265625 0.734375 44.1875 -0.34375 
Q 39.109375 -1.421875 33.890625 -1.421875 
Q 20.796875 -1.421875 13.15625 6.1875 
Q 5.515625 13.8125 5.515625 26.8125 
Q 5.515625 40.234375 12.765625 48.109375 
Q 20.015625 56 32.328125 56 
Q 43.359375 56 49.78125 48.890625 
Q 56.203125 41.796875 56.203125 29.59375 
z
M 47.21875 32.234375 
Q 47.125 39.59375 43.09375 43.984375 
Q 39.0625 48.390625 32.421875 48.390625 
Q 24.90625 48.390625 20.390625 44.140625 
Q 15.875 39.890625 15.1875 32.171875 
z
" id="DejaVuSans-101"/>
     </defs>
     <g transform="translate(36.943437 226.752969)rotate(-90)scale(0.14 -0.14)">
      <use xlink:href="#DejaVuSans-67"/>
      <use x="69.824219" xlink:href="#DejaVuSans-97"/>
      <use x="131.103516" xlink:href="#DejaVuSans-115"/>
      <use x="183.203125" xlink:href="#DejaVuSans-101"/>
      <use x="244.726562" xlink:href="#DejaVuSans-115"/>
     </g>
    </g>
   </g>
   <g id="line2d_24">
    <path clip-path="url(#p86f9a8b301)" d="M 66.125 274.275782 
L 107.493056 265.836481 
L 148.861111 255.628166 
L 190.229167 241.0606 
L 231.597222 226.786777 
L 272.965278 219.275956 
L 314.333333 210.196039 
L 355.701389 199.591751 
L 397.069444 188.464366 
L 438.4375 177.706714 
" style="fill:none;stroke:#1f77b4;stroke-linecap:square;stroke-width:3;"/>
   </g>
   <g id="line2d_25">
    <defs>
     <path d="M -3 3 
L 3 -3 
M -3 -3 
L 3 3 
" id="mf8d67186db" style="stroke:#000000;"/>
    </defs>
    <g clip-path="url(#p86f9a8b301)">
     <use style="stroke:#000000;" x="66.125" xlink:href="#mf8d67186db" y="293.634091"/>
     <use style="stroke:#000000;" x="107.493056" xlink:href="#mf8d67186db" y="275.37178"/>
     <use style="stroke:#000000;" x="148.861111" xlink:href="#mf8d67186db" y="282.676705"/>
     <use style="stroke:#000000;" x="190.229167" xlink:href="#mf8d67186db" y="289.981629"/>
     <use style="stroke:#000000;" x="231.597222" xlink:href="#mf8d67186db" y="289.981629"/>
     <use style="stroke:#000000;" x="272.965278" xlink:href="#mf8d67186db" y="118.315909"/>
     <use style="stroke:#000000;" x="314.333333" xlink:href="#mf8d67186db" y="169.450379"/>
     <use style="stroke:#000000;" x="355.701389" xlink:href="#mf8d67186db" y="191.365152"/>
     <use style="stroke:#000000;" x="397.069444" xlink:href="#mf8d67186db" y="191.365152"/>
     <use style="stroke:#000000;" x="438.4375" xlink:href="#mf8d67186db" y="191.365152"/>
    </g>
   </g>
   <g id="patch_3">
    <path d="M 66.125 302.4 
L 66.125 109.55 
" style="fill:none;stroke:#000000;stroke-linecap:square;stroke-linejoin:miter;"/>
   </g>
   <g id="patch_4">
    <path d="M 438.4375 302.4 
L 438.4375 109.55 
" style="fill:none;stroke:#000000;stroke-linecap:square;stroke-linejoin:miter;"/>
   </g>
   <g id="patch_5">
    <path d="M 66.125 302.4 
L 438.4375 302.4 
" style="fill:none;stroke:#000000;stroke-linecap:square;stroke-linejoin:miter;"/>
   </g>
   <g id="patch_6">
    <path d="M 66.125 109.55 
L 438.4375 109.55 
" style="fill:none;stroke:#000000;stroke-linecap:square;stroke-linejoin:miter;"/>
   </g>
   <g id="text_17">
    <!-- Daily Cases -->
    <defs>
     <path d="M 19.671875 64.796875 
L 19.671875 8.109375 
L 31.59375 8.109375 
Q 46.6875 8.109375 53.6875 14.9375 
Q 60.6875 21.78125 60.6875 36.53125 
Q 60.6875 51.171875 53.6875 57.984375 
Q 46.6875 64.796875 31.59375 64.796875 
z
M 9.8125 72.90625 
L 30.078125 72.90625 
Q 51.265625 72.90625 61.171875 64.09375 
Q 71.09375 55.28125 71.09375 36.53125 
Q 71.09375 17.671875 61.125 8.828125 
Q 51.171875 0 30.078125 0 
L 9.8125 0 
z
" id="DejaVuSans-68"/>
     <path d="M 9.421875 54.6875 
L 18.40625 54.6875 
L 18.40625 0 
L 9.421875 0 
z
M 9.421875 75.984375 
L 18.40625 75.984375 
L 18.40625 64.59375 
L 9.421875 64.59375 
z
" id="DejaVuSans-105"/>
     <path d="M 9.421875 75.984375 
L 18.40625 75.984375 
L 18.40625 0 
L 9.421875 0 
z
" id="DejaVuSans-108"/>
     <path id="DejaVuSans-32"/>
    </defs>
    <g transform="translate(194.117188 94.55)scale(0.2 -0.2)">
     <use xlink:href="#DejaVuSans-68"/>
     <use x="77.001953" xlink:href="#DejaVuSans-97"/>
     <use x="138.28125" xlink:href="#DejaVuSans-105"/>
     <use x="166.064453" xlink:href="#DejaVuSans-108"/>
     <use x="193.847656" xlink:href="#DejaVuSans-121"/>
     <use x="253.027344" xlink:href="#DejaVuSans-32"/>
     <use x="284.814453" xlink:href="#DejaVuSans-67"/>
     <use x="354.638672" xlink:href="#DejaVuSans-97"/>
     <use x="415.917969" xlink:href="#DejaVuSans-115"/>
     <use x="468.017578" xlink:href="#DejaVuSans-101"/>
     <use x="529.541016" xlink:href="#DejaVuSans-115"/>
    </g>
   </g>
   <g id="legend_1">
    <g id="patch_7">
     <path d="M 369.56875 136.235 
L 432.8375 136.235 
Q 434.4375 136.235 434.4375 134.635 
L 434.4375 115.15 
Q 434.4375 113.55 432.8375 113.55 
L 369.56875 113.55 
Q 367.96875 113.55 367.96875 115.15 
L 367.96875 134.635 
Q 367.96875 136.235 369.56875 136.235 
z
" style="fill:#ffffff;opacity:0.5;stroke:#cccccc;stroke-linejoin:miter;"/>
    </g>
    <g id="line2d_26">
     <path d="M 369.56875 118.42875 
L 385.56875 118.42875 
" style="fill:none;stroke:#1f77b4;stroke-linecap:square;stroke-width:3;"/>
    </g>
    <g id="line2d_27"/>
    <g id="text_18">
     <!-- Smoothed -->
     <defs>
      <path d="M 53.515625 70.515625 
L 53.515625 60.890625 
Q 47.90625 63.578125 42.921875 64.890625 
Q 37.9375 66.21875 33.296875 66.21875 
Q 25.25 66.21875 20.875 63.09375 
Q 16.5 59.96875 16.5 54.203125 
Q 16.5 49.359375 19.40625 46.890625 
Q 22.3125 44.4375 30.421875 42.921875 
L 36.375 41.703125 
Q 47.40625 39.59375 52.65625 34.296875 
Q 57.90625 29 57.90625 20.125 
Q 57.90625 9.515625 50.796875 4.046875 
Q 43.703125 -1.421875 29.984375 -1.421875 
Q 24.8125 -1.421875 18.96875 -0.25 
Q 13.140625 0.921875 6.890625 3.21875 
L 6.890625 13.375 
Q 12.890625 10.015625 18.65625 8.296875 
Q 24.421875 6.59375 29.984375 6.59375 
Q 38.421875 6.59375 43.015625 9.90625 
Q 47.609375 13.234375 47.609375 19.390625 
Q 47.609375 24.75 44.3125 27.78125 
Q 41.015625 30.8125 33.5 32.328125 
L 27.484375 33.5 
Q 16.453125 35.6875 11.515625 40.375 
Q 6.59375 45.0625 6.59375 53.421875 
Q 6.59375 63.09375 13.40625 68.65625 
Q 20.21875 74.21875 32.171875 74.21875 
Q 37.3125 74.21875 42.625 73.28125 
Q 47.953125 72.359375 53.515625 70.515625 
z
" id="DejaVuSans-83"/>
      <path d="M 52 44.1875 
Q 55.375 50.25 60.0625 53.125 
Q 64.75 56 71.09375 56 
Q 79.640625 56 84.28125 50.015625 
Q 88.921875 44.046875 88.921875 33.015625 
L 88.921875 0 
L 79.890625 0 
L 79.890625 32.71875 
Q 79.890625 40.578125 77.09375 44.375 
Q 74.3125 48.1875 68.609375 48.1875 
Q 61.625 48.1875 57.5625 43.546875 
Q 53.515625 38.921875 53.515625 30.90625 
L 53.515625 0 
L 44.484375 0 
L 44.484375 32.71875 
Q 44.484375 40.625 41.703125 44.40625 
Q 38.921875 48.1875 33.109375 48.1875 
Q 26.21875 48.1875 22.15625 43.53125 
Q 18.109375 38.875 18.109375 30.90625 
L 18.109375 0 
L 9.078125 0 
L 9.078125 54.6875 
L 18.109375 54.6875 
L 18.109375 46.1875 
Q 21.1875 51.21875 25.484375 53.609375 
Q 29.78125 56 35.6875 56 
Q 41.65625 56 45.828125 52.96875 
Q 50 49.953125 52 44.1875 
z
" id="DejaVuSans-109"/>
      <path d="M 30.609375 48.390625 
Q 23.390625 48.390625 19.1875 42.75 
Q 14.984375 37.109375 14.984375 27.296875 
Q 14.984375 17.484375 19.15625 11.84375 
Q 23.34375 6.203125 30.609375 6.203125 
Q 37.796875 6.203125 41.984375 11.859375 
Q 46.1875 17.53125 46.1875 27.296875 
Q 46.1875 37.015625 41.984375 42.703125 
Q 37.796875 48.390625 30.609375 48.390625 
z
M 30.609375 56 
Q 42.328125 56 49.015625 48.375 
Q 55.71875 40.765625 55.71875 27.296875 
Q 55.71875 13.875 49.015625 6.21875 
Q 42.328125 -1.421875 30.609375 -1.421875 
Q 18.84375 -1.421875 12.171875 6.21875 
Q 5.515625 13.875 5.515625 27.296875 
Q 5.515625 40.765625 12.171875 48.375 
Q 18.84375 56 30.609375 56 
z
" id="DejaVuSans-111"/>
      <path d="M 18.3125 70.21875 
L 18.3125 54.6875 
L 36.8125 54.6875 
L 36.8125 47.703125 
L 18.3125 47.703125 
L 18.3125 18.015625 
Q 18.3125 11.328125 20.140625 9.421875 
Q 21.96875 7.515625 27.59375 7.515625 
L 36.8125 7.515625 
L 36.8125 0 
L 27.59375 0 
Q 17.1875 0 13.234375 3.875 
Q 9.28125 7.765625 9.28125 18.015625 
L 9.28125 47.703125 
L 2.6875 47.703125 
L 2.6875 54.6875 
L 9.28125 54.6875 
L 9.28125 70.21875 
z
" id="DejaVuSans-116"/>
      <path d="M 54.890625 33.015625 
L 54.890625 0 
L 45.90625 0 
L 45.90625 32.71875 
Q 45.90625 40.484375 42.875 44.328125 
Q 39.84375 48.1875 33.796875 48.1875 
Q 26.515625 48.1875 22.3125 43.546875 
Q 18.109375 38.921875 18.109375 30.90625 
L 18.109375 0 
L 9.078125 0 
L 9.078125 75.984375 
L 18.109375 75.984375 
L 18.109375 46.1875 
Q 21.34375 51.125 25.703125 53.5625 
Q 30.078125 56 35.796875 56 
Q 45.21875 56 50.046875 50.171875 
Q 54.890625 44.34375 54.890625 33.015625 
z
" id="DejaVuSans-104"/>
      <path d="M 45.40625 46.390625 
L 45.40625 75.984375 
L 54.390625 75.984375 
L 54.390625 0 
L 45.40625 0 
L 45.40625 8.203125 
Q 42.578125 3.328125 38.25 0.953125 
Q 33.9375 -1.421875 27.875 -1.421875 
Q 17.96875 -1.421875 11.734375 6.484375 
Q 5.515625 14.40625 5.515625 27.296875 
Q 5.515625 40.1875 11.734375 48.09375 
Q 17.96875 56 27.875 56 
Q 33.9375 56 38.25 53.625 
Q 42.578125 51.265625 45.40625 46.390625 
z
M 14.796875 27.296875 
Q 14.796875 17.390625 18.875 11.75 
Q 22.953125 6.109375 30.078125 6.109375 
Q 37.203125 6.109375 41.296875 11.75 
Q 45.40625 17.390625 45.40625 27.296875 
Q 45.40625 37.203125 41.296875 42.84375 
Q 37.203125 48.484375 30.078125 48.484375 
Q 22.953125 48.484375 18.875 42.84375 
Q 14.796875 37.203125 14.796875 27.296875 
z
" id="DejaVuSans-100"/>
     </defs>
     <g transform="translate(391.96875 121.22875)scale(0.08 -0.08)">
      <use xlink:href="#DejaVuSans-83"/>
      <use x="63.476562" xlink:href="#DejaVuSans-109"/>
      <use x="160.888672" xlink:href="#DejaVuSans-111"/>
      <use x="222.070312" xlink:href="#DejaVuSans-111"/>
      <use x="283.251953" xlink:href="#DejaVuSans-116"/>
      <use x="322.460938" xlink:href="#DejaVuSans-104"/>
      <use x="385.839844" xlink:href="#DejaVuSans-101"/>
      <use x="447.363281" xlink:href="#DejaVuSans-100"/>
     </g>
    </g>
    <g id="line2d_28"/>
    <g id="line2d_29">
     <g>
      <use style="stroke:#000000;" x="377.56875" xlink:href="#mf8d67186db" y="130.17125"/>
     </g>
    </g>
    <g id="text_19">
     <!-- Raw -->
     <defs>
      <path d="M 44.390625 34.1875 
Q 47.5625 33.109375 50.5625 29.59375 
Q 53.5625 26.078125 56.59375 19.921875 
L 66.609375 0 
L 56 0 
L 46.6875 18.703125 
Q 43.0625 26.03125 39.671875 28.421875 
Q 36.28125 30.8125 30.421875 30.8125 
L 19.671875 30.8125 
L 19.671875 0 
L 9.8125 0 
L 9.8125 72.90625 
L 32.078125 72.90625 
Q 44.578125 72.90625 50.734375 67.671875 
Q 56.890625 62.453125 56.890625 51.90625 
Q 56.890625 45.015625 53.6875 40.46875 
Q 50.484375 35.9375 44.390625 34.1875 
z
M 19.671875 64.796875 
L 19.671875 38.921875 
L 32.078125 38.921875 
Q 39.203125 38.921875 42.84375 42.21875 
Q 46.484375 45.515625 46.484375 51.90625 
Q 46.484375 58.296875 42.84375 61.546875 
Q 39.203125 64.796875 32.078125 64.796875 
z
" id="DejaVuSans-82"/>
      <path d="M 4.203125 54.6875 
L 13.1875 54.6875 
L 24.421875 12.015625 
L 35.59375 54.6875 
L 46.1875 54.6875 
L 57.421875 12.015625 
L 68.609375 54.6875 
L 77.59375 54.6875 
L 63.28125 0 
L 52.6875 0 
L 40.921875 44.828125 
L 29.109375 0 
L 18.5 0 
z
" id="DejaVuSans-119"/>
     </defs>
     <g transform="translate(391.96875 132.97125)scale(0.08 -0.08)">
      <use xlink:href="#DejaVuSans-82"/>
      <use x="67.232422" xlink:href="#DejaVuSans-97"/>
      <use x="128.511719" xlink:href="#DejaVuSans-119"/>
     </g>
    </g>
   </g>
  </g>
  <g id="axes_2">
   <g id="patch_8">
    <path d="M 514.125 302.4 
L 886.4375 302.4 
L 886.4375 109.55 
L 514.125 109.55 
z
" style="fill:#ffffff;"/>
   </g>
   <g id="matplotlib.axis_3">
    <g id="xtick_11">
     <g id="line2d_30">
      <path clip-path="url(#pe3c26a0aef)" d="M 514.125 302.4 
L 514.125 109.55 
" style="fill:none;stroke:#000000;stroke-linecap:square;stroke-opacity:0.2;stroke-width:0.5;"/>
     </g>
     <g id="line2d_31">
      <g>
       <use style="stroke:#000000;stroke-width:0.8;" x="514.125" xlink:href="#m5c79e8ea79" y="302.4"/>
      </g>
     </g>
     <g id="text_20">
      <!-- 28 -->
      <g transform="translate(506.49 318.518125)scale(0.12 -0.12)">
       <use xlink:href="#DejaVuSans-50"/>
       <use x="63.623047" xlink:href="#DejaVuSans-56"/>
      </g>
     </g>
    </g>
    <g id="xtick_12">
     <g id="line2d_32">
      <path clip-path="url(#pe3c26a0aef)" d="M 638.229167 302.4 
L 638.229167 109.55 
" style="fill:none;stroke:#000000;stroke-linecap:square;stroke-opacity:0.2;stroke-width:0.5;"/>
     </g>
     <g id="line2d_33">
      <g>
       <use style="stroke:#000000;stroke-width:0.8;" x="638.229167" xlink:href="#m5c79e8ea79" y="302.4"/>
      </g>
     </g>
     <g id="text_21">
      <!-- 01 -->
      <g transform="translate(630.594167 318.518125)scale(0.12 -0.12)">
       <use xlink:href="#DejaVuSans-48"/>
       <use x="63.623047" xlink:href="#DejaVuSans-49"/>
      </g>
      <!-- May -->
      <g transform="translate(625.824167 331.9555)scale(0.12 -0.12)">
       <use xlink:href="#DejaVuSans-77"/>
       <use x="86.279297" xlink:href="#DejaVuSans-97"/>
       <use x="147.558594" xlink:href="#DejaVuSans-121"/>
      </g>
      <!-- 2020 -->
      <g transform="translate(622.959167 345.392875)scale(0.12 -0.12)">
       <use xlink:href="#DejaVuSans-50"/>
       <use x="63.623047" xlink:href="#DejaVuSans-48"/>
       <use x="127.246094" xlink:href="#DejaVuSans-50"/>
       <use x="190.869141" xlink:href="#DejaVuSans-48"/>
      </g>
     </g>
    </g>
    <g id="xtick_13">
     <g id="line2d_34">
      <path clip-path="url(#pe3c26a0aef)" d="M 886.4375 302.4 
L 886.4375 109.55 
" style="fill:none;stroke:#000000;stroke-linecap:square;stroke-opacity:0.2;stroke-width:0.5;"/>
     </g>
     <g id="line2d_35">
      <g>
       <use style="stroke:#000000;stroke-width:0.8;" x="886.4375" xlink:href="#m5c79e8ea79" y="302.4"/>
      </g>
     </g>
     <g id="text_22">
      <!-- 07 -->
      <g transform="translate(878.8025 318.518125)scale(0.12 -0.12)">
       <use xlink:href="#DejaVuSans-48"/>
       <use x="63.623047" xlink:href="#DejaVuSans-55"/>
      </g>
     </g>
    </g>
    <g id="xtick_14">
     <g id="line2d_36">
      <g>
       <use style="stroke:#000000;stroke-width:0.6;" x="555.493056" xlink:href="#mfdde48a509" y="302.4"/>
      </g>
     </g>
     <g id="text_23">
      <!-- 29 -->
      <g transform="translate(547.858056 316.918125)scale(0.12 -0.12)">
       <use xlink:href="#DejaVuSans-50"/>
       <use x="63.623047" xlink:href="#DejaVuSans-57"/>
      </g>
     </g>
    </g>
    <g id="xtick_15">
     <g id="line2d_37">
      <g>
       <use style="stroke:#000000;stroke-width:0.6;" x="596.861111" xlink:href="#mfdde48a509" y="302.4"/>
      </g>
     </g>
     <g id="text_24">
      <!-- 30 -->
      <g transform="translate(589.226111 316.918125)scale(0.12 -0.12)">
       <use xlink:href="#DejaVuSans-51"/>
       <use x="63.623047" xlink:href="#DejaVuSans-48"/>
      </g>
     </g>
    </g>
    <g id="xtick_16">
     <g id="line2d_38">
      <g>
       <use style="stroke:#000000;stroke-width:0.6;" x="679.597222" xlink:href="#mfdde48a509" y="302.4"/>
      </g>
     </g>
     <g id="text_25">
      <!-- 02 -->
      <g transform="translate(671.962222 316.918125)scale(0.12 -0.12)">
       <use xlink:href="#DejaVuSans-48"/>
       <use x="63.623047" xlink:href="#DejaVuSans-50"/>
      </g>
     </g>
    </g>
    <g id="xtick_17">
     <g id="line2d_39">
      <g>
       <use style="stroke:#000000;stroke-width:0.6;" x="720.965278" xlink:href="#mfdde48a509" y="302.4"/>
      </g>
     </g>
     <g id="text_26">
      <!-- 03 -->
      <g transform="translate(713.330278 316.918125)scale(0.12 -0.12)">
       <use xlink:href="#DejaVuSans-48"/>
       <use x="63.623047" xlink:href="#DejaVuSans-51"/>
      </g>
     </g>
    </g>
    <g id="xtick_18">
     <g id="line2d_40">
      <g>
       <use style="stroke:#000000;stroke-width:0.6;" x="762.333333" xlink:href="#mfdde48a509" y="302.4"/>
      </g>
     </g>
     <g id="text_27">
      <!-- 04 -->
      <g transform="translate(754.698333 316.918125)scale(0.12 -0.12)">
       <use xlink:href="#DejaVuSans-48"/>
       <use x="63.623047" xlink:href="#DejaVuSans-52"/>
      </g>
     </g>
    </g>
    <g id="xtick_19">
     <g id="line2d_41">
      <g>
       <use style="stroke:#000000;stroke-width:0.6;" x="803.701389" xlink:href="#mfdde48a509" y="302.4"/>
      </g>
     </g>
     <g id="text_28">
      <!-- 05 -->
      <g transform="translate(796.066389 316.918125)scale(0.12 -0.12)">
       <use xlink:href="#DejaVuSans-48"/>
       <use x="63.623047" xlink:href="#DejaVuSans-53"/>
      </g>
     </g>
    </g>
    <g id="xtick_20">
     <g id="line2d_42">
      <g>
       <use style="stroke:#000000;stroke-width:0.6;" x="845.069444" xlink:href="#mfdde48a509" y="302.4"/>
      </g>
     </g>
     <g id="text_29">
      <!-- 06 -->
      <g transform="translate(837.434444 316.918125)scale(0.12 -0.12)">
       <use xlink:href="#DejaVuSans-48"/>
       <use x="63.623047" xlink:href="#DejaVuSans-54"/>
      </g>
     </g>
    </g>
   </g>
   <g id="matplotlib.axis_4">
    <g id="ytick_6">
     <g id="line2d_43">
      <path clip-path="url(#pe3c26a0aef)" d="M 514.125 271.528755 
L 886.4375 271.528755 
" style="fill:none;stroke:#000000;stroke-linecap:square;stroke-opacity:0.2;stroke-width:0.5;"/>
     </g>
     <g id="line2d_44">
      <g>
       <use style="stroke:#000000;stroke-width:0.8;" x="514.125" xlink:href="#m9ac6e1e20c" y="271.528755"/>
      </g>
     </g>
     <g id="text_30">
      <!-- 150 -->
      <g transform="translate(484.22 276.087817)scale(0.12 -0.12)">
       <use xlink:href="#DejaVuSans-49"/>
       <use x="63.623047" xlink:href="#DejaVuSans-53"/>
       <use x="127.246094" xlink:href="#DejaVuSans-48"/>
      </g>
     </g>
    </g>
    <g id="ytick_7">
     <g id="line2d_45">
      <path clip-path="url(#pe3c26a0aef)" d="M 514.125 233.416107 
L 886.4375 233.416107 
" style="fill:none;stroke:#000000;stroke-linecap:square;stroke-opacity:0.2;stroke-width:0.5;"/>
     </g>
     <g id="line2d_46">
      <g>
       <use style="stroke:#000000;stroke-width:0.8;" x="514.125" xlink:href="#m9ac6e1e20c" y="233.416107"/>
      </g>
     </g>
     <g id="text_31">
      <!-- 200 -->
      <g transform="translate(484.22 237.975169)scale(0.12 -0.12)">
       <use xlink:href="#DejaVuSans-50"/>
       <use x="63.623047" xlink:href="#DejaVuSans-48"/>
       <use x="127.246094" xlink:href="#DejaVuSans-48"/>
      </g>
     </g>
    </g>
    <g id="ytick_8">
     <g id="line2d_47">
      <path clip-path="url(#pe3c26a0aef)" d="M 514.125 195.303458 
L 886.4375 195.303458 
" style="fill:none;stroke:#000000;stroke-linecap:square;stroke-opacity:0.2;stroke-width:0.5;"/>
     </g>
     <g id="line2d_48">
      <g>
       <use style="stroke:#000000;stroke-width:0.8;" x="514.125" xlink:href="#m9ac6e1e20c" y="195.303458"/>
      </g>
     </g>
     <g id="text_32">
      <!-- 250 -->
      <g transform="translate(484.22 199.862521)scale(0.12 -0.12)">
       <use xlink:href="#DejaVuSans-50"/>
       <use x="63.623047" xlink:href="#DejaVuSans-53"/>
       <use x="127.246094" xlink:href="#DejaVuSans-48"/>
      </g>
     </g>
    </g>
    <g id="ytick_9">
     <g id="line2d_49">
      <path clip-path="url(#pe3c26a0aef)" d="M 514.125 157.19081 
L 886.4375 157.19081 
" style="fill:none;stroke:#000000;stroke-linecap:square;stroke-opacity:0.2;stroke-width:0.5;"/>
     </g>
     <g id="line2d_50">
      <g>
       <use style="stroke:#000000;stroke-width:0.8;" x="514.125" xlink:href="#m9ac6e1e20c" y="157.19081"/>
      </g>
     </g>
     <g id="text_33">
      <!-- 300 -->
      <g transform="translate(484.22 161.749873)scale(0.12 -0.12)">
       <use xlink:href="#DejaVuSans-51"/>
       <use x="63.623047" xlink:href="#DejaVuSans-48"/>
       <use x="127.246094" xlink:href="#DejaVuSans-48"/>
      </g>
     </g>
    </g>
    <g id="ytick_10">
     <g id="line2d_51">
      <path clip-path="url(#pe3c26a0aef)" d="M 514.125 119.078162 
L 886.4375 119.078162 
" style="fill:none;stroke:#000000;stroke-linecap:square;stroke-opacity:0.2;stroke-width:0.5;"/>
     </g>
     <g id="line2d_52">
      <g>
       <use style="stroke:#000000;stroke-width:0.8;" x="514.125" xlink:href="#m9ac6e1e20c" y="119.078162"/>
      </g>
     </g>
     <g id="text_34">
      <!-- 350 -->
      <g transform="translate(484.22 123.637225)scale(0.12 -0.12)">
       <use xlink:href="#DejaVuSans-51"/>
       <use x="63.623047" xlink:href="#DejaVuSans-53"/>
       <use x="127.246094" xlink:href="#DejaVuSans-48"/>
      </g>
     </g>
    </g>
    <g id="text_35">
     <!-- Cases -->
     <g transform="translate(477.308438 226.752969)rotate(-90)scale(0.14 -0.14)">
      <use xlink:href="#DejaVuSans-67"/>
      <use x="69.824219" xlink:href="#DejaVuSans-97"/>
      <use x="131.103516" xlink:href="#DejaVuSans-115"/>
      <use x="183.203125" xlink:href="#DejaVuSans-101"/>
      <use x="244.726562" xlink:href="#DejaVuSans-115"/>
     </g>
    </g>
   </g>
   <g id="line2d_53">
    <path clip-path="url(#pe3c26a0aef)" d="M 514.125 293.634091 
L 555.493056 285.249308 
L 596.861111 278.389032 
L 638.229167 273.053261 
L 679.597222 267.71749 
L 720.965278 226.55583 
L 762.333333 196.065711 
L 803.701389 170.149111 
L 845.069444 144.23251 
L 886.4375 118.315909 
" style="fill:none;stroke:#1f77b4;stroke-linecap:square;stroke-width:3;"/>
   </g>
   <g id="patch_9">
    <path d="M 514.125 302.4 
L 514.125 109.55 
" style="fill:none;stroke:#000000;stroke-linecap:square;stroke-linejoin:miter;"/>
   </g>
   <g id="patch_10">
    <path d="M 886.4375 302.4 
L 886.4375 109.55 
" style="fill:none;stroke:#000000;stroke-linecap:square;stroke-linejoin:miter;"/>
   </g>
   <g id="patch_11">
    <path d="M 514.125 302.4 
L 886.4375 302.4 
" style="fill:none;stroke:#000000;stroke-linecap:square;stroke-linejoin:miter;"/>
   </g>
   <g id="patch_12">
    <path d="M 514.125 109.55 
L 886.4375 109.55 
" style="fill:none;stroke:#000000;stroke-linecap:square;stroke-linejoin:miter;"/>
   </g>
   <g id="text_36">
    <!-- Cumulative Cases -->
    <defs>
     <path d="M 8.5 21.578125 
L 8.5 54.6875 
L 17.484375 54.6875 
L 17.484375 21.921875 
Q 17.484375 14.15625 20.5 10.265625 
Q 23.53125 6.390625 29.59375 6.390625 
Q 36.859375 6.390625 41.078125 11.03125 
Q 45.3125 15.671875 45.3125 23.6875 
L 45.3125 54.6875 
L 54.296875 54.6875 
L 54.296875 0 
L 45.3125 0 
L 45.3125 8.40625 
Q 42.046875 3.421875 37.71875 1 
Q 33.40625 -1.421875 27.6875 -1.421875 
Q 18.265625 -1.421875 13.375 4.4375 
Q 8.5 10.296875 8.5 21.578125 
z
M 31.109375 56 
z
" id="DejaVuSans-117"/>
     <path d="M 2.984375 54.6875 
L 12.5 54.6875 
L 29.59375 8.796875 
L 46.6875 54.6875 
L 56.203125 54.6875 
L 35.6875 0 
L 23.484375 0 
z
" id="DejaVuSans-118"/>
    </defs>
    <g transform="translate(610.345312 94.55)scale(0.2 -0.2)">
     <use xlink:href="#DejaVuSans-67"/>
     <use x="69.824219" xlink:href="#DejaVuSans-117"/>
     <use x="133.203125" xlink:href="#DejaVuSans-109"/>
     <use x="230.615234" xlink:href="#DejaVuSans-117"/>
     <use x="293.994141" xlink:href="#DejaVuSans-108"/>
     <use x="321.777344" xlink:href="#DejaVuSans-97"/>
     <use x="383.056641" xlink:href="#DejaVuSans-116"/>
     <use x="422.265625" xlink:href="#DejaVuSans-105"/>
     <use x="450.048828" xlink:href="#DejaVuSans-118"/>
     <use x="509.228516" xlink:href="#DejaVuSans-101"/>
     <use x="570.751953" xlink:href="#DejaVuSans-32"/>
     <use x="602.539062" xlink:href="#DejaVuSans-67"/>
     <use x="672.363281" xlink:href="#DejaVuSans-97"/>
     <use x="733.642578" xlink:href="#DejaVuSans-115"/>
     <use x="785.742188" xlink:href="#DejaVuSans-101"/>
     <use x="847.265625" xlink:href="#DejaVuSans-115"/>
    </g>
   </g>
  </g>
  <g id="axes_3">
   <g id="patch_13">
    <path d="M 66.125 589 
L 438.4375 589 
L 438.4375 396.15 
L 66.125 396.15 
z
" style="fill:#ffffff;"/>
   </g>
   <g id="matplotlib.axis_5">
    <g id="xtick_21">
     <g id="line2d_54">
      <path clip-path="url(#p9939739f8b)" d="M 66.125 589 
L 66.125 396.15 
" style="fill:none;stroke:#000000;stroke-linecap:square;stroke-opacity:0.2;stroke-width:0.5;"/>
     </g>
     <g id="line2d_55">
      <g>
       <use style="stroke:#000000;stroke-width:0.8;" x="66.125" xlink:href="#m5c79e8ea79" y="589"/>
      </g>
     </g>
     <g id="text_37">
      <!-- 28 -->
      <g transform="translate(58.49 605.118125)scale(0.12 -0.12)">
       <use xlink:href="#DejaVuSans-50"/>
       <use x="63.623047" xlink:href="#DejaVuSans-56"/>
      </g>
     </g>
    </g>
    <g id="xtick_22">
     <g id="line2d_56">
      <path clip-path="url(#p9939739f8b)" d="M 190.229167 589 
L 190.229167 396.15 
" style="fill:none;stroke:#000000;stroke-linecap:square;stroke-opacity:0.2;stroke-width:0.5;"/>
     </g>
     <g id="line2d_57">
      <g>
       <use style="stroke:#000000;stroke-width:0.8;" x="190.229167" xlink:href="#m5c79e8ea79" y="589"/>
      </g>
     </g>
     <g id="text_38">
      <!-- 01 -->
      <g transform="translate(182.594167 605.118125)scale(0.12 -0.12)">
       <use xlink:href="#DejaVuSans-48"/>
       <use x="63.623047" xlink:href="#DejaVuSans-49"/>
      </g>
      <!-- May -->
      <g transform="translate(177.824167 618.5555)scale(0.12 -0.12)">
       <use xlink:href="#DejaVuSans-77"/>
       <use x="86.279297" xlink:href="#DejaVuSans-97"/>
       <use x="147.558594" xlink:href="#DejaVuSans-121"/>
      </g>
      <!-- 2020 -->
      <g transform="translate(174.959167 631.992875)scale(0.12 -0.12)">
       <use xlink:href="#DejaVuSans-50"/>
       <use x="63.623047" xlink:href="#DejaVuSans-48"/>
       <use x="127.246094" xlink:href="#DejaVuSans-50"/>
       <use x="190.869141" xlink:href="#DejaVuSans-48"/>
      </g>
     </g>
    </g>
    <g id="xtick_23">
     <g id="line2d_58">
      <path clip-path="url(#p9939739f8b)" d="M 438.4375 589 
L 438.4375 396.15 
" style="fill:none;stroke:#000000;stroke-linecap:square;stroke-opacity:0.2;stroke-width:0.5;"/>
     </g>
     <g id="line2d_59">
      <g>
       <use style="stroke:#000000;stroke-width:0.8;" x="438.4375" xlink:href="#m5c79e8ea79" y="589"/>
      </g>
     </g>
     <g id="text_39">
      <!-- 07 -->
      <g transform="translate(430.8025 605.118125)scale(0.12 -0.12)">
       <use xlink:href="#DejaVuSans-48"/>
       <use x="63.623047" xlink:href="#DejaVuSans-55"/>
      </g>
     </g>
    </g>
    <g id="xtick_24">
     <g id="line2d_60">
      <g>
       <use style="stroke:#000000;stroke-width:0.6;" x="107.493056" xlink:href="#mfdde48a509" y="589"/>
      </g>
     </g>
     <g id="text_40">
      <!-- 29 -->
      <g transform="translate(99.858056 603.518125)scale(0.12 -0.12)">
       <use xlink:href="#DejaVuSans-50"/>
       <use x="63.623047" xlink:href="#DejaVuSans-57"/>
      </g>
     </g>
    </g>
    <g id="xtick_25">
     <g id="line2d_61">
      <g>
       <use style="stroke:#000000;stroke-width:0.6;" x="148.861111" xlink:href="#mfdde48a509" y="589"/>
      </g>
     </g>
     <g id="text_41">
      <!-- 30 -->
      <g transform="translate(141.226111 603.518125)scale(0.12 -0.12)">
       <use xlink:href="#DejaVuSans-51"/>
       <use x="63.623047" xlink:href="#DejaVuSans-48"/>
      </g>
     </g>
    </g>
    <g id="xtick_26">
     <g id="line2d_62">
      <g>
       <use style="stroke:#000000;stroke-width:0.6;" x="231.597222" xlink:href="#mfdde48a509" y="589"/>
      </g>
     </g>
     <g id="text_42">
      <!-- 02 -->
      <g transform="translate(223.962222 603.518125)scale(0.12 -0.12)">
       <use xlink:href="#DejaVuSans-48"/>
       <use x="63.623047" xlink:href="#DejaVuSans-50"/>
      </g>
     </g>
    </g>
    <g id="xtick_27">
     <g id="line2d_63">
      <g>
       <use style="stroke:#000000;stroke-width:0.6;" x="272.965278" xlink:href="#mfdde48a509" y="589"/>
      </g>
     </g>
     <g id="text_43">
      <!-- 03 -->
      <g transform="translate(265.330278 603.518125)scale(0.12 -0.12)">
       <use xlink:href="#DejaVuSans-48"/>
       <use x="63.623047" xlink:href="#DejaVuSans-51"/>
      </g>
     </g>
    </g>
    <g id="xtick_28">
     <g id="line2d_64">
      <g>
       <use style="stroke:#000000;stroke-width:0.6;" x="314.333333" xlink:href="#mfdde48a509" y="589"/>
      </g>
     </g>
     <g id="text_44">
      <!-- 04 -->
      <g transform="translate(306.698333 603.518125)scale(0.12 -0.12)">
       <use xlink:href="#DejaVuSans-48"/>
       <use x="63.623047" xlink:href="#DejaVuSans-52"/>
      </g>
     </g>
    </g>
    <g id="xtick_29">
     <g id="line2d_65">
      <g>
       <use style="stroke:#000000;stroke-width:0.6;" x="355.701389" xlink:href="#mfdde48a509" y="589"/>
      </g>
     </g>
     <g id="text_45">
      <!-- 05 -->
      <g transform="translate(348.066389 603.518125)scale(0.12 -0.12)">
       <use xlink:href="#DejaVuSans-48"/>
       <use x="63.623047" xlink:href="#DejaVuSans-53"/>
      </g>
     </g>
    </g>
    <g id="xtick_30">
     <g id="line2d_66">
      <g>
       <use style="stroke:#000000;stroke-width:0.6;" x="397.069444" xlink:href="#mfdde48a509" y="589"/>
      </g>
     </g>
     <g id="text_46">
      <!-- 06 -->
      <g transform="translate(389.434444 603.518125)scale(0.12 -0.12)">
       <use xlink:href="#DejaVuSans-48"/>
       <use x="63.623047" xlink:href="#DejaVuSans-54"/>
      </g>
     </g>
    </g>
   </g>
   <g id="matplotlib.axis_6">
    <g id="ytick_11">
     <g id="line2d_67">
      <path clip-path="url(#p9939739f8b)" d="M 66.125 580.234091 
L 438.4375 580.234091 
" style="fill:none;stroke:#000000;stroke-linecap:square;stroke-opacity:0.2;stroke-width:0.5;"/>
     </g>
     <g id="line2d_68">
      <g>
       <use style="stroke:#000000;stroke-width:0.8;" x="66.125" xlink:href="#m9ac6e1e20c" y="580.234091"/>
      </g>
     </g>
     <g id="text_47">
      <!-- 0.000 -->
      <defs>
       <path d="M 10.6875 12.40625 
L 21 12.40625 
L 21 0 
L 10.6875 0 
z
" id="DejaVuSans-46"/>
      </defs>
      <g transform="translate(24.77125 584.793153)scale(0.12 -0.12)">
       <use xlink:href="#DejaVuSans-48"/>
       <use x="63.623047" xlink:href="#DejaVuSans-46"/>
       <use x="95.410156" xlink:href="#DejaVuSans-48"/>
       <use x="159.033203" xlink:href="#DejaVuSans-48"/>
       <use x="222.65625" xlink:href="#DejaVuSans-48"/>
      </g>
     </g>
    </g>
    <g id="ytick_12">
     <g id="line2d_69">
      <path clip-path="url(#p9939739f8b)" d="M 66.125 550.52267 
L 438.4375 550.52267 
" style="fill:none;stroke:#000000;stroke-linecap:square;stroke-opacity:0.2;stroke-width:0.5;"/>
     </g>
     <g id="line2d_70">
      <g>
       <use style="stroke:#000000;stroke-width:0.8;" x="66.125" xlink:href="#m9ac6e1e20c" y="550.52267"/>
      </g>
     </g>
     <g id="text_48">
      <!-- 0.025 -->
      <g transform="translate(24.77125 555.081732)scale(0.12 -0.12)">
       <use xlink:href="#DejaVuSans-48"/>
       <use x="63.623047" xlink:href="#DejaVuSans-46"/>
       <use x="95.410156" xlink:href="#DejaVuSans-48"/>
       <use x="159.033203" xlink:href="#DejaVuSans-50"/>
       <use x="222.65625" xlink:href="#DejaVuSans-53"/>
      </g>
     </g>
    </g>
    <g id="ytick_13">
     <g id="line2d_71">
      <path clip-path="url(#p9939739f8b)" d="M 66.125 520.811249 
L 438.4375 520.811249 
" style="fill:none;stroke:#000000;stroke-linecap:square;stroke-opacity:0.2;stroke-width:0.5;"/>
     </g>
     <g id="line2d_72">
      <g>
       <use style="stroke:#000000;stroke-width:0.8;" x="66.125" xlink:href="#m9ac6e1e20c" y="520.811249"/>
      </g>
     </g>
     <g id="text_49">
      <!-- 0.050 -->
      <g transform="translate(24.77125 525.370311)scale(0.12 -0.12)">
       <use xlink:href="#DejaVuSans-48"/>
       <use x="63.623047" xlink:href="#DejaVuSans-46"/>
       <use x="95.410156" xlink:href="#DejaVuSans-48"/>
       <use x="159.033203" xlink:href="#DejaVuSans-53"/>
       <use x="222.65625" xlink:href="#DejaVuSans-48"/>
      </g>
     </g>
    </g>
    <g id="ytick_14">
     <g id="line2d_73">
      <path clip-path="url(#p9939739f8b)" d="M 66.125 491.099827 
L 438.4375 491.099827 
" style="fill:none;stroke:#000000;stroke-linecap:square;stroke-opacity:0.2;stroke-width:0.5;"/>
     </g>
     <g id="line2d_74">
      <g>
       <use style="stroke:#000000;stroke-width:0.8;" x="66.125" xlink:href="#m9ac6e1e20c" y="491.099827"/>
      </g>
     </g>
     <g id="text_50">
      <!-- 0.075 -->
      <g transform="translate(24.77125 495.65889)scale(0.12 -0.12)">
       <use xlink:href="#DejaVuSans-48"/>
       <use x="63.623047" xlink:href="#DejaVuSans-46"/>
       <use x="95.410156" xlink:href="#DejaVuSans-48"/>
       <use x="159.033203" xlink:href="#DejaVuSans-55"/>
       <use x="222.65625" xlink:href="#DejaVuSans-53"/>
      </g>
     </g>
    </g>
    <g id="ytick_15">
     <g id="line2d_75">
      <path clip-path="url(#p9939739f8b)" d="M 66.125 461.388406 
L 438.4375 461.388406 
" style="fill:none;stroke:#000000;stroke-linecap:square;stroke-opacity:0.2;stroke-width:0.5;"/>
     </g>
     <g id="line2d_76">
      <g>
       <use style="stroke:#000000;stroke-width:0.8;" x="66.125" xlink:href="#m9ac6e1e20c" y="461.388406"/>
      </g>
     </g>
     <g id="text_51">
      <!-- 0.100 -->
      <g transform="translate(24.77125 465.947469)scale(0.12 -0.12)">
       <use xlink:href="#DejaVuSans-48"/>
       <use x="63.623047" xlink:href="#DejaVuSans-46"/>
       <use x="95.410156" xlink:href="#DejaVuSans-49"/>
       <use x="159.033203" xlink:href="#DejaVuSans-48"/>
       <use x="222.65625" xlink:href="#DejaVuSans-48"/>
      </g>
     </g>
    </g>
    <g id="ytick_16">
     <g id="line2d_77">
      <path clip-path="url(#p9939739f8b)" d="M 66.125 431.676985 
L 438.4375 431.676985 
" style="fill:none;stroke:#000000;stroke-linecap:square;stroke-opacity:0.2;stroke-width:0.5;"/>
     </g>
     <g id="line2d_78">
      <g>
       <use style="stroke:#000000;stroke-width:0.8;" x="66.125" xlink:href="#m9ac6e1e20c" y="431.676985"/>
      </g>
     </g>
     <g id="text_52">
      <!-- 0.125 -->
      <g transform="translate(24.77125 436.236048)scale(0.12 -0.12)">
       <use xlink:href="#DejaVuSans-48"/>
       <use x="63.623047" xlink:href="#DejaVuSans-46"/>
       <use x="95.410156" xlink:href="#DejaVuSans-49"/>
       <use x="159.033203" xlink:href="#DejaVuSans-50"/>
       <use x="222.65625" xlink:href="#DejaVuSans-53"/>
      </g>
     </g>
    </g>
    <g id="ytick_17">
     <g id="line2d_79">
      <path clip-path="url(#p9939739f8b)" d="M 66.125 401.965564 
L 438.4375 401.965564 
" style="fill:none;stroke:#000000;stroke-linecap:square;stroke-opacity:0.2;stroke-width:0.5;"/>
     </g>
     <g id="line2d_80">
      <g>
       <use style="stroke:#000000;stroke-width:0.8;" x="66.125" xlink:href="#m9ac6e1e20c" y="401.965564"/>
      </g>
     </g>
     <g id="text_53">
      <!-- 0.150 -->
      <g transform="translate(24.77125 406.524626)scale(0.12 -0.12)">
       <use xlink:href="#DejaVuSans-48"/>
       <use x="63.623047" xlink:href="#DejaVuSans-46"/>
       <use x="95.410156" xlink:href="#DejaVuSans-49"/>
       <use x="159.033203" xlink:href="#DejaVuSans-53"/>
       <use x="222.65625" xlink:href="#DejaVuSans-48"/>
      </g>
     </g>
    </g>
    <g id="text_54">
     <!-- Days${}^{-1}$ -->
     <defs>
      <path d="M 10.59375 35.5 
L 73.1875 35.5 
L 73.1875 27.203125 
L 10.59375 27.203125 
z
" id="DejaVuSans-8722"/>
     </defs>
     <g transform="translate(17.83125 517.565)rotate(-90)scale(0.14 -0.14)">
      <use transform="translate(0 0.684375)" xlink:href="#DejaVuSans-68"/>
      <use transform="translate(77.001953 0.684375)" xlink:href="#DejaVuSans-97"/>
      <use transform="translate(138.28125 0.684375)" xlink:href="#DejaVuSans-121"/>
      <use transform="translate(197.460938 0.684375)" xlink:href="#DejaVuSans-115"/>
      <use transform="translate(250.517578 38.965625)scale(0.7)" xlink:href="#DejaVuSans-8722"/>
      <use transform="translate(309.169922 38.965625)scale(0.7)" xlink:href="#DejaVuSans-49"/>
     </g>
    </g>
   </g>
   <g id="line2d_81">
    <path clip-path="url(#p9939739f8b)" d="M 66.125 413.746171 
L 107.493056 408.66429 
L 148.861111 405.703311 
L 190.229167 404.915909 
L 231.597222 406.483314 
L 272.965278 409.093926 
L 314.333333 413.030286 
L 355.701389 418.486738 
L 397.069444 425.650179 
L 438.4375 433.33841 
" style="fill:none;stroke:#1f77b4;stroke-linecap:square;stroke-width:3;"/>
   </g>
   <g id="line2d_82">
    <path clip-path="url(#p9939739f8b)" d="M 66.125 580.234091 
L 438.4375 580.234091 
" style="fill:none;stroke:#000000;stroke-linecap:square;stroke-opacity:0.4;stroke-width:2;"/>
   </g>
   <g id="patch_14">
    <path d="M 66.125 589 
L 66.125 396.15 
" style="fill:none;stroke:#000000;stroke-linecap:square;stroke-linejoin:miter;"/>
   </g>
   <g id="patch_15">
    <path d="M 438.4375 589 
L 438.4375 396.15 
" style="fill:none;stroke:#000000;stroke-linecap:square;stroke-linejoin:miter;"/>
   </g>
   <g id="patch_16">
    <path d="M 66.125 589 
L 438.4375 589 
" style="fill:none;stroke:#000000;stroke-linecap:square;stroke-linejoin:miter;"/>
   </g>
   <g id="patch_17">
    <path d="M 66.125 396.15 
L 438.4375 396.15 
" style="fill:none;stroke:#000000;stroke-linecap:square;stroke-linejoin:miter;"/>
   </g>
   <g id="text_55">
    <!-- Logarithmic Growth Rate -->
    <defs>
     <path d="M 9.8125 72.90625 
L 19.671875 72.90625 
L 19.671875 8.296875 
L 55.171875 8.296875 
L 55.171875 0 
L 9.8125 0 
z
" id="DejaVuSans-76"/>
     <path d="M 45.40625 27.984375 
Q 45.40625 37.75 41.375 43.109375 
Q 37.359375 48.484375 30.078125 48.484375 
Q 22.859375 48.484375 18.828125 43.109375 
Q 14.796875 37.75 14.796875 27.984375 
Q 14.796875 18.265625 18.828125 12.890625 
Q 22.859375 7.515625 30.078125 7.515625 
Q 37.359375 7.515625 41.375 12.890625 
Q 45.40625 18.265625 45.40625 27.984375 
z
M 54.390625 6.78125 
Q 54.390625 -7.171875 48.1875 -13.984375 
Q 42 -20.796875 29.203125 -20.796875 
Q 24.46875 -20.796875 20.265625 -20.09375 
Q 16.0625 -19.390625 12.109375 -17.921875 
L 12.109375 -9.1875 
Q 16.0625 -11.328125 19.921875 -12.34375 
Q 23.78125 -13.375 27.78125 -13.375 
Q 36.625 -13.375 41.015625 -8.765625 
Q 45.40625 -4.15625 45.40625 5.171875 
L 45.40625 9.625 
Q 42.625 4.78125 38.28125 2.390625 
Q 33.9375 0 27.875 0 
Q 17.828125 0 11.671875 7.65625 
Q 5.515625 15.328125 5.515625 27.984375 
Q 5.515625 40.671875 11.671875 48.328125 
Q 17.828125 56 27.875 56 
Q 33.9375 56 38.28125 53.609375 
Q 42.625 51.21875 45.40625 46.390625 
L 45.40625 54.6875 
L 54.390625 54.6875 
z
" id="DejaVuSans-103"/>
     <path d="M 41.109375 46.296875 
Q 39.59375 47.171875 37.8125 47.578125 
Q 36.03125 48 33.890625 48 
Q 26.265625 48 22.1875 43.046875 
Q 18.109375 38.09375 18.109375 28.8125 
L 18.109375 0 
L 9.078125 0 
L 9.078125 54.6875 
L 18.109375 54.6875 
L 18.109375 46.1875 
Q 20.953125 51.171875 25.484375 53.578125 
Q 30.03125 56 36.53125 56 
Q 37.453125 56 38.578125 55.875 
Q 39.703125 55.765625 41.0625 55.515625 
z
" id="DejaVuSans-114"/>
     <path d="M 48.78125 52.59375 
L 48.78125 44.1875 
Q 44.96875 46.296875 41.140625 47.34375 
Q 37.3125 48.390625 33.40625 48.390625 
Q 24.65625 48.390625 19.8125 42.84375 
Q 14.984375 37.3125 14.984375 27.296875 
Q 14.984375 17.28125 19.8125 11.734375 
Q 24.65625 6.203125 33.40625 6.203125 
Q 37.3125 6.203125 41.140625 7.25 
Q 44.96875 8.296875 48.78125 10.40625 
L 48.78125 2.09375 
Q 45.015625 0.34375 40.984375 -0.53125 
Q 36.96875 -1.421875 32.421875 -1.421875 
Q 20.0625 -1.421875 12.78125 6.34375 
Q 5.515625 14.109375 5.515625 27.296875 
Q 5.515625 40.671875 12.859375 48.328125 
Q 20.21875 56 33.015625 56 
Q 37.15625 56 41.109375 55.140625 
Q 45.0625 54.296875 48.78125 52.59375 
z
" id="DejaVuSans-99"/>
     <path d="M 59.515625 10.40625 
L 59.515625 29.984375 
L 43.40625 29.984375 
L 43.40625 38.09375 
L 69.28125 38.09375 
L 69.28125 6.78125 
Q 63.578125 2.734375 56.6875 0.65625 
Q 49.8125 -1.421875 42 -1.421875 
Q 24.90625 -1.421875 15.25 8.5625 
Q 5.609375 18.5625 5.609375 36.375 
Q 5.609375 54.25 15.25 64.234375 
Q 24.90625 74.21875 42 74.21875 
Q 49.125 74.21875 55.546875 72.453125 
Q 61.96875 70.703125 67.390625 67.28125 
L 67.390625 56.78125 
Q 61.921875 61.421875 55.765625 63.765625 
Q 49.609375 66.109375 42.828125 66.109375 
Q 29.4375 66.109375 22.71875 58.640625 
Q 16.015625 51.171875 16.015625 36.375 
Q 16.015625 21.625 22.71875 14.15625 
Q 29.4375 6.6875 42.828125 6.6875 
Q 48.046875 6.6875 52.140625 7.59375 
Q 56.25 8.5 59.515625 10.40625 
z
" id="DejaVuSans-71"/>
    </defs>
    <g transform="translate(127.654687 381.15)scale(0.2 -0.2)">
     <use xlink:href="#DejaVuSans-76"/>
     <use x="53.962891" xlink:href="#DejaVuSans-111"/>
     <use x="115.144531" xlink:href="#DejaVuSans-103"/>
     <use x="178.621094" xlink:href="#DejaVuSans-97"/>
     <use x="239.900391" xlink:href="#DejaVuSans-114"/>
     <use x="281.013672" xlink:href="#DejaVuSans-105"/>
     <use x="308.796875" xlink:href="#DejaVuSans-116"/>
     <use x="348.005859" xlink:href="#DejaVuSans-104"/>
     <use x="411.384766" xlink:href="#DejaVuSans-109"/>
     <use x="508.796875" xlink:href="#DejaVuSans-105"/>
     <use x="536.580078" xlink:href="#DejaVuSans-99"/>
     <use x="591.560547" xlink:href="#DejaVuSans-32"/>
     <use x="623.347656" xlink:href="#DejaVuSans-71"/>
     <use x="700.837891" xlink:href="#DejaVuSans-114"/>
     <use x="739.701172" xlink:href="#DejaVuSans-111"/>
     <use x="800.882812" xlink:href="#DejaVuSans-119"/>
     <use x="882.669922" xlink:href="#DejaVuSans-116"/>
     <use x="921.878906" xlink:href="#DejaVuSans-104"/>
     <use x="985.257812" xlink:href="#DejaVuSans-32"/>
     <use x="1017.044922" xlink:href="#DejaVuSans-82"/>
     <use x="1084.277344" xlink:href="#DejaVuSans-97"/>
     <use x="1145.556641" xlink:href="#DejaVuSans-116"/>
     <use x="1184.765625" xlink:href="#DejaVuSans-101"/>
    </g>
   </g>
  </g>
  <g id="axes_4">
   <g id="patch_18">
    <path d="M 514.125 589 
L 886.4375 589 
L 886.4375 396.15 
L 514.125 396.15 
z
" style="fill:#ffffff;"/>
   </g>
   <g id="PolyCollection_1">
    <path clip-path="url(#p60386e3001)" d="M 514.125 418.244557 
L 514.125 441.069032 
L 555.493056 437.326257 
L 596.861111 434.110502 
L 638.229167 431.681355 
L 679.597222 430.319244 
L 720.965278 429.921691 
L 762.333333 431.089104 
L 803.701389 433.794386 
L 845.069444 437.696661 
L 886.4375 442.563872 
L 886.4375 425.5528 
L 886.4375 425.5528 
L 845.069444 420.68559 
L 803.701389 416.783315 
L 762.333333 414.078032 
L 720.965278 412.426997 
L 679.597222 411.720338 
L 638.229167 411.92311 
L 596.861111 413.242098 
L 555.493056 415.42055 
L 514.125 418.244557 
z
" style="fill-opacity:0.2;"/>
   </g>
   <g id="PolyCollection_2">
    <path clip-path="url(#p60386e3001)" d="M 514.125 411.440128 
L 514.125 461.471636 
L 555.493056 457.036901 
L 596.861111 452.8875 
L 638.229167 449.335591 
L 679.597222 446.691281 
L 720.965278 445.019341 
L 762.333333 444.334006 
L 803.701389 444.750884 
L 845.069444 447.903304 
L 886.4375 452.770514 
L 886.4375 418.748372 
L 886.4375 418.748372 
L 845.069444 413.881161 
L 803.701389 409.978886 
L 762.333333 407.273604 
L 720.965278 405.622568 
L 679.597222 404.915909 
L 638.229167 405.118682 
L 596.861111 406.43767 
L 555.493056 408.616121 
L 514.125 411.440128 
z
" style="fill-opacity:0.1;"/>
   </g>
   <g id="matplotlib.axis_7">
    <g id="xtick_31">
     <g id="line2d_83">
      <path clip-path="url(#p60386e3001)" d="M 514.125 589 
L 514.125 396.15 
" style="fill:none;stroke:#000000;stroke-linecap:square;stroke-opacity:0.2;stroke-width:0.5;"/>
     </g>
     <g id="line2d_84">
      <g>
       <use style="stroke:#000000;stroke-width:0.8;" x="514.125" xlink:href="#m5c79e8ea79" y="589"/>
      </g>
     </g>
     <g id="text_56">
      <!-- 28 -->
      <g transform="translate(506.49 605.118125)scale(0.12 -0.12)">
       <use xlink:href="#DejaVuSans-50"/>
       <use x="63.623047" xlink:href="#DejaVuSans-56"/>
      </g>
     </g>
    </g>
    <g id="xtick_32">
     <g id="line2d_85">
      <path clip-path="url(#p60386e3001)" d="M 638.229167 589 
L 638.229167 396.15 
" style="fill:none;stroke:#000000;stroke-linecap:square;stroke-opacity:0.2;stroke-width:0.5;"/>
     </g>
     <g id="line2d_86">
      <g>
       <use style="stroke:#000000;stroke-width:0.8;" x="638.229167" xlink:href="#m5c79e8ea79" y="589"/>
      </g>
     </g>
     <g id="text_57">
      <!-- 01 -->
      <g transform="translate(630.594167 605.118125)scale(0.12 -0.12)">
       <use xlink:href="#DejaVuSans-48"/>
       <use x="63.623047" xlink:href="#DejaVuSans-49"/>
      </g>
      <!-- May -->
      <g transform="translate(625.824167 618.5555)scale(0.12 -0.12)">
       <use xlink:href="#DejaVuSans-77"/>
       <use x="86.279297" xlink:href="#DejaVuSans-97"/>
       <use x="147.558594" xlink:href="#DejaVuSans-121"/>
      </g>
      <!-- 2020 -->
      <g transform="translate(622.959167 631.992875)scale(0.12 -0.12)">
       <use xlink:href="#DejaVuSans-50"/>
       <use x="63.623047" xlink:href="#DejaVuSans-48"/>
       <use x="127.246094" xlink:href="#DejaVuSans-50"/>
       <use x="190.869141" xlink:href="#DejaVuSans-48"/>
      </g>
     </g>
    </g>
    <g id="xtick_33">
     <g id="line2d_87">
      <path clip-path="url(#p60386e3001)" d="M 886.4375 589 
L 886.4375 396.15 
" style="fill:none;stroke:#000000;stroke-linecap:square;stroke-opacity:0.2;stroke-width:0.5;"/>
     </g>
     <g id="line2d_88">
      <g>
       <use style="stroke:#000000;stroke-width:0.8;" x="886.4375" xlink:href="#m5c79e8ea79" y="589"/>
      </g>
     </g>
     <g id="text_58">
      <!-- 07 -->
      <g transform="translate(878.8025 605.118125)scale(0.12 -0.12)">
       <use xlink:href="#DejaVuSans-48"/>
       <use x="63.623047" xlink:href="#DejaVuSans-55"/>
      </g>
     </g>
    </g>
    <g id="xtick_34">
     <g id="line2d_89">
      <g>
       <use style="stroke:#000000;stroke-width:0.6;" x="555.493056" xlink:href="#mfdde48a509" y="589"/>
      </g>
     </g>
     <g id="text_59">
      <!-- 29 -->
      <g transform="translate(547.858056 603.518125)scale(0.12 -0.12)">
       <use xlink:href="#DejaVuSans-50"/>
       <use x="63.623047" xlink:href="#DejaVuSans-57"/>
      </g>
     </g>
    </g>
    <g id="xtick_35">
     <g id="line2d_90">
      <g>
       <use style="stroke:#000000;stroke-width:0.6;" x="596.861111" xlink:href="#mfdde48a509" y="589"/>
      </g>
     </g>
     <g id="text_60">
      <!-- 30 -->
      <g transform="translate(589.226111 603.518125)scale(0.12 -0.12)">
       <use xlink:href="#DejaVuSans-51"/>
       <use x="63.623047" xlink:href="#DejaVuSans-48"/>
      </g>
     </g>
    </g>
    <g id="xtick_36">
     <g id="line2d_91">
      <g>
       <use style="stroke:#000000;stroke-width:0.6;" x="679.597222" xlink:href="#mfdde48a509" y="589"/>
      </g>
     </g>
     <g id="text_61">
      <!-- 02 -->
      <g transform="translate(671.962222 603.518125)scale(0.12 -0.12)">
       <use xlink:href="#DejaVuSans-48"/>
       <use x="63.623047" xlink:href="#DejaVuSans-50"/>
      </g>
     </g>
    </g>
    <g id="xtick_37">
     <g id="line2d_92">
      <g>
       <use style="stroke:#000000;stroke-width:0.6;" x="720.965278" xlink:href="#mfdde48a509" y="589"/>
      </g>
     </g>
     <g id="text_62">
      <!-- 03 -->
      <g transform="translate(713.330278 603.518125)scale(0.12 -0.12)">
       <use xlink:href="#DejaVuSans-48"/>
       <use x="63.623047" xlink:href="#DejaVuSans-51"/>
      </g>
     </g>
    </g>
    <g id="xtick_38">
     <g id="line2d_93">
      <g>
       <use style="stroke:#000000;stroke-width:0.6;" x="762.333333" xlink:href="#mfdde48a509" y="589"/>
      </g>
     </g>
     <g id="text_63">
      <!-- 04 -->
      <g transform="translate(754.698333 603.518125)scale(0.12 -0.12)">
       <use xlink:href="#DejaVuSans-48"/>
       <use x="63.623047" xlink:href="#DejaVuSans-52"/>
      </g>
     </g>
    </g>
    <g id="xtick_39">
     <g id="line2d_94">
      <g>
       <use style="stroke:#000000;stroke-width:0.6;" x="803.701389" xlink:href="#mfdde48a509" y="589"/>
      </g>
     </g>
     <g id="text_64">
      <!-- 05 -->
      <g transform="translate(796.066389 603.518125)scale(0.12 -0.12)">
       <use xlink:href="#DejaVuSans-48"/>
       <use x="63.623047" xlink:href="#DejaVuSans-53"/>
      </g>
     </g>
    </g>
    <g id="xtick_40">
     <g id="line2d_95">
      <g>
       <use style="stroke:#000000;stroke-width:0.6;" x="845.069444" xlink:href="#mfdde48a509" y="589"/>
      </g>
     </g>
     <g id="text_65">
      <!-- 06 -->
      <g transform="translate(837.434444 603.518125)scale(0.12 -0.12)">
       <use xlink:href="#DejaVuSans-48"/>
       <use x="63.623047" xlink:href="#DejaVuSans-54"/>
      </g>
     </g>
    </g>
   </g>
   <g id="matplotlib.axis_8">
    <g id="ytick_18">
     <g id="line2d_96">
      <path clip-path="url(#p60386e3001)" d="M 514.125 580.234091 
L 886.4375 580.234091 
" style="fill:none;stroke:#000000;stroke-linecap:square;stroke-opacity:0.2;stroke-width:0.5;"/>
     </g>
     <g id="line2d_97">
      <g>
       <use style="stroke:#000000;stroke-width:0.8;" x="514.125" xlink:href="#m9ac6e1e20c" y="580.234091"/>
      </g>
     </g>
     <g id="text_66">
      <!-- 1.0 -->
      <g transform="translate(488.04125 584.793153)scale(0.12 -0.12)">
       <use xlink:href="#DejaVuSans-49"/>
       <use x="63.623047" xlink:href="#DejaVuSans-46"/>
       <use x="95.410156" xlink:href="#DejaVuSans-48"/>
      </g>
     </g>
    </g>
    <g id="ytick_19">
     <g id="line2d_98">
      <path clip-path="url(#p60386e3001)" d="M 514.125 553.016377 
L 886.4375 553.016377 
" style="fill:none;stroke:#000000;stroke-linecap:square;stroke-opacity:0.2;stroke-width:0.5;"/>
     </g>
     <g id="line2d_99">
      <g>
       <use style="stroke:#000000;stroke-width:0.8;" x="514.125" xlink:href="#m9ac6e1e20c" y="553.016377"/>
      </g>
     </g>
     <g id="text_67">
      <!-- 1.2 -->
      <g transform="translate(488.04125 557.575439)scale(0.12 -0.12)">
       <use xlink:href="#DejaVuSans-49"/>
       <use x="63.623047" xlink:href="#DejaVuSans-46"/>
       <use x="95.410156" xlink:href="#DejaVuSans-50"/>
      </g>
     </g>
    </g>
    <g id="ytick_20">
     <g id="line2d_100">
      <path clip-path="url(#p60386e3001)" d="M 514.125 525.798663 
L 886.4375 525.798663 
" style="fill:none;stroke:#000000;stroke-linecap:square;stroke-opacity:0.2;stroke-width:0.5;"/>
     </g>
     <g id="line2d_101">
      <g>
       <use style="stroke:#000000;stroke-width:0.8;" x="514.125" xlink:href="#m9ac6e1e20c" y="525.798663"/>
      </g>
     </g>
     <g id="text_68">
      <!-- 1.4 -->
      <g transform="translate(488.04125 530.357725)scale(0.12 -0.12)">
       <use xlink:href="#DejaVuSans-49"/>
       <use x="63.623047" xlink:href="#DejaVuSans-46"/>
       <use x="95.410156" xlink:href="#DejaVuSans-52"/>
      </g>
     </g>
    </g>
    <g id="ytick_21">
     <g id="line2d_102">
      <path clip-path="url(#p60386e3001)" d="M 514.125 498.580948 
L 886.4375 498.580948 
" style="fill:none;stroke:#000000;stroke-linecap:square;stroke-opacity:0.2;stroke-width:0.5;"/>
     </g>
     <g id="line2d_103">
      <g>
       <use style="stroke:#000000;stroke-width:0.8;" x="514.125" xlink:href="#m9ac6e1e20c" y="498.580948"/>
      </g>
     </g>
     <g id="text_69">
      <!-- 1.6 -->
      <g transform="translate(488.04125 503.140011)scale(0.12 -0.12)">
       <use xlink:href="#DejaVuSans-49"/>
       <use x="63.623047" xlink:href="#DejaVuSans-46"/>
       <use x="95.410156" xlink:href="#DejaVuSans-54"/>
      </g>
     </g>
    </g>
    <g id="ytick_22">
     <g id="line2d_104">
      <path clip-path="url(#p60386e3001)" d="M 514.125 471.363234 
L 886.4375 471.363234 
" style="fill:none;stroke:#000000;stroke-linecap:square;stroke-opacity:0.2;stroke-width:0.5;"/>
     </g>
     <g id="line2d_105">
      <g>
       <use style="stroke:#000000;stroke-width:0.8;" x="514.125" xlink:href="#m9ac6e1e20c" y="471.363234"/>
      </g>
     </g>
     <g id="text_70">
      <!-- 1.8 -->
      <g transform="translate(488.04125 475.922297)scale(0.12 -0.12)">
       <use xlink:href="#DejaVuSans-49"/>
       <use x="63.623047" xlink:href="#DejaVuSans-46"/>
       <use x="95.410156" xlink:href="#DejaVuSans-56"/>
      </g>
     </g>
    </g>
    <g id="ytick_23">
     <g id="line2d_106">
      <path clip-path="url(#p60386e3001)" d="M 514.125 444.14552 
L 886.4375 444.14552 
" style="fill:none;stroke:#000000;stroke-linecap:square;stroke-opacity:0.2;stroke-width:0.5;"/>
     </g>
     <g id="line2d_107">
      <g>
       <use style="stroke:#000000;stroke-width:0.8;" x="514.125" xlink:href="#m9ac6e1e20c" y="444.14552"/>
      </g>
     </g>
     <g id="text_71">
      <!-- 2.0 -->
      <g transform="translate(488.04125 448.704583)scale(0.12 -0.12)">
       <use xlink:href="#DejaVuSans-50"/>
       <use x="63.623047" xlink:href="#DejaVuSans-46"/>
       <use x="95.410156" xlink:href="#DejaVuSans-48"/>
      </g>
     </g>
    </g>
    <g id="ytick_24">
     <g id="line2d_108">
      <path clip-path="url(#p60386e3001)" d="M 514.125 416.927806 
L 886.4375 416.927806 
" style="fill:none;stroke:#000000;stroke-linecap:square;stroke-opacity:0.2;stroke-width:0.5;"/>
     </g>
     <g id="line2d_109">
      <g>
       <use style="stroke:#000000;stroke-width:0.8;" x="514.125" xlink:href="#m9ac6e1e20c" y="416.927806"/>
      </g>
     </g>
     <g id="text_72">
      <!-- 2.2 -->
      <g transform="translate(488.04125 421.486868)scale(0.12 -0.12)">
       <use xlink:href="#DejaVuSans-50"/>
       <use x="63.623047" xlink:href="#DejaVuSans-46"/>
       <use x="95.410156" xlink:href="#DejaVuSans-50"/>
      </g>
     </g>
    </g>
   </g>
   <g id="line2d_110">
    <path clip-path="url(#p60386e3001)" d="M 514.125 425.048985 
L 555.493056 422.224978 
L 596.861111 420.046527 
L 638.229167 418.727539 
L 679.597222 418.524766 
L 720.965278 419.231426 
L 762.333333 420.882461 
L 803.701389 423.587743 
L 845.069444 427.490018 
L 886.4375 432.357229 
" style="fill:none;stroke:#1f77b4;stroke-linecap:square;stroke-opacity:0;stroke-width:1.5;"/>
   </g>
   <g id="line2d_111">
    <path clip-path="url(#p60386e3001)" d="M 514.125 425.048985 
L 517.572338 424.813651 
L 521.019676 424.578317 
L 524.467014 424.342983 
L 527.914352 424.10765 
L 531.36169 423.872316 
L 534.809028 423.636982 
L 538.256366 423.401648 
L 541.703704 423.166314 
L 545.151042 422.93098 
L 548.59838 422.695646 
L 552.045718 422.460312 
L 555.493056 422.224978 
L 558.940394 422.043441 
L 562.387731 421.861903 
L 565.835069 421.680366 
L 569.282407 421.498828 
L 572.729745 421.31729 
L 576.177083 421.135753 
L 579.624421 420.954215 
L 583.071759 420.772677 
L 586.519097 420.59114 
L 589.966435 420.409602 
L 593.413773 420.228064 
L 596.861111 420.046527 
L 600.308449 419.936611 
L 603.755787 419.826695 
L 607.203125 419.71678 
L 610.650463 419.606864 
L 614.097801 419.496948 
L 617.545139 419.387033 
L 620.992477 419.277117 
L 624.439815 419.167201 
L 627.887153 419.057286 
L 631.334491 418.94737 
L 634.781829 418.837454 
L 638.229167 418.727539 
L 641.676505 418.710641 
L 645.123843 418.693743 
L 648.571181 418.676846 
L 652.018519 418.659948 
L 655.465856 418.64305 
L 658.913194 418.626152 
L 662.360532 418.609255 
L 665.80787 418.592357 
L 669.255208 418.575459 
L 672.702546 418.558562 
L 676.149884 418.541664 
L 679.597222 418.524766 
L 683.04456 418.583654 
L 686.491898 418.642543 
L 689.939236 418.701431 
L 693.386574 418.760319 
L 696.833912 418.819208 
L 700.28125 418.878096 
L 703.728588 418.936984 
L 707.175926 418.995872 
L 710.623264 419.054761 
L 714.070602 419.113649 
L 717.51794 419.172537 
L 720.965278 419.231426 
L 724.412616 419.369012 
L 727.859954 419.506598 
L 731.307292 419.644184 
L 734.75463 419.781771 
L 738.201968 419.919357 
L 741.649306 420.056943 
L 745.096644 420.19453 
L 748.543981 420.332116 
L 751.991319 420.469702 
L 755.438657 420.607288 
L 758.885995 420.744875 
L 762.333333 420.882461 
L 765.780671 421.107901 
L 769.228009 421.333341 
L 772.675347 421.558781 
L 776.122685 421.784222 
L 779.570023 422.009662 
L 783.017361 422.235102 
L 786.464699 422.460542 
L 789.912037 422.685982 
L 793.359375 422.911423 
L 796.806713 423.136863 
L 800.254051 423.362303 
L 803.701389 423.587743 
L 807.148727 423.912933 
L 810.596065 424.238122 
L 814.043403 424.563312 
L 817.490741 424.888501 
L 820.938079 425.213691 
L 824.385417 425.538881 
L 827.832755 425.86407 
L 831.280093 426.18926 
L 834.727431 426.514449 
L 838.174769 426.839639 
L 841.622106 427.164829 
L 845.069444 427.490018 
L 848.516782 427.895619 
L 851.96412 428.30122 
L 855.411458 428.706821 
L 858.858796 429.112422 
L 862.306134 429.518023 
L 865.753472 429.923623 
L 869.20081 430.329224 
L 872.648148 430.734825 
L 876.095486 431.140426 
L 879.542824 431.546027 
L 882.990162 431.951628 
L 886.4375 432.357229 
" style="fill:none;stroke:#ae0868;stroke-linecap:square;stroke-width:3;"/>
   </g>
   <g id="line2d_112">
    <path clip-path="url(#p60386e3001)" d="M 514.125 580.234091 
L 886.4375 580.234091 
" style="fill:none;stroke:#000000;stroke-linecap:square;stroke-opacity:0.4;stroke-width:2;"/>
   </g>
   <g id="patch_19">
    <path d="M 514.125 589 
L 514.125 396.15 
" style="fill:none;stroke:#000000;stroke-linecap:square;stroke-linejoin:miter;"/>
   </g>
   <g id="patch_20">
    <path d="M 886.4375 589 
L 886.4375 396.15 
" style="fill:none;stroke:#000000;stroke-linecap:square;stroke-linejoin:miter;"/>
   </g>
   <g id="patch_21">
    <path d="M 514.125 589 
L 886.4375 589 
" style="fill:none;stroke:#000000;stroke-linecap:square;stroke-linejoin:miter;"/>
   </g>
   <g id="patch_22">
    <path d="M 514.125 396.15 
L 886.4375 396.15 
" style="fill:none;stroke:#000000;stroke-linecap:square;stroke-linejoin:miter;"/>
   </g>
   <g id="text_73">
    <!-- Cerner Reopening Risk Index and $R_e$ -->
    <defs>
     <path d="M 54.890625 33.015625 
L 54.890625 0 
L 45.90625 0 
L 45.90625 32.71875 
Q 45.90625 40.484375 42.875 44.328125 
Q 39.84375 48.1875 33.796875 48.1875 
Q 26.515625 48.1875 22.3125 43.546875 
Q 18.109375 38.921875 18.109375 30.90625 
L 18.109375 0 
L 9.078125 0 
L 9.078125 54.6875 
L 18.109375 54.6875 
L 18.109375 46.1875 
Q 21.34375 51.125 25.703125 53.5625 
Q 30.078125 56 35.796875 56 
Q 45.21875 56 50.046875 50.171875 
Q 54.890625 44.34375 54.890625 33.015625 
z
" id="DejaVuSans-110"/>
     <path d="M 18.109375 8.203125 
L 18.109375 -20.796875 
L 9.078125 -20.796875 
L 9.078125 54.6875 
L 18.109375 54.6875 
L 18.109375 46.390625 
Q 20.953125 51.265625 25.265625 53.625 
Q 29.59375 56 35.59375 56 
Q 45.5625 56 51.78125 48.09375 
Q 58.015625 40.1875 58.015625 27.296875 
Q 58.015625 14.40625 51.78125 6.484375 
Q 45.5625 -1.421875 35.59375 -1.421875 
Q 29.59375 -1.421875 25.265625 0.953125 
Q 20.953125 3.328125 18.109375 8.203125 
z
M 48.6875 27.296875 
Q 48.6875 37.203125 44.609375 42.84375 
Q 40.53125 48.484375 33.40625 48.484375 
Q 26.265625 48.484375 22.1875 42.84375 
Q 18.109375 37.203125 18.109375 27.296875 
Q 18.109375 17.390625 22.1875 11.75 
Q 26.265625 6.109375 33.40625 6.109375 
Q 40.53125 6.109375 44.609375 11.75 
Q 48.6875 17.390625 48.6875 27.296875 
z
" id="DejaVuSans-112"/>
     <path d="M 9.078125 75.984375 
L 18.109375 75.984375 
L 18.109375 31.109375 
L 44.921875 54.6875 
L 56.390625 54.6875 
L 27.390625 29.109375 
L 57.625 0 
L 45.90625 0 
L 18.109375 26.703125 
L 18.109375 0 
L 9.078125 0 
z
" id="DejaVuSans-107"/>
     <path d="M 9.8125 72.90625 
L 19.671875 72.90625 
L 19.671875 0 
L 9.8125 0 
z
" id="DejaVuSans-73"/>
     <path d="M 54.890625 54.6875 
L 35.109375 28.078125 
L 55.90625 0 
L 45.3125 0 
L 29.390625 21.484375 
L 13.484375 0 
L 2.875 0 
L 24.125 28.609375 
L 4.6875 54.6875 
L 15.28125 54.6875 
L 29.78125 35.203125 
L 44.28125 54.6875 
z
" id="DejaVuSans-120"/>
     <path d="M 25.203125 64.796875 
L 20.21875 38.921875 
L 32.90625 38.921875 
Q 40.375 38.921875 44.984375 43.046875 
Q 49.609375 47.171875 49.609375 53.8125 
Q 49.609375 59.125 46.5 61.953125 
Q 43.40625 64.796875 37.59375 64.796875 
z
M 43.3125 35.015625 
Q 46.4375 34.28125 48.515625 31.390625 
Q 50.59375 28.515625 53.328125 19.921875 
L 59.515625 0 
L 49.125 0 
L 43.40625 18.703125 
Q 41.21875 25.921875 38.328125 28.359375 
Q 35.453125 30.8125 29.5 30.8125 
L 18.609375 30.8125 
L 12.59375 0 
L 2.6875 0 
L 16.890625 72.90625 
L 39.109375 72.90625 
Q 49.21875 72.90625 54.609375 68.328125 
Q 60.015625 63.765625 60.015625 55.171875 
Q 60.015625 47.5625 55.421875 41.984375 
Q 50.828125 36.421875 43.3125 35.015625 
z
" id="DejaVuSans-Oblique-82"/>
     <path d="M 48.09375 32.234375 
Q 48.25 33.015625 48.3125 33.84375 
Q 48.390625 34.671875 48.390625 35.5 
Q 48.390625 41.453125 44.890625 44.921875 
Q 41.40625 48.390625 35.40625 48.390625 
Q 28.71875 48.390625 23.578125 44.15625 
Q 18.453125 39.9375 15.828125 32.171875 
z
M 55.90625 25.203125 
L 14.109375 25.203125 
Q 13.8125 23.34375 13.71875 22.265625 
Q 13.625 21.1875 13.625 20.40625 
Q 13.625 13.625 17.796875 9.90625 
Q 21.96875 6.203125 29.59375 6.203125 
Q 35.453125 6.203125 40.671875 7.515625 
Q 45.90625 8.84375 50.390625 11.375 
L 48.6875 2.484375 
Q 43.84375 0.53125 38.6875 -0.4375 
Q 33.546875 -1.421875 28.21875 -1.421875 
Q 16.84375 -1.421875 10.71875 4.015625 
Q 4.59375 9.46875 4.59375 19.484375 
Q 4.59375 28.03125 7.640625 35.375 
Q 10.6875 42.71875 16.609375 48.484375 
Q 20.40625 52.09375 25.65625 54.046875 
Q 30.90625 56 36.8125 56 
Q 46.09375 56 51.578125 50.4375 
Q 57.078125 44.875 57.078125 35.5 
Q 57.078125 33.25 56.78125 30.6875 
Q 56.5 28.125 55.90625 25.203125 
z
" id="DejaVuSans-Oblique-101"/>
    </defs>
    <g transform="translate(518.18125 381.15)scale(0.2 -0.2)">
     <use transform="translate(0 0.015625)" xlink:href="#DejaVuSans-67"/>
     <use transform="translate(69.824219 0.015625)" xlink:href="#DejaVuSans-101"/>
     <use transform="translate(131.347656 0.015625)" xlink:href="#DejaVuSans-114"/>
     <use transform="translate(172.460938 0.015625)" xlink:href="#DejaVuSans-110"/>
     <use transform="translate(235.839844 0.015625)" xlink:href="#DejaVuSans-101"/>
     <use transform="translate(297.363281 0.015625)" xlink:href="#DejaVuSans-114"/>
     <use transform="translate(338.476562 0.015625)" xlink:href="#DejaVuSans-32"/>
     <use transform="translate(370.263672 0.015625)" xlink:href="#DejaVuSans-82"/>
     <use transform="translate(439.746094 0.015625)" xlink:href="#DejaVuSans-101"/>
     <use transform="translate(501.269531 0.015625)" xlink:href="#DejaVuSans-111"/>
     <use transform="translate(562.451172 0.015625)" xlink:href="#DejaVuSans-112"/>
     <use transform="translate(625.927734 0.015625)" xlink:href="#DejaVuSans-101"/>
     <use transform="translate(687.451172 0.015625)" xlink:href="#DejaVuSans-110"/>
     <use transform="translate(750.830078 0.015625)" xlink:href="#DejaVuSans-105"/>
     <use transform="translate(778.613281 0.015625)" xlink:href="#DejaVuSans-110"/>
     <use transform="translate(841.992188 0.015625)" xlink:href="#DejaVuSans-103"/>
     <use transform="translate(905.46875 0.015625)" xlink:href="#DejaVuSans-32"/>
     <use transform="translate(937.255859 0.015625)" xlink:href="#DejaVuSans-82"/>
     <use transform="translate(1006.738281 0.015625)" xlink:href="#DejaVuSans-105"/>
     <use transform="translate(1034.521484 0.015625)" xlink:href="#DejaVuSans-115"/>
     <use transform="translate(1086.621094 0.015625)" xlink:href="#DejaVuSans-107"/>
     <use transform="translate(1144.53125 0.015625)" xlink:href="#DejaVuSans-32"/>
     <use transform="translate(1176.318359 0.015625)" xlink:href="#DejaVuSans-73"/>
     <use transform="translate(1205.810547 0.015625)" xlink:href="#DejaVuSans-110"/>
     <use transform="translate(1269.189453 0.015625)" xlink:href="#DejaVuSans-100"/>
     <use transform="translate(1332.666016 0.015625)" xlink:href="#DejaVuSans-101"/>
     <use transform="translate(1394.189453 0.015625)" xlink:href="#DejaVuSans-120"/>
     <use transform="translate(1453.369141 0.015625)" xlink:href="#DejaVuSans-32"/>
     <use transform="translate(1485.15625 0.015625)" xlink:href="#DejaVuSans-97"/>
     <use transform="translate(1546.435547 0.015625)" xlink:href="#DejaVuSans-110"/>
     <use transform="translate(1609.814453 0.015625)" xlink:href="#DejaVuSans-100"/>
     <use transform="translate(1673.291016 0.015625)" xlink:href="#DejaVuSans-32"/>
     <use transform="translate(1705.078125 0.015625)" xlink:href="#DejaVuSans-Oblique-82"/>
     <use transform="translate(1774.560547 -16.390625)scale(0.7)" xlink:href="#DejaVuSans-Oblique-101"/>
    </g>
   </g>
   <g id="legend_2">
    <g id="patch_23">
     <path d="M 828.265 527.4025 
L 880.8375 527.4025 
Q 882.4375 527.4025 882.4375 525.8025 
L 882.4375 459.3475 
Q 882.4375 457.7475 880.8375 457.7475 
L 828.265 457.7475 
Q 826.665 457.7475 826.665 459.3475 
L 826.665 525.8025 
Q 826.665 527.4025 828.265 527.4025 
z
" style="fill:#ffffff;opacity:0.5;stroke:#cccccc;stroke-linejoin:miter;"/>
    </g>
    <g id="line2d_113">
     <path d="M 828.265 462.62625 
L 844.265 462.62625 
" style="fill:none;stroke:#008fe0;stroke-linecap:square;stroke-width:3;"/>
    </g>
    <g id="line2d_114"/>
    <g id="text_74">
     <!-- CRRI 1 -->
     <g transform="translate(850.665 465.42625)scale(0.08 -0.08)">
      <use xlink:href="#DejaVuSans-67"/>
      <use x="69.824219" xlink:href="#DejaVuSans-82"/>
      <use x="139.306641" xlink:href="#DejaVuSans-82"/>
      <use x="208.789062" xlink:href="#DejaVuSans-73"/>
      <use x="238.28125" xlink:href="#DejaVuSans-32"/>
      <use x="270.068359" xlink:href="#DejaVuSans-49"/>
     </g>
    </g>
    <g id="line2d_115">
     <path d="M 828.265 474.36875 
L 844.265 474.36875 
" style="fill:none;stroke:#bc70c7;stroke-linecap:square;stroke-width:3;"/>
    </g>
    <g id="line2d_116"/>
    <g id="text_75">
     <!-- CRRI 2 -->
     <g transform="translate(850.665 477.16875)scale(0.08 -0.08)">
      <use xlink:href="#DejaVuSans-67"/>
      <use x="69.824219" xlink:href="#DejaVuSans-82"/>
      <use x="139.306641" xlink:href="#DejaVuSans-82"/>
      <use x="208.789062" xlink:href="#DejaVuSans-73"/>
      <use x="238.28125" xlink:href="#DejaVuSans-32"/>
      <use x="270.068359" xlink:href="#DejaVuSans-50"/>
     </g>
    </g>
    <g id="line2d_117">
     <path d="M 828.265 486.11125 
L 844.265 486.11125 
" style="fill:none;stroke:#e46511;stroke-linecap:square;stroke-width:3;"/>
    </g>
    <g id="line2d_118"/>
    <g id="text_76">
     <!-- CRRI 3 -->
     <g transform="translate(850.665 488.91125)scale(0.08 -0.08)">
      <use xlink:href="#DejaVuSans-67"/>
      <use x="69.824219" xlink:href="#DejaVuSans-82"/>
      <use x="139.306641" xlink:href="#DejaVuSans-82"/>
      <use x="208.789062" xlink:href="#DejaVuSans-73"/>
      <use x="238.28125" xlink:href="#DejaVuSans-32"/>
      <use x="270.068359" xlink:href="#DejaVuSans-51"/>
     </g>
    </g>
    <g id="line2d_119">
     <path d="M 828.265 497.85375 
L 844.265 497.85375 
" style="fill:none;stroke:#ae0868;stroke-linecap:square;stroke-width:3;"/>
    </g>
    <g id="line2d_120"/>
    <g id="text_77">
     <!-- CRRI 4 -->
     <g transform="translate(850.665 500.65375)scale(0.08 -0.08)">
      <use xlink:href="#DejaVuSans-67"/>
      <use x="69.824219" xlink:href="#DejaVuSans-82"/>
      <use x="139.306641" xlink:href="#DejaVuSans-82"/>
      <use x="208.789062" xlink:href="#DejaVuSans-73"/>
      <use x="238.28125" xlink:href="#DejaVuSans-32"/>
      <use x="270.068359" xlink:href="#DejaVuSans-52"/>
     </g>
    </g>
    <g id="patch_24">
     <path d="M 828.265 512.39625 
L 844.265 512.39625 
L 844.265 506.79625 
L 828.265 506.79625 
z
" style="opacity:0.3;"/>
    </g>
    <g id="text_78">
     <!-- 1 Std. -->
     <defs>
      <path d="M 46 62.703125 
L 46 43.796875 
L 73.1875 43.796875 
L 73.1875 35.5 
L 46 35.5 
L 46 16.609375 
L 37.796875 16.609375 
L 37.796875 35.5 
L 10.59375 35.5 
L 10.59375 43.796875 
L 37.796875 43.796875 
L 37.796875 62.703125 
z
M 10.59375 8.296875 
L 73.1875 8.296875 
L 73.1875 0 
L 10.59375 0 
z
" id="DejaVuSans-177"/>
     </defs>
     <g transform="translate(850.665 512.39625)scale(0.08 -0.08)">
      <use xlink:href="#DejaVuSans-177"/>
      <use x="83.789062" xlink:href="#DejaVuSans-49"/>
      <use x="147.412109" xlink:href="#DejaVuSans-32"/>
      <use x="179.199219" xlink:href="#DejaVuSans-83"/>
      <use x="242.675781" xlink:href="#DejaVuSans-116"/>
      <use x="281.884766" xlink:href="#DejaVuSans-100"/>
      <use x="345.361328" xlink:href="#DejaVuSans-46"/>
     </g>
    </g>
    <g id="patch_25">
     <path d="M 828.265 524.13875 
L 844.265 524.13875 
L 844.265 518.53875 
L 828.265 518.53875 
z
" style="opacity:0.1;"/>
    </g>
    <g id="text_79">
     <!-- 2 Std. -->
     <g transform="translate(850.665 524.13875)scale(0.08 -0.08)">
      <use xlink:href="#DejaVuSans-177"/>
      <use x="83.789062" xlink:href="#DejaVuSans-50"/>
      <use x="147.412109" xlink:href="#DejaVuSans-32"/>
      <use x="179.199219" xlink:href="#DejaVuSans-83"/>
      <use x="242.675781" xlink:href="#DejaVuSans-116"/>
      <use x="281.884766" xlink:href="#DejaVuSans-100"/>
      <use x="345.361328" xlink:href="#DejaVuSans-46"/>
     </g>
    </g>
   </g>
  </g>
  <g id="text_80">
   <!-- LafayetteWest Lafayette, IN MSA COVID-19 -->
   <defs>
    <path d="M 37.109375 75.984375 
L 37.109375 68.5 
L 28.515625 68.5 
Q 23.6875 68.5 21.796875 66.546875 
Q 19.921875 64.59375 19.921875 59.515625 
L 19.921875 54.6875 
L 34.71875 54.6875 
L 34.71875 47.703125 
L 19.921875 47.703125 
L 19.921875 0 
L 10.890625 0 
L 10.890625 47.703125 
L 2.296875 47.703125 
L 2.296875 54.6875 
L 10.890625 54.6875 
L 10.890625 58.5 
Q 10.890625 67.625 15.140625 71.796875 
Q 19.390625 75.984375 28.609375 75.984375 
z
" id="DejaVuSans-102"/>
    <path d="M 4.890625 30.90625 
L 45.125 30.90625 
L 45.125 23.875 
L 4.890625 23.875 
z
" id="DejaVuSans-8211"/>
    <path d="M 3.328125 72.90625 
L 13.28125 72.90625 
L 28.609375 11.28125 
L 43.890625 72.90625 
L 54.984375 72.90625 
L 70.3125 11.28125 
L 85.59375 72.90625 
L 95.609375 72.90625 
L 77.296875 0 
L 64.890625 0 
L 49.515625 63.28125 
L 33.984375 0 
L 21.578125 0 
z
" id="DejaVuSans-87"/>
    <path d="M 11.71875 12.40625 
L 22.015625 12.40625 
L 22.015625 4 
L 14.015625 -11.625 
L 7.71875 -11.625 
L 11.71875 4 
z
" id="DejaVuSans-44"/>
    <path d="M 9.8125 72.90625 
L 23.09375 72.90625 
L 55.421875 11.921875 
L 55.421875 72.90625 
L 64.984375 72.90625 
L 64.984375 0 
L 51.703125 0 
L 19.390625 60.984375 
L 19.390625 0 
L 9.8125 0 
z
" id="DejaVuSans-78"/>
    <path d="M 34.1875 63.1875 
L 20.796875 26.90625 
L 47.609375 26.90625 
z
M 28.609375 72.90625 
L 39.796875 72.90625 
L 67.578125 0 
L 57.328125 0 
L 50.6875 18.703125 
L 17.828125 18.703125 
L 11.1875 0 
L 0.78125 0 
z
" id="DejaVuSans-65"/>
    <path d="M 39.40625 66.21875 
Q 28.65625 66.21875 22.328125 58.203125 
Q 16.015625 50.203125 16.015625 36.375 
Q 16.015625 22.609375 22.328125 14.59375 
Q 28.65625 6.59375 39.40625 6.59375 
Q 50.140625 6.59375 56.421875 14.59375 
Q 62.703125 22.609375 62.703125 36.375 
Q 62.703125 50.203125 56.421875 58.203125 
Q 50.140625 66.21875 39.40625 66.21875 
z
M 39.40625 74.21875 
Q 54.734375 74.21875 63.90625 63.9375 
Q 73.09375 53.65625 73.09375 36.375 
Q 73.09375 19.140625 63.90625 8.859375 
Q 54.734375 -1.421875 39.40625 -1.421875 
Q 24.03125 -1.421875 14.8125 8.828125 
Q 5.609375 19.09375 5.609375 36.375 
Q 5.609375 53.65625 14.8125 63.9375 
Q 24.03125 74.21875 39.40625 74.21875 
z
" id="DejaVuSans-79"/>
    <path d="M 28.609375 0 
L 0.78125 72.90625 
L 11.078125 72.90625 
L 34.1875 11.53125 
L 57.328125 72.90625 
L 67.578125 72.90625 
L 39.796875 0 
z
" id="DejaVuSans-86"/>
    <path d="M 4.890625 31.390625 
L 31.203125 31.390625 
L 31.203125 23.390625 
L 4.890625 23.390625 
z
" id="DejaVuSans-45"/>
   </defs>
   <g transform="translate(191.449219 31.956094)scale(0.25 -0.25)">
    <use xlink:href="#DejaVuSans-76"/>
    <use x="55.712891" xlink:href="#DejaVuSans-97"/>
    <use x="116.992188" xlink:href="#DejaVuSans-102"/>
    <use x="152.197266" xlink:href="#DejaVuSans-97"/>
    <use x="213.476562" xlink:href="#DejaVuSans-121"/>
    <use x="272.65625" xlink:href="#DejaVuSans-101"/>
    <use x="334.179688" xlink:href="#DejaVuSans-116"/>
    <use x="373.388672" xlink:href="#DejaVuSans-116"/>
    <use x="412.597656" xlink:href="#DejaVuSans-101"/>
    <use x="474.121094" xlink:href="#DejaVuSans-8211"/>
    <use x="524.121094" xlink:href="#DejaVuSans-87"/>
    <use x="617.123047" xlink:href="#DejaVuSans-101"/>
    <use x="678.646484" xlink:href="#DejaVuSans-115"/>
    <use x="730.746094" xlink:href="#DejaVuSans-116"/>
    <use x="769.955078" xlink:href="#DejaVuSans-32"/>
    <use x="801.742188" xlink:href="#DejaVuSans-76"/>
    <use x="857.455078" xlink:href="#DejaVuSans-97"/>
    <use x="918.734375" xlink:href="#DejaVuSans-102"/>
    <use x="953.939453" xlink:href="#DejaVuSans-97"/>
    <use x="1015.21875" xlink:href="#DejaVuSans-121"/>
    <use x="1074.398438" xlink:href="#DejaVuSans-101"/>
    <use x="1135.921875" xlink:href="#DejaVuSans-116"/>
    <use x="1175.130859" xlink:href="#DejaVuSans-116"/>
    <use x="1214.339844" xlink:href="#DejaVuSans-101"/>
    <use x="1275.863281" xlink:href="#DejaVuSans-44"/>
    <use x="1307.650391" xlink:href="#DejaVuSans-32"/>
    <use x="1339.4375" xlink:href="#DejaVuSans-73"/>
    <use x="1368.929688" xlink:href="#DejaVuSans-78"/>
    <use x="1443.734375" xlink:href="#DejaVuSans-32"/>
    <use x="1475.521484" xlink:href="#DejaVuSans-77"/>
    <use x="1561.800781" xlink:href="#DejaVuSans-83"/>
    <use x="1627.152344" xlink:href="#DejaVuSans-65"/>
    <use x="1695.560547" xlink:href="#DejaVuSans-32"/>
    <use x="1727.347656" xlink:href="#DejaVuSans-67"/>
    <use x="1797.171875" xlink:href="#DejaVuSans-79"/>
    <use x="1874.132812" xlink:href="#DejaVuSans-86"/>
    <use x="1942.541016" xlink:href="#DejaVuSans-73"/>
    <use x="1972.033203" xlink:href="#DejaVuSans-68"/>
    <use x="2049.035156" xlink:href="#DejaVuSans-45"/>
    <use x="2085.119141" xlink:href="#DejaVuSans-49"/>
    <use x="2148.742188" xlink:href="#DejaVuSans-57"/>
   </g>
  </g>
 </g>
 <defs>
  <clipPath id="p86f9a8b301">
   <rect height="192.85" width="372.3125" x="66.125" y="109.55"/>
  </clipPath>
  <clipPath id="pe3c26a0aef">
   <rect height="192.85" width="372.3125" x="514.125" y="109.55"/>
  </clipPath>
  <clipPath id="p9939739f8b">
   <rect height="192.85" width="372.3125" x="66.125" y="396.15"/>
  </clipPath>
  <clipPath id="p60386e3001">
   <rect height="192.85" width="372.3125" x="514.125" y="396.15"/>
  </clipPath>
 </defs>
</svg>
