<?xml version="1.0" encoding="utf-8" standalone="no"?>
<!DOCTYPE svg PUBLIC "-//W3C//DTD SVG 1.1//EN"
  "http://www.w3.org/Graphics/SVG/1.1/DTD/svg11.dtd">
<!-- Created with matplotlib (https://matplotlib.org/) -->
<svg height="693.5285pt" version="1.1" viewBox="0 0 953.20625 693.5285" width="953.20625pt" xmlns="http://www.w3.org/2000/svg" xmlns:xlink="http://www.w3.org/1999/xlink">
 <defs>
  <style type="text/css">
*{stroke-linecap:butt;stroke-linejoin:round;}
  </style>
 </defs>
 <g id="figure_1">
  <g id="patch_1">
   <path d="M 0 693.5285 
L 953.20625 693.5285 
L 953.20625 0 
L 0 0 
z
" style="fill:#ffffff;"/>
  </g>
  <g id="axes_1">
   <g id="patch_2">
    <path d="M 89.25875 325.44 
L 461.57125 325.44 
L 461.57125 132.59 
L 89.25875 132.59 
z
" style="fill:#ffffff;"/>
   </g>
   <g id="matplotlib.axis_1">
    <g id="xtick_1">
     <g id="line2d_1">
      <path clip-path="url(#p1271f9c719)" d="M 89.25875 325.44 
L 89.25875 132.59 
" style="fill:none;stroke:#000000;stroke-linecap:square;stroke-opacity:0.2;stroke-width:0.5;"/>
     </g>
     <g id="line2d_2">
      <defs>
       <path d="M 0 0 
L 0 3.5 
" id="mf48becf6f7" style="stroke:#000000;stroke-width:0.8;"/>
      </defs>
      <g>
       <use style="stroke:#000000;stroke-width:0.8;" x="89.25875" xlink:href="#mf48becf6f7" y="325.44"/>
      </g>
     </g>
     <g id="text_1">
      <!-- 30 -->
      <defs>
       <path d="M 40.578125 39.3125 
Q 47.65625 37.796875 51.625 33 
Q 55.609375 28.21875 55.609375 21.1875 
Q 55.609375 10.40625 48.1875 4.484375 
Q 40.765625 -1.421875 27.09375 -1.421875 
Q 22.515625 -1.421875 17.65625 -0.515625 
Q 12.796875 0.390625 7.625 2.203125 
L 7.625 11.71875 
Q 11.71875 9.328125 16.59375 8.109375 
Q 21.484375 6.890625 26.8125 6.890625 
Q 36.078125 6.890625 40.9375 10.546875 
Q 45.796875 14.203125 45.796875 21.1875 
Q 45.796875 27.640625 41.28125 31.265625 
Q 36.765625 34.90625 28.71875 34.90625 
L 20.21875 34.90625 
L 20.21875 43.015625 
L 29.109375 43.015625 
Q 36.375 43.015625 40.234375 45.921875 
Q 44.09375 48.828125 44.09375 54.296875 
Q 44.09375 59.90625 40.109375 62.90625 
Q 36.140625 65.921875 28.71875 65.921875 
Q 24.65625 65.921875 20.015625 65.03125 
Q 15.375 64.15625 9.8125 62.3125 
L 9.8125 71.09375 
Q 15.4375 72.65625 20.34375 73.4375 
Q 25.25 74.21875 29.59375 74.21875 
Q 40.828125 74.21875 47.359375 69.109375 
Q 53.90625 64.015625 53.90625 55.328125 
Q 53.90625 49.265625 50.4375 45.09375 
Q 46.96875 40.921875 40.578125 39.3125 
z
" id="DejaVuSans-51"/>
       <path d="M 31.78125 66.40625 
Q 24.171875 66.40625 20.328125 58.90625 
Q 16.5 51.421875 16.5 36.375 
Q 16.5 21.390625 20.328125 13.890625 
Q 24.171875 6.390625 31.78125 6.390625 
Q 39.453125 6.390625 43.28125 13.890625 
Q 47.125 21.390625 47.125 36.375 
Q 47.125 51.421875 43.28125 58.90625 
Q 39.453125 66.40625 31.78125 66.40625 
z
M 31.78125 74.21875 
Q 44.046875 74.21875 50.515625 64.515625 
Q 56.984375 54.828125 56.984375 36.375 
Q 56.984375 17.96875 50.515625 8.265625 
Q 44.046875 -1.421875 31.78125 -1.421875 
Q 19.53125 -1.421875 13.0625 8.265625 
Q 6.59375 17.96875 6.59375 36.375 
Q 6.59375 54.828125 13.0625 64.515625 
Q 19.53125 74.21875 31.78125 74.21875 
z
" id="DejaVuSans-48"/>
      </defs>
      <g transform="translate(81.62375 341.558125)scale(0.12 -0.12)">
       <use xlink:href="#DejaVuSans-51"/>
       <use x="63.623047" xlink:href="#DejaVuSans-48"/>
      </g>
     </g>
    </g>
    <g id="xtick_2">
     <g id="line2d_3">
      <path clip-path="url(#p1271f9c719)" d="M 135.797813 325.44 
L 135.797813 132.59 
" style="fill:none;stroke:#000000;stroke-linecap:square;stroke-opacity:0.2;stroke-width:0.5;"/>
     </g>
     <g id="line2d_4">
      <g>
       <use style="stroke:#000000;stroke-width:0.8;" x="135.797813" xlink:href="#mf48becf6f7" y="325.44"/>
      </g>
     </g>
     <g id="text_2">
      <!-- 01 -->
      <defs>
       <path d="M 12.40625 8.296875 
L 28.515625 8.296875 
L 28.515625 63.921875 
L 10.984375 60.40625 
L 10.984375 69.390625 
L 28.421875 72.90625 
L 38.28125 72.90625 
L 38.28125 8.296875 
L 54.390625 8.296875 
L 54.390625 0 
L 12.40625 0 
z
" id="DejaVuSans-49"/>
      </defs>
      <g transform="translate(128.162813 341.558125)scale(0.12 -0.12)">
       <use xlink:href="#DejaVuSans-48"/>
       <use x="63.623047" xlink:href="#DejaVuSans-49"/>
      </g>
      <!-- May -->
      <defs>
       <path d="M 9.8125 72.90625 
L 24.515625 72.90625 
L 43.109375 23.296875 
L 61.8125 72.90625 
L 76.515625 72.90625 
L 76.515625 0 
L 66.890625 0 
L 66.890625 64.015625 
L 48.09375 14.015625 
L 38.1875 14.015625 
L 19.390625 64.015625 
L 19.390625 0 
L 9.8125 0 
z
" id="DejaVuSans-77"/>
       <path d="M 34.28125 27.484375 
Q 23.390625 27.484375 19.1875 25 
Q 14.984375 22.515625 14.984375 16.5 
Q 14.984375 11.71875 18.140625 8.90625 
Q 21.296875 6.109375 26.703125 6.109375 
Q 34.1875 6.109375 38.703125 11.40625 
Q 43.21875 16.703125 43.21875 25.484375 
L 43.21875 27.484375 
z
M 52.203125 31.203125 
L 52.203125 0 
L 43.21875 0 
L 43.21875 8.296875 
Q 40.140625 3.328125 35.546875 0.953125 
Q 30.953125 -1.421875 24.3125 -1.421875 
Q 15.921875 -1.421875 10.953125 3.296875 
Q 6 8.015625 6 15.921875 
Q 6 25.140625 12.171875 29.828125 
Q 18.359375 34.515625 30.609375 34.515625 
L 43.21875 34.515625 
L 43.21875 35.40625 
Q 43.21875 41.609375 39.140625 45 
Q 35.0625 48.390625 27.6875 48.390625 
Q 23 48.390625 18.546875 47.265625 
Q 14.109375 46.140625 10.015625 43.890625 
L 10.015625 52.203125 
Q 14.9375 54.109375 19.578125 55.046875 
Q 24.21875 56 28.609375 56 
Q 40.484375 56 46.34375 49.84375 
Q 52.203125 43.703125 52.203125 31.203125 
z
" id="DejaVuSans-97"/>
       <path d="M 32.171875 -5.078125 
Q 28.375 -14.84375 24.75 -17.8125 
Q 21.140625 -20.796875 15.09375 -20.796875 
L 7.90625 -20.796875 
L 7.90625 -13.28125 
L 13.1875 -13.28125 
Q 16.890625 -13.28125 18.9375 -11.515625 
Q 21 -9.765625 23.484375 -3.21875 
L 25.09375 0.875 
L 2.984375 54.6875 
L 12.5 54.6875 
L 29.59375 11.921875 
L 46.6875 54.6875 
L 56.203125 54.6875 
z
" id="DejaVuSans-121"/>
      </defs>
      <g transform="translate(123.392813 354.9955)scale(0.12 -0.12)">
       <use xlink:href="#DejaVuSans-77"/>
       <use x="86.279297" xlink:href="#DejaVuSans-97"/>
       <use x="147.558594" xlink:href="#DejaVuSans-121"/>
      </g>
      <!-- 2020 -->
      <defs>
       <path d="M 19.1875 8.296875 
L 53.609375 8.296875 
L 53.609375 0 
L 7.328125 0 
L 7.328125 8.296875 
Q 12.9375 14.109375 22.625 23.890625 
Q 32.328125 33.6875 34.8125 36.53125 
Q 39.546875 41.84375 41.421875 45.53125 
Q 43.3125 49.21875 43.3125 52.78125 
Q 43.3125 58.59375 39.234375 62.25 
Q 35.15625 65.921875 28.609375 65.921875 
Q 23.96875 65.921875 18.8125 64.3125 
Q 13.671875 62.703125 7.8125 59.421875 
L 7.8125 69.390625 
Q 13.765625 71.78125 18.9375 73 
Q 24.125 74.21875 28.421875 74.21875 
Q 39.75 74.21875 46.484375 68.546875 
Q 53.21875 62.890625 53.21875 53.421875 
Q 53.21875 48.921875 51.53125 44.890625 
Q 49.859375 40.875 45.40625 35.40625 
Q 44.1875 33.984375 37.640625 27.21875 
Q 31.109375 20.453125 19.1875 8.296875 
z
" id="DejaVuSans-50"/>
      </defs>
      <g transform="translate(120.527813 368.432875)scale(0.12 -0.12)">
       <use xlink:href="#DejaVuSans-50"/>
       <use x="63.623047" xlink:href="#DejaVuSans-48"/>
       <use x="127.246094" xlink:href="#DejaVuSans-50"/>
       <use x="190.869141" xlink:href="#DejaVuSans-48"/>
      </g>
     </g>
    </g>
    <g id="xtick_3">
     <g id="line2d_5">
      <path clip-path="url(#p1271f9c719)" d="M 461.57125 325.44 
L 461.57125 132.59 
" style="fill:none;stroke:#000000;stroke-linecap:square;stroke-opacity:0.2;stroke-width:0.5;"/>
     </g>
     <g id="line2d_6">
      <g>
       <use style="stroke:#000000;stroke-width:0.8;" x="461.57125" xlink:href="#mf48becf6f7" y="325.44"/>
      </g>
     </g>
     <g id="text_3">
      <!-- 08 -->
      <defs>
       <path d="M 31.78125 34.625 
Q 24.75 34.625 20.71875 30.859375 
Q 16.703125 27.09375 16.703125 20.515625 
Q 16.703125 13.921875 20.71875 10.15625 
Q 24.75 6.390625 31.78125 6.390625 
Q 38.8125 6.390625 42.859375 10.171875 
Q 46.921875 13.96875 46.921875 20.515625 
Q 46.921875 27.09375 42.890625 30.859375 
Q 38.875 34.625 31.78125 34.625 
z
M 21.921875 38.8125 
Q 15.578125 40.375 12.03125 44.71875 
Q 8.5 49.078125 8.5 55.328125 
Q 8.5 64.0625 14.71875 69.140625 
Q 20.953125 74.21875 31.78125 74.21875 
Q 42.671875 74.21875 48.875 69.140625 
Q 55.078125 64.0625 55.078125 55.328125 
Q 55.078125 49.078125 51.53125 44.71875 
Q 48 40.375 41.703125 38.8125 
Q 48.828125 37.15625 52.796875 32.3125 
Q 56.78125 27.484375 56.78125 20.515625 
Q 56.78125 9.90625 50.3125 4.234375 
Q 43.84375 -1.421875 31.78125 -1.421875 
Q 19.734375 -1.421875 13.25 4.234375 
Q 6.78125 9.90625 6.78125 20.515625 
Q 6.78125 27.484375 10.78125 32.3125 
Q 14.796875 37.15625 21.921875 38.8125 
z
M 18.3125 54.390625 
Q 18.3125 48.734375 21.84375 45.5625 
Q 25.390625 42.390625 31.78125 42.390625 
Q 38.140625 42.390625 41.71875 45.5625 
Q 45.3125 48.734375 45.3125 54.390625 
Q 45.3125 60.0625 41.71875 63.234375 
Q 38.140625 66.40625 31.78125 66.40625 
Q 25.390625 66.40625 21.84375 63.234375 
Q 18.3125 60.0625 18.3125 54.390625 
z
" id="DejaVuSans-56"/>
      </defs>
      <g transform="translate(453.93625 341.558125)scale(0.12 -0.12)">
       <use xlink:href="#DejaVuSans-48"/>
       <use x="63.623047" xlink:href="#DejaVuSans-56"/>
      </g>
     </g>
    </g>
    <g id="xtick_4">
     <g id="line2d_7">
      <defs>
       <path d="M 0 0 
L 0 2 
" id="mb5fcdd0288" style="stroke:#000000;stroke-width:0.6;"/>
      </defs>
      <g>
       <use style="stroke:#000000;stroke-width:0.6;" x="182.336875" xlink:href="#mb5fcdd0288" y="325.44"/>
      </g>
     </g>
     <g id="text_4">
      <!-- 02 -->
      <g transform="translate(174.701875 339.958125)scale(0.12 -0.12)">
       <use xlink:href="#DejaVuSans-48"/>
       <use x="63.623047" xlink:href="#DejaVuSans-50"/>
      </g>
     </g>
    </g>
    <g id="xtick_5">
     <g id="line2d_8">
      <g>
       <use style="stroke:#000000;stroke-width:0.6;" x="228.875938" xlink:href="#mb5fcdd0288" y="325.44"/>
      </g>
     </g>
     <g id="text_5">
      <!-- 03 -->
      <g transform="translate(221.240938 339.958125)scale(0.12 -0.12)">
       <use xlink:href="#DejaVuSans-48"/>
       <use x="63.623047" xlink:href="#DejaVuSans-51"/>
      </g>
     </g>
    </g>
    <g id="xtick_6">
     <g id="line2d_9">
      <g>
       <use style="stroke:#000000;stroke-width:0.6;" x="275.415" xlink:href="#mb5fcdd0288" y="325.44"/>
      </g>
     </g>
     <g id="text_6">
      <!-- 04 -->
      <defs>
       <path d="M 37.796875 64.3125 
L 12.890625 25.390625 
L 37.796875 25.390625 
z
M 35.203125 72.90625 
L 47.609375 72.90625 
L 47.609375 25.390625 
L 58.015625 25.390625 
L 58.015625 17.1875 
L 47.609375 17.1875 
L 47.609375 0 
L 37.796875 0 
L 37.796875 17.1875 
L 4.890625 17.1875 
L 4.890625 26.703125 
z
" id="DejaVuSans-52"/>
      </defs>
      <g transform="translate(267.78 339.958125)scale(0.12 -0.12)">
       <use xlink:href="#DejaVuSans-48"/>
       <use x="63.623047" xlink:href="#DejaVuSans-52"/>
      </g>
     </g>
    </g>
    <g id="xtick_7">
     <g id="line2d_10">
      <g>
       <use style="stroke:#000000;stroke-width:0.6;" x="321.954063" xlink:href="#mb5fcdd0288" y="325.44"/>
      </g>
     </g>
     <g id="text_7">
      <!-- 05 -->
      <defs>
       <path d="M 10.796875 72.90625 
L 49.515625 72.90625 
L 49.515625 64.59375 
L 19.828125 64.59375 
L 19.828125 46.734375 
Q 21.96875 47.46875 24.109375 47.828125 
Q 26.265625 48.1875 28.421875 48.1875 
Q 40.625 48.1875 47.75 41.5 
Q 54.890625 34.8125 54.890625 23.390625 
Q 54.890625 11.625 47.5625 5.09375 
Q 40.234375 -1.421875 26.90625 -1.421875 
Q 22.3125 -1.421875 17.546875 -0.640625 
Q 12.796875 0.140625 7.71875 1.703125 
L 7.71875 11.625 
Q 12.109375 9.234375 16.796875 8.0625 
Q 21.484375 6.890625 26.703125 6.890625 
Q 35.15625 6.890625 40.078125 11.328125 
Q 45.015625 15.765625 45.015625 23.390625 
Q 45.015625 31 40.078125 35.4375 
Q 35.15625 39.890625 26.703125 39.890625 
Q 22.75 39.890625 18.8125 39.015625 
Q 14.890625 38.140625 10.796875 36.28125 
z
" id="DejaVuSans-53"/>
      </defs>
      <g transform="translate(314.319063 339.958125)scale(0.12 -0.12)">
       <use xlink:href="#DejaVuSans-48"/>
       <use x="63.623047" xlink:href="#DejaVuSans-53"/>
      </g>
     </g>
    </g>
    <g id="xtick_8">
     <g id="line2d_11">
      <g>
       <use style="stroke:#000000;stroke-width:0.6;" x="368.493125" xlink:href="#mb5fcdd0288" y="325.44"/>
      </g>
     </g>
     <g id="text_8">
      <!-- 06 -->
      <defs>
       <path d="M 33.015625 40.375 
Q 26.375 40.375 22.484375 35.828125 
Q 18.609375 31.296875 18.609375 23.390625 
Q 18.609375 15.53125 22.484375 10.953125 
Q 26.375 6.390625 33.015625 6.390625 
Q 39.65625 6.390625 43.53125 10.953125 
Q 47.40625 15.53125 47.40625 23.390625 
Q 47.40625 31.296875 43.53125 35.828125 
Q 39.65625 40.375 33.015625 40.375 
z
M 52.59375 71.296875 
L 52.59375 62.3125 
Q 48.875 64.0625 45.09375 64.984375 
Q 41.3125 65.921875 37.59375 65.921875 
Q 27.828125 65.921875 22.671875 59.328125 
Q 17.53125 52.734375 16.796875 39.40625 
Q 19.671875 43.65625 24.015625 45.921875 
Q 28.375 48.1875 33.59375 48.1875 
Q 44.578125 48.1875 50.953125 41.515625 
Q 57.328125 34.859375 57.328125 23.390625 
Q 57.328125 12.15625 50.6875 5.359375 
Q 44.046875 -1.421875 33.015625 -1.421875 
Q 20.359375 -1.421875 13.671875 8.265625 
Q 6.984375 17.96875 6.984375 36.375 
Q 6.984375 53.65625 15.1875 63.9375 
Q 23.390625 74.21875 37.203125 74.21875 
Q 40.921875 74.21875 44.703125 73.484375 
Q 48.484375 72.75 52.59375 71.296875 
z
" id="DejaVuSans-54"/>
      </defs>
      <g transform="translate(360.858125 339.958125)scale(0.12 -0.12)">
       <use xlink:href="#DejaVuSans-48"/>
       <use x="63.623047" xlink:href="#DejaVuSans-54"/>
      </g>
     </g>
    </g>
    <g id="xtick_9">
     <g id="line2d_12">
      <g>
       <use style="stroke:#000000;stroke-width:0.6;" x="415.032188" xlink:href="#mb5fcdd0288" y="325.44"/>
      </g>
     </g>
     <g id="text_9">
      <!-- 07 -->
      <defs>
       <path d="M 8.203125 72.90625 
L 55.078125 72.90625 
L 55.078125 68.703125 
L 28.609375 0 
L 18.3125 0 
L 43.21875 64.59375 
L 8.203125 64.59375 
z
" id="DejaVuSans-55"/>
      </defs>
      <g transform="translate(407.397188 339.958125)scale(0.12 -0.12)">
       <use xlink:href="#DejaVuSans-48"/>
       <use x="63.623047" xlink:href="#DejaVuSans-55"/>
      </g>
     </g>
    </g>
   </g>
   <g id="matplotlib.axis_2">
    <g id="ytick_1">
     <g id="line2d_13">
      <path clip-path="url(#p1271f9c719)" d="M 89.25875 316.674091 
L 461.57125 316.674091 
" style="fill:none;stroke:#000000;stroke-linecap:square;stroke-opacity:0.2;stroke-width:0.5;"/>
     </g>
     <g id="line2d_14">
      <defs>
       <path d="M 0 0 
L -3.5 0 
" id="m0890ccd047" style="stroke:#000000;stroke-width:0.8;"/>
      </defs>
      <g>
       <use style="stroke:#000000;stroke-width:0.8;" x="89.25875" xlink:href="#m0890ccd047" y="316.674091"/>
      </g>
     </g>
     <g id="text_10">
      <!-- 0 -->
      <g transform="translate(74.62375 321.233153)scale(0.12 -0.12)">
       <use xlink:href="#DejaVuSans-48"/>
      </g>
     </g>
    </g>
    <g id="ytick_2">
     <g id="line2d_15">
      <path clip-path="url(#p1271f9c719)" d="M 89.25875 283.595189 
L 461.57125 283.595189 
" style="fill:none;stroke:#000000;stroke-linecap:square;stroke-opacity:0.2;stroke-width:0.5;"/>
     </g>
     <g id="line2d_16">
      <g>
       <use style="stroke:#000000;stroke-width:0.8;" x="89.25875" xlink:href="#m0890ccd047" y="283.595189"/>
      </g>
     </g>
     <g id="text_11">
      <!-- 10 -->
      <g transform="translate(66.98875 288.154251)scale(0.12 -0.12)">
       <use xlink:href="#DejaVuSans-49"/>
       <use x="63.623047" xlink:href="#DejaVuSans-48"/>
      </g>
     </g>
    </g>
    <g id="ytick_3">
     <g id="line2d_17">
      <path clip-path="url(#p1271f9c719)" d="M 89.25875 250.516286 
L 461.57125 250.516286 
" style="fill:none;stroke:#000000;stroke-linecap:square;stroke-opacity:0.2;stroke-width:0.5;"/>
     </g>
     <g id="line2d_18">
      <g>
       <use style="stroke:#000000;stroke-width:0.8;" x="89.25875" xlink:href="#m0890ccd047" y="250.516286"/>
      </g>
     </g>
     <g id="text_12">
      <!-- 20 -->
      <g transform="translate(66.98875 255.075349)scale(0.12 -0.12)">
       <use xlink:href="#DejaVuSans-50"/>
       <use x="63.623047" xlink:href="#DejaVuSans-48"/>
      </g>
     </g>
    </g>
    <g id="ytick_4">
     <g id="line2d_19">
      <path clip-path="url(#p1271f9c719)" d="M 89.25875 217.437384 
L 461.57125 217.437384 
" style="fill:none;stroke:#000000;stroke-linecap:square;stroke-opacity:0.2;stroke-width:0.5;"/>
     </g>
     <g id="line2d_20">
      <g>
       <use style="stroke:#000000;stroke-width:0.8;" x="89.25875" xlink:href="#m0890ccd047" y="217.437384"/>
      </g>
     </g>
     <g id="text_13">
      <!-- 30 -->
      <g transform="translate(66.98875 221.996447)scale(0.12 -0.12)">
       <use xlink:href="#DejaVuSans-51"/>
       <use x="63.623047" xlink:href="#DejaVuSans-48"/>
      </g>
     </g>
    </g>
    <g id="ytick_5">
     <g id="line2d_21">
      <path clip-path="url(#p1271f9c719)" d="M 89.25875 184.358482 
L 461.57125 184.358482 
" style="fill:none;stroke:#000000;stroke-linecap:square;stroke-opacity:0.2;stroke-width:0.5;"/>
     </g>
     <g id="line2d_22">
      <g>
       <use style="stroke:#000000;stroke-width:0.8;" x="89.25875" xlink:href="#m0890ccd047" y="184.358482"/>
      </g>
     </g>
     <g id="text_14">
      <!-- 40 -->
      <g transform="translate(66.98875 188.917544)scale(0.12 -0.12)">
       <use xlink:href="#DejaVuSans-52"/>
       <use x="63.623047" xlink:href="#DejaVuSans-48"/>
      </g>
     </g>
    </g>
    <g id="ytick_6">
     <g id="line2d_23">
      <path clip-path="url(#p1271f9c719)" d="M 89.25875 151.27958 
L 461.57125 151.27958 
" style="fill:none;stroke:#000000;stroke-linecap:square;stroke-opacity:0.2;stroke-width:0.5;"/>
     </g>
     <g id="line2d_24">
      <g>
       <use style="stroke:#000000;stroke-width:0.8;" x="89.25875" xlink:href="#m0890ccd047" y="151.27958"/>
      </g>
     </g>
     <g id="text_15">
      <!-- 50 -->
      <g transform="translate(66.98875 155.838642)scale(0.12 -0.12)">
       <use xlink:href="#DejaVuSans-53"/>
       <use x="63.623047" xlink:href="#DejaVuSans-48"/>
      </g>
     </g>
    </g>
    <g id="text_16">
     <!-- Cases -->
     <defs>
      <path d="M 64.40625 67.28125 
L 64.40625 56.890625 
Q 59.421875 61.53125 53.78125 63.8125 
Q 48.140625 66.109375 41.796875 66.109375 
Q 29.296875 66.109375 22.65625 58.46875 
Q 16.015625 50.828125 16.015625 36.375 
Q 16.015625 21.96875 22.65625 14.328125 
Q 29.296875 6.6875 41.796875 6.6875 
Q 48.140625 6.6875 53.78125 8.984375 
Q 59.421875 11.28125 64.40625 15.921875 
L 64.40625 5.609375 
Q 59.234375 2.09375 53.4375 0.328125 
Q 47.65625 -1.421875 41.21875 -1.421875 
Q 24.65625 -1.421875 15.125 8.703125 
Q 5.609375 18.84375 5.609375 36.375 
Q 5.609375 53.953125 15.125 64.078125 
Q 24.65625 74.21875 41.21875 74.21875 
Q 47.75 74.21875 53.53125 72.484375 
Q 59.328125 70.75 64.40625 67.28125 
z
" id="DejaVuSans-67"/>
      <path d="M 44.28125 53.078125 
L 44.28125 44.578125 
Q 40.484375 46.53125 36.375 47.5 
Q 32.28125 48.484375 27.875 48.484375 
Q 21.1875 48.484375 17.84375 46.4375 
Q 14.5 44.390625 14.5 40.28125 
Q 14.5 37.15625 16.890625 35.375 
Q 19.28125 33.59375 26.515625 31.984375 
L 29.59375 31.296875 
Q 39.15625 29.25 43.1875 25.515625 
Q 47.21875 21.78125 47.21875 15.09375 
Q 47.21875 7.46875 41.1875 3.015625 
Q 35.15625 -1.421875 24.609375 -1.421875 
Q 20.21875 -1.421875 15.453125 -0.5625 
Q 10.6875 0.296875 5.421875 2 
L 5.421875 11.28125 
Q 10.40625 8.6875 15.234375 7.390625 
Q 20.0625 6.109375 24.8125 6.109375 
Q 31.15625 6.109375 34.5625 8.28125 
Q 37.984375 10.453125 37.984375 14.40625 
Q 37.984375 18.0625 35.515625 20.015625 
Q 33.0625 21.96875 24.703125 23.78125 
L 21.578125 24.515625 
Q 13.234375 26.265625 9.515625 29.90625 
Q 5.8125 33.546875 5.8125 39.890625 
Q 5.8125 47.609375 11.28125 51.796875 
Q 16.75 56 26.8125 56 
Q 31.78125 56 36.171875 55.265625 
Q 40.578125 54.546875 44.28125 53.078125 
z
" id="DejaVuSans-115"/>
      <path d="M 56.203125 29.59375 
L 56.203125 25.203125 
L 14.890625 25.203125 
Q 15.484375 15.921875 20.484375 11.0625 
Q 25.484375 6.203125 34.421875 6.203125 
Q 39.59375 6.203125 44.453125 7.46875 
Q 49.3125 8.734375 54.109375 11.28125 
L 54.109375 2.78125 
Q 49.265625 0.734375 44.1875 -0.34375 
Q 39.109375 -1.421875 33.890625 -1.421875 
Q 20.796875 -1.421875 13.15625 6.1875 
Q 5.515625 13.8125 5.515625 26.8125 
Q 5.515625 40.234375 12.765625 48.109375 
Q 20.015625 56 32.328125 56 
Q 43.359375 56 49.78125 48.890625 
Q 56.203125 41.796875 56.203125 29.59375 
z
M 47.21875 32.234375 
Q 47.125 39.59375 43.09375 43.984375 
Q 39.0625 48.390625 32.421875 48.390625 
Q 24.90625 48.390625 20.390625 44.140625 
Q 15.875 39.890625 15.1875 32.171875 
z
" id="DejaVuSans-101"/>
     </defs>
     <g transform="translate(60.077188 249.792969)rotate(-90)scale(0.14 -0.14)">
      <use xlink:href="#DejaVuSans-67"/>
      <use x="69.824219" xlink:href="#DejaVuSans-97"/>
      <use x="131.103516" xlink:href="#DejaVuSans-115"/>
      <use x="183.203125" xlink:href="#DejaVuSans-101"/>
      <use x="244.726562" xlink:href="#DejaVuSans-115"/>
     </g>
    </g>
   </g>
   <g id="line2d_25">
    <path clip-path="url(#p1271f9c719)" d="M 89.25875 283.230736 
L 135.797813 281.213177 
L 182.336875 276.325078 
L 228.875938 271.512668 
L 275.415 269.718375 
L 321.954063 266.458509 
L 368.493125 261.084166 
L 415.032188 253.362001 
L 461.57125 245.603998 
" style="fill:none;stroke:#1f77b4;stroke-linecap:square;stroke-width:3;"/>
   </g>
   <g id="line2d_26">
    <defs>
     <path d="M -3 3 
L 3 -3 
M -3 -3 
L 3 3 
" id="md769476e70" style="stroke:#000000;"/>
    </defs>
    <g clip-path="url(#p1271f9c719)">
     <use style="stroke:#000000;" x="89.25875" xlink:href="#md769476e70" y="286.903079"/>
     <use style="stroke:#000000;" x="135.797813" xlink:href="#md769476e70" y="306.75042"/>
     <use style="stroke:#000000;" x="182.336875" xlink:href="#md769476e70" y="316.674091"/>
     <use style="stroke:#000000;" x="228.875938" xlink:href="#md769476e70" y="316.674091"/>
     <use style="stroke:#000000;" x="275.415" xlink:href="#md769476e70" y="313.366201"/>
     <use style="stroke:#000000;" x="321.954063" xlink:href="#md769476e70" y="141.355909"/>
     <use style="stroke:#000000;" x="368.493125" xlink:href="#md769476e70" y="257.132067"/>
     <use style="stroke:#000000;" x="415.032188" xlink:href="#md769476e70" y="257.132067"/>
     <use style="stroke:#000000;" x="461.57125" xlink:href="#md769476e70" y="257.132067"/>
    </g>
   </g>
   <g id="patch_3">
    <path d="M 89.25875 325.44 
L 89.25875 132.59 
" style="fill:none;stroke:#000000;stroke-linecap:square;stroke-linejoin:miter;"/>
   </g>
   <g id="patch_4">
    <path d="M 461.57125 325.44 
L 461.57125 132.59 
" style="fill:none;stroke:#000000;stroke-linecap:square;stroke-linejoin:miter;"/>
   </g>
   <g id="patch_5">
    <path d="M 89.25875 325.44 
L 461.57125 325.44 
" style="fill:none;stroke:#000000;stroke-linecap:square;stroke-linejoin:miter;"/>
   </g>
   <g id="patch_6">
    <path d="M 89.25875 132.59 
L 461.57125 132.59 
" style="fill:none;stroke:#000000;stroke-linecap:square;stroke-linejoin:miter;"/>
   </g>
   <g id="text_17">
    <!-- Daily Cases -->
    <defs>
     <path d="M 19.671875 64.796875 
L 19.671875 8.109375 
L 31.59375 8.109375 
Q 46.6875 8.109375 53.6875 14.9375 
Q 60.6875 21.78125 60.6875 36.53125 
Q 60.6875 51.171875 53.6875 57.984375 
Q 46.6875 64.796875 31.59375 64.796875 
z
M 9.8125 72.90625 
L 30.078125 72.90625 
Q 51.265625 72.90625 61.171875 64.09375 
Q 71.09375 55.28125 71.09375 36.53125 
Q 71.09375 17.671875 61.125 8.828125 
Q 51.171875 0 30.078125 0 
L 9.8125 0 
z
" id="DejaVuSans-68"/>
     <path d="M 9.421875 54.6875 
L 18.40625 54.6875 
L 18.40625 0 
L 9.421875 0 
z
M 9.421875 75.984375 
L 18.40625 75.984375 
L 18.40625 64.59375 
L 9.421875 64.59375 
z
" id="DejaVuSans-105"/>
     <path d="M 9.421875 75.984375 
L 18.40625 75.984375 
L 18.40625 0 
L 9.421875 0 
z
" id="DejaVuSans-108"/>
     <path id="DejaVuSans-32"/>
    </defs>
    <g transform="translate(217.250938 117.59)scale(0.2 -0.2)">
     <use xlink:href="#DejaVuSans-68"/>
     <use x="77.001953" xlink:href="#DejaVuSans-97"/>
     <use x="138.28125" xlink:href="#DejaVuSans-105"/>
     <use x="166.064453" xlink:href="#DejaVuSans-108"/>
     <use x="193.847656" xlink:href="#DejaVuSans-121"/>
     <use x="253.027344" xlink:href="#DejaVuSans-32"/>
     <use x="284.814453" xlink:href="#DejaVuSans-67"/>
     <use x="354.638672" xlink:href="#DejaVuSans-97"/>
     <use x="415.917969" xlink:href="#DejaVuSans-115"/>
     <use x="468.017578" xlink:href="#DejaVuSans-101"/>
     <use x="529.541016" xlink:href="#DejaVuSans-115"/>
    </g>
   </g>
  </g>
  <g id="axes_2">
   <g id="patch_7">
    <path d="M 537.25875 325.44 
L 909.57125 325.44 
L 909.57125 132.59 
L 537.25875 132.59 
z
" style="fill:#ffffff;"/>
   </g>
   <g id="matplotlib.axis_3">
    <g id="xtick_10">
     <g id="line2d_27">
      <path clip-path="url(#p92d4539a42)" d="M 537.25875 325.44 
L 537.25875 132.59 
" style="fill:none;stroke:#000000;stroke-linecap:square;stroke-opacity:0.2;stroke-width:0.5;"/>
     </g>
     <g id="line2d_28">
      <g>
       <use style="stroke:#000000;stroke-width:0.8;" x="537.25875" xlink:href="#mf48becf6f7" y="325.44"/>
      </g>
     </g>
     <g id="text_18">
      <!-- 30 -->
      <g transform="translate(529.62375 341.558125)scale(0.12 -0.12)">
       <use xlink:href="#DejaVuSans-51"/>
       <use x="63.623047" xlink:href="#DejaVuSans-48"/>
      </g>
     </g>
    </g>
    <g id="xtick_11">
     <g id="line2d_29">
      <path clip-path="url(#p92d4539a42)" d="M 583.797813 325.44 
L 583.797813 132.59 
" style="fill:none;stroke:#000000;stroke-linecap:square;stroke-opacity:0.2;stroke-width:0.5;"/>
     </g>
     <g id="line2d_30">
      <g>
       <use style="stroke:#000000;stroke-width:0.8;" x="583.797813" xlink:href="#mf48becf6f7" y="325.44"/>
      </g>
     </g>
     <g id="text_19">
      <!-- 01 -->
      <g transform="translate(576.162813 341.558125)scale(0.12 -0.12)">
       <use xlink:href="#DejaVuSans-48"/>
       <use x="63.623047" xlink:href="#DejaVuSans-49"/>
      </g>
      <!-- May -->
      <g transform="translate(571.392813 354.9955)scale(0.12 -0.12)">
       <use xlink:href="#DejaVuSans-77"/>
       <use x="86.279297" xlink:href="#DejaVuSans-97"/>
       <use x="147.558594" xlink:href="#DejaVuSans-121"/>
      </g>
      <!-- 2020 -->
      <g transform="translate(568.527813 368.432875)scale(0.12 -0.12)">
       <use xlink:href="#DejaVuSans-50"/>
       <use x="63.623047" xlink:href="#DejaVuSans-48"/>
       <use x="127.246094" xlink:href="#DejaVuSans-50"/>
       <use x="190.869141" xlink:href="#DejaVuSans-48"/>
      </g>
     </g>
    </g>
    <g id="xtick_12">
     <g id="line2d_31">
      <path clip-path="url(#p92d4539a42)" d="M 909.57125 325.44 
L 909.57125 132.59 
" style="fill:none;stroke:#000000;stroke-linecap:square;stroke-opacity:0.2;stroke-width:0.5;"/>
     </g>
     <g id="line2d_32">
      <g>
       <use style="stroke:#000000;stroke-width:0.8;" x="909.57125" xlink:href="#mf48becf6f7" y="325.44"/>
      </g>
     </g>
     <g id="text_20">
      <!-- 08 -->
      <g transform="translate(901.93625 341.558125)scale(0.12 -0.12)">
       <use xlink:href="#DejaVuSans-48"/>
       <use x="63.623047" xlink:href="#DejaVuSans-56"/>
      </g>
     </g>
    </g>
    <g id="xtick_13">
     <g id="line2d_33">
      <g>
       <use style="stroke:#000000;stroke-width:0.6;" x="630.336875" xlink:href="#mb5fcdd0288" y="325.44"/>
      </g>
     </g>
     <g id="text_21">
      <!-- 02 -->
      <g transform="translate(622.701875 339.958125)scale(0.12 -0.12)">
       <use xlink:href="#DejaVuSans-48"/>
       <use x="63.623047" xlink:href="#DejaVuSans-50"/>
      </g>
     </g>
    </g>
    <g id="xtick_14">
     <g id="line2d_34">
      <g>
       <use style="stroke:#000000;stroke-width:0.6;" x="676.875938" xlink:href="#mb5fcdd0288" y="325.44"/>
      </g>
     </g>
     <g id="text_22">
      <!-- 03 -->
      <g transform="translate(669.240938 339.958125)scale(0.12 -0.12)">
       <use xlink:href="#DejaVuSans-48"/>
       <use x="63.623047" xlink:href="#DejaVuSans-51"/>
      </g>
     </g>
    </g>
    <g id="xtick_15">
     <g id="line2d_35">
      <g>
       <use style="stroke:#000000;stroke-width:0.6;" x="723.415" xlink:href="#mb5fcdd0288" y="325.44"/>
      </g>
     </g>
     <g id="text_23">
      <!-- 04 -->
      <g transform="translate(715.78 339.958125)scale(0.12 -0.12)">
       <use xlink:href="#DejaVuSans-48"/>
       <use x="63.623047" xlink:href="#DejaVuSans-52"/>
      </g>
     </g>
    </g>
    <g id="xtick_16">
     <g id="line2d_36">
      <g>
       <use style="stroke:#000000;stroke-width:0.6;" x="769.954063" xlink:href="#mb5fcdd0288" y="325.44"/>
      </g>
     </g>
     <g id="text_24">
      <!-- 05 -->
      <g transform="translate(762.319063 339.958125)scale(0.12 -0.12)">
       <use xlink:href="#DejaVuSans-48"/>
       <use x="63.623047" xlink:href="#DejaVuSans-53"/>
      </g>
     </g>
    </g>
    <g id="xtick_17">
     <g id="line2d_37">
      <g>
       <use style="stroke:#000000;stroke-width:0.6;" x="816.493125" xlink:href="#mb5fcdd0288" y="325.44"/>
      </g>
     </g>
     <g id="text_25">
      <!-- 06 -->
      <g transform="translate(808.858125 339.958125)scale(0.12 -0.12)">
       <use xlink:href="#DejaVuSans-48"/>
       <use x="63.623047" xlink:href="#DejaVuSans-54"/>
      </g>
     </g>
    </g>
    <g id="xtick_18">
     <g id="line2d_38">
      <g>
       <use style="stroke:#000000;stroke-width:0.6;" x="863.032188" xlink:href="#mb5fcdd0288" y="325.44"/>
      </g>
     </g>
     <g id="text_26">
      <!-- 07 -->
      <g transform="translate(855.397188 339.958125)scale(0.12 -0.12)">
       <use xlink:href="#DejaVuSans-48"/>
       <use x="63.623047" xlink:href="#DejaVuSans-55"/>
      </g>
     </g>
    </g>
   </g>
   <g id="matplotlib.axis_4">
    <g id="ytick_7">
     <g id="line2d_39">
      <path clip-path="url(#p92d4539a42)" d="M 537.25875 321.41242 
L 909.57125 321.41242 
" style="fill:none;stroke:#000000;stroke-linecap:square;stroke-opacity:0.2;stroke-width:0.5;"/>
     </g>
     <g id="line2d_40">
      <g>
       <use style="stroke:#000000;stroke-width:0.8;" x="537.25875" xlink:href="#m0890ccd047" y="321.41242"/>
      </g>
     </g>
     <g id="text_27">
      <!-- 260 -->
      <g transform="translate(507.35375 325.971483)scale(0.12 -0.12)">
       <use xlink:href="#DejaVuSans-50"/>
       <use x="63.623047" xlink:href="#DejaVuSans-54"/>
       <use x="127.246094" xlink:href="#DejaVuSans-48"/>
      </g>
     </g>
    </g>
    <g id="ytick_8">
     <g id="line2d_41">
      <path clip-path="url(#p92d4539a42)" d="M 537.25875 289.823559 
L 909.57125 289.823559 
" style="fill:none;stroke:#000000;stroke-linecap:square;stroke-opacity:0.2;stroke-width:0.5;"/>
     </g>
     <g id="line2d_42">
      <g>
       <use style="stroke:#000000;stroke-width:0.8;" x="537.25875" xlink:href="#m0890ccd047" y="289.823559"/>
      </g>
     </g>
     <g id="text_28">
      <!-- 280 -->
      <g transform="translate(507.35375 294.382621)scale(0.12 -0.12)">
       <use xlink:href="#DejaVuSans-50"/>
       <use x="63.623047" xlink:href="#DejaVuSans-56"/>
       <use x="127.246094" xlink:href="#DejaVuSans-48"/>
      </g>
     </g>
    </g>
    <g id="ytick_9">
     <g id="line2d_43">
      <path clip-path="url(#p92d4539a42)" d="M 537.25875 258.234697 
L 909.57125 258.234697 
" style="fill:none;stroke:#000000;stroke-linecap:square;stroke-opacity:0.2;stroke-width:0.5;"/>
     </g>
     <g id="line2d_44">
      <g>
       <use style="stroke:#000000;stroke-width:0.8;" x="537.25875" xlink:href="#m0890ccd047" y="258.234697"/>
      </g>
     </g>
     <g id="text_29">
      <!-- 300 -->
      <g transform="translate(507.35375 262.793759)scale(0.12 -0.12)">
       <use xlink:href="#DejaVuSans-51"/>
       <use x="63.623047" xlink:href="#DejaVuSans-48"/>
       <use x="127.246094" xlink:href="#DejaVuSans-48"/>
      </g>
     </g>
    </g>
    <g id="ytick_10">
     <g id="line2d_45">
      <path clip-path="url(#p92d4539a42)" d="M 537.25875 226.645835 
L 909.57125 226.645835 
" style="fill:none;stroke:#000000;stroke-linecap:square;stroke-opacity:0.2;stroke-width:0.5;"/>
     </g>
     <g id="line2d_46">
      <g>
       <use style="stroke:#000000;stroke-width:0.8;" x="537.25875" xlink:href="#m0890ccd047" y="226.645835"/>
      </g>
     </g>
     <g id="text_30">
      <!-- 320 -->
      <g transform="translate(507.35375 231.204898)scale(0.12 -0.12)">
       <use xlink:href="#DejaVuSans-51"/>
       <use x="63.623047" xlink:href="#DejaVuSans-50"/>
       <use x="127.246094" xlink:href="#DejaVuSans-48"/>
      </g>
     </g>
    </g>
    <g id="ytick_11">
     <g id="line2d_47">
      <path clip-path="url(#p92d4539a42)" d="M 537.25875 195.056974 
L 909.57125 195.056974 
" style="fill:none;stroke:#000000;stroke-linecap:square;stroke-opacity:0.2;stroke-width:0.5;"/>
     </g>
     <g id="line2d_48">
      <g>
       <use style="stroke:#000000;stroke-width:0.8;" x="537.25875" xlink:href="#m0890ccd047" y="195.056974"/>
      </g>
     </g>
     <g id="text_31">
      <!-- 340 -->
      <g transform="translate(507.35375 199.616036)scale(0.12 -0.12)">
       <use xlink:href="#DejaVuSans-51"/>
       <use x="63.623047" xlink:href="#DejaVuSans-52"/>
       <use x="127.246094" xlink:href="#DejaVuSans-48"/>
      </g>
     </g>
    </g>
    <g id="ytick_12">
     <g id="line2d_49">
      <path clip-path="url(#p92d4539a42)" d="M 537.25875 163.468112 
L 909.57125 163.468112 
" style="fill:none;stroke:#000000;stroke-linecap:square;stroke-opacity:0.2;stroke-width:0.5;"/>
     </g>
     <g id="line2d_50">
      <g>
       <use style="stroke:#000000;stroke-width:0.8;" x="537.25875" xlink:href="#m0890ccd047" y="163.468112"/>
      </g>
     </g>
     <g id="text_32">
      <!-- 360 -->
      <g transform="translate(507.35375 168.027175)scale(0.12 -0.12)">
       <use xlink:href="#DejaVuSans-51"/>
       <use x="63.623047" xlink:href="#DejaVuSans-54"/>
       <use x="127.246094" xlink:href="#DejaVuSans-48"/>
      </g>
     </g>
    </g>
    <g id="text_33">
     <!-- Cases -->
     <g transform="translate(500.442187 249.792969)rotate(-90)scale(0.14 -0.14)">
      <use xlink:href="#DejaVuSans-67"/>
      <use x="69.824219" xlink:href="#DejaVuSans-97"/>
      <use x="131.103516" xlink:href="#DejaVuSans-115"/>
      <use x="183.203125" xlink:href="#DejaVuSans-101"/>
      <use x="244.726562" xlink:href="#DejaVuSans-115"/>
     </g>
    </g>
   </g>
   <g id="line2d_51">
    <path clip-path="url(#p92d4539a42)" d="M 537.25875 316.674091 
L 583.797813 311.935762 
L 630.336875 311.935762 
L 676.875938 311.935762 
L 723.415 310.356319 
L 769.954063 226.645835 
L 816.493125 198.21586 
L 863.032188 169.785885 
L 909.57125 141.355909 
" style="fill:none;stroke:#1f77b4;stroke-linecap:square;stroke-width:3;"/>
   </g>
   <g id="patch_8">
    <path d="M 537.25875 325.44 
L 537.25875 132.59 
" style="fill:none;stroke:#000000;stroke-linecap:square;stroke-linejoin:miter;"/>
   </g>
   <g id="patch_9">
    <path d="M 909.57125 325.44 
L 909.57125 132.59 
" style="fill:none;stroke:#000000;stroke-linecap:square;stroke-linejoin:miter;"/>
   </g>
   <g id="patch_10">
    <path d="M 537.25875 325.44 
L 909.57125 325.44 
" style="fill:none;stroke:#000000;stroke-linecap:square;stroke-linejoin:miter;"/>
   </g>
   <g id="patch_11">
    <path d="M 537.25875 132.59 
L 909.57125 132.59 
" style="fill:none;stroke:#000000;stroke-linecap:square;stroke-linejoin:miter;"/>
   </g>
   <g id="text_34">
    <!-- Cumulative Cases -->
    <defs>
     <path d="M 8.5 21.578125 
L 8.5 54.6875 
L 17.484375 54.6875 
L 17.484375 21.921875 
Q 17.484375 14.15625 20.5 10.265625 
Q 23.53125 6.390625 29.59375 6.390625 
Q 36.859375 6.390625 41.078125 11.03125 
Q 45.3125 15.671875 45.3125 23.6875 
L 45.3125 54.6875 
L 54.296875 54.6875 
L 54.296875 0 
L 45.3125 0 
L 45.3125 8.40625 
Q 42.046875 3.421875 37.71875 1 
Q 33.40625 -1.421875 27.6875 -1.421875 
Q 18.265625 -1.421875 13.375 4.4375 
Q 8.5 10.296875 8.5 21.578125 
z
M 31.109375 56 
z
" id="DejaVuSans-117"/>
     <path d="M 52 44.1875 
Q 55.375 50.25 60.0625 53.125 
Q 64.75 56 71.09375 56 
Q 79.640625 56 84.28125 50.015625 
Q 88.921875 44.046875 88.921875 33.015625 
L 88.921875 0 
L 79.890625 0 
L 79.890625 32.71875 
Q 79.890625 40.578125 77.09375 44.375 
Q 74.3125 48.1875 68.609375 48.1875 
Q 61.625 48.1875 57.5625 43.546875 
Q 53.515625 38.921875 53.515625 30.90625 
L 53.515625 0 
L 44.484375 0 
L 44.484375 32.71875 
Q 44.484375 40.625 41.703125 44.40625 
Q 38.921875 48.1875 33.109375 48.1875 
Q 26.21875 48.1875 22.15625 43.53125 
Q 18.109375 38.875 18.109375 30.90625 
L 18.109375 0 
L 9.078125 0 
L 9.078125 54.6875 
L 18.109375 54.6875 
L 18.109375 46.1875 
Q 21.1875 51.21875 25.484375 53.609375 
Q 29.78125 56 35.6875 56 
Q 41.65625 56 45.828125 52.96875 
Q 50 49.953125 52 44.1875 
z
" id="DejaVuSans-109"/>
     <path d="M 18.3125 70.21875 
L 18.3125 54.6875 
L 36.8125 54.6875 
L 36.8125 47.703125 
L 18.3125 47.703125 
L 18.3125 18.015625 
Q 18.3125 11.328125 20.140625 9.421875 
Q 21.96875 7.515625 27.59375 7.515625 
L 36.8125 7.515625 
L 36.8125 0 
L 27.59375 0 
Q 17.1875 0 13.234375 3.875 
Q 9.28125 7.765625 9.28125 18.015625 
L 9.28125 47.703125 
L 2.6875 47.703125 
L 2.6875 54.6875 
L 9.28125 54.6875 
L 9.28125 70.21875 
z
" id="DejaVuSans-116"/>
     <path d="M 2.984375 54.6875 
L 12.5 54.6875 
L 29.59375 8.796875 
L 46.6875 54.6875 
L 56.203125 54.6875 
L 35.6875 0 
L 23.484375 0 
z
" id="DejaVuSans-118"/>
    </defs>
    <g transform="translate(633.479062 117.59)scale(0.2 -0.2)">
     <use xlink:href="#DejaVuSans-67"/>
     <use x="69.824219" xlink:href="#DejaVuSans-117"/>
     <use x="133.203125" xlink:href="#DejaVuSans-109"/>
     <use x="230.615234" xlink:href="#DejaVuSans-117"/>
     <use x="293.994141" xlink:href="#DejaVuSans-108"/>
     <use x="321.777344" xlink:href="#DejaVuSans-97"/>
     <use x="383.056641" xlink:href="#DejaVuSans-116"/>
     <use x="422.265625" xlink:href="#DejaVuSans-105"/>
     <use x="450.048828" xlink:href="#DejaVuSans-118"/>
     <use x="509.228516" xlink:href="#DejaVuSans-101"/>
     <use x="570.751953" xlink:href="#DejaVuSans-32"/>
     <use x="602.539062" xlink:href="#DejaVuSans-67"/>
     <use x="672.363281" xlink:href="#DejaVuSans-97"/>
     <use x="733.642578" xlink:href="#DejaVuSans-115"/>
     <use x="785.742188" xlink:href="#DejaVuSans-101"/>
     <use x="847.265625" xlink:href="#DejaVuSans-115"/>
    </g>
   </g>
  </g>
  <g id="axes_3">
   <g id="patch_12">
    <path d="M 89.25875 612.04 
L 461.57125 612.04 
L 461.57125 419.19 
L 89.25875 419.19 
z
" style="fill:#ffffff;"/>
   </g>
   <g id="matplotlib.axis_5">
    <g id="xtick_19">
     <g id="line2d_52">
      <path clip-path="url(#pe0989bb1d2)" d="M 89.25875 612.04 
L 89.25875 419.19 
" style="fill:none;stroke:#000000;stroke-linecap:square;stroke-opacity:0.2;stroke-width:0.5;"/>
     </g>
     <g id="line2d_53">
      <g>
       <use style="stroke:#000000;stroke-width:0.8;" x="89.25875" xlink:href="#mf48becf6f7" y="612.04"/>
      </g>
     </g>
     <g id="text_35">
      <!-- 30 -->
      <g transform="translate(81.62375 628.158125)scale(0.12 -0.12)">
       <use xlink:href="#DejaVuSans-51"/>
       <use x="63.623047" xlink:href="#DejaVuSans-48"/>
      </g>
     </g>
    </g>
    <g id="xtick_20">
     <g id="line2d_54">
      <path clip-path="url(#pe0989bb1d2)" d="M 135.797813 612.04 
L 135.797813 419.19 
" style="fill:none;stroke:#000000;stroke-linecap:square;stroke-opacity:0.2;stroke-width:0.5;"/>
     </g>
     <g id="line2d_55">
      <g>
       <use style="stroke:#000000;stroke-width:0.8;" x="135.797813" xlink:href="#mf48becf6f7" y="612.04"/>
      </g>
     </g>
     <g id="text_36">
      <!-- 01 -->
      <g transform="translate(128.162813 628.158125)scale(0.12 -0.12)">
       <use xlink:href="#DejaVuSans-48"/>
       <use x="63.623047" xlink:href="#DejaVuSans-49"/>
      </g>
      <!-- May -->
      <g transform="translate(123.392813 641.5955)scale(0.12 -0.12)">
       <use xlink:href="#DejaVuSans-77"/>
       <use x="86.279297" xlink:href="#DejaVuSans-97"/>
       <use x="147.558594" xlink:href="#DejaVuSans-121"/>
      </g>
      <!-- 2020 -->
      <g transform="translate(120.527813 655.032875)scale(0.12 -0.12)">
       <use xlink:href="#DejaVuSans-50"/>
       <use x="63.623047" xlink:href="#DejaVuSans-48"/>
       <use x="127.246094" xlink:href="#DejaVuSans-50"/>
       <use x="190.869141" xlink:href="#DejaVuSans-48"/>
      </g>
     </g>
    </g>
    <g id="xtick_21">
     <g id="line2d_56">
      <path clip-path="url(#pe0989bb1d2)" d="M 461.57125 612.04 
L 461.57125 419.19 
" style="fill:none;stroke:#000000;stroke-linecap:square;stroke-opacity:0.2;stroke-width:0.5;"/>
     </g>
     <g id="line2d_57">
      <g>
       <use style="stroke:#000000;stroke-width:0.8;" x="461.57125" xlink:href="#mf48becf6f7" y="612.04"/>
      </g>
     </g>
     <g id="text_37">
      <!-- 08 -->
      <g transform="translate(453.93625 628.158125)scale(0.12 -0.12)">
       <use xlink:href="#DejaVuSans-48"/>
       <use x="63.623047" xlink:href="#DejaVuSans-56"/>
      </g>
     </g>
    </g>
    <g id="xtick_22">
     <g id="line2d_58">
      <g>
       <use style="stroke:#000000;stroke-width:0.6;" x="182.336875" xlink:href="#mb5fcdd0288" y="612.04"/>
      </g>
     </g>
     <g id="text_38">
      <!-- 02 -->
      <g transform="translate(174.701875 626.558125)scale(0.12 -0.12)">
       <use xlink:href="#DejaVuSans-48"/>
       <use x="63.623047" xlink:href="#DejaVuSans-50"/>
      </g>
     </g>
    </g>
    <g id="xtick_23">
     <g id="line2d_59">
      <g>
       <use style="stroke:#000000;stroke-width:0.6;" x="228.875938" xlink:href="#mb5fcdd0288" y="612.04"/>
      </g>
     </g>
     <g id="text_39">
      <!-- 03 -->
      <g transform="translate(221.240938 626.558125)scale(0.12 -0.12)">
       <use xlink:href="#DejaVuSans-48"/>
       <use x="63.623047" xlink:href="#DejaVuSans-51"/>
      </g>
     </g>
    </g>
    <g id="xtick_24">
     <g id="line2d_60">
      <g>
       <use style="stroke:#000000;stroke-width:0.6;" x="275.415" xlink:href="#mb5fcdd0288" y="612.04"/>
      </g>
     </g>
     <g id="text_40">
      <!-- 04 -->
      <g transform="translate(267.78 626.558125)scale(0.12 -0.12)">
       <use xlink:href="#DejaVuSans-48"/>
       <use x="63.623047" xlink:href="#DejaVuSans-52"/>
      </g>
     </g>
    </g>
    <g id="xtick_25">
     <g id="line2d_61">
      <g>
       <use style="stroke:#000000;stroke-width:0.6;" x="321.954063" xlink:href="#mb5fcdd0288" y="612.04"/>
      </g>
     </g>
     <g id="text_41">
      <!-- 05 -->
      <g transform="translate(314.319063 626.558125)scale(0.12 -0.12)">
       <use xlink:href="#DejaVuSans-48"/>
       <use x="63.623047" xlink:href="#DejaVuSans-53"/>
      </g>
     </g>
    </g>
    <g id="xtick_26">
     <g id="line2d_62">
      <g>
       <use style="stroke:#000000;stroke-width:0.6;" x="368.493125" xlink:href="#mb5fcdd0288" y="612.04"/>
      </g>
     </g>
     <g id="text_42">
      <!-- 06 -->
      <g transform="translate(360.858125 626.558125)scale(0.12 -0.12)">
       <use xlink:href="#DejaVuSans-48"/>
       <use x="63.623047" xlink:href="#DejaVuSans-54"/>
      </g>
     </g>
    </g>
    <g id="xtick_27">
     <g id="line2d_63">
      <g>
       <use style="stroke:#000000;stroke-width:0.6;" x="415.032188" xlink:href="#mb5fcdd0288" y="612.04"/>
      </g>
     </g>
     <g id="text_43">
      <!-- 07 -->
      <g transform="translate(407.397188 626.558125)scale(0.12 -0.12)">
       <use xlink:href="#DejaVuSans-48"/>
       <use x="63.623047" xlink:href="#DejaVuSans-55"/>
      </g>
     </g>
    </g>
   </g>
   <g id="matplotlib.axis_6">
    <g id="ytick_13">
     <g id="line2d_64">
      <path clip-path="url(#pe0989bb1d2)" d="M 89.25875 603.274091 
L 461.57125 603.274091 
" style="fill:none;stroke:#000000;stroke-linecap:square;stroke-opacity:0.2;stroke-width:0.5;"/>
     </g>
     <g id="line2d_65">
      <g>
       <use style="stroke:#000000;stroke-width:0.8;" x="89.25875" xlink:href="#m0890ccd047" y="603.274091"/>
      </g>
     </g>
     <g id="text_44">
      <!-- 0.00 -->
      <defs>
       <path d="M 10.6875 12.40625 
L 21 12.40625 
L 21 0 
L 10.6875 0 
z
" id="DejaVuSans-46"/>
      </defs>
      <g transform="translate(55.54 607.833153)scale(0.12 -0.12)">
       <use xlink:href="#DejaVuSans-48"/>
       <use x="63.623047" xlink:href="#DejaVuSans-46"/>
       <use x="95.410156" xlink:href="#DejaVuSans-48"/>
       <use x="159.033203" xlink:href="#DejaVuSans-48"/>
      </g>
     </g>
    </g>
    <g id="ytick_14">
     <g id="line2d_66">
      <path clip-path="url(#pe0989bb1d2)" d="M 89.25875 559.306226 
L 461.57125 559.306226 
" style="fill:none;stroke:#000000;stroke-linecap:square;stroke-opacity:0.2;stroke-width:0.5;"/>
     </g>
     <g id="line2d_67">
      <g>
       <use style="stroke:#000000;stroke-width:0.8;" x="89.25875" xlink:href="#m0890ccd047" y="559.306226"/>
      </g>
     </g>
     <g id="text_45">
      <!-- 0.02 -->
      <g transform="translate(55.54 563.865288)scale(0.12 -0.12)">
       <use xlink:href="#DejaVuSans-48"/>
       <use x="63.623047" xlink:href="#DejaVuSans-46"/>
       <use x="95.410156" xlink:href="#DejaVuSans-48"/>
       <use x="159.033203" xlink:href="#DejaVuSans-50"/>
      </g>
     </g>
    </g>
    <g id="ytick_15">
     <g id="line2d_68">
      <path clip-path="url(#pe0989bb1d2)" d="M 89.25875 515.33836 
L 461.57125 515.33836 
" style="fill:none;stroke:#000000;stroke-linecap:square;stroke-opacity:0.2;stroke-width:0.5;"/>
     </g>
     <g id="line2d_69">
      <g>
       <use style="stroke:#000000;stroke-width:0.8;" x="89.25875" xlink:href="#m0890ccd047" y="515.33836"/>
      </g>
     </g>
     <g id="text_46">
      <!-- 0.04 -->
      <g transform="translate(55.54 519.897423)scale(0.12 -0.12)">
       <use xlink:href="#DejaVuSans-48"/>
       <use x="63.623047" xlink:href="#DejaVuSans-46"/>
       <use x="95.410156" xlink:href="#DejaVuSans-48"/>
       <use x="159.033203" xlink:href="#DejaVuSans-52"/>
      </g>
     </g>
    </g>
    <g id="ytick_16">
     <g id="line2d_70">
      <path clip-path="url(#pe0989bb1d2)" d="M 89.25875 471.370495 
L 461.57125 471.370495 
" style="fill:none;stroke:#000000;stroke-linecap:square;stroke-opacity:0.2;stroke-width:0.5;"/>
     </g>
     <g id="line2d_71">
      <g>
       <use style="stroke:#000000;stroke-width:0.8;" x="89.25875" xlink:href="#m0890ccd047" y="471.370495"/>
      </g>
     </g>
     <g id="text_47">
      <!-- 0.06 -->
      <g transform="translate(55.54 475.929558)scale(0.12 -0.12)">
       <use xlink:href="#DejaVuSans-48"/>
       <use x="63.623047" xlink:href="#DejaVuSans-46"/>
       <use x="95.410156" xlink:href="#DejaVuSans-48"/>
       <use x="159.033203" xlink:href="#DejaVuSans-54"/>
      </g>
     </g>
    </g>
    <g id="ytick_17">
     <g id="line2d_72">
      <path clip-path="url(#pe0989bb1d2)" d="M 89.25875 427.40263 
L 461.57125 427.40263 
" style="fill:none;stroke:#000000;stroke-linecap:square;stroke-opacity:0.2;stroke-width:0.5;"/>
     </g>
     <g id="line2d_73">
      <g>
       <use style="stroke:#000000;stroke-width:0.8;" x="89.25875" xlink:href="#m0890ccd047" y="427.40263"/>
      </g>
     </g>
     <g id="text_48">
      <!-- 0.08 -->
      <g transform="translate(55.54 431.961692)scale(0.12 -0.12)">
       <use xlink:href="#DejaVuSans-48"/>
       <use x="63.623047" xlink:href="#DejaVuSans-46"/>
       <use x="95.410156" xlink:href="#DejaVuSans-48"/>
       <use x="159.033203" xlink:href="#DejaVuSans-56"/>
      </g>
     </g>
    </g>
    <g id="text_49">
     <!-- Days${}^{-1}$ -->
     <defs>
      <path d="M 10.59375 35.5 
L 73.1875 35.5 
L 73.1875 27.203125 
L 10.59375 27.203125 
z
" id="DejaVuSans-8722"/>
     </defs>
     <g transform="translate(48.6 540.605)rotate(-90)scale(0.14 -0.14)">
      <use transform="translate(0 0.684375)" xlink:href="#DejaVuSans-68"/>
      <use transform="translate(77.001953 0.684375)" xlink:href="#DejaVuSans-97"/>
      <use transform="translate(138.28125 0.684375)" xlink:href="#DejaVuSans-121"/>
      <use transform="translate(197.460938 0.684375)" xlink:href="#DejaVuSans-115"/>
      <use transform="translate(250.517578 38.965625)scale(0.7)" xlink:href="#DejaVuSans-8722"/>
      <use transform="translate(309.169922 38.965625)scale(0.7)" xlink:href="#DejaVuSans-49"/>
     </g>
    </g>
   </g>
   <g id="line2d_74">
    <path clip-path="url(#pe0989bb1d2)" d="M 89.25875 485.332818 
L 135.797813 479.969458 
L 182.336875 472.995 
L 228.875938 464.282218 
L 275.415 455.450606 
L 321.954063 446.9003 
L 368.493125 439.260807 
L 415.032188 433.591857 
L 461.57125 427.955909 
" style="fill:none;stroke:#1f77b4;stroke-linecap:square;stroke-width:3;"/>
   </g>
   <g id="line2d_75">
    <path clip-path="url(#pe0989bb1d2)" d="M 89.25875 603.274091 
L 461.57125 603.274091 
" style="fill:none;stroke:#000000;stroke-linecap:square;stroke-opacity:0.4;stroke-width:2;"/>
   </g>
   <g id="patch_13">
    <path d="M 89.25875 612.04 
L 89.25875 419.19 
" style="fill:none;stroke:#000000;stroke-linecap:square;stroke-linejoin:miter;"/>
   </g>
   <g id="patch_14">
    <path d="M 461.57125 612.04 
L 461.57125 419.19 
" style="fill:none;stroke:#000000;stroke-linecap:square;stroke-linejoin:miter;"/>
   </g>
   <g id="patch_15">
    <path d="M 89.25875 612.04 
L 461.57125 612.04 
" style="fill:none;stroke:#000000;stroke-linecap:square;stroke-linejoin:miter;"/>
   </g>
   <g id="patch_16">
    <path d="M 89.25875 419.19 
L 461.57125 419.19 
" style="fill:none;stroke:#000000;stroke-linecap:square;stroke-linejoin:miter;"/>
   </g>
   <g id="text_50">
    <!-- Logarithmic Growth Rate -->
    <defs>
     <path d="M 9.8125 72.90625 
L 19.671875 72.90625 
L 19.671875 8.296875 
L 55.171875 8.296875 
L 55.171875 0 
L 9.8125 0 
z
" id="DejaVuSans-76"/>
     <path d="M 30.609375 48.390625 
Q 23.390625 48.390625 19.1875 42.75 
Q 14.984375 37.109375 14.984375 27.296875 
Q 14.984375 17.484375 19.15625 11.84375 
Q 23.34375 6.203125 30.609375 6.203125 
Q 37.796875 6.203125 41.984375 11.859375 
Q 46.1875 17.53125 46.1875 27.296875 
Q 46.1875 37.015625 41.984375 42.703125 
Q 37.796875 48.390625 30.609375 48.390625 
z
M 30.609375 56 
Q 42.328125 56 49.015625 48.375 
Q 55.71875 40.765625 55.71875 27.296875 
Q 55.71875 13.875 49.015625 6.21875 
Q 42.328125 -1.421875 30.609375 -1.421875 
Q 18.84375 -1.421875 12.171875 6.21875 
Q 5.515625 13.875 5.515625 27.296875 
Q 5.515625 40.765625 12.171875 48.375 
Q 18.84375 56 30.609375 56 
z
" id="DejaVuSans-111"/>
     <path d="M 45.40625 27.984375 
Q 45.40625 37.75 41.375 43.109375 
Q 37.359375 48.484375 30.078125 48.484375 
Q 22.859375 48.484375 18.828125 43.109375 
Q 14.796875 37.75 14.796875 27.984375 
Q 14.796875 18.265625 18.828125 12.890625 
Q 22.859375 7.515625 30.078125 7.515625 
Q 37.359375 7.515625 41.375 12.890625 
Q 45.40625 18.265625 45.40625 27.984375 
z
M 54.390625 6.78125 
Q 54.390625 -7.171875 48.1875 -13.984375 
Q 42 -20.796875 29.203125 -20.796875 
Q 24.46875 -20.796875 20.265625 -20.09375 
Q 16.0625 -19.390625 12.109375 -17.921875 
L 12.109375 -9.1875 
Q 16.0625 -11.328125 19.921875 -12.34375 
Q 23.78125 -13.375 27.78125 -13.375 
Q 36.625 -13.375 41.015625 -8.765625 
Q 45.40625 -4.15625 45.40625 5.171875 
L 45.40625 9.625 
Q 42.625 4.78125 38.28125 2.390625 
Q 33.9375 0 27.875 0 
Q 17.828125 0 11.671875 7.65625 
Q 5.515625 15.328125 5.515625 27.984375 
Q 5.515625 40.671875 11.671875 48.328125 
Q 17.828125 56 27.875 56 
Q 33.9375 56 38.28125 53.609375 
Q 42.625 51.21875 45.40625 46.390625 
L 45.40625 54.6875 
L 54.390625 54.6875 
z
" id="DejaVuSans-103"/>
     <path d="M 41.109375 46.296875 
Q 39.59375 47.171875 37.8125 47.578125 
Q 36.03125 48 33.890625 48 
Q 26.265625 48 22.1875 43.046875 
Q 18.109375 38.09375 18.109375 28.8125 
L 18.109375 0 
L 9.078125 0 
L 9.078125 54.6875 
L 18.109375 54.6875 
L 18.109375 46.1875 
Q 20.953125 51.171875 25.484375 53.578125 
Q 30.03125 56 36.53125 56 
Q 37.453125 56 38.578125 55.875 
Q 39.703125 55.765625 41.0625 55.515625 
z
" id="DejaVuSans-114"/>
     <path d="M 54.890625 33.015625 
L 54.890625 0 
L 45.90625 0 
L 45.90625 32.71875 
Q 45.90625 40.484375 42.875 44.328125 
Q 39.84375 48.1875 33.796875 48.1875 
Q 26.515625 48.1875 22.3125 43.546875 
Q 18.109375 38.921875 18.109375 30.90625 
L 18.109375 0 
L 9.078125 0 
L 9.078125 75.984375 
L 18.109375 75.984375 
L 18.109375 46.1875 
Q 21.34375 51.125 25.703125 53.5625 
Q 30.078125 56 35.796875 56 
Q 45.21875 56 50.046875 50.171875 
Q 54.890625 44.34375 54.890625 33.015625 
z
" id="DejaVuSans-104"/>
     <path d="M 48.78125 52.59375 
L 48.78125 44.1875 
Q 44.96875 46.296875 41.140625 47.34375 
Q 37.3125 48.390625 33.40625 48.390625 
Q 24.65625 48.390625 19.8125 42.84375 
Q 14.984375 37.3125 14.984375 27.296875 
Q 14.984375 17.28125 19.8125 11.734375 
Q 24.65625 6.203125 33.40625 6.203125 
Q 37.3125 6.203125 41.140625 7.25 
Q 44.96875 8.296875 48.78125 10.40625 
L 48.78125 2.09375 
Q 45.015625 0.34375 40.984375 -0.53125 
Q 36.96875 -1.421875 32.421875 -1.421875 
Q 20.0625 -1.421875 12.78125 6.34375 
Q 5.515625 14.109375 5.515625 27.296875 
Q 5.515625 40.671875 12.859375 48.328125 
Q 20.21875 56 33.015625 56 
Q 37.15625 56 41.109375 55.140625 
Q 45.0625 54.296875 48.78125 52.59375 
z
" id="DejaVuSans-99"/>
     <path d="M 59.515625 10.40625 
L 59.515625 29.984375 
L 43.40625 29.984375 
L 43.40625 38.09375 
L 69.28125 38.09375 
L 69.28125 6.78125 
Q 63.578125 2.734375 56.6875 0.65625 
Q 49.8125 -1.421875 42 -1.421875 
Q 24.90625 -1.421875 15.25 8.5625 
Q 5.609375 18.5625 5.609375 36.375 
Q 5.609375 54.25 15.25 64.234375 
Q 24.90625 74.21875 42 74.21875 
Q 49.125 74.21875 55.546875 72.453125 
Q 61.96875 70.703125 67.390625 67.28125 
L 67.390625 56.78125 
Q 61.921875 61.421875 55.765625 63.765625 
Q 49.609375 66.109375 42.828125 66.109375 
Q 29.4375 66.109375 22.71875 58.640625 
Q 16.015625 51.171875 16.015625 36.375 
Q 16.015625 21.625 22.71875 14.15625 
Q 29.4375 6.6875 42.828125 6.6875 
Q 48.046875 6.6875 52.140625 7.59375 
Q 56.25 8.5 59.515625 10.40625 
z
" id="DejaVuSans-71"/>
     <path d="M 4.203125 54.6875 
L 13.1875 54.6875 
L 24.421875 12.015625 
L 35.59375 54.6875 
L 46.1875 54.6875 
L 57.421875 12.015625 
L 68.609375 54.6875 
L 77.59375 54.6875 
L 63.28125 0 
L 52.6875 0 
L 40.921875 44.828125 
L 29.109375 0 
L 18.5 0 
z
" id="DejaVuSans-119"/>
     <path d="M 44.390625 34.1875 
Q 47.5625 33.109375 50.5625 29.59375 
Q 53.5625 26.078125 56.59375 19.921875 
L 66.609375 0 
L 56 0 
L 46.6875 18.703125 
Q 43.0625 26.03125 39.671875 28.421875 
Q 36.28125 30.8125 30.421875 30.8125 
L 19.671875 30.8125 
L 19.671875 0 
L 9.8125 0 
L 9.8125 72.90625 
L 32.078125 72.90625 
Q 44.578125 72.90625 50.734375 67.671875 
Q 56.890625 62.453125 56.890625 51.90625 
Q 56.890625 45.015625 53.6875 40.46875 
Q 50.484375 35.9375 44.390625 34.1875 
z
M 19.671875 64.796875 
L 19.671875 38.921875 
L 32.078125 38.921875 
Q 39.203125 38.921875 42.84375 42.21875 
Q 46.484375 45.515625 46.484375 51.90625 
Q 46.484375 58.296875 42.84375 61.546875 
Q 39.203125 64.796875 32.078125 64.796875 
z
" id="DejaVuSans-82"/>
    </defs>
    <g transform="translate(150.788438 404.19)scale(0.2 -0.2)">
     <use xlink:href="#DejaVuSans-76"/>
     <use x="53.962891" xlink:href="#DejaVuSans-111"/>
     <use x="115.144531" xlink:href="#DejaVuSans-103"/>
     <use x="178.621094" xlink:href="#DejaVuSans-97"/>
     <use x="239.900391" xlink:href="#DejaVuSans-114"/>
     <use x="281.013672" xlink:href="#DejaVuSans-105"/>
     <use x="308.796875" xlink:href="#DejaVuSans-116"/>
     <use x="348.005859" xlink:href="#DejaVuSans-104"/>
     <use x="411.384766" xlink:href="#DejaVuSans-109"/>
     <use x="508.796875" xlink:href="#DejaVuSans-105"/>
     <use x="536.580078" xlink:href="#DejaVuSans-99"/>
     <use x="591.560547" xlink:href="#DejaVuSans-32"/>
     <use x="623.347656" xlink:href="#DejaVuSans-71"/>
     <use x="700.837891" xlink:href="#DejaVuSans-114"/>
     <use x="739.701172" xlink:href="#DejaVuSans-111"/>
     <use x="800.882812" xlink:href="#DejaVuSans-119"/>
     <use x="882.669922" xlink:href="#DejaVuSans-116"/>
     <use x="921.878906" xlink:href="#DejaVuSans-104"/>
     <use x="985.257812" xlink:href="#DejaVuSans-32"/>
     <use x="1017.044922" xlink:href="#DejaVuSans-82"/>
     <use x="1084.277344" xlink:href="#DejaVuSans-97"/>
     <use x="1145.556641" xlink:href="#DejaVuSans-116"/>
     <use x="1184.765625" xlink:href="#DejaVuSans-101"/>
    </g>
   </g>
  </g>
  <g id="axes_4">
   <g id="patch_17">
    <path d="M 537.25875 612.04 
L 909.57125 612.04 
L 909.57125 419.19 
L 537.25875 419.19 
z
" style="fill:#ffffff;"/>
   </g>
   <g id="PolyCollection_1">
    <path clip-path="url(#pf1dca3bfab)" d="M 537.25875 485.446308 
L 537.25875 515.326211 
L 583.797812 511.928558 
L 630.336875 506.308998 
L 676.875937 499.216439 
L 723.415 491.665979 
L 769.954062 484.382818 
L 816.493125 477.957235 
L 863.032187 472.950838 
L 909.57125 469.787774 
L 909.57125 439.90787 
L 909.57125 439.90787 
L 863.032187 443.070935 
L 816.493125 448.077332 
L 769.954062 454.502915 
L 723.415 461.786076 
L 676.875937 469.336536 
L 630.336875 476.429095 
L 583.797812 482.048654 
L 537.25875 485.446308 
z
" style="fill-opacity:0.2;"/>
   </g>
   <g id="PolyCollection_2">
    <path clip-path="url(#pf1dca3bfab)" d="M 537.25875 473.494347 
L 537.25875 533.254153 
L 583.797812 529.8565 
L 630.336875 524.23694 
L 676.875937 517.144381 
L 723.415 509.593921 
L 769.954062 502.31076 
L 816.493125 495.885177 
L 863.032187 490.87878 
L 909.57125 487.715715 
L 909.57125 427.955909 
L 909.57125 427.955909 
L 863.032187 431.118974 
L 816.493125 436.12537 
L 769.954062 442.550954 
L 723.415 449.834114 
L 676.875937 457.384574 
L 630.336875 464.477133 
L 583.797812 470.096693 
L 537.25875 473.494347 
z
" style="fill-opacity:0.1;"/>
   </g>
   <g id="matplotlib.axis_7">
    <g id="xtick_28">
     <g id="line2d_76">
      <path clip-path="url(#pf1dca3bfab)" d="M 537.25875 612.04 
L 537.25875 419.19 
" style="fill:none;stroke:#000000;stroke-linecap:square;stroke-opacity:0.2;stroke-width:0.5;"/>
     </g>
     <g id="line2d_77">
      <g>
       <use style="stroke:#000000;stroke-width:0.8;" x="537.25875" xlink:href="#mf48becf6f7" y="612.04"/>
      </g>
     </g>
     <g id="text_51">
      <!-- 30 -->
      <g transform="translate(529.62375 628.158125)scale(0.12 -0.12)">
       <use xlink:href="#DejaVuSans-51"/>
       <use x="63.623047" xlink:href="#DejaVuSans-48"/>
      </g>
     </g>
    </g>
    <g id="xtick_29">
     <g id="line2d_78">
      <path clip-path="url(#pf1dca3bfab)" d="M 583.797812 612.04 
L 583.797812 419.19 
" style="fill:none;stroke:#000000;stroke-linecap:square;stroke-opacity:0.2;stroke-width:0.5;"/>
     </g>
     <g id="line2d_79">
      <g>
       <use style="stroke:#000000;stroke-width:0.8;" x="583.797812" xlink:href="#mf48becf6f7" y="612.04"/>
      </g>
     </g>
     <g id="text_52">
      <!-- 01 -->
      <g transform="translate(576.162812 628.158125)scale(0.12 -0.12)">
       <use xlink:href="#DejaVuSans-48"/>
       <use x="63.623047" xlink:href="#DejaVuSans-49"/>
      </g>
      <!-- May -->
      <g transform="translate(571.392812 641.5955)scale(0.12 -0.12)">
       <use xlink:href="#DejaVuSans-77"/>
       <use x="86.279297" xlink:href="#DejaVuSans-97"/>
       <use x="147.558594" xlink:href="#DejaVuSans-121"/>
      </g>
      <!-- 2020 -->
      <g transform="translate(568.527812 655.032875)scale(0.12 -0.12)">
       <use xlink:href="#DejaVuSans-50"/>
       <use x="63.623047" xlink:href="#DejaVuSans-48"/>
       <use x="127.246094" xlink:href="#DejaVuSans-50"/>
       <use x="190.869141" xlink:href="#DejaVuSans-48"/>
      </g>
     </g>
    </g>
    <g id="xtick_30">
     <g id="line2d_80">
      <path clip-path="url(#pf1dca3bfab)" d="M 909.57125 612.04 
L 909.57125 419.19 
" style="fill:none;stroke:#000000;stroke-linecap:square;stroke-opacity:0.2;stroke-width:0.5;"/>
     </g>
     <g id="line2d_81">
      <g>
       <use style="stroke:#000000;stroke-width:0.8;" x="909.57125" xlink:href="#mf48becf6f7" y="612.04"/>
      </g>
     </g>
     <g id="text_53">
      <!-- 08 -->
      <g transform="translate(901.93625 628.158125)scale(0.12 -0.12)">
       <use xlink:href="#DejaVuSans-48"/>
       <use x="63.623047" xlink:href="#DejaVuSans-56"/>
      </g>
     </g>
    </g>
    <g id="xtick_31">
     <g id="line2d_82">
      <g>
       <use style="stroke:#000000;stroke-width:0.6;" x="630.336875" xlink:href="#mb5fcdd0288" y="612.04"/>
      </g>
     </g>
     <g id="text_54">
      <!-- 02 -->
      <g transform="translate(622.701875 626.558125)scale(0.12 -0.12)">
       <use xlink:href="#DejaVuSans-48"/>
       <use x="63.623047" xlink:href="#DejaVuSans-50"/>
      </g>
     </g>
    </g>
    <g id="xtick_32">
     <g id="line2d_83">
      <g>
       <use style="stroke:#000000;stroke-width:0.6;" x="676.875937" xlink:href="#mb5fcdd0288" y="612.04"/>
      </g>
     </g>
     <g id="text_55">
      <!-- 03 -->
      <g transform="translate(669.240937 626.558125)scale(0.12 -0.12)">
       <use xlink:href="#DejaVuSans-48"/>
       <use x="63.623047" xlink:href="#DejaVuSans-51"/>
      </g>
     </g>
    </g>
    <g id="xtick_33">
     <g id="line2d_84">
      <g>
       <use style="stroke:#000000;stroke-width:0.6;" x="723.415" xlink:href="#mb5fcdd0288" y="612.04"/>
      </g>
     </g>
     <g id="text_56">
      <!-- 04 -->
      <g transform="translate(715.78 626.558125)scale(0.12 -0.12)">
       <use xlink:href="#DejaVuSans-48"/>
       <use x="63.623047" xlink:href="#DejaVuSans-52"/>
      </g>
     </g>
    </g>
    <g id="xtick_34">
     <g id="line2d_85">
      <g>
       <use style="stroke:#000000;stroke-width:0.6;" x="769.954062" xlink:href="#mb5fcdd0288" y="612.04"/>
      </g>
     </g>
     <g id="text_57">
      <!-- 05 -->
      <g transform="translate(762.319062 626.558125)scale(0.12 -0.12)">
       <use xlink:href="#DejaVuSans-48"/>
       <use x="63.623047" xlink:href="#DejaVuSans-53"/>
      </g>
     </g>
    </g>
    <g id="xtick_35">
     <g id="line2d_86">
      <g>
       <use style="stroke:#000000;stroke-width:0.6;" x="816.493125" xlink:href="#mb5fcdd0288" y="612.04"/>
      </g>
     </g>
     <g id="text_58">
      <!-- 06 -->
      <g transform="translate(808.858125 626.558125)scale(0.12 -0.12)">
       <use xlink:href="#DejaVuSans-48"/>
       <use x="63.623047" xlink:href="#DejaVuSans-54"/>
      </g>
     </g>
    </g>
    <g id="xtick_36">
     <g id="line2d_87">
      <g>
       <use style="stroke:#000000;stroke-width:0.6;" x="863.032187" xlink:href="#mb5fcdd0288" y="612.04"/>
      </g>
     </g>
     <g id="text_59">
      <!-- 07 -->
      <g transform="translate(855.397187 626.558125)scale(0.12 -0.12)">
       <use xlink:href="#DejaVuSans-48"/>
       <use x="63.623047" xlink:href="#DejaVuSans-55"/>
      </g>
     </g>
    </g>
   </g>
   <g id="matplotlib.axis_8">
    <g id="ytick_18">
     <g id="line2d_88">
      <path clip-path="url(#pf1dca3bfab)" d="M 537.25875 603.274091 
L 909.57125 603.274091 
" style="fill:none;stroke:#000000;stroke-linecap:square;stroke-opacity:0.2;stroke-width:0.5;"/>
     </g>
     <g id="line2d_89">
      <g>
       <use style="stroke:#000000;stroke-width:0.8;" x="537.25875" xlink:href="#m0890ccd047" y="603.274091"/>
      </g>
     </g>
     <g id="text_60">
      <!-- 1.0 -->
      <g transform="translate(511.175 607.833153)scale(0.12 -0.12)">
       <use xlink:href="#DejaVuSans-49"/>
       <use x="63.623047" xlink:href="#DejaVuSans-46"/>
       <use x="95.410156" xlink:href="#DejaVuSans-48"/>
      </g>
     </g>
    </g>
    <g id="ytick_19">
     <g id="line2d_90">
      <path clip-path="url(#pf1dca3bfab)" d="M 537.25875 555.466246 
L 909.57125 555.466246 
" style="fill:none;stroke:#000000;stroke-linecap:square;stroke-opacity:0.2;stroke-width:0.5;"/>
     </g>
     <g id="line2d_91">
      <g>
       <use style="stroke:#000000;stroke-width:0.8;" x="537.25875" xlink:href="#m0890ccd047" y="555.466246"/>
      </g>
     </g>
     <g id="text_61">
      <!-- 1.2 -->
      <g transform="translate(511.175 560.025308)scale(0.12 -0.12)">
       <use xlink:href="#DejaVuSans-49"/>
       <use x="63.623047" xlink:href="#DejaVuSans-46"/>
       <use x="95.410156" xlink:href="#DejaVuSans-50"/>
      </g>
     </g>
    </g>
    <g id="ytick_20">
     <g id="line2d_92">
      <path clip-path="url(#pf1dca3bfab)" d="M 537.25875 507.658401 
L 909.57125 507.658401 
" style="fill:none;stroke:#000000;stroke-linecap:square;stroke-opacity:0.2;stroke-width:0.5;"/>
     </g>
     <g id="line2d_93">
      <g>
       <use style="stroke:#000000;stroke-width:0.8;" x="537.25875" xlink:href="#m0890ccd047" y="507.658401"/>
      </g>
     </g>
     <g id="text_62">
      <!-- 1.4 -->
      <g transform="translate(511.175 512.217463)scale(0.12 -0.12)">
       <use xlink:href="#DejaVuSans-49"/>
       <use x="63.623047" xlink:href="#DejaVuSans-46"/>
       <use x="95.410156" xlink:href="#DejaVuSans-52"/>
      </g>
     </g>
    </g>
    <g id="ytick_21">
     <g id="line2d_94">
      <path clip-path="url(#pf1dca3bfab)" d="M 537.25875 459.850556 
L 909.57125 459.850556 
" style="fill:none;stroke:#000000;stroke-linecap:square;stroke-opacity:0.2;stroke-width:0.5;"/>
     </g>
     <g id="line2d_95">
      <g>
       <use style="stroke:#000000;stroke-width:0.8;" x="537.25875" xlink:href="#m0890ccd047" y="459.850556"/>
      </g>
     </g>
     <g id="text_63">
      <!-- 1.6 -->
      <g transform="translate(511.175 464.409618)scale(0.12 -0.12)">
       <use xlink:href="#DejaVuSans-49"/>
       <use x="63.623047" xlink:href="#DejaVuSans-46"/>
       <use x="95.410156" xlink:href="#DejaVuSans-54"/>
      </g>
     </g>
    </g>
    <g id="text_64">
     <!-- $R_e$ -->
     <defs>
      <path d="M 25.203125 64.796875 
L 20.21875 38.921875 
L 32.90625 38.921875 
Q 40.375 38.921875 44.984375 43.046875 
Q 49.609375 47.171875 49.609375 53.8125 
Q 49.609375 59.125 46.5 61.953125 
Q 43.40625 64.796875 37.59375 64.796875 
z
M 43.3125 35.015625 
Q 46.4375 34.28125 48.515625 31.390625 
Q 50.59375 28.515625 53.328125 19.921875 
L 59.515625 0 
L 49.125 0 
L 43.40625 18.703125 
Q 41.21875 25.921875 38.328125 28.359375 
Q 35.453125 30.8125 29.5 30.8125 
L 18.609375 30.8125 
L 12.59375 0 
L 2.6875 0 
L 16.890625 72.90625 
L 39.109375 72.90625 
Q 49.21875 72.90625 54.609375 68.328125 
Q 60.015625 63.765625 60.015625 55.171875 
Q 60.015625 47.5625 55.421875 41.984375 
Q 50.828125 36.421875 43.3125 35.015625 
z
" id="DejaVuSans-Oblique-82"/>
      <path d="M 48.09375 32.234375 
Q 48.25 33.015625 48.3125 33.84375 
Q 48.390625 34.671875 48.390625 35.5 
Q 48.390625 41.453125 44.890625 44.921875 
Q 41.40625 48.390625 35.40625 48.390625 
Q 28.71875 48.390625 23.578125 44.15625 
Q 18.453125 39.9375 15.828125 32.171875 
z
M 55.90625 25.203125 
L 14.109375 25.203125 
Q 13.8125 23.34375 13.71875 22.265625 
Q 13.625 21.1875 13.625 20.40625 
Q 13.625 13.625 17.796875 9.90625 
Q 21.96875 6.203125 29.59375 6.203125 
Q 35.453125 6.203125 40.671875 7.515625 
Q 45.90625 8.84375 50.390625 11.375 
L 48.6875 2.484375 
Q 43.84375 0.53125 38.6875 -0.4375 
Q 33.546875 -1.421875 28.21875 -1.421875 
Q 16.84375 -1.421875 10.71875 4.015625 
Q 4.59375 9.46875 4.59375 19.484375 
Q 4.59375 28.03125 7.640625 35.375 
Q 10.6875 42.71875 16.609375 48.484375 
Q 20.40625 52.09375 25.65625 54.046875 
Q 30.90625 56 36.8125 56 
Q 46.09375 56 51.578125 50.4375 
Q 57.078125 44.875 57.078125 35.5 
Q 57.078125 33.25 56.78125 30.6875 
Q 56.5 28.125 55.90625 25.203125 
z
" id="DejaVuSans-Oblique-101"/>
     </defs>
     <g transform="translate(504.263437 523.735)rotate(-90)scale(0.14 -0.14)">
      <use transform="translate(0 0.09375)" xlink:href="#DejaVuSans-Oblique-82"/>
      <use transform="translate(69.482422 -16.3125)scale(0.7)" xlink:href="#DejaVuSans-Oblique-101"/>
     </g>
    </g>
   </g>
   <g id="line2d_96">
    <path clip-path="url(#pf1dca3bfab)" d="M 537.25875 497.39827 
L 583.797812 494.000616 
L 630.336875 488.381056 
L 676.875937 481.288497 
L 723.415 473.738037 
L 769.954062 466.454876 
L 816.493125 460.029293 
L 863.032187 455.022896 
L 909.57125 451.859832 
" style="fill:none;stroke:#1f77b4;stroke-linecap:square;stroke-opacity:0;stroke-width:1.5;"/>
   </g>
   <g id="line2d_97">
    <path clip-path="url(#pf1dca3bfab)" d="M 537.25875 497.39827 
L 541.137005 497.115132 
L 545.01526 496.831994 
L 548.893516 496.548856 
L 552.771771 496.265718 
L 556.650026 495.98258 
L 560.528281 495.699443 
L 564.406536 495.416305 
L 568.284792 495.133167 
L 572.163047 494.850029 
L 576.041302 494.566891 
L 579.919557 494.283753 
L 583.797812 494.000616 
L 587.676068 493.532319 
L 591.554323 493.064022 
L 595.432578 492.595726 
L 599.310833 492.127429 
L 603.189089 491.659132 
L 607.067344 491.190836 
L 610.945599 490.722539 
L 614.823854 490.254242 
L 618.702109 489.785946 
L 622.580365 489.317649 
L 626.45862 488.849353 
L 630.336875 488.381056 
L 634.21513 487.790009 
L 638.093385 487.198963 
L 641.971641 486.607916 
L 645.849896 486.01687 
L 649.728151 485.425823 
L 653.606406 484.834776 
L 657.484661 484.24373 
L 661.362917 483.652683 
L 665.241172 483.061637 
L 669.119427 482.47059 
L 672.997682 481.879544 
L 676.875937 481.288497 
L 680.754193 480.659292 
L 684.632448 480.030087 
L 688.510703 479.400882 
L 692.388958 478.771677 
L 696.267214 478.142472 
L 700.145469 477.513267 
L 704.023724 476.884062 
L 707.901979 476.254857 
L 711.780234 475.625652 
L 715.65849 474.996447 
L 719.536745 474.367242 
L 723.415 473.738037 
L 727.293255 473.131107 
L 731.17151 472.524177 
L 735.049766 471.917247 
L 738.928021 471.310317 
L 742.806276 470.703387 
L 746.684531 470.096457 
L 750.562786 469.489526 
L 754.441042 468.882596 
L 758.319297 468.275666 
L 762.197552 467.668736 
L 766.075807 467.061806 
L 769.954062 466.454876 
L 773.832318 465.919411 
L 777.710573 465.383946 
L 781.588828 464.84848 
L 785.467083 464.313015 
L 789.345339 463.77755 
L 793.223594 463.242084 
L 797.101849 462.706619 
L 800.980104 462.171154 
L 804.858359 461.635689 
L 808.736615 461.100223 
L 812.61487 460.564758 
L 816.493125 460.029293 
L 820.37138 459.612093 
L 824.249635 459.194893 
L 828.127891 458.777694 
L 832.006146 458.360494 
L 835.884401 457.943294 
L 839.762656 457.526094 
L 843.640911 457.108895 
L 847.519167 456.691695 
L 851.397422 456.274495 
L 855.275677 455.857296 
L 859.153932 455.440096 
L 863.032187 455.022896 
L 866.910443 454.759307 
L 870.788698 454.495719 
L 874.666953 454.23213 
L 878.545208 453.968541 
L 882.423464 453.704953 
L 886.301719 453.441364 
L 890.179974 453.177775 
L 894.058229 452.914186 
L 897.936484 452.650598 
L 901.81474 452.387009 
L 905.692995 452.12342 
L 909.57125 451.859832 
" style="fill:none;stroke:#ae0868;stroke-linecap:square;stroke-width:3;"/>
   </g>
   <g id="line2d_98">
    <path clip-path="url(#pf1dca3bfab)" d="M 537.25875 603.274091 
L 909.57125 603.274091 
" style="fill:none;stroke:#000000;stroke-linecap:square;stroke-opacity:0.4;stroke-width:2;"/>
   </g>
   <g id="patch_18">
    <path d="M 537.25875 612.04 
L 537.25875 419.19 
" style="fill:none;stroke:#000000;stroke-linecap:square;stroke-linejoin:miter;"/>
   </g>
   <g id="patch_19">
    <path d="M 909.57125 612.04 
L 909.57125 419.19 
" style="fill:none;stroke:#000000;stroke-linecap:square;stroke-linejoin:miter;"/>
   </g>
   <g id="patch_20">
    <path d="M 537.25875 612.04 
L 909.57125 612.04 
" style="fill:none;stroke:#000000;stroke-linecap:square;stroke-linejoin:miter;"/>
   </g>
   <g id="patch_21">
    <path d="M 537.25875 419.19 
L 909.57125 419.19 
" style="fill:none;stroke:#000000;stroke-linecap:square;stroke-linejoin:miter;"/>
   </g>
   <g id="text_65">
    <!-- Cerner Reopening Risk Index and $R_e$ -->
    <defs>
     <path d="M 54.890625 33.015625 
L 54.890625 0 
L 45.90625 0 
L 45.90625 32.71875 
Q 45.90625 40.484375 42.875 44.328125 
Q 39.84375 48.1875 33.796875 48.1875 
Q 26.515625 48.1875 22.3125 43.546875 
Q 18.109375 38.921875 18.109375 30.90625 
L 18.109375 0 
L 9.078125 0 
L 9.078125 54.6875 
L 18.109375 54.6875 
L 18.109375 46.1875 
Q 21.34375 51.125 25.703125 53.5625 
Q 30.078125 56 35.796875 56 
Q 45.21875 56 50.046875 50.171875 
Q 54.890625 44.34375 54.890625 33.015625 
z
" id="DejaVuSans-110"/>
     <path d="M 18.109375 8.203125 
L 18.109375 -20.796875 
L 9.078125 -20.796875 
L 9.078125 54.6875 
L 18.109375 54.6875 
L 18.109375 46.390625 
Q 20.953125 51.265625 25.265625 53.625 
Q 29.59375 56 35.59375 56 
Q 45.5625 56 51.78125 48.09375 
Q 58.015625 40.1875 58.015625 27.296875 
Q 58.015625 14.40625 51.78125 6.484375 
Q 45.5625 -1.421875 35.59375 -1.421875 
Q 29.59375 -1.421875 25.265625 0.953125 
Q 20.953125 3.328125 18.109375 8.203125 
z
M 48.6875 27.296875 
Q 48.6875 37.203125 44.609375 42.84375 
Q 40.53125 48.484375 33.40625 48.484375 
Q 26.265625 48.484375 22.1875 42.84375 
Q 18.109375 37.203125 18.109375 27.296875 
Q 18.109375 17.390625 22.1875 11.75 
Q 26.265625 6.109375 33.40625 6.109375 
Q 40.53125 6.109375 44.609375 11.75 
Q 48.6875 17.390625 48.6875 27.296875 
z
" id="DejaVuSans-112"/>
     <path d="M 9.078125 75.984375 
L 18.109375 75.984375 
L 18.109375 31.109375 
L 44.921875 54.6875 
L 56.390625 54.6875 
L 27.390625 29.109375 
L 57.625 0 
L 45.90625 0 
L 18.109375 26.703125 
L 18.109375 0 
L 9.078125 0 
z
" id="DejaVuSans-107"/>
     <path d="M 9.8125 72.90625 
L 19.671875 72.90625 
L 19.671875 0 
L 9.8125 0 
z
" id="DejaVuSans-73"/>
     <path d="M 45.40625 46.390625 
L 45.40625 75.984375 
L 54.390625 75.984375 
L 54.390625 0 
L 45.40625 0 
L 45.40625 8.203125 
Q 42.578125 3.328125 38.25 0.953125 
Q 33.9375 -1.421875 27.875 -1.421875 
Q 17.96875 -1.421875 11.734375 6.484375 
Q 5.515625 14.40625 5.515625 27.296875 
Q 5.515625 40.1875 11.734375 48.09375 
Q 17.96875 56 27.875 56 
Q 33.9375 56 38.25 53.625 
Q 42.578125 51.265625 45.40625 46.390625 
z
M 14.796875 27.296875 
Q 14.796875 17.390625 18.875 11.75 
Q 22.953125 6.109375 30.078125 6.109375 
Q 37.203125 6.109375 41.296875 11.75 
Q 45.40625 17.390625 45.40625 27.296875 
Q 45.40625 37.203125 41.296875 42.84375 
Q 37.203125 48.484375 30.078125 48.484375 
Q 22.953125 48.484375 18.875 42.84375 
Q 14.796875 37.203125 14.796875 27.296875 
z
" id="DejaVuSans-100"/>
     <path d="M 54.890625 54.6875 
L 35.109375 28.078125 
L 55.90625 0 
L 45.3125 0 
L 29.390625 21.484375 
L 13.484375 0 
L 2.875 0 
L 24.125 28.609375 
L 4.6875 54.6875 
L 15.28125 54.6875 
L 29.78125 35.203125 
L 44.28125 54.6875 
z
" id="DejaVuSans-120"/>
    </defs>
    <g transform="translate(541.315 404.19)scale(0.2 -0.2)">
     <use transform="translate(0 0.015625)" xlink:href="#DejaVuSans-67"/>
     <use transform="translate(69.824219 0.015625)" xlink:href="#DejaVuSans-101"/>
     <use transform="translate(131.347656 0.015625)" xlink:href="#DejaVuSans-114"/>
     <use transform="translate(172.460938 0.015625)" xlink:href="#DejaVuSans-110"/>
     <use transform="translate(235.839844 0.015625)" xlink:href="#DejaVuSans-101"/>
     <use transform="translate(297.363281 0.015625)" xlink:href="#DejaVuSans-114"/>
     <use transform="translate(338.476562 0.015625)" xlink:href="#DejaVuSans-32"/>
     <use transform="translate(370.263672 0.015625)" xlink:href="#DejaVuSans-82"/>
     <use transform="translate(439.746094 0.015625)" xlink:href="#DejaVuSans-101"/>
     <use transform="translate(501.269531 0.015625)" xlink:href="#DejaVuSans-111"/>
     <use transform="translate(562.451172 0.015625)" xlink:href="#DejaVuSans-112"/>
     <use transform="translate(625.927734 0.015625)" xlink:href="#DejaVuSans-101"/>
     <use transform="translate(687.451172 0.015625)" xlink:href="#DejaVuSans-110"/>
     <use transform="translate(750.830078 0.015625)" xlink:href="#DejaVuSans-105"/>
     <use transform="translate(778.613281 0.015625)" xlink:href="#DejaVuSans-110"/>
     <use transform="translate(841.992188 0.015625)" xlink:href="#DejaVuSans-103"/>
     <use transform="translate(905.46875 0.015625)" xlink:href="#DejaVuSans-32"/>
     <use transform="translate(937.255859 0.015625)" xlink:href="#DejaVuSans-82"/>
     <use transform="translate(1006.738281 0.015625)" xlink:href="#DejaVuSans-105"/>
     <use transform="translate(1034.521484 0.015625)" xlink:href="#DejaVuSans-115"/>
     <use transform="translate(1086.621094 0.015625)" xlink:href="#DejaVuSans-107"/>
     <use transform="translate(1144.53125 0.015625)" xlink:href="#DejaVuSans-32"/>
     <use transform="translate(1176.318359 0.015625)" xlink:href="#DejaVuSans-73"/>
     <use transform="translate(1205.810547 0.015625)" xlink:href="#DejaVuSans-110"/>
     <use transform="translate(1269.189453 0.015625)" xlink:href="#DejaVuSans-100"/>
     <use transform="translate(1332.666016 0.015625)" xlink:href="#DejaVuSans-101"/>
     <use transform="translate(1394.189453 0.015625)" xlink:href="#DejaVuSans-120"/>
     <use transform="translate(1453.369141 0.015625)" xlink:href="#DejaVuSans-32"/>
     <use transform="translate(1485.15625 0.015625)" xlink:href="#DejaVuSans-97"/>
     <use transform="translate(1546.435547 0.015625)" xlink:href="#DejaVuSans-110"/>
     <use transform="translate(1609.814453 0.015625)" xlink:href="#DejaVuSans-100"/>
     <use transform="translate(1673.291016 0.015625)" xlink:href="#DejaVuSans-32"/>
     <use transform="translate(1705.078125 0.015625)" xlink:href="#DejaVuSans-Oblique-82"/>
     <use transform="translate(1774.560547 -16.390625)scale(0.7)" xlink:href="#DejaVuSans-Oblique-101"/>
    </g>
   </g>
   <g id="legend_1">
    <g id="patch_22">
     <path d="M 851.39875 550.4425 
L 903.97125 550.4425 
Q 905.57125 550.4425 905.57125 548.8425 
L 905.57125 482.3875 
Q 905.57125 480.7875 903.97125 480.7875 
L 851.39875 480.7875 
Q 849.79875 480.7875 849.79875 482.3875 
L 849.79875 548.8425 
Q 849.79875 550.4425 851.39875 550.4425 
z
" style="fill:#ffffff;opacity:0.5;stroke:#000000;stroke-linejoin:miter;"/>
    </g>
    <g id="line2d_99">
     <path d="M 851.39875 485.66625 
L 867.39875 485.66625 
" style="fill:none;stroke:#008fe0;stroke-linecap:square;stroke-width:3;"/>
    </g>
    <g id="line2d_100"/>
    <g id="text_66">
     <!-- CRRI 1 -->
     <g transform="translate(873.79875 488.46625)scale(0.08 -0.08)">
      <use xlink:href="#DejaVuSans-67"/>
      <use x="69.824219" xlink:href="#DejaVuSans-82"/>
      <use x="139.306641" xlink:href="#DejaVuSans-82"/>
      <use x="208.789062" xlink:href="#DejaVuSans-73"/>
      <use x="238.28125" xlink:href="#DejaVuSans-32"/>
      <use x="270.068359" xlink:href="#DejaVuSans-49"/>
     </g>
    </g>
    <g id="line2d_101">
     <path d="M 851.39875 497.40875 
L 867.39875 497.40875 
" style="fill:none;stroke:#bc70c7;stroke-linecap:square;stroke-width:3;"/>
    </g>
    <g id="line2d_102"/>
    <g id="text_67">
     <!-- CRRI 2 -->
     <g transform="translate(873.79875 500.20875)scale(0.08 -0.08)">
      <use xlink:href="#DejaVuSans-67"/>
      <use x="69.824219" xlink:href="#DejaVuSans-82"/>
      <use x="139.306641" xlink:href="#DejaVuSans-82"/>
      <use x="208.789062" xlink:href="#DejaVuSans-73"/>
      <use x="238.28125" xlink:href="#DejaVuSans-32"/>
      <use x="270.068359" xlink:href="#DejaVuSans-50"/>
     </g>
    </g>
    <g id="line2d_103">
     <path d="M 851.39875 509.15125 
L 867.39875 509.15125 
" style="fill:none;stroke:#e46511;stroke-linecap:square;stroke-width:3;"/>
    </g>
    <g id="line2d_104"/>
    <g id="text_68">
     <!-- CRRI 3 -->
     <g transform="translate(873.79875 511.95125)scale(0.08 -0.08)">
      <use xlink:href="#DejaVuSans-67"/>
      <use x="69.824219" xlink:href="#DejaVuSans-82"/>
      <use x="139.306641" xlink:href="#DejaVuSans-82"/>
      <use x="208.789062" xlink:href="#DejaVuSans-73"/>
      <use x="238.28125" xlink:href="#DejaVuSans-32"/>
      <use x="270.068359" xlink:href="#DejaVuSans-51"/>
     </g>
    </g>
    <g id="line2d_105">
     <path d="M 851.39875 520.89375 
L 867.39875 520.89375 
" style="fill:none;stroke:#ae0868;stroke-linecap:square;stroke-width:3;"/>
    </g>
    <g id="line2d_106"/>
    <g id="text_69">
     <!-- CRRI 4 -->
     <g transform="translate(873.79875 523.69375)scale(0.08 -0.08)">
      <use xlink:href="#DejaVuSans-67"/>
      <use x="69.824219" xlink:href="#DejaVuSans-82"/>
      <use x="139.306641" xlink:href="#DejaVuSans-82"/>
      <use x="208.789062" xlink:href="#DejaVuSans-73"/>
      <use x="238.28125" xlink:href="#DejaVuSans-32"/>
      <use x="270.068359" xlink:href="#DejaVuSans-52"/>
     </g>
    </g>
    <g id="patch_23">
     <path d="M 851.39875 535.43625 
L 867.39875 535.43625 
L 867.39875 529.83625 
L 851.39875 529.83625 
z
" style="opacity:0.3;"/>
    </g>
    <g id="text_70">
     <!-- 1 Std. -->
     <defs>
      <path d="M 46 62.703125 
L 46 43.796875 
L 73.1875 43.796875 
L 73.1875 35.5 
L 46 35.5 
L 46 16.609375 
L 37.796875 16.609375 
L 37.796875 35.5 
L 10.59375 35.5 
L 10.59375 43.796875 
L 37.796875 43.796875 
L 37.796875 62.703125 
z
M 10.59375 8.296875 
L 73.1875 8.296875 
L 73.1875 0 
L 10.59375 0 
z
" id="DejaVuSans-177"/>
      <path d="M 53.515625 70.515625 
L 53.515625 60.890625 
Q 47.90625 63.578125 42.921875 64.890625 
Q 37.9375 66.21875 33.296875 66.21875 
Q 25.25 66.21875 20.875 63.09375 
Q 16.5 59.96875 16.5 54.203125 
Q 16.5 49.359375 19.40625 46.890625 
Q 22.3125 44.4375 30.421875 42.921875 
L 36.375 41.703125 
Q 47.40625 39.59375 52.65625 34.296875 
Q 57.90625 29 57.90625 20.125 
Q 57.90625 9.515625 50.796875 4.046875 
Q 43.703125 -1.421875 29.984375 -1.421875 
Q 24.8125 -1.421875 18.96875 -0.25 
Q 13.140625 0.921875 6.890625 3.21875 
L 6.890625 13.375 
Q 12.890625 10.015625 18.65625 8.296875 
Q 24.421875 6.59375 29.984375 6.59375 
Q 38.421875 6.59375 43.015625 9.90625 
Q 47.609375 13.234375 47.609375 19.390625 
Q 47.609375 24.75 44.3125 27.78125 
Q 41.015625 30.8125 33.5 32.328125 
L 27.484375 33.5 
Q 16.453125 35.6875 11.515625 40.375 
Q 6.59375 45.0625 6.59375 53.421875 
Q 6.59375 63.09375 13.40625 68.65625 
Q 20.21875 74.21875 32.171875 74.21875 
Q 37.3125 74.21875 42.625 73.28125 
Q 47.953125 72.359375 53.515625 70.515625 
z
" id="DejaVuSans-83"/>
     </defs>
     <g transform="translate(873.79875 535.43625)scale(0.08 -0.08)">
      <use xlink:href="#DejaVuSans-177"/>
      <use x="83.789062" xlink:href="#DejaVuSans-49"/>
      <use x="147.412109" xlink:href="#DejaVuSans-32"/>
      <use x="179.199219" xlink:href="#DejaVuSans-83"/>
      <use x="242.675781" xlink:href="#DejaVuSans-116"/>
      <use x="281.884766" xlink:href="#DejaVuSans-100"/>
      <use x="345.361328" xlink:href="#DejaVuSans-46"/>
     </g>
    </g>
    <g id="patch_24">
     <path d="M 851.39875 547.17875 
L 867.39875 547.17875 
L 867.39875 541.57875 
L 851.39875 541.57875 
z
" style="opacity:0.1;"/>
    </g>
    <g id="text_71">
     <!-- 2 Std. -->
     <g transform="translate(873.79875 547.17875)scale(0.08 -0.08)">
      <use xlink:href="#DejaVuSans-177"/>
      <use x="83.789062" xlink:href="#DejaVuSans-50"/>
      <use x="147.412109" xlink:href="#DejaVuSans-32"/>
      <use x="179.199219" xlink:href="#DejaVuSans-83"/>
      <use x="242.675781" xlink:href="#DejaVuSans-116"/>
      <use x="281.884766" xlink:href="#DejaVuSans-100"/>
      <use x="345.361328" xlink:href="#DejaVuSans-46"/>
     </g>
    </g>
   </g>
  </g>
  <g id="text_72">
   <!-- VallejoFairfield, CA MSA COVID-19 -->
   <defs>
    <path d="M 28.609375 0 
L 0.78125 72.90625 
L 11.078125 72.90625 
L 34.1875 11.53125 
L 57.328125 72.90625 
L 67.578125 72.90625 
L 39.796875 0 
z
" id="DejaVuSans-86"/>
    <path d="M 9.421875 54.6875 
L 18.40625 54.6875 
L 18.40625 -0.984375 
Q 18.40625 -11.421875 14.421875 -16.109375 
Q 10.453125 -20.796875 1.609375 -20.796875 
L -1.8125 -20.796875 
L -1.8125 -13.1875 
L 0.59375 -13.1875 
Q 5.71875 -13.1875 7.5625 -10.8125 
Q 9.421875 -8.453125 9.421875 -0.984375 
z
M 9.421875 75.984375 
L 18.40625 75.984375 
L 18.40625 64.59375 
L 9.421875 64.59375 
z
" id="DejaVuSans-106"/>
    <path d="M 4.890625 30.90625 
L 45.125 30.90625 
L 45.125 23.875 
L 4.890625 23.875 
z
" id="DejaVuSans-8211"/>
    <path d="M 9.8125 72.90625 
L 51.703125 72.90625 
L 51.703125 64.59375 
L 19.671875 64.59375 
L 19.671875 43.109375 
L 48.578125 43.109375 
L 48.578125 34.8125 
L 19.671875 34.8125 
L 19.671875 0 
L 9.8125 0 
z
" id="DejaVuSans-70"/>
    <path d="M 37.109375 75.984375 
L 37.109375 68.5 
L 28.515625 68.5 
Q 23.6875 68.5 21.796875 66.546875 
Q 19.921875 64.59375 19.921875 59.515625 
L 19.921875 54.6875 
L 34.71875 54.6875 
L 34.71875 47.703125 
L 19.921875 47.703125 
L 19.921875 0 
L 10.890625 0 
L 10.890625 47.703125 
L 2.296875 47.703125 
L 2.296875 54.6875 
L 10.890625 54.6875 
L 10.890625 58.5 
Q 10.890625 67.625 15.140625 71.796875 
Q 19.390625 75.984375 28.609375 75.984375 
z
" id="DejaVuSans-102"/>
    <path d="M 11.71875 12.40625 
L 22.015625 12.40625 
L 22.015625 4 
L 14.015625 -11.625 
L 7.71875 -11.625 
L 11.71875 4 
z
" id="DejaVuSans-44"/>
    <path d="M 34.1875 63.1875 
L 20.796875 26.90625 
L 47.609375 26.90625 
z
M 28.609375 72.90625 
L 39.796875 72.90625 
L 67.578125 0 
L 57.328125 0 
L 50.6875 18.703125 
L 17.828125 18.703125 
L 11.1875 0 
L 0.78125 0 
z
" id="DejaVuSans-65"/>
    <path d="M 39.40625 66.21875 
Q 28.65625 66.21875 22.328125 58.203125 
Q 16.015625 50.203125 16.015625 36.375 
Q 16.015625 22.609375 22.328125 14.59375 
Q 28.65625 6.59375 39.40625 6.59375 
Q 50.140625 6.59375 56.421875 14.59375 
Q 62.703125 22.609375 62.703125 36.375 
Q 62.703125 50.203125 56.421875 58.203125 
Q 50.140625 66.21875 39.40625 66.21875 
z
M 39.40625 74.21875 
Q 54.734375 74.21875 63.90625 63.9375 
Q 73.09375 53.65625 73.09375 36.375 
Q 73.09375 19.140625 63.90625 8.859375 
Q 54.734375 -1.421875 39.40625 -1.421875 
Q 24.03125 -1.421875 14.8125 8.828125 
Q 5.609375 19.09375 5.609375 36.375 
Q 5.609375 53.65625 14.8125 63.9375 
Q 24.03125 74.21875 39.40625 74.21875 
z
" id="DejaVuSans-79"/>
    <path d="M 4.890625 31.390625 
L 31.203125 31.390625 
L 31.203125 23.390625 
L 4.890625 23.390625 
z
" id="DejaVuSans-45"/>
    <path d="M 10.984375 1.515625 
L 10.984375 10.5 
Q 14.703125 8.734375 18.5 7.8125 
Q 22.3125 6.890625 25.984375 6.890625 
Q 35.75 6.890625 40.890625 13.453125 
Q 46.046875 20.015625 46.78125 33.40625 
Q 43.953125 29.203125 39.59375 26.953125 
Q 35.25 24.703125 29.984375 24.703125 
Q 19.046875 24.703125 12.671875 31.3125 
Q 6.296875 37.9375 6.296875 49.421875 
Q 6.296875 60.640625 12.9375 67.421875 
Q 19.578125 74.21875 30.609375 74.21875 
Q 43.265625 74.21875 49.921875 64.515625 
Q 56.59375 54.828125 56.59375 36.375 
Q 56.59375 19.140625 48.40625 8.859375 
Q 40.234375 -1.421875 26.421875 -1.421875 
Q 22.703125 -1.421875 18.890625 -0.6875 
Q 15.09375 0.046875 10.984375 1.515625 
z
M 30.609375 32.421875 
Q 37.25 32.421875 41.125 36.953125 
Q 45.015625 41.5 45.015625 49.421875 
Q 45.015625 57.28125 41.125 61.84375 
Q 37.25 66.40625 30.609375 66.40625 
Q 23.96875 66.40625 20.09375 61.84375 
Q 16.21875 57.28125 16.21875 49.421875 
Q 16.21875 41.5 20.09375 36.953125 
Q 23.96875 32.421875 30.609375 32.421875 
z
" id="DejaVuSans-57"/>
   </defs>
   <g transform="translate(273.286094 54.996094)scale(0.25 -0.25)">
    <use xlink:href="#DejaVuSans-86"/>
    <use x="60.658203" xlink:href="#DejaVuSans-97"/>
    <use x="121.9375" xlink:href="#DejaVuSans-108"/>
    <use x="149.720703" xlink:href="#DejaVuSans-108"/>
    <use x="177.503906" xlink:href="#DejaVuSans-101"/>
    <use x="239.027344" xlink:href="#DejaVuSans-106"/>
    <use x="266.810547" xlink:href="#DejaVuSans-111"/>
    <use x="327.992188" xlink:href="#DejaVuSans-8211"/>
    <use x="377.992188" xlink:href="#DejaVuSans-70"/>
    <use x="426.386719" xlink:href="#DejaVuSans-97"/>
    <use x="487.666016" xlink:href="#DejaVuSans-105"/>
    <use x="515.449219" xlink:href="#DejaVuSans-114"/>
    <use x="556.5625" xlink:href="#DejaVuSans-102"/>
    <use x="591.767578" xlink:href="#DejaVuSans-105"/>
    <use x="619.550781" xlink:href="#DejaVuSans-101"/>
    <use x="681.074219" xlink:href="#DejaVuSans-108"/>
    <use x="708.857422" xlink:href="#DejaVuSans-100"/>
    <use x="772.333984" xlink:href="#DejaVuSans-44"/>
    <use x="804.121094" xlink:href="#DejaVuSans-32"/>
    <use x="835.908203" xlink:href="#DejaVuSans-67"/>
    <use x="905.732422" xlink:href="#DejaVuSans-65"/>
    <use x="974.140625" xlink:href="#DejaVuSans-32"/>
    <use x="1005.927734" xlink:href="#DejaVuSans-77"/>
    <use x="1092.207031" xlink:href="#DejaVuSans-83"/>
    <use x="1157.558594" xlink:href="#DejaVuSans-65"/>
    <use x="1225.966797" xlink:href="#DejaVuSans-32"/>
    <use x="1257.753906" xlink:href="#DejaVuSans-67"/>
    <use x="1327.578125" xlink:href="#DejaVuSans-79"/>
    <use x="1404.539062" xlink:href="#DejaVuSans-86"/>
    <use x="1472.947266" xlink:href="#DejaVuSans-73"/>
    <use x="1502.439453" xlink:href="#DejaVuSans-68"/>
    <use x="1579.441406" xlink:href="#DejaVuSans-45"/>
    <use x="1615.525391" xlink:href="#DejaVuSans-49"/>
    <use x="1679.148438" xlink:href="#DejaVuSans-57"/>
   </g>
  </g>
 </g>
 <defs>
  <clipPath id="p1271f9c719">
   <rect height="192.85" width="372.3125" x="89.25875" y="132.59"/>
  </clipPath>
  <clipPath id="p92d4539a42">
   <rect height="192.85" width="372.3125" x="537.25875" y="132.59"/>
  </clipPath>
  <clipPath id="pe0989bb1d2">
   <rect height="192.85" width="372.3125" x="89.25875" y="419.19"/>
  </clipPath>
  <clipPath id="pf1dca3bfab">
   <rect height="192.85" width="372.3125" x="537.25875" y="419.19"/>
  </clipPath>
 </defs>
</svg>
