<?xml version="1.0" encoding="utf-8" standalone="no"?>
<!DOCTYPE svg PUBLIC "-//W3C//DTD SVG 1.1//EN"
  "http://www.w3.org/Graphics/SVG/1.1/DTD/svg11.dtd">
<!-- Created with matplotlib (https://matplotlib.org/) -->
<svg height="693.5285pt" version="1.1" viewBox="0 0 950.710625 693.5285" width="950.710625pt" xmlns="http://www.w3.org/2000/svg" xmlns:xlink="http://www.w3.org/1999/xlink">
 <defs>
  <style type="text/css">
*{stroke-linecap:butt;stroke-linejoin:round;}
  </style>
 </defs>
 <g id="figure_1">
  <g id="patch_1">
   <path d="M 0 693.5285 
L 950.710625 693.5285 
L 950.710625 0 
L 0 0 
z
" style="fill:#ffffff;"/>
  </g>
  <g id="axes_1">
   <g id="patch_2">
    <path d="M 83.454375 325.44 
L 425.766875 325.44 
L 425.766875 132.59 
L 83.454375 132.59 
z
" style="fill:#ffffff;"/>
   </g>
   <g id="matplotlib.axis_1">
    <g id="xtick_1">
     <g id="line2d_1">
      <path clip-path="url(#p2d23996eb4)" d="M 83.454375 325.44 
L 83.454375 132.59 
" style="fill:none;stroke:#000000;stroke-linecap:square;stroke-opacity:0.2;stroke-width:0.5;"/>
     </g>
     <g id="line2d_2">
      <defs>
       <path d="M 0 0 
L 0 3.5 
" id="m8c23c734aa" style="stroke:#000000;stroke-width:0.8;"/>
      </defs>
      <g>
       <use style="stroke:#000000;stroke-width:0.8;" x="83.454375" xlink:href="#m8c23c734aa" y="325.44"/>
      </g>
     </g>
    </g>
    <g id="xtick_2">
     <g id="line2d_3">
      <path clip-path="url(#p2d23996eb4)" d="M 425.766875 325.44 
L 425.766875 132.59 
" style="fill:none;stroke:#000000;stroke-linecap:square;stroke-opacity:0.2;stroke-width:0.5;"/>
     </g>
     <g id="line2d_4">
      <g>
       <use style="stroke:#000000;stroke-width:0.8;" x="425.766875" xlink:href="#m8c23c734aa" y="325.44"/>
      </g>
     </g>
    </g>
    <g id="xtick_3">
     <g id="line2d_5">
      <defs>
       <path d="M 0 0 
L 0 2 
" id="m48101f697e" style="stroke:#000000;stroke-width:0.6;"/>
      </defs>
      <g>
       <use style="stroke:#000000;stroke-width:0.6;" x="151.916875" xlink:href="#m48101f697e" y="325.44"/>
      </g>
     </g>
    </g>
    <g id="xtick_4">
     <g id="line2d_6">
      <g>
       <use style="stroke:#000000;stroke-width:0.6;" x="220.379375" xlink:href="#m48101f697e" y="325.44"/>
      </g>
     </g>
    </g>
    <g id="xtick_5">
     <g id="line2d_7">
      <g>
       <use style="stroke:#000000;stroke-width:0.6;" x="288.841875" xlink:href="#m48101f697e" y="325.44"/>
      </g>
     </g>
    </g>
    <g id="xtick_6">
     <g id="line2d_8">
      <g>
       <use style="stroke:#000000;stroke-width:0.6;" x="357.304375" xlink:href="#m48101f697e" y="325.44"/>
      </g>
     </g>
    </g>
   </g>
   <g id="matplotlib.axis_2">
    <g id="ytick_1">
     <g id="line2d_9">
      <path clip-path="url(#p2d23996eb4)" d="M 83.454375 316.674091 
L 425.766875 316.674091 
" style="fill:none;stroke:#000000;stroke-linecap:square;stroke-opacity:0.2;stroke-width:0.5;"/>
     </g>
     <g id="line2d_10">
      <defs>
       <path d="M 0 0 
L -3.5 0 
" id="m2e5988dda7" style="stroke:#000000;stroke-width:0.8;"/>
      </defs>
      <g>
       <use style="stroke:#000000;stroke-width:0.8;" x="83.454375" xlink:href="#m2e5988dda7" y="316.674091"/>
      </g>
     </g>
     <g id="text_1">
      <!-- 0 -->
      <defs>
       <path d="M 31.78125 66.40625 
Q 24.171875 66.40625 20.328125 58.90625 
Q 16.5 51.421875 16.5 36.375 
Q 16.5 21.390625 20.328125 13.890625 
Q 24.171875 6.390625 31.78125 6.390625 
Q 39.453125 6.390625 43.28125 13.890625 
Q 47.125 21.390625 47.125 36.375 
Q 47.125 51.421875 43.28125 58.90625 
Q 39.453125 66.40625 31.78125 66.40625 
z
M 31.78125 74.21875 
Q 44.046875 74.21875 50.515625 64.515625 
Q 56.984375 54.828125 56.984375 36.375 
Q 56.984375 17.96875 50.515625 8.265625 
Q 44.046875 -1.421875 31.78125 -1.421875 
Q 19.53125 -1.421875 13.0625 8.265625 
Q 6.59375 17.96875 6.59375 36.375 
Q 6.59375 54.828125 13.0625 64.515625 
Q 19.53125 74.21875 31.78125 74.21875 
z
" id="DejaVuSans-48"/>
      </defs>
      <g transform="translate(68.819375 321.233153)scale(0.12 -0.12)">
       <use xlink:href="#DejaVuSans-48"/>
      </g>
     </g>
    </g>
    <g id="ytick_2">
     <g id="line2d_11">
      <path clip-path="url(#p2d23996eb4)" d="M 83.454375 282.959056 
L 425.766875 282.959056 
" style="fill:none;stroke:#000000;stroke-linecap:square;stroke-opacity:0.2;stroke-width:0.5;"/>
     </g>
     <g id="line2d_12">
      <g>
       <use style="stroke:#000000;stroke-width:0.8;" x="83.454375" xlink:href="#m2e5988dda7" y="282.959056"/>
      </g>
     </g>
     <g id="text_2">
      <!-- 10 -->
      <defs>
       <path d="M 12.40625 8.296875 
L 28.515625 8.296875 
L 28.515625 63.921875 
L 10.984375 60.40625 
L 10.984375 69.390625 
L 28.421875 72.90625 
L 38.28125 72.90625 
L 38.28125 8.296875 
L 54.390625 8.296875 
L 54.390625 0 
L 12.40625 0 
z
" id="DejaVuSans-49"/>
      </defs>
      <g transform="translate(61.184375 287.518118)scale(0.12 -0.12)">
       <use xlink:href="#DejaVuSans-49"/>
       <use x="63.623047" xlink:href="#DejaVuSans-48"/>
      </g>
     </g>
    </g>
    <g id="ytick_3">
     <g id="line2d_13">
      <path clip-path="url(#p2d23996eb4)" d="M 83.454375 249.244021 
L 425.766875 249.244021 
" style="fill:none;stroke:#000000;stroke-linecap:square;stroke-opacity:0.2;stroke-width:0.5;"/>
     </g>
     <g id="line2d_14">
      <g>
       <use style="stroke:#000000;stroke-width:0.8;" x="83.454375" xlink:href="#m2e5988dda7" y="249.244021"/>
      </g>
     </g>
     <g id="text_3">
      <!-- 20 -->
      <defs>
       <path d="M 19.1875 8.296875 
L 53.609375 8.296875 
L 53.609375 0 
L 7.328125 0 
L 7.328125 8.296875 
Q 12.9375 14.109375 22.625 23.890625 
Q 32.328125 33.6875 34.8125 36.53125 
Q 39.546875 41.84375 41.421875 45.53125 
Q 43.3125 49.21875 43.3125 52.78125 
Q 43.3125 58.59375 39.234375 62.25 
Q 35.15625 65.921875 28.609375 65.921875 
Q 23.96875 65.921875 18.8125 64.3125 
Q 13.671875 62.703125 7.8125 59.421875 
L 7.8125 69.390625 
Q 13.765625 71.78125 18.9375 73 
Q 24.125 74.21875 28.421875 74.21875 
Q 39.75 74.21875 46.484375 68.546875 
Q 53.21875 62.890625 53.21875 53.421875 
Q 53.21875 48.921875 51.53125 44.890625 
Q 49.859375 40.875 45.40625 35.40625 
Q 44.1875 33.984375 37.640625 27.21875 
Q 31.109375 20.453125 19.1875 8.296875 
z
" id="DejaVuSans-50"/>
      </defs>
      <g transform="translate(61.184375 253.803083)scale(0.12 -0.12)">
       <use xlink:href="#DejaVuSans-50"/>
       <use x="63.623047" xlink:href="#DejaVuSans-48"/>
      </g>
     </g>
    </g>
    <g id="ytick_4">
     <g id="line2d_15">
      <path clip-path="url(#p2d23996eb4)" d="M 83.454375 215.528986 
L 425.766875 215.528986 
" style="fill:none;stroke:#000000;stroke-linecap:square;stroke-opacity:0.2;stroke-width:0.5;"/>
     </g>
     <g id="line2d_16">
      <g>
       <use style="stroke:#000000;stroke-width:0.8;" x="83.454375" xlink:href="#m2e5988dda7" y="215.528986"/>
      </g>
     </g>
     <g id="text_4">
      <!-- 30 -->
      <defs>
       <path d="M 40.578125 39.3125 
Q 47.65625 37.796875 51.625 33 
Q 55.609375 28.21875 55.609375 21.1875 
Q 55.609375 10.40625 48.1875 4.484375 
Q 40.765625 -1.421875 27.09375 -1.421875 
Q 22.515625 -1.421875 17.65625 -0.515625 
Q 12.796875 0.390625 7.625 2.203125 
L 7.625 11.71875 
Q 11.71875 9.328125 16.59375 8.109375 
Q 21.484375 6.890625 26.8125 6.890625 
Q 36.078125 6.890625 40.9375 10.546875 
Q 45.796875 14.203125 45.796875 21.1875 
Q 45.796875 27.640625 41.28125 31.265625 
Q 36.765625 34.90625 28.71875 34.90625 
L 20.21875 34.90625 
L 20.21875 43.015625 
L 29.109375 43.015625 
Q 36.375 43.015625 40.234375 45.921875 
Q 44.09375 48.828125 44.09375 54.296875 
Q 44.09375 59.90625 40.109375 62.90625 
Q 36.140625 65.921875 28.71875 65.921875 
Q 24.65625 65.921875 20.015625 65.03125 
Q 15.375 64.15625 9.8125 62.3125 
L 9.8125 71.09375 
Q 15.4375 72.65625 20.34375 73.4375 
Q 25.25 74.21875 29.59375 74.21875 
Q 40.828125 74.21875 47.359375 69.109375 
Q 53.90625 64.015625 53.90625 55.328125 
Q 53.90625 49.265625 50.4375 45.09375 
Q 46.96875 40.921875 40.578125 39.3125 
z
" id="DejaVuSans-51"/>
      </defs>
      <g transform="translate(61.184375 220.088049)scale(0.12 -0.12)">
       <use xlink:href="#DejaVuSans-51"/>
       <use x="63.623047" xlink:href="#DejaVuSans-48"/>
      </g>
     </g>
    </g>
    <g id="ytick_5">
     <g id="line2d_17">
      <path clip-path="url(#p2d23996eb4)" d="M 83.454375 181.813951 
L 425.766875 181.813951 
" style="fill:none;stroke:#000000;stroke-linecap:square;stroke-opacity:0.2;stroke-width:0.5;"/>
     </g>
     <g id="line2d_18">
      <g>
       <use style="stroke:#000000;stroke-width:0.8;" x="83.454375" xlink:href="#m2e5988dda7" y="181.813951"/>
      </g>
     </g>
     <g id="text_5">
      <!-- 40 -->
      <defs>
       <path d="M 37.796875 64.3125 
L 12.890625 25.390625 
L 37.796875 25.390625 
z
M 35.203125 72.90625 
L 47.609375 72.90625 
L 47.609375 25.390625 
L 58.015625 25.390625 
L 58.015625 17.1875 
L 47.609375 17.1875 
L 47.609375 0 
L 37.796875 0 
L 37.796875 17.1875 
L 4.890625 17.1875 
L 4.890625 26.703125 
z
" id="DejaVuSans-52"/>
      </defs>
      <g transform="translate(61.184375 186.373014)scale(0.12 -0.12)">
       <use xlink:href="#DejaVuSans-52"/>
       <use x="63.623047" xlink:href="#DejaVuSans-48"/>
      </g>
     </g>
    </g>
    <g id="ytick_6">
     <g id="line2d_19">
      <path clip-path="url(#p2d23996eb4)" d="M 83.454375 148.098916 
L 425.766875 148.098916 
" style="fill:none;stroke:#000000;stroke-linecap:square;stroke-opacity:0.2;stroke-width:0.5;"/>
     </g>
     <g id="line2d_20">
      <g>
       <use style="stroke:#000000;stroke-width:0.8;" x="83.454375" xlink:href="#m2e5988dda7" y="148.098916"/>
      </g>
     </g>
     <g id="text_6">
      <!-- 50 -->
      <defs>
       <path d="M 10.796875 72.90625 
L 49.515625 72.90625 
L 49.515625 64.59375 
L 19.828125 64.59375 
L 19.828125 46.734375 
Q 21.96875 47.46875 24.109375 47.828125 
Q 26.265625 48.1875 28.421875 48.1875 
Q 40.625 48.1875 47.75 41.5 
Q 54.890625 34.8125 54.890625 23.390625 
Q 54.890625 11.625 47.5625 5.09375 
Q 40.234375 -1.421875 26.90625 -1.421875 
Q 22.3125 -1.421875 17.546875 -0.640625 
Q 12.796875 0.140625 7.71875 1.703125 
L 7.71875 11.625 
Q 12.109375 9.234375 16.796875 8.0625 
Q 21.484375 6.890625 26.703125 6.890625 
Q 35.15625 6.890625 40.078125 11.328125 
Q 45.015625 15.765625 45.015625 23.390625 
Q 45.015625 31 40.078125 35.4375 
Q 35.15625 39.890625 26.703125 39.890625 
Q 22.75 39.890625 18.8125 39.015625 
Q 14.890625 38.140625 10.796875 36.28125 
z
" id="DejaVuSans-53"/>
      </defs>
      <g transform="translate(61.184375 152.657979)scale(0.12 -0.12)">
       <use xlink:href="#DejaVuSans-53"/>
       <use x="63.623047" xlink:href="#DejaVuSans-48"/>
      </g>
     </g>
    </g>
    <g id="text_7">
     <!-- Cases -->
     <defs>
      <path d="M 64.40625 67.28125 
L 64.40625 56.890625 
Q 59.421875 61.53125 53.78125 63.8125 
Q 48.140625 66.109375 41.796875 66.109375 
Q 29.296875 66.109375 22.65625 58.46875 
Q 16.015625 50.828125 16.015625 36.375 
Q 16.015625 21.96875 22.65625 14.328125 
Q 29.296875 6.6875 41.796875 6.6875 
Q 48.140625 6.6875 53.78125 8.984375 
Q 59.421875 11.28125 64.40625 15.921875 
L 64.40625 5.609375 
Q 59.234375 2.09375 53.4375 0.328125 
Q 47.65625 -1.421875 41.21875 -1.421875 
Q 24.65625 -1.421875 15.125 8.703125 
Q 5.609375 18.84375 5.609375 36.375 
Q 5.609375 53.953125 15.125 64.078125 
Q 24.65625 74.21875 41.21875 74.21875 
Q 47.75 74.21875 53.53125 72.484375 
Q 59.328125 70.75 64.40625 67.28125 
z
" id="DejaVuSans-67"/>
      <path d="M 34.28125 27.484375 
Q 23.390625 27.484375 19.1875 25 
Q 14.984375 22.515625 14.984375 16.5 
Q 14.984375 11.71875 18.140625 8.90625 
Q 21.296875 6.109375 26.703125 6.109375 
Q 34.1875 6.109375 38.703125 11.40625 
Q 43.21875 16.703125 43.21875 25.484375 
L 43.21875 27.484375 
z
M 52.203125 31.203125 
L 52.203125 0 
L 43.21875 0 
L 43.21875 8.296875 
Q 40.140625 3.328125 35.546875 0.953125 
Q 30.953125 -1.421875 24.3125 -1.421875 
Q 15.921875 -1.421875 10.953125 3.296875 
Q 6 8.015625 6 15.921875 
Q 6 25.140625 12.171875 29.828125 
Q 18.359375 34.515625 30.609375 34.515625 
L 43.21875 34.515625 
L 43.21875 35.40625 
Q 43.21875 41.609375 39.140625 45 
Q 35.0625 48.390625 27.6875 48.390625 
Q 23 48.390625 18.546875 47.265625 
Q 14.109375 46.140625 10.015625 43.890625 
L 10.015625 52.203125 
Q 14.9375 54.109375 19.578125 55.046875 
Q 24.21875 56 28.609375 56 
Q 40.484375 56 46.34375 49.84375 
Q 52.203125 43.703125 52.203125 31.203125 
z
" id="DejaVuSans-97"/>
      <path d="M 44.28125 53.078125 
L 44.28125 44.578125 
Q 40.484375 46.53125 36.375 47.5 
Q 32.28125 48.484375 27.875 48.484375 
Q 21.1875 48.484375 17.84375 46.4375 
Q 14.5 44.390625 14.5 40.28125 
Q 14.5 37.15625 16.890625 35.375 
Q 19.28125 33.59375 26.515625 31.984375 
L 29.59375 31.296875 
Q 39.15625 29.25 43.1875 25.515625 
Q 47.21875 21.78125 47.21875 15.09375 
Q 47.21875 7.46875 41.1875 3.015625 
Q 35.15625 -1.421875 24.609375 -1.421875 
Q 20.21875 -1.421875 15.453125 -0.5625 
Q 10.6875 0.296875 5.421875 2 
L 5.421875 11.28125 
Q 10.40625 8.6875 15.234375 7.390625 
Q 20.0625 6.109375 24.8125 6.109375 
Q 31.15625 6.109375 34.5625 8.28125 
Q 37.984375 10.453125 37.984375 14.40625 
Q 37.984375 18.0625 35.515625 20.015625 
Q 33.0625 21.96875 24.703125 23.78125 
L 21.578125 24.515625 
Q 13.234375 26.265625 9.515625 29.90625 
Q 5.8125 33.546875 5.8125 39.890625 
Q 5.8125 47.609375 11.28125 51.796875 
Q 16.75 56 26.8125 56 
Q 31.78125 56 36.171875 55.265625 
Q 40.578125 54.546875 44.28125 53.078125 
z
" id="DejaVuSans-115"/>
      <path d="M 56.203125 29.59375 
L 56.203125 25.203125 
L 14.890625 25.203125 
Q 15.484375 15.921875 20.484375 11.0625 
Q 25.484375 6.203125 34.421875 6.203125 
Q 39.59375 6.203125 44.453125 7.46875 
Q 49.3125 8.734375 54.109375 11.28125 
L 54.109375 2.78125 
Q 49.265625 0.734375 44.1875 -0.34375 
Q 39.109375 -1.421875 33.890625 -1.421875 
Q 20.796875 -1.421875 13.15625 6.1875 
Q 5.515625 13.8125 5.515625 26.8125 
Q 5.515625 40.234375 12.765625 48.109375 
Q 20.015625 56 32.328125 56 
Q 43.359375 56 49.78125 48.890625 
Q 56.203125 41.796875 56.203125 29.59375 
z
M 47.21875 32.234375 
Q 47.125 39.59375 43.09375 43.984375 
Q 39.0625 48.390625 32.421875 48.390625 
Q 24.90625 48.390625 20.390625 44.140625 
Q 15.875 39.890625 15.1875 32.171875 
z
" id="DejaVuSans-101"/>
     </defs>
     <g transform="translate(54.272813 249.792969)rotate(-90)scale(0.14 -0.14)">
      <use xlink:href="#DejaVuSans-67"/>
      <use x="69.824219" xlink:href="#DejaVuSans-97"/>
      <use x="131.103516" xlink:href="#DejaVuSans-115"/>
      <use x="183.203125" xlink:href="#DejaVuSans-101"/>
      <use x="244.726562" xlink:href="#DejaVuSans-115"/>
     </g>
    </g>
   </g>
   <g id="line2d_21">
    <path clip-path="url(#p2d23996eb4)" d="M 83.454375 277.517263 
L 151.916875 271.591165 
L 220.379375 264.063994 
L 288.841875 254.324256 
L 357.304375 241.638042 
L 425.766875 225.349421 
" style="fill:none;stroke:#1f77b4;stroke-linecap:square;stroke-width:3;"/>
   </g>
   <g id="line2d_22">
    <defs>
     <path d="M -3 3 
L 3 -3 
M -3 -3 
L 3 3 
" id="mff63f853c6" style="stroke:#000000;"/>
    </defs>
    <g clip-path="url(#p2d23996eb4)">
     <use style="stroke:#000000;" x="83.454375" xlink:href="#mff63f853c6" y="316.674091"/>
     <use style="stroke:#000000;" x="151.916875" xlink:href="#mff63f853c6" y="309.931084"/>
     <use style="stroke:#000000;" x="220.379375" xlink:href="#mff63f853c6" y="313.302587"/>
     <use style="stroke:#000000;" x="288.841875" xlink:href="#mff63f853c6" y="178.442448"/>
     <use style="stroke:#000000;" x="357.304375" xlink:href="#mff63f853c6" y="141.355909"/>
     <use style="stroke:#000000;" x="425.766875" xlink:href="#mff63f853c6" y="198.671469"/>
    </g>
   </g>
   <g id="patch_3">
    <path d="M 83.454375 325.44 
L 83.454375 132.59 
" style="fill:none;stroke:#000000;stroke-linecap:square;stroke-linejoin:miter;"/>
   </g>
   <g id="patch_4">
    <path d="M 425.766875 325.44 
L 425.766875 132.59 
" style="fill:none;stroke:#000000;stroke-linecap:square;stroke-linejoin:miter;"/>
   </g>
   <g id="patch_5">
    <path d="M 83.454375 325.44 
L 425.766875 325.44 
" style="fill:none;stroke:#000000;stroke-linecap:square;stroke-linejoin:miter;"/>
   </g>
   <g id="patch_6">
    <path d="M 83.454375 132.59 
L 425.766875 132.59 
" style="fill:none;stroke:#000000;stroke-linecap:square;stroke-linejoin:miter;"/>
   </g>
   <g id="text_8">
    <!-- Daily Cases -->
    <defs>
     <path d="M 19.671875 64.796875 
L 19.671875 8.109375 
L 31.59375 8.109375 
Q 46.6875 8.109375 53.6875 14.9375 
Q 60.6875 21.78125 60.6875 36.53125 
Q 60.6875 51.171875 53.6875 57.984375 
Q 46.6875 64.796875 31.59375 64.796875 
z
M 9.8125 72.90625 
L 30.078125 72.90625 
Q 51.265625 72.90625 61.171875 64.09375 
Q 71.09375 55.28125 71.09375 36.53125 
Q 71.09375 17.671875 61.125 8.828125 
Q 51.171875 0 30.078125 0 
L 9.8125 0 
z
" id="DejaVuSans-68"/>
     <path d="M 9.421875 54.6875 
L 18.40625 54.6875 
L 18.40625 0 
L 9.421875 0 
z
M 9.421875 75.984375 
L 18.40625 75.984375 
L 18.40625 64.59375 
L 9.421875 64.59375 
z
" id="DejaVuSans-105"/>
     <path d="M 9.421875 75.984375 
L 18.40625 75.984375 
L 18.40625 0 
L 9.421875 0 
z
" id="DejaVuSans-108"/>
     <path d="M 32.171875 -5.078125 
Q 28.375 -14.84375 24.75 -17.8125 
Q 21.140625 -20.796875 15.09375 -20.796875 
L 7.90625 -20.796875 
L 7.90625 -13.28125 
L 13.1875 -13.28125 
Q 16.890625 -13.28125 18.9375 -11.515625 
Q 21 -9.765625 23.484375 -3.21875 
L 25.09375 0.875 
L 2.984375 54.6875 
L 12.5 54.6875 
L 29.59375 11.921875 
L 46.6875 54.6875 
L 56.203125 54.6875 
z
" id="DejaVuSans-121"/>
     <path id="DejaVuSans-32"/>
    </defs>
    <g transform="translate(196.446562 117.59)scale(0.2 -0.2)">
     <use xlink:href="#DejaVuSans-68"/>
     <use x="77.001953" xlink:href="#DejaVuSans-97"/>
     <use x="138.28125" xlink:href="#DejaVuSans-105"/>
     <use x="166.064453" xlink:href="#DejaVuSans-108"/>
     <use x="193.847656" xlink:href="#DejaVuSans-121"/>
     <use x="253.027344" xlink:href="#DejaVuSans-32"/>
     <use x="284.814453" xlink:href="#DejaVuSans-67"/>
     <use x="354.638672" xlink:href="#DejaVuSans-97"/>
     <use x="415.917969" xlink:href="#DejaVuSans-115"/>
     <use x="468.017578" xlink:href="#DejaVuSans-101"/>
     <use x="529.541016" xlink:href="#DejaVuSans-115"/>
    </g>
   </g>
  </g>
  <g id="axes_2">
   <g id="patch_7">
    <path d="M 561.454375 325.44 
L 903.766875 325.44 
L 903.766875 132.59 
L 561.454375 132.59 
z
" style="fill:#ffffff;"/>
   </g>
   <g id="matplotlib.axis_3">
    <g id="xtick_7">
     <g id="line2d_23">
      <path clip-path="url(#p8e3c4ca91b)" d="M 561.454375 325.44 
L 561.454375 132.59 
" style="fill:none;stroke:#000000;stroke-linecap:square;stroke-opacity:0.2;stroke-width:0.5;"/>
     </g>
     <g id="line2d_24">
      <g>
       <use style="stroke:#000000;stroke-width:0.8;" x="561.454375" xlink:href="#m8c23c734aa" y="325.44"/>
      </g>
     </g>
     <g id="text_9">
      <!-- 05 -->
      <g transform="translate(553.819375 341.558125)scale(0.12 -0.12)">
       <use xlink:href="#DejaVuSans-48"/>
       <use x="63.623047" xlink:href="#DejaVuSans-53"/>
      </g>
      <!-- May -->
      <defs>
       <path d="M 9.8125 72.90625 
L 24.515625 72.90625 
L 43.109375 23.296875 
L 61.8125 72.90625 
L 76.515625 72.90625 
L 76.515625 0 
L 66.890625 0 
L 66.890625 64.015625 
L 48.09375 14.015625 
L 38.1875 14.015625 
L 19.390625 64.015625 
L 19.390625 0 
L 9.8125 0 
z
" id="DejaVuSans-77"/>
      </defs>
      <g transform="translate(549.049375 354.9955)scale(0.12 -0.12)">
       <use xlink:href="#DejaVuSans-77"/>
       <use x="86.279297" xlink:href="#DejaVuSans-97"/>
       <use x="147.558594" xlink:href="#DejaVuSans-121"/>
      </g>
      <!-- 2020 -->
      <g transform="translate(546.184375 368.432875)scale(0.12 -0.12)">
       <use xlink:href="#DejaVuSans-50"/>
       <use x="63.623047" xlink:href="#DejaVuSans-48"/>
       <use x="127.246094" xlink:href="#DejaVuSans-50"/>
       <use x="190.869141" xlink:href="#DejaVuSans-48"/>
      </g>
     </g>
    </g>
    <g id="xtick_8">
     <g id="line2d_25">
      <path clip-path="url(#p8e3c4ca91b)" d="M 903.766875 325.44 
L 903.766875 132.59 
" style="fill:none;stroke:#000000;stroke-linecap:square;stroke-opacity:0.2;stroke-width:0.5;"/>
     </g>
     <g id="line2d_26">
      <g>
       <use style="stroke:#000000;stroke-width:0.8;" x="903.766875" xlink:href="#m8c23c734aa" y="325.44"/>
      </g>
     </g>
     <g id="text_10">
      <!-- 10 -->
      <g transform="translate(896.131875 341.558125)scale(0.12 -0.12)">
       <use xlink:href="#DejaVuSans-49"/>
       <use x="63.623047" xlink:href="#DejaVuSans-48"/>
      </g>
     </g>
    </g>
    <g id="xtick_9">
     <g id="line2d_27">
      <g>
       <use style="stroke:#000000;stroke-width:0.6;" x="629.916875" xlink:href="#m48101f697e" y="325.44"/>
      </g>
     </g>
     <g id="text_11">
      <!-- 06 -->
      <defs>
       <path d="M 33.015625 40.375 
Q 26.375 40.375 22.484375 35.828125 
Q 18.609375 31.296875 18.609375 23.390625 
Q 18.609375 15.53125 22.484375 10.953125 
Q 26.375 6.390625 33.015625 6.390625 
Q 39.65625 6.390625 43.53125 10.953125 
Q 47.40625 15.53125 47.40625 23.390625 
Q 47.40625 31.296875 43.53125 35.828125 
Q 39.65625 40.375 33.015625 40.375 
z
M 52.59375 71.296875 
L 52.59375 62.3125 
Q 48.875 64.0625 45.09375 64.984375 
Q 41.3125 65.921875 37.59375 65.921875 
Q 27.828125 65.921875 22.671875 59.328125 
Q 17.53125 52.734375 16.796875 39.40625 
Q 19.671875 43.65625 24.015625 45.921875 
Q 28.375 48.1875 33.59375 48.1875 
Q 44.578125 48.1875 50.953125 41.515625 
Q 57.328125 34.859375 57.328125 23.390625 
Q 57.328125 12.15625 50.6875 5.359375 
Q 44.046875 -1.421875 33.015625 -1.421875 
Q 20.359375 -1.421875 13.671875 8.265625 
Q 6.984375 17.96875 6.984375 36.375 
Q 6.984375 53.65625 15.1875 63.9375 
Q 23.390625 74.21875 37.203125 74.21875 
Q 40.921875 74.21875 44.703125 73.484375 
Q 48.484375 72.75 52.59375 71.296875 
z
" id="DejaVuSans-54"/>
      </defs>
      <g transform="translate(622.281875 339.958125)scale(0.12 -0.12)">
       <use xlink:href="#DejaVuSans-48"/>
       <use x="63.623047" xlink:href="#DejaVuSans-54"/>
      </g>
     </g>
    </g>
    <g id="xtick_10">
     <g id="line2d_28">
      <g>
       <use style="stroke:#000000;stroke-width:0.6;" x="698.379375" xlink:href="#m48101f697e" y="325.44"/>
      </g>
     </g>
     <g id="text_12">
      <!-- 07 -->
      <defs>
       <path d="M 8.203125 72.90625 
L 55.078125 72.90625 
L 55.078125 68.703125 
L 28.609375 0 
L 18.3125 0 
L 43.21875 64.59375 
L 8.203125 64.59375 
z
" id="DejaVuSans-55"/>
      </defs>
      <g transform="translate(690.744375 339.958125)scale(0.12 -0.12)">
       <use xlink:href="#DejaVuSans-48"/>
       <use x="63.623047" xlink:href="#DejaVuSans-55"/>
      </g>
     </g>
    </g>
    <g id="xtick_11">
     <g id="line2d_29">
      <g>
       <use style="stroke:#000000;stroke-width:0.6;" x="766.841875" xlink:href="#m48101f697e" y="325.44"/>
      </g>
     </g>
     <g id="text_13">
      <!-- 08 -->
      <defs>
       <path d="M 31.78125 34.625 
Q 24.75 34.625 20.71875 30.859375 
Q 16.703125 27.09375 16.703125 20.515625 
Q 16.703125 13.921875 20.71875 10.15625 
Q 24.75 6.390625 31.78125 6.390625 
Q 38.8125 6.390625 42.859375 10.171875 
Q 46.921875 13.96875 46.921875 20.515625 
Q 46.921875 27.09375 42.890625 30.859375 
Q 38.875 34.625 31.78125 34.625 
z
M 21.921875 38.8125 
Q 15.578125 40.375 12.03125 44.71875 
Q 8.5 49.078125 8.5 55.328125 
Q 8.5 64.0625 14.71875 69.140625 
Q 20.953125 74.21875 31.78125 74.21875 
Q 42.671875 74.21875 48.875 69.140625 
Q 55.078125 64.0625 55.078125 55.328125 
Q 55.078125 49.078125 51.53125 44.71875 
Q 48 40.375 41.703125 38.8125 
Q 48.828125 37.15625 52.796875 32.3125 
Q 56.78125 27.484375 56.78125 20.515625 
Q 56.78125 9.90625 50.3125 4.234375 
Q 43.84375 -1.421875 31.78125 -1.421875 
Q 19.734375 -1.421875 13.25 4.234375 
Q 6.78125 9.90625 6.78125 20.515625 
Q 6.78125 27.484375 10.78125 32.3125 
Q 14.796875 37.15625 21.921875 38.8125 
z
M 18.3125 54.390625 
Q 18.3125 48.734375 21.84375 45.5625 
Q 25.390625 42.390625 31.78125 42.390625 
Q 38.140625 42.390625 41.71875 45.5625 
Q 45.3125 48.734375 45.3125 54.390625 
Q 45.3125 60.0625 41.71875 63.234375 
Q 38.140625 66.40625 31.78125 66.40625 
Q 25.390625 66.40625 21.84375 63.234375 
Q 18.3125 60.0625 18.3125 54.390625 
z
" id="DejaVuSans-56"/>
      </defs>
      <g transform="translate(759.206875 339.958125)scale(0.12 -0.12)">
       <use xlink:href="#DejaVuSans-48"/>
       <use x="63.623047" xlink:href="#DejaVuSans-56"/>
      </g>
     </g>
    </g>
    <g id="xtick_12">
     <g id="line2d_30">
      <g>
       <use style="stroke:#000000;stroke-width:0.6;" x="835.304375" xlink:href="#m48101f697e" y="325.44"/>
      </g>
     </g>
     <g id="text_14">
      <!-- 09 -->
      <defs>
       <path d="M 10.984375 1.515625 
L 10.984375 10.5 
Q 14.703125 8.734375 18.5 7.8125 
Q 22.3125 6.890625 25.984375 6.890625 
Q 35.75 6.890625 40.890625 13.453125 
Q 46.046875 20.015625 46.78125 33.40625 
Q 43.953125 29.203125 39.59375 26.953125 
Q 35.25 24.703125 29.984375 24.703125 
Q 19.046875 24.703125 12.671875 31.3125 
Q 6.296875 37.9375 6.296875 49.421875 
Q 6.296875 60.640625 12.9375 67.421875 
Q 19.578125 74.21875 30.609375 74.21875 
Q 43.265625 74.21875 49.921875 64.515625 
Q 56.59375 54.828125 56.59375 36.375 
Q 56.59375 19.140625 48.40625 8.859375 
Q 40.234375 -1.421875 26.421875 -1.421875 
Q 22.703125 -1.421875 18.890625 -0.6875 
Q 15.09375 0.046875 10.984375 1.515625 
z
M 30.609375 32.421875 
Q 37.25 32.421875 41.125 36.953125 
Q 45.015625 41.5 45.015625 49.421875 
Q 45.015625 57.28125 41.125 61.84375 
Q 37.25 66.40625 30.609375 66.40625 
Q 23.96875 66.40625 20.09375 61.84375 
Q 16.21875 57.28125 16.21875 49.421875 
Q 16.21875 41.5 20.09375 36.953125 
Q 23.96875 32.421875 30.609375 32.421875 
z
" id="DejaVuSans-57"/>
      </defs>
      <g transform="translate(827.669375 339.958125)scale(0.12 -0.12)">
       <use xlink:href="#DejaVuSans-48"/>
       <use x="63.623047" xlink:href="#DejaVuSans-57"/>
      </g>
     </g>
    </g>
   </g>
   <g id="matplotlib.axis_4">
    <g id="ytick_7">
     <g id="line2d_31">
      <path clip-path="url(#p8e3c4ca91b)" d="M 561.454375 316.674091 
L 903.766875 316.674091 
" style="fill:none;stroke:#000000;stroke-linecap:square;stroke-opacity:0.2;stroke-width:0.5;"/>
     </g>
     <g id="line2d_32">
      <g>
       <use style="stroke:#000000;stroke-width:0.8;" x="561.454375" xlink:href="#m2e5988dda7" y="316.674091"/>
      </g>
     </g>
     <g id="text_15">
      <!-- 0.00 -->
      <defs>
       <path d="M 10.6875 12.40625 
L 21 12.40625 
L 21 0 
L 10.6875 0 
z
" id="DejaVuSans-46"/>
      </defs>
      <g transform="translate(527.735625 321.233153)scale(0.12 -0.12)">
       <use xlink:href="#DejaVuSans-48"/>
       <use x="63.623047" xlink:href="#DejaVuSans-46"/>
       <use x="95.410156" xlink:href="#DejaVuSans-48"/>
       <use x="159.033203" xlink:href="#DejaVuSans-48"/>
      </g>
     </g>
    </g>
    <g id="ytick_8">
     <g id="line2d_33">
      <path clip-path="url(#p8e3c4ca91b)" d="M 561.454375 281.784987 
L 903.766875 281.784987 
" style="fill:none;stroke:#000000;stroke-linecap:square;stroke-opacity:0.2;stroke-width:0.5;"/>
     </g>
     <g id="line2d_34">
      <g>
       <use style="stroke:#000000;stroke-width:0.8;" x="561.454375" xlink:href="#m2e5988dda7" y="281.784987"/>
      </g>
     </g>
     <g id="text_16">
      <!-- 0.05 -->
      <g transform="translate(527.735625 286.344049)scale(0.12 -0.12)">
       <use xlink:href="#DejaVuSans-48"/>
       <use x="63.623047" xlink:href="#DejaVuSans-46"/>
       <use x="95.410156" xlink:href="#DejaVuSans-48"/>
       <use x="159.033203" xlink:href="#DejaVuSans-53"/>
      </g>
     </g>
    </g>
    <g id="ytick_9">
     <g id="line2d_35">
      <path clip-path="url(#p8e3c4ca91b)" d="M 561.454375 246.895883 
L 903.766875 246.895883 
" style="fill:none;stroke:#000000;stroke-linecap:square;stroke-opacity:0.2;stroke-width:0.5;"/>
     </g>
     <g id="line2d_36">
      <g>
       <use style="stroke:#000000;stroke-width:0.8;" x="561.454375" xlink:href="#m2e5988dda7" y="246.895883"/>
      </g>
     </g>
     <g id="text_17">
      <!-- 0.10 -->
      <g transform="translate(527.735625 251.454945)scale(0.12 -0.12)">
       <use xlink:href="#DejaVuSans-48"/>
       <use x="63.623047" xlink:href="#DejaVuSans-46"/>
       <use x="95.410156" xlink:href="#DejaVuSans-49"/>
       <use x="159.033203" xlink:href="#DejaVuSans-48"/>
      </g>
     </g>
    </g>
    <g id="ytick_10">
     <g id="line2d_37">
      <path clip-path="url(#p8e3c4ca91b)" d="M 561.454375 212.006779 
L 903.766875 212.006779 
" style="fill:none;stroke:#000000;stroke-linecap:square;stroke-opacity:0.2;stroke-width:0.5;"/>
     </g>
     <g id="line2d_38">
      <g>
       <use style="stroke:#000000;stroke-width:0.8;" x="561.454375" xlink:href="#m2e5988dda7" y="212.006779"/>
      </g>
     </g>
     <g id="text_18">
      <!-- 0.15 -->
      <g transform="translate(527.735625 216.565841)scale(0.12 -0.12)">
       <use xlink:href="#DejaVuSans-48"/>
       <use x="63.623047" xlink:href="#DejaVuSans-46"/>
       <use x="95.410156" xlink:href="#DejaVuSans-49"/>
       <use x="159.033203" xlink:href="#DejaVuSans-53"/>
      </g>
     </g>
    </g>
    <g id="ytick_11">
     <g id="line2d_39">
      <path clip-path="url(#p8e3c4ca91b)" d="M 561.454375 177.117675 
L 903.766875 177.117675 
" style="fill:none;stroke:#000000;stroke-linecap:square;stroke-opacity:0.2;stroke-width:0.5;"/>
     </g>
     <g id="line2d_40">
      <g>
       <use style="stroke:#000000;stroke-width:0.8;" x="561.454375" xlink:href="#m2e5988dda7" y="177.117675"/>
      </g>
     </g>
     <g id="text_19">
      <!-- 0.20 -->
      <g transform="translate(527.735625 181.676737)scale(0.12 -0.12)">
       <use xlink:href="#DejaVuSans-48"/>
       <use x="63.623047" xlink:href="#DejaVuSans-46"/>
       <use x="95.410156" xlink:href="#DejaVuSans-50"/>
       <use x="159.033203" xlink:href="#DejaVuSans-48"/>
      </g>
     </g>
    </g>
    <g id="ytick_12">
     <g id="line2d_41">
      <path clip-path="url(#p8e3c4ca91b)" d="M 561.454375 142.228571 
L 903.766875 142.228571 
" style="fill:none;stroke:#000000;stroke-linecap:square;stroke-opacity:0.2;stroke-width:0.5;"/>
     </g>
     <g id="line2d_42">
      <g>
       <use style="stroke:#000000;stroke-width:0.8;" x="561.454375" xlink:href="#m2e5988dda7" y="142.228571"/>
      </g>
     </g>
     <g id="text_20">
      <!-- 0.25 -->
      <g transform="translate(527.735625 146.787633)scale(0.12 -0.12)">
       <use xlink:href="#DejaVuSans-48"/>
       <use x="63.623047" xlink:href="#DejaVuSans-46"/>
       <use x="95.410156" xlink:href="#DejaVuSans-50"/>
       <use x="159.033203" xlink:href="#DejaVuSans-53"/>
      </g>
     </g>
    </g>
    <g id="text_21">
     <!-- Days${}^{-1}$ -->
     <defs>
      <path d="M 10.59375 35.5 
L 73.1875 35.5 
L 73.1875 27.203125 
L 10.59375 27.203125 
z
" id="DejaVuSans-8722"/>
     </defs>
     <g transform="translate(520.795625 254.005)rotate(-90)scale(0.14 -0.14)">
      <use transform="translate(0 0.684375)" xlink:href="#DejaVuSans-68"/>
      <use transform="translate(77.001953 0.684375)" xlink:href="#DejaVuSans-97"/>
      <use transform="translate(138.28125 0.684375)" xlink:href="#DejaVuSans-121"/>
      <use transform="translate(197.460938 0.684375)" xlink:href="#DejaVuSans-115"/>
      <use transform="translate(250.517578 38.965625)scale(0.7)" xlink:href="#DejaVuSans-8722"/>
      <use transform="translate(309.169922 38.965625)scale(0.7)" xlink:href="#DejaVuSans-49"/>
     </g>
    </g>
   </g>
   <g id="line2d_43">
    <path clip-path="url(#p8e3c4ca91b)" d="M 561.454375 157.961592 
L 629.916875 147.087776 
L 698.379375 141.355909 
L 766.841875 141.428676 
L 835.304375 147.301801 
L 903.766875 155.43575 
" style="fill:none;stroke:#1f77b4;stroke-linecap:square;stroke-width:3;"/>
   </g>
   <g id="line2d_44">
    <path clip-path="url(#p8e3c4ca91b)" d="M 561.454375 316.674091 
L 903.766875 316.674091 
" style="fill:none;stroke:#000000;stroke-linecap:square;stroke-opacity:0.4;stroke-width:2;"/>
   </g>
   <g id="patch_8">
    <path d="M 561.454375 325.44 
L 561.454375 132.59 
" style="fill:none;stroke:#000000;stroke-linecap:square;stroke-linejoin:miter;"/>
   </g>
   <g id="patch_9">
    <path d="M 903.766875 325.44 
L 903.766875 132.59 
" style="fill:none;stroke:#000000;stroke-linecap:square;stroke-linejoin:miter;"/>
   </g>
   <g id="patch_10">
    <path d="M 561.454375 325.44 
L 903.766875 325.44 
" style="fill:none;stroke:#000000;stroke-linecap:square;stroke-linejoin:miter;"/>
   </g>
   <g id="patch_11">
    <path d="M 561.454375 132.59 
L 903.766875 132.59 
" style="fill:none;stroke:#000000;stroke-linecap:square;stroke-linejoin:miter;"/>
   </g>
   <g id="text_22">
    <!-- Logarithmic Growth Rate -->
    <defs>
     <path d="M 9.8125 72.90625 
L 19.671875 72.90625 
L 19.671875 8.296875 
L 55.171875 8.296875 
L 55.171875 0 
L 9.8125 0 
z
" id="DejaVuSans-76"/>
     <path d="M 30.609375 48.390625 
Q 23.390625 48.390625 19.1875 42.75 
Q 14.984375 37.109375 14.984375 27.296875 
Q 14.984375 17.484375 19.15625 11.84375 
Q 23.34375 6.203125 30.609375 6.203125 
Q 37.796875 6.203125 41.984375 11.859375 
Q 46.1875 17.53125 46.1875 27.296875 
Q 46.1875 37.015625 41.984375 42.703125 
Q 37.796875 48.390625 30.609375 48.390625 
z
M 30.609375 56 
Q 42.328125 56 49.015625 48.375 
Q 55.71875 40.765625 55.71875 27.296875 
Q 55.71875 13.875 49.015625 6.21875 
Q 42.328125 -1.421875 30.609375 -1.421875 
Q 18.84375 -1.421875 12.171875 6.21875 
Q 5.515625 13.875 5.515625 27.296875 
Q 5.515625 40.765625 12.171875 48.375 
Q 18.84375 56 30.609375 56 
z
" id="DejaVuSans-111"/>
     <path d="M 45.40625 27.984375 
Q 45.40625 37.75 41.375 43.109375 
Q 37.359375 48.484375 30.078125 48.484375 
Q 22.859375 48.484375 18.828125 43.109375 
Q 14.796875 37.75 14.796875 27.984375 
Q 14.796875 18.265625 18.828125 12.890625 
Q 22.859375 7.515625 30.078125 7.515625 
Q 37.359375 7.515625 41.375 12.890625 
Q 45.40625 18.265625 45.40625 27.984375 
z
M 54.390625 6.78125 
Q 54.390625 -7.171875 48.1875 -13.984375 
Q 42 -20.796875 29.203125 -20.796875 
Q 24.46875 -20.796875 20.265625 -20.09375 
Q 16.0625 -19.390625 12.109375 -17.921875 
L 12.109375 -9.1875 
Q 16.0625 -11.328125 19.921875 -12.34375 
Q 23.78125 -13.375 27.78125 -13.375 
Q 36.625 -13.375 41.015625 -8.765625 
Q 45.40625 -4.15625 45.40625 5.171875 
L 45.40625 9.625 
Q 42.625 4.78125 38.28125 2.390625 
Q 33.9375 0 27.875 0 
Q 17.828125 0 11.671875 7.65625 
Q 5.515625 15.328125 5.515625 27.984375 
Q 5.515625 40.671875 11.671875 48.328125 
Q 17.828125 56 27.875 56 
Q 33.9375 56 38.28125 53.609375 
Q 42.625 51.21875 45.40625 46.390625 
L 45.40625 54.6875 
L 54.390625 54.6875 
z
" id="DejaVuSans-103"/>
     <path d="M 41.109375 46.296875 
Q 39.59375 47.171875 37.8125 47.578125 
Q 36.03125 48 33.890625 48 
Q 26.265625 48 22.1875 43.046875 
Q 18.109375 38.09375 18.109375 28.8125 
L 18.109375 0 
L 9.078125 0 
L 9.078125 54.6875 
L 18.109375 54.6875 
L 18.109375 46.1875 
Q 20.953125 51.171875 25.484375 53.578125 
Q 30.03125 56 36.53125 56 
Q 37.453125 56 38.578125 55.875 
Q 39.703125 55.765625 41.0625 55.515625 
z
" id="DejaVuSans-114"/>
     <path d="M 18.3125 70.21875 
L 18.3125 54.6875 
L 36.8125 54.6875 
L 36.8125 47.703125 
L 18.3125 47.703125 
L 18.3125 18.015625 
Q 18.3125 11.328125 20.140625 9.421875 
Q 21.96875 7.515625 27.59375 7.515625 
L 36.8125 7.515625 
L 36.8125 0 
L 27.59375 0 
Q 17.1875 0 13.234375 3.875 
Q 9.28125 7.765625 9.28125 18.015625 
L 9.28125 47.703125 
L 2.6875 47.703125 
L 2.6875 54.6875 
L 9.28125 54.6875 
L 9.28125 70.21875 
z
" id="DejaVuSans-116"/>
     <path d="M 54.890625 33.015625 
L 54.890625 0 
L 45.90625 0 
L 45.90625 32.71875 
Q 45.90625 40.484375 42.875 44.328125 
Q 39.84375 48.1875 33.796875 48.1875 
Q 26.515625 48.1875 22.3125 43.546875 
Q 18.109375 38.921875 18.109375 30.90625 
L 18.109375 0 
L 9.078125 0 
L 9.078125 75.984375 
L 18.109375 75.984375 
L 18.109375 46.1875 
Q 21.34375 51.125 25.703125 53.5625 
Q 30.078125 56 35.796875 56 
Q 45.21875 56 50.046875 50.171875 
Q 54.890625 44.34375 54.890625 33.015625 
z
" id="DejaVuSans-104"/>
     <path d="M 52 44.1875 
Q 55.375 50.25 60.0625 53.125 
Q 64.75 56 71.09375 56 
Q 79.640625 56 84.28125 50.015625 
Q 88.921875 44.046875 88.921875 33.015625 
L 88.921875 0 
L 79.890625 0 
L 79.890625 32.71875 
Q 79.890625 40.578125 77.09375 44.375 
Q 74.3125 48.1875 68.609375 48.1875 
Q 61.625 48.1875 57.5625 43.546875 
Q 53.515625 38.921875 53.515625 30.90625 
L 53.515625 0 
L 44.484375 0 
L 44.484375 32.71875 
Q 44.484375 40.625 41.703125 44.40625 
Q 38.921875 48.1875 33.109375 48.1875 
Q 26.21875 48.1875 22.15625 43.53125 
Q 18.109375 38.875 18.109375 30.90625 
L 18.109375 0 
L 9.078125 0 
L 9.078125 54.6875 
L 18.109375 54.6875 
L 18.109375 46.1875 
Q 21.1875 51.21875 25.484375 53.609375 
Q 29.78125 56 35.6875 56 
Q 41.65625 56 45.828125 52.96875 
Q 50 49.953125 52 44.1875 
z
" id="DejaVuSans-109"/>
     <path d="M 48.78125 52.59375 
L 48.78125 44.1875 
Q 44.96875 46.296875 41.140625 47.34375 
Q 37.3125 48.390625 33.40625 48.390625 
Q 24.65625 48.390625 19.8125 42.84375 
Q 14.984375 37.3125 14.984375 27.296875 
Q 14.984375 17.28125 19.8125 11.734375 
Q 24.65625 6.203125 33.40625 6.203125 
Q 37.3125 6.203125 41.140625 7.25 
Q 44.96875 8.296875 48.78125 10.40625 
L 48.78125 2.09375 
Q 45.015625 0.34375 40.984375 -0.53125 
Q 36.96875 -1.421875 32.421875 -1.421875 
Q 20.0625 -1.421875 12.78125 6.34375 
Q 5.515625 14.109375 5.515625 27.296875 
Q 5.515625 40.671875 12.859375 48.328125 
Q 20.21875 56 33.015625 56 
Q 37.15625 56 41.109375 55.140625 
Q 45.0625 54.296875 48.78125 52.59375 
z
" id="DejaVuSans-99"/>
     <path d="M 59.515625 10.40625 
L 59.515625 29.984375 
L 43.40625 29.984375 
L 43.40625 38.09375 
L 69.28125 38.09375 
L 69.28125 6.78125 
Q 63.578125 2.734375 56.6875 0.65625 
Q 49.8125 -1.421875 42 -1.421875 
Q 24.90625 -1.421875 15.25 8.5625 
Q 5.609375 18.5625 5.609375 36.375 
Q 5.609375 54.25 15.25 64.234375 
Q 24.90625 74.21875 42 74.21875 
Q 49.125 74.21875 55.546875 72.453125 
Q 61.96875 70.703125 67.390625 67.28125 
L 67.390625 56.78125 
Q 61.921875 61.421875 55.765625 63.765625 
Q 49.609375 66.109375 42.828125 66.109375 
Q 29.4375 66.109375 22.71875 58.640625 
Q 16.015625 51.171875 16.015625 36.375 
Q 16.015625 21.625 22.71875 14.15625 
Q 29.4375 6.6875 42.828125 6.6875 
Q 48.046875 6.6875 52.140625 7.59375 
Q 56.25 8.5 59.515625 10.40625 
z
" id="DejaVuSans-71"/>
     <path d="M 4.203125 54.6875 
L 13.1875 54.6875 
L 24.421875 12.015625 
L 35.59375 54.6875 
L 46.1875 54.6875 
L 57.421875 12.015625 
L 68.609375 54.6875 
L 77.59375 54.6875 
L 63.28125 0 
L 52.6875 0 
L 40.921875 44.828125 
L 29.109375 0 
L 18.5 0 
z
" id="DejaVuSans-119"/>
     <path d="M 44.390625 34.1875 
Q 47.5625 33.109375 50.5625 29.59375 
Q 53.5625 26.078125 56.59375 19.921875 
L 66.609375 0 
L 56 0 
L 46.6875 18.703125 
Q 43.0625 26.03125 39.671875 28.421875 
Q 36.28125 30.8125 30.421875 30.8125 
L 19.671875 30.8125 
L 19.671875 0 
L 9.8125 0 
L 9.8125 72.90625 
L 32.078125 72.90625 
Q 44.578125 72.90625 50.734375 67.671875 
Q 56.890625 62.453125 56.890625 51.90625 
Q 56.890625 45.015625 53.6875 40.46875 
Q 50.484375 35.9375 44.390625 34.1875 
z
M 19.671875 64.796875 
L 19.671875 38.921875 
L 32.078125 38.921875 
Q 39.203125 38.921875 42.84375 42.21875 
Q 46.484375 45.515625 46.484375 51.90625 
Q 46.484375 58.296875 42.84375 61.546875 
Q 39.203125 64.796875 32.078125 64.796875 
z
" id="DejaVuSans-82"/>
    </defs>
    <g transform="translate(607.984063 117.59)scale(0.2 -0.2)">
     <use xlink:href="#DejaVuSans-76"/>
     <use x="53.962891" xlink:href="#DejaVuSans-111"/>
     <use x="115.144531" xlink:href="#DejaVuSans-103"/>
     <use x="178.621094" xlink:href="#DejaVuSans-97"/>
     <use x="239.900391" xlink:href="#DejaVuSans-114"/>
     <use x="281.013672" xlink:href="#DejaVuSans-105"/>
     <use x="308.796875" xlink:href="#DejaVuSans-116"/>
     <use x="348.005859" xlink:href="#DejaVuSans-104"/>
     <use x="411.384766" xlink:href="#DejaVuSans-109"/>
     <use x="508.796875" xlink:href="#DejaVuSans-105"/>
     <use x="536.580078" xlink:href="#DejaVuSans-99"/>
     <use x="591.560547" xlink:href="#DejaVuSans-32"/>
     <use x="623.347656" xlink:href="#DejaVuSans-71"/>
     <use x="700.837891" xlink:href="#DejaVuSans-114"/>
     <use x="739.701172" xlink:href="#DejaVuSans-111"/>
     <use x="800.882812" xlink:href="#DejaVuSans-119"/>
     <use x="882.669922" xlink:href="#DejaVuSans-116"/>
     <use x="921.878906" xlink:href="#DejaVuSans-104"/>
     <use x="985.257812" xlink:href="#DejaVuSans-32"/>
     <use x="1017.044922" xlink:href="#DejaVuSans-82"/>
     <use x="1084.277344" xlink:href="#DejaVuSans-97"/>
     <use x="1145.556641" xlink:href="#DejaVuSans-116"/>
     <use x="1184.765625" xlink:href="#DejaVuSans-101"/>
    </g>
   </g>
  </g>
  <g id="axes_3">
   <g id="patch_12">
    <path d="M 83.454375 612.04 
L 425.766875 612.04 
L 425.766875 419.19 
L 83.454375 419.19 
z
" style="fill:#ffffff;"/>
   </g>
   <g id="matplotlib.axis_5">
    <g id="xtick_13">
     <g id="line2d_45">
      <path clip-path="url(#p34b35a81dd)" d="M 83.454375 612.04 
L 83.454375 419.19 
" style="fill:none;stroke:#000000;stroke-linecap:square;stroke-opacity:0.2;stroke-width:0.5;"/>
     </g>
     <g id="line2d_46">
      <g>
       <use style="stroke:#000000;stroke-width:0.8;" x="83.454375" xlink:href="#m8c23c734aa" y="612.04"/>
      </g>
     </g>
     <g id="text_23">
      <!-- 05 -->
      <g transform="translate(75.819375 628.158125)scale(0.12 -0.12)">
       <use xlink:href="#DejaVuSans-48"/>
       <use x="63.623047" xlink:href="#DejaVuSans-53"/>
      </g>
      <!-- May -->
      <g transform="translate(71.049375 641.5955)scale(0.12 -0.12)">
       <use xlink:href="#DejaVuSans-77"/>
       <use x="86.279297" xlink:href="#DejaVuSans-97"/>
       <use x="147.558594" xlink:href="#DejaVuSans-121"/>
      </g>
      <!-- 2020 -->
      <g transform="translate(68.184375 655.032875)scale(0.12 -0.12)">
       <use xlink:href="#DejaVuSans-50"/>
       <use x="63.623047" xlink:href="#DejaVuSans-48"/>
       <use x="127.246094" xlink:href="#DejaVuSans-50"/>
       <use x="190.869141" xlink:href="#DejaVuSans-48"/>
      </g>
     </g>
    </g>
    <g id="xtick_14">
     <g id="line2d_47">
      <path clip-path="url(#p34b35a81dd)" d="M 425.766875 612.04 
L 425.766875 419.19 
" style="fill:none;stroke:#000000;stroke-linecap:square;stroke-opacity:0.2;stroke-width:0.5;"/>
     </g>
     <g id="line2d_48">
      <g>
       <use style="stroke:#000000;stroke-width:0.8;" x="425.766875" xlink:href="#m8c23c734aa" y="612.04"/>
      </g>
     </g>
     <g id="text_24">
      <!-- 10 -->
      <g transform="translate(418.131875 628.158125)scale(0.12 -0.12)">
       <use xlink:href="#DejaVuSans-49"/>
       <use x="63.623047" xlink:href="#DejaVuSans-48"/>
      </g>
     </g>
    </g>
    <g id="xtick_15">
     <g id="line2d_49">
      <g>
       <use style="stroke:#000000;stroke-width:0.6;" x="151.916875" xlink:href="#m48101f697e" y="612.04"/>
      </g>
     </g>
     <g id="text_25">
      <!-- 06 -->
      <g transform="translate(144.281875 626.558125)scale(0.12 -0.12)">
       <use xlink:href="#DejaVuSans-48"/>
       <use x="63.623047" xlink:href="#DejaVuSans-54"/>
      </g>
     </g>
    </g>
    <g id="xtick_16">
     <g id="line2d_50">
      <g>
       <use style="stroke:#000000;stroke-width:0.6;" x="220.379375" xlink:href="#m48101f697e" y="612.04"/>
      </g>
     </g>
     <g id="text_26">
      <!-- 07 -->
      <g transform="translate(212.744375 626.558125)scale(0.12 -0.12)">
       <use xlink:href="#DejaVuSans-48"/>
       <use x="63.623047" xlink:href="#DejaVuSans-55"/>
      </g>
     </g>
    </g>
    <g id="xtick_17">
     <g id="line2d_51">
      <g>
       <use style="stroke:#000000;stroke-width:0.6;" x="288.841875" xlink:href="#m48101f697e" y="612.04"/>
      </g>
     </g>
     <g id="text_27">
      <!-- 08 -->
      <g transform="translate(281.206875 626.558125)scale(0.12 -0.12)">
       <use xlink:href="#DejaVuSans-48"/>
       <use x="63.623047" xlink:href="#DejaVuSans-56"/>
      </g>
     </g>
    </g>
    <g id="xtick_18">
     <g id="line2d_52">
      <g>
       <use style="stroke:#000000;stroke-width:0.6;" x="357.304375" xlink:href="#m48101f697e" y="612.04"/>
      </g>
     </g>
     <g id="text_28">
      <!-- 09 -->
      <g transform="translate(349.669375 626.558125)scale(0.12 -0.12)">
       <use xlink:href="#DejaVuSans-48"/>
       <use x="63.623047" xlink:href="#DejaVuSans-57"/>
      </g>
     </g>
    </g>
   </g>
   <g id="matplotlib.axis_6">
    <g id="ytick_13">
     <g id="line2d_53">
      <path clip-path="url(#p34b35a81dd)" d="M 83.454375 603.274091 
L 425.766875 603.274091 
" style="fill:none;stroke:#000000;stroke-linecap:square;stroke-opacity:0.2;stroke-width:0.5;"/>
     </g>
     <g id="line2d_54">
      <g>
       <use style="stroke:#000000;stroke-width:0.8;" x="83.454375" xlink:href="#m2e5988dda7" y="603.274091"/>
      </g>
     </g>
     <g id="text_29">
      <!-- 20 -->
      <g transform="translate(61.184375 607.833153)scale(0.12 -0.12)">
       <use xlink:href="#DejaVuSans-50"/>
       <use x="63.623047" xlink:href="#DejaVuSans-48"/>
      </g>
     </g>
    </g>
    <g id="ytick_14">
     <g id="line2d_55">
      <path clip-path="url(#p34b35a81dd)" d="M 83.454375 576.507956 
L 425.766875 576.507956 
" style="fill:none;stroke:#000000;stroke-linecap:square;stroke-opacity:0.2;stroke-width:0.5;"/>
     </g>
     <g id="line2d_56">
      <g>
       <use style="stroke:#000000;stroke-width:0.8;" x="83.454375" xlink:href="#m2e5988dda7" y="576.507956"/>
      </g>
     </g>
     <g id="text_30">
      <!-- 40 -->
      <g transform="translate(61.184375 581.067019)scale(0.12 -0.12)">
       <use xlink:href="#DejaVuSans-52"/>
       <use x="63.623047" xlink:href="#DejaVuSans-48"/>
      </g>
     </g>
    </g>
    <g id="ytick_15">
     <g id="line2d_57">
      <path clip-path="url(#p34b35a81dd)" d="M 83.454375 549.741822 
L 425.766875 549.741822 
" style="fill:none;stroke:#000000;stroke-linecap:square;stroke-opacity:0.2;stroke-width:0.5;"/>
     </g>
     <g id="line2d_58">
      <g>
       <use style="stroke:#000000;stroke-width:0.8;" x="83.454375" xlink:href="#m2e5988dda7" y="549.741822"/>
      </g>
     </g>
     <g id="text_31">
      <!-- 60 -->
      <g transform="translate(61.184375 554.300884)scale(0.12 -0.12)">
       <use xlink:href="#DejaVuSans-54"/>
       <use x="63.623047" xlink:href="#DejaVuSans-48"/>
      </g>
     </g>
    </g>
    <g id="ytick_16">
     <g id="line2d_59">
      <path clip-path="url(#p34b35a81dd)" d="M 83.454375 522.975687 
L 425.766875 522.975687 
" style="fill:none;stroke:#000000;stroke-linecap:square;stroke-opacity:0.2;stroke-width:0.5;"/>
     </g>
     <g id="line2d_60">
      <g>
       <use style="stroke:#000000;stroke-width:0.8;" x="83.454375" xlink:href="#m2e5988dda7" y="522.975687"/>
      </g>
     </g>
     <g id="text_32">
      <!-- 80 -->
      <g transform="translate(61.184375 527.53475)scale(0.12 -0.12)">
       <use xlink:href="#DejaVuSans-56"/>
       <use x="63.623047" xlink:href="#DejaVuSans-48"/>
      </g>
     </g>
    </g>
    <g id="ytick_17">
     <g id="line2d_61">
      <path clip-path="url(#p34b35a81dd)" d="M 83.454375 496.209552 
L 425.766875 496.209552 
" style="fill:none;stroke:#000000;stroke-linecap:square;stroke-opacity:0.2;stroke-width:0.5;"/>
     </g>
     <g id="line2d_62">
      <g>
       <use style="stroke:#000000;stroke-width:0.8;" x="83.454375" xlink:href="#m2e5988dda7" y="496.209552"/>
      </g>
     </g>
     <g id="text_33">
      <!-- 100 -->
      <g transform="translate(53.549375 500.768615)scale(0.12 -0.12)">
       <use xlink:href="#DejaVuSans-49"/>
       <use x="63.623047" xlink:href="#DejaVuSans-48"/>
       <use x="127.246094" xlink:href="#DejaVuSans-48"/>
      </g>
     </g>
    </g>
    <g id="ytick_18">
     <g id="line2d_63">
      <path clip-path="url(#p34b35a81dd)" d="M 83.454375 469.443418 
L 425.766875 469.443418 
" style="fill:none;stroke:#000000;stroke-linecap:square;stroke-opacity:0.2;stroke-width:0.5;"/>
     </g>
     <g id="line2d_64">
      <g>
       <use style="stroke:#000000;stroke-width:0.8;" x="83.454375" xlink:href="#m2e5988dda7" y="469.443418"/>
      </g>
     </g>
     <g id="text_34">
      <!-- 120 -->
      <g transform="translate(53.549375 474.00248)scale(0.12 -0.12)">
       <use xlink:href="#DejaVuSans-49"/>
       <use x="63.623047" xlink:href="#DejaVuSans-50"/>
       <use x="127.246094" xlink:href="#DejaVuSans-48"/>
      </g>
     </g>
    </g>
    <g id="ytick_19">
     <g id="line2d_65">
      <path clip-path="url(#p34b35a81dd)" d="M 83.454375 442.677283 
L 425.766875 442.677283 
" style="fill:none;stroke:#000000;stroke-linecap:square;stroke-opacity:0.2;stroke-width:0.5;"/>
     </g>
     <g id="line2d_66">
      <g>
       <use style="stroke:#000000;stroke-width:0.8;" x="83.454375" xlink:href="#m2e5988dda7" y="442.677283"/>
      </g>
     </g>
     <g id="text_35">
      <!-- 140 -->
      <g transform="translate(53.549375 447.236346)scale(0.12 -0.12)">
       <use xlink:href="#DejaVuSans-49"/>
       <use x="63.623047" xlink:href="#DejaVuSans-52"/>
       <use x="127.246094" xlink:href="#DejaVuSans-48"/>
      </g>
     </g>
    </g>
    <g id="text_36">
     <!-- Cases -->
     <g transform="translate(46.637812 536.392969)rotate(-90)scale(0.14 -0.14)">
      <use xlink:href="#DejaVuSans-67"/>
      <use x="69.824219" xlink:href="#DejaVuSans-97"/>
      <use x="131.103516" xlink:href="#DejaVuSans-115"/>
      <use x="183.203125" xlink:href="#DejaVuSans-101"/>
      <use x="244.726562" xlink:href="#DejaVuSans-115"/>
     </g>
    </g>
   </g>
   <g id="line2d_67">
    <path clip-path="url(#p34b35a81dd)" d="M 83.454375 603.274091 
L 151.916875 600.597477 
L 220.379375 599.259171 
L 288.841875 544.388595 
L 357.304375 474.796645 
L 425.766875 427.955909 
" style="fill:none;stroke:#1f77b4;stroke-linecap:square;stroke-width:3;"/>
   </g>
   <g id="patch_13">
    <path d="M 83.454375 612.04 
L 83.454375 419.19 
" style="fill:none;stroke:#000000;stroke-linecap:square;stroke-linejoin:miter;"/>
   </g>
   <g id="patch_14">
    <path d="M 425.766875 612.04 
L 425.766875 419.19 
" style="fill:none;stroke:#000000;stroke-linecap:square;stroke-linejoin:miter;"/>
   </g>
   <g id="patch_15">
    <path d="M 83.454375 612.04 
L 425.766875 612.04 
" style="fill:none;stroke:#000000;stroke-linecap:square;stroke-linejoin:miter;"/>
   </g>
   <g id="patch_16">
    <path d="M 83.454375 419.19 
L 425.766875 419.19 
" style="fill:none;stroke:#000000;stroke-linecap:square;stroke-linejoin:miter;"/>
   </g>
   <g id="text_37">
    <!-- Cumulative Cases -->
    <defs>
     <path d="M 8.5 21.578125 
L 8.5 54.6875 
L 17.484375 54.6875 
L 17.484375 21.921875 
Q 17.484375 14.15625 20.5 10.265625 
Q 23.53125 6.390625 29.59375 6.390625 
Q 36.859375 6.390625 41.078125 11.03125 
Q 45.3125 15.671875 45.3125 23.6875 
L 45.3125 54.6875 
L 54.296875 54.6875 
L 54.296875 0 
L 45.3125 0 
L 45.3125 8.40625 
Q 42.046875 3.421875 37.71875 1 
Q 33.40625 -1.421875 27.6875 -1.421875 
Q 18.265625 -1.421875 13.375 4.4375 
Q 8.5 10.296875 8.5 21.578125 
z
M 31.109375 56 
z
" id="DejaVuSans-117"/>
     <path d="M 2.984375 54.6875 
L 12.5 54.6875 
L 29.59375 8.796875 
L 46.6875 54.6875 
L 56.203125 54.6875 
L 35.6875 0 
L 23.484375 0 
z
" id="DejaVuSans-118"/>
    </defs>
    <g transform="translate(164.674688 404.19)scale(0.2 -0.2)">
     <use xlink:href="#DejaVuSans-67"/>
     <use x="69.824219" xlink:href="#DejaVuSans-117"/>
     <use x="133.203125" xlink:href="#DejaVuSans-109"/>
     <use x="230.615234" xlink:href="#DejaVuSans-117"/>
     <use x="293.994141" xlink:href="#DejaVuSans-108"/>
     <use x="321.777344" xlink:href="#DejaVuSans-97"/>
     <use x="383.056641" xlink:href="#DejaVuSans-116"/>
     <use x="422.265625" xlink:href="#DejaVuSans-105"/>
     <use x="450.048828" xlink:href="#DejaVuSans-118"/>
     <use x="509.228516" xlink:href="#DejaVuSans-101"/>
     <use x="570.751953" xlink:href="#DejaVuSans-32"/>
     <use x="602.539062" xlink:href="#DejaVuSans-67"/>
     <use x="672.363281" xlink:href="#DejaVuSans-97"/>
     <use x="733.642578" xlink:href="#DejaVuSans-115"/>
     <use x="785.742188" xlink:href="#DejaVuSans-101"/>
     <use x="847.265625" xlink:href="#DejaVuSans-115"/>
    </g>
   </g>
  </g>
  <g id="axes_4">
   <g id="patch_17">
    <path d="M 561.454375 612.04 
L 903.766875 612.04 
L 903.766875 419.19 
L 561.454375 419.19 
z
" style="fill:#ffffff;"/>
   </g>
   <g id="PolyCollection_1">
    <path clip-path="url(#p3a59463c78)" d="M 561.454375 444.479784 
L 561.454375 452.484015 
L 629.916875 447.887945 
L 698.379375 443.96437 
L 766.841875 443.892879 
L 835.304375 447.359443 
L 903.766875 451.16307 
L 903.766875 443.158839 
L 903.766875 443.158839 
L 835.304375 439.355213 
L 766.841875 435.888648 
L 698.379375 433.959082 
L 629.916875 439.883714 
L 561.454375 444.479784 
z
" style="fill-opacity:0.2;"/>
   </g>
   <g id="PolyCollection_2">
    <path clip-path="url(#p3a59463c78)" d="M 561.454375 440.477669 
L 561.454375 456.48613 
L 629.916875 451.89006 
L 698.379375 447.966485 
L 766.841875 447.894994 
L 835.304375 451.361558 
L 903.766875 455.165185 
L 903.766875 439.156724 
L 903.766875 439.156724 
L 835.304375 435.353097 
L 766.841875 431.886533 
L 698.379375 427.955909 
L 629.916875 435.881599 
L 561.454375 440.477669 
z
" style="fill-opacity:0.1;"/>
   </g>
   <g id="matplotlib.axis_7">
    <g id="xtick_19">
     <g id="line2d_68">
      <path clip-path="url(#p3a59463c78)" d="M 561.454375 612.04 
L 561.454375 419.19 
" style="fill:none;stroke:#000000;stroke-linecap:square;stroke-opacity:0.2;stroke-width:0.5;"/>
     </g>
     <g id="line2d_69">
      <g>
       <use style="stroke:#000000;stroke-width:0.8;" x="561.454375" xlink:href="#m8c23c734aa" y="612.04"/>
      </g>
     </g>
     <g id="text_38">
      <!-- 05 -->
      <g transform="translate(553.819375 628.158125)scale(0.12 -0.12)">
       <use xlink:href="#DejaVuSans-48"/>
       <use x="63.623047" xlink:href="#DejaVuSans-53"/>
      </g>
      <!-- May -->
      <g transform="translate(549.049375 641.5955)scale(0.12 -0.12)">
       <use xlink:href="#DejaVuSans-77"/>
       <use x="86.279297" xlink:href="#DejaVuSans-97"/>
       <use x="147.558594" xlink:href="#DejaVuSans-121"/>
      </g>
      <!-- 2020 -->
      <g transform="translate(546.184375 655.032875)scale(0.12 -0.12)">
       <use xlink:href="#DejaVuSans-50"/>
       <use x="63.623047" xlink:href="#DejaVuSans-48"/>
       <use x="127.246094" xlink:href="#DejaVuSans-50"/>
       <use x="190.869141" xlink:href="#DejaVuSans-48"/>
      </g>
     </g>
    </g>
    <g id="xtick_20">
     <g id="line2d_70">
      <path clip-path="url(#p3a59463c78)" d="M 903.766875 612.04 
L 903.766875 419.19 
" style="fill:none;stroke:#000000;stroke-linecap:square;stroke-opacity:0.2;stroke-width:0.5;"/>
     </g>
     <g id="line2d_71">
      <g>
       <use style="stroke:#000000;stroke-width:0.8;" x="903.766875" xlink:href="#m8c23c734aa" y="612.04"/>
      </g>
     </g>
     <g id="text_39">
      <!-- 10 -->
      <g transform="translate(896.131875 628.158125)scale(0.12 -0.12)">
       <use xlink:href="#DejaVuSans-49"/>
       <use x="63.623047" xlink:href="#DejaVuSans-48"/>
      </g>
     </g>
    </g>
    <g id="xtick_21">
     <g id="line2d_72">
      <g>
       <use style="stroke:#000000;stroke-width:0.6;" x="629.916875" xlink:href="#m48101f697e" y="612.04"/>
      </g>
     </g>
     <g id="text_40">
      <!-- 06 -->
      <g transform="translate(622.281875 626.558125)scale(0.12 -0.12)">
       <use xlink:href="#DejaVuSans-48"/>
       <use x="63.623047" xlink:href="#DejaVuSans-54"/>
      </g>
     </g>
    </g>
    <g id="xtick_22">
     <g id="line2d_73">
      <g>
       <use style="stroke:#000000;stroke-width:0.6;" x="698.379375" xlink:href="#m48101f697e" y="612.04"/>
      </g>
     </g>
     <g id="text_41">
      <!-- 07 -->
      <g transform="translate(690.744375 626.558125)scale(0.12 -0.12)">
       <use xlink:href="#DejaVuSans-48"/>
       <use x="63.623047" xlink:href="#DejaVuSans-55"/>
      </g>
     </g>
    </g>
    <g id="xtick_23">
     <g id="line2d_74">
      <g>
       <use style="stroke:#000000;stroke-width:0.6;" x="766.841875" xlink:href="#m48101f697e" y="612.04"/>
      </g>
     </g>
     <g id="text_42">
      <!-- 08 -->
      <g transform="translate(759.206875 626.558125)scale(0.12 -0.12)">
       <use xlink:href="#DejaVuSans-48"/>
       <use x="63.623047" xlink:href="#DejaVuSans-56"/>
      </g>
     </g>
    </g>
    <g id="xtick_24">
     <g id="line2d_75">
      <g>
       <use style="stroke:#000000;stroke-width:0.6;" x="835.304375" xlink:href="#m48101f697e" y="612.04"/>
      </g>
     </g>
     <g id="text_43">
      <!-- 09 -->
      <g transform="translate(827.669375 626.558125)scale(0.12 -0.12)">
       <use xlink:href="#DejaVuSans-48"/>
       <use x="63.623047" xlink:href="#DejaVuSans-57"/>
      </g>
     </g>
    </g>
   </g>
   <g id="matplotlib.axis_8">
    <g id="ytick_20">
     <g id="line2d_76">
      <path clip-path="url(#p3a59463c78)" d="M 561.454375 603.274091 
L 903.766875 603.274091 
" style="fill:none;stroke:#000000;stroke-linecap:square;stroke-opacity:0.2;stroke-width:0.5;"/>
     </g>
     <g id="line2d_77">
      <g>
       <use style="stroke:#000000;stroke-width:0.8;" x="561.454375" xlink:href="#m2e5988dda7" y="603.274091"/>
      </g>
     </g>
     <g id="text_44">
      <!-- 1.0 -->
      <g transform="translate(535.370625 607.833153)scale(0.12 -0.12)">
       <use xlink:href="#DejaVuSans-49"/>
       <use x="63.623047" xlink:href="#DejaVuSans-46"/>
       <use x="95.410156" xlink:href="#DejaVuSans-48"/>
      </g>
     </g>
    </g>
    <g id="ytick_21">
     <g id="line2d_78">
      <path clip-path="url(#p3a59463c78)" d="M 561.454375 563.252939 
L 903.766875 563.252939 
" style="fill:none;stroke:#000000;stroke-linecap:square;stroke-opacity:0.2;stroke-width:0.5;"/>
     </g>
     <g id="line2d_79">
      <g>
       <use style="stroke:#000000;stroke-width:0.8;" x="561.454375" xlink:href="#m2e5988dda7" y="563.252939"/>
      </g>
     </g>
     <g id="text_45">
      <!-- 1.5 -->
      <g transform="translate(535.370625 567.812002)scale(0.12 -0.12)">
       <use xlink:href="#DejaVuSans-49"/>
       <use x="63.623047" xlink:href="#DejaVuSans-46"/>
       <use x="95.410156" xlink:href="#DejaVuSans-53"/>
      </g>
     </g>
    </g>
    <g id="ytick_22">
     <g id="line2d_80">
      <path clip-path="url(#p3a59463c78)" d="M 561.454375 523.231788 
L 903.766875 523.231788 
" style="fill:none;stroke:#000000;stroke-linecap:square;stroke-opacity:0.2;stroke-width:0.5;"/>
     </g>
     <g id="line2d_81">
      <g>
       <use style="stroke:#000000;stroke-width:0.8;" x="561.454375" xlink:href="#m2e5988dda7" y="523.231788"/>
      </g>
     </g>
     <g id="text_46">
      <!-- 2.0 -->
      <g transform="translate(535.370625 527.79085)scale(0.12 -0.12)">
       <use xlink:href="#DejaVuSans-50"/>
       <use x="63.623047" xlink:href="#DejaVuSans-46"/>
       <use x="95.410156" xlink:href="#DejaVuSans-48"/>
      </g>
     </g>
    </g>
    <g id="ytick_23">
     <g id="line2d_82">
      <path clip-path="url(#p3a59463c78)" d="M 561.454375 483.210636 
L 903.766875 483.210636 
" style="fill:none;stroke:#000000;stroke-linecap:square;stroke-opacity:0.2;stroke-width:0.5;"/>
     </g>
     <g id="line2d_83">
      <g>
       <use style="stroke:#000000;stroke-width:0.8;" x="561.454375" xlink:href="#m2e5988dda7" y="483.210636"/>
      </g>
     </g>
     <g id="text_47">
      <!-- 2.5 -->
      <g transform="translate(535.370625 487.769698)scale(0.12 -0.12)">
       <use xlink:href="#DejaVuSans-50"/>
       <use x="63.623047" xlink:href="#DejaVuSans-46"/>
       <use x="95.410156" xlink:href="#DejaVuSans-53"/>
      </g>
     </g>
    </g>
    <g id="ytick_24">
     <g id="line2d_84">
      <path clip-path="url(#p3a59463c78)" d="M 561.454375 443.189484 
L 903.766875 443.189484 
" style="fill:none;stroke:#000000;stroke-linecap:square;stroke-opacity:0.2;stroke-width:0.5;"/>
     </g>
     <g id="line2d_85">
      <g>
       <use style="stroke:#000000;stroke-width:0.8;" x="561.454375" xlink:href="#m2e5988dda7" y="443.189484"/>
      </g>
     </g>
     <g id="text_48">
      <!-- 3.0 -->
      <g transform="translate(535.370625 447.748547)scale(0.12 -0.12)">
       <use xlink:href="#DejaVuSans-51"/>
       <use x="63.623047" xlink:href="#DejaVuSans-46"/>
       <use x="95.410156" xlink:href="#DejaVuSans-48"/>
      </g>
     </g>
    </g>
    <g id="text_49">
     <!-- $R_e$ -->
     <defs>
      <path d="M 25.203125 64.796875 
L 20.21875 38.921875 
L 32.90625 38.921875 
Q 40.375 38.921875 44.984375 43.046875 
Q 49.609375 47.171875 49.609375 53.8125 
Q 49.609375 59.125 46.5 61.953125 
Q 43.40625 64.796875 37.59375 64.796875 
z
M 43.3125 35.015625 
Q 46.4375 34.28125 48.515625 31.390625 
Q 50.59375 28.515625 53.328125 19.921875 
L 59.515625 0 
L 49.125 0 
L 43.40625 18.703125 
Q 41.21875 25.921875 38.328125 28.359375 
Q 35.453125 30.8125 29.5 30.8125 
L 18.609375 30.8125 
L 12.59375 0 
L 2.6875 0 
L 16.890625 72.90625 
L 39.109375 72.90625 
Q 49.21875 72.90625 54.609375 68.328125 
Q 60.015625 63.765625 60.015625 55.171875 
Q 60.015625 47.5625 55.421875 41.984375 
Q 50.828125 36.421875 43.3125 35.015625 
z
" id="DejaVuSans-Oblique-82"/>
      <path d="M 48.09375 32.234375 
Q 48.25 33.015625 48.3125 33.84375 
Q 48.390625 34.671875 48.390625 35.5 
Q 48.390625 41.453125 44.890625 44.921875 
Q 41.40625 48.390625 35.40625 48.390625 
Q 28.71875 48.390625 23.578125 44.15625 
Q 18.453125 39.9375 15.828125 32.171875 
z
M 55.90625 25.203125 
L 14.109375 25.203125 
Q 13.8125 23.34375 13.71875 22.265625 
Q 13.625 21.1875 13.625 20.40625 
Q 13.625 13.625 17.796875 9.90625 
Q 21.96875 6.203125 29.59375 6.203125 
Q 35.453125 6.203125 40.671875 7.515625 
Q 45.90625 8.84375 50.390625 11.375 
L 48.6875 2.484375 
Q 43.84375 0.53125 38.6875 -0.4375 
Q 33.546875 -1.421875 28.21875 -1.421875 
Q 16.84375 -1.421875 10.71875 4.015625 
Q 4.59375 9.46875 4.59375 19.484375 
Q 4.59375 28.03125 7.640625 35.375 
Q 10.6875 42.71875 16.609375 48.484375 
Q 20.40625 52.09375 25.65625 54.046875 
Q 30.90625 56 36.8125 56 
Q 46.09375 56 51.578125 50.4375 
Q 57.078125 44.875 57.078125 35.5 
Q 57.078125 33.25 56.78125 30.6875 
Q 56.5 28.125 55.90625 25.203125 
z
" id="DejaVuSans-Oblique-101"/>
     </defs>
     <g transform="translate(528.459063 523.735)rotate(-90)scale(0.14 -0.14)">
      <use transform="translate(0 0.09375)" xlink:href="#DejaVuSans-Oblique-82"/>
      <use transform="translate(69.482422 -16.3125)scale(0.7)" xlink:href="#DejaVuSans-Oblique-101"/>
     </g>
    </g>
   </g>
   <g id="line2d_86">
    <path clip-path="url(#p3a59463c78)" d="M 561.454375 448.481899 
L 629.916875 443.885829 
L 698.379375 439.962255 
L 766.841875 439.890763 
L 835.304375 443.357328 
L 903.766875 447.160955 
" style="fill:none;stroke:#1f77b4;stroke-linecap:square;stroke-opacity:0;stroke-width:1.5;"/>
   </g>
   <g id="line2d_87">
    <path clip-path="url(#p3a59463c78)" d="M 561.454375 448.481899 
L 567.159583 448.098894 
L 572.864792 447.715888 
L 578.57 447.332882 
L 584.275208 446.949876 
L 589.980417 446.56687 
L 595.685625 446.183864 
L 601.390833 445.800859 
L 607.096042 445.417853 
L 612.80125 445.034847 
L 618.506458 444.651841 
L 624.211667 444.268835 
L 629.916875 443.885829 
L 635.622083 443.558865 
L 641.327292 443.2319 
L 647.0325 442.904936 
L 652.737708 442.577971 
L 658.442917 442.251007 
L 664.148125 441.924042 
L 669.853333 441.597077 
L 675.558542 441.270113 
L 681.26375 440.943148 
L 686.968958 440.616184 
L 692.674167 440.289219 
L 698.379375 439.962255 
L 704.084583 439.956297 
L 709.789792 439.950339 
L 715.495 439.944382 
L 721.200208 439.938424 
L 726.905417 439.932467 
L 732.610625 439.926509 
L 738.315833 439.920551 
L 744.021042 439.914594 
L 749.72625 439.908636 
L 755.431458 439.902679 
L 761.136667 439.896721 
L 766.841875 439.890763 
L 772.547083 440.179644 
L 778.252292 440.468524 
L 783.9575 440.757404 
L 789.662708 441.046285 
L 795.367917 441.335165 
L 801.073125 441.624046 
L 806.778333 441.912926 
L 812.483542 442.201806 
L 818.18875 442.490687 
L 823.893958 442.779567 
L 829.599167 443.068447 
L 835.304375 443.357328 
L 841.009583 443.674297 
L 846.714792 443.991266 
L 852.42 444.308234 
L 858.125208 444.625203 
L 863.830417 444.942172 
L 869.535625 445.259141 
L 875.240833 445.57611 
L 880.946042 445.893079 
L 886.65125 446.210048 
L 892.356458 446.527017 
L 898.061667 446.843986 
L 903.766875 447.160955 
" style="fill:none;stroke:#ae0868;stroke-linecap:square;stroke-width:3;"/>
   </g>
   <g id="line2d_88">
    <path clip-path="url(#p3a59463c78)" d="M 561.454375 603.274091 
L 903.766875 603.274091 
" style="fill:none;stroke:#000000;stroke-linecap:square;stroke-opacity:0.4;stroke-width:2;"/>
   </g>
   <g id="patch_18">
    <path d="M 561.454375 612.04 
L 561.454375 419.19 
" style="fill:none;stroke:#000000;stroke-linecap:square;stroke-linejoin:miter;"/>
   </g>
   <g id="patch_19">
    <path d="M 903.766875 612.04 
L 903.766875 419.19 
" style="fill:none;stroke:#000000;stroke-linecap:square;stroke-linejoin:miter;"/>
   </g>
   <g id="patch_20">
    <path d="M 561.454375 612.04 
L 903.766875 612.04 
" style="fill:none;stroke:#000000;stroke-linecap:square;stroke-linejoin:miter;"/>
   </g>
   <g id="patch_21">
    <path d="M 561.454375 419.19 
L 903.766875 419.19 
" style="fill:none;stroke:#000000;stroke-linecap:square;stroke-linejoin:miter;"/>
   </g>
   <g id="text_50">
    <!-- Cerner Reopening Risk Index and $R_e$ -->
    <defs>
     <path d="M 54.890625 33.015625 
L 54.890625 0 
L 45.90625 0 
L 45.90625 32.71875 
Q 45.90625 40.484375 42.875 44.328125 
Q 39.84375 48.1875 33.796875 48.1875 
Q 26.515625 48.1875 22.3125 43.546875 
Q 18.109375 38.921875 18.109375 30.90625 
L 18.109375 0 
L 9.078125 0 
L 9.078125 54.6875 
L 18.109375 54.6875 
L 18.109375 46.1875 
Q 21.34375 51.125 25.703125 53.5625 
Q 30.078125 56 35.796875 56 
Q 45.21875 56 50.046875 50.171875 
Q 54.890625 44.34375 54.890625 33.015625 
z
" id="DejaVuSans-110"/>
     <path d="M 18.109375 8.203125 
L 18.109375 -20.796875 
L 9.078125 -20.796875 
L 9.078125 54.6875 
L 18.109375 54.6875 
L 18.109375 46.390625 
Q 20.953125 51.265625 25.265625 53.625 
Q 29.59375 56 35.59375 56 
Q 45.5625 56 51.78125 48.09375 
Q 58.015625 40.1875 58.015625 27.296875 
Q 58.015625 14.40625 51.78125 6.484375 
Q 45.5625 -1.421875 35.59375 -1.421875 
Q 29.59375 -1.421875 25.265625 0.953125 
Q 20.953125 3.328125 18.109375 8.203125 
z
M 48.6875 27.296875 
Q 48.6875 37.203125 44.609375 42.84375 
Q 40.53125 48.484375 33.40625 48.484375 
Q 26.265625 48.484375 22.1875 42.84375 
Q 18.109375 37.203125 18.109375 27.296875 
Q 18.109375 17.390625 22.1875 11.75 
Q 26.265625 6.109375 33.40625 6.109375 
Q 40.53125 6.109375 44.609375 11.75 
Q 48.6875 17.390625 48.6875 27.296875 
z
" id="DejaVuSans-112"/>
     <path d="M 9.078125 75.984375 
L 18.109375 75.984375 
L 18.109375 31.109375 
L 44.921875 54.6875 
L 56.390625 54.6875 
L 27.390625 29.109375 
L 57.625 0 
L 45.90625 0 
L 18.109375 26.703125 
L 18.109375 0 
L 9.078125 0 
z
" id="DejaVuSans-107"/>
     <path d="M 9.8125 72.90625 
L 19.671875 72.90625 
L 19.671875 0 
L 9.8125 0 
z
" id="DejaVuSans-73"/>
     <path d="M 45.40625 46.390625 
L 45.40625 75.984375 
L 54.390625 75.984375 
L 54.390625 0 
L 45.40625 0 
L 45.40625 8.203125 
Q 42.578125 3.328125 38.25 0.953125 
Q 33.9375 -1.421875 27.875 -1.421875 
Q 17.96875 -1.421875 11.734375 6.484375 
Q 5.515625 14.40625 5.515625 27.296875 
Q 5.515625 40.1875 11.734375 48.09375 
Q 17.96875 56 27.875 56 
Q 33.9375 56 38.25 53.625 
Q 42.578125 51.265625 45.40625 46.390625 
z
M 14.796875 27.296875 
Q 14.796875 17.390625 18.875 11.75 
Q 22.953125 6.109375 30.078125 6.109375 
Q 37.203125 6.109375 41.296875 11.75 
Q 45.40625 17.390625 45.40625 27.296875 
Q 45.40625 37.203125 41.296875 42.84375 
Q 37.203125 48.484375 30.078125 48.484375 
Q 22.953125 48.484375 18.875 42.84375 
Q 14.796875 37.203125 14.796875 27.296875 
z
" id="DejaVuSans-100"/>
     <path d="M 54.890625 54.6875 
L 35.109375 28.078125 
L 55.90625 0 
L 45.3125 0 
L 29.390625 21.484375 
L 13.484375 0 
L 2.875 0 
L 24.125 28.609375 
L 4.6875 54.6875 
L 15.28125 54.6875 
L 29.78125 35.203125 
L 44.28125 54.6875 
z
" id="DejaVuSans-120"/>
    </defs>
    <g transform="translate(550.510625 404.19)scale(0.2 -0.2)">
     <use transform="translate(0 0.015625)" xlink:href="#DejaVuSans-67"/>
     <use transform="translate(69.824219 0.015625)" xlink:href="#DejaVuSans-101"/>
     <use transform="translate(131.347656 0.015625)" xlink:href="#DejaVuSans-114"/>
     <use transform="translate(172.460938 0.015625)" xlink:href="#DejaVuSans-110"/>
     <use transform="translate(235.839844 0.015625)" xlink:href="#DejaVuSans-101"/>
     <use transform="translate(297.363281 0.015625)" xlink:href="#DejaVuSans-114"/>
     <use transform="translate(338.476562 0.015625)" xlink:href="#DejaVuSans-32"/>
     <use transform="translate(370.263672 0.015625)" xlink:href="#DejaVuSans-82"/>
     <use transform="translate(439.746094 0.015625)" xlink:href="#DejaVuSans-101"/>
     <use transform="translate(501.269531 0.015625)" xlink:href="#DejaVuSans-111"/>
     <use transform="translate(562.451172 0.015625)" xlink:href="#DejaVuSans-112"/>
     <use transform="translate(625.927734 0.015625)" xlink:href="#DejaVuSans-101"/>
     <use transform="translate(687.451172 0.015625)" xlink:href="#DejaVuSans-110"/>
     <use transform="translate(750.830078 0.015625)" xlink:href="#DejaVuSans-105"/>
     <use transform="translate(778.613281 0.015625)" xlink:href="#DejaVuSans-110"/>
     <use transform="translate(841.992188 0.015625)" xlink:href="#DejaVuSans-103"/>
     <use transform="translate(905.46875 0.015625)" xlink:href="#DejaVuSans-32"/>
     <use transform="translate(937.255859 0.015625)" xlink:href="#DejaVuSans-82"/>
     <use transform="translate(1006.738281 0.015625)" xlink:href="#DejaVuSans-105"/>
     <use transform="translate(1034.521484 0.015625)" xlink:href="#DejaVuSans-115"/>
     <use transform="translate(1086.621094 0.015625)" xlink:href="#DejaVuSans-107"/>
     <use transform="translate(1144.53125 0.015625)" xlink:href="#DejaVuSans-32"/>
     <use transform="translate(1176.318359 0.015625)" xlink:href="#DejaVuSans-73"/>
     <use transform="translate(1205.810547 0.015625)" xlink:href="#DejaVuSans-110"/>
     <use transform="translate(1269.189453 0.015625)" xlink:href="#DejaVuSans-100"/>
     <use transform="translate(1332.666016 0.015625)" xlink:href="#DejaVuSans-101"/>
     <use transform="translate(1394.189453 0.015625)" xlink:href="#DejaVuSans-120"/>
     <use transform="translate(1453.369141 0.015625)" xlink:href="#DejaVuSans-32"/>
     <use transform="translate(1485.15625 0.015625)" xlink:href="#DejaVuSans-97"/>
     <use transform="translate(1546.435547 0.015625)" xlink:href="#DejaVuSans-110"/>
     <use transform="translate(1609.814453 0.015625)" xlink:href="#DejaVuSans-100"/>
     <use transform="translate(1673.291016 0.015625)" xlink:href="#DejaVuSans-32"/>
     <use transform="translate(1705.078125 0.015625)" xlink:href="#DejaVuSans-Oblique-82"/>
     <use transform="translate(1774.560547 -16.390625)scale(0.7)" xlink:href="#DejaVuSans-Oblique-101"/>
    </g>
   </g>
   <g id="legend_1">
    <g id="patch_22">
     <path d="M 845.594375 550.4425 
L 898.166875 550.4425 
Q 899.766875 550.4425 899.766875 548.8425 
L 899.766875 482.3875 
Q 899.766875 480.7875 898.166875 480.7875 
L 845.594375 480.7875 
Q 843.994375 480.7875 843.994375 482.3875 
L 843.994375 548.8425 
Q 843.994375 550.4425 845.594375 550.4425 
z
" style="fill:#ffffff;opacity:0.5;stroke:#000000;stroke-linejoin:miter;"/>
    </g>
    <g id="line2d_89">
     <path d="M 845.594375 485.66625 
L 861.594375 485.66625 
" style="fill:none;stroke:#008fe0;stroke-linecap:square;stroke-width:3;"/>
    </g>
    <g id="line2d_90"/>
    <g id="text_51">
     <!-- CRRI 1 -->
     <g transform="translate(867.994375 488.46625)scale(0.08 -0.08)">
      <use xlink:href="#DejaVuSans-67"/>
      <use x="69.824219" xlink:href="#DejaVuSans-82"/>
      <use x="139.306641" xlink:href="#DejaVuSans-82"/>
      <use x="208.789062" xlink:href="#DejaVuSans-73"/>
      <use x="238.28125" xlink:href="#DejaVuSans-32"/>
      <use x="270.068359" xlink:href="#DejaVuSans-49"/>
     </g>
    </g>
    <g id="line2d_91">
     <path d="M 845.594375 497.40875 
L 861.594375 497.40875 
" style="fill:none;stroke:#bc70c7;stroke-linecap:square;stroke-width:3;"/>
    </g>
    <g id="line2d_92"/>
    <g id="text_52">
     <!-- CRRI 2 -->
     <g transform="translate(867.994375 500.20875)scale(0.08 -0.08)">
      <use xlink:href="#DejaVuSans-67"/>
      <use x="69.824219" xlink:href="#DejaVuSans-82"/>
      <use x="139.306641" xlink:href="#DejaVuSans-82"/>
      <use x="208.789062" xlink:href="#DejaVuSans-73"/>
      <use x="238.28125" xlink:href="#DejaVuSans-32"/>
      <use x="270.068359" xlink:href="#DejaVuSans-50"/>
     </g>
    </g>
    <g id="line2d_93">
     <path d="M 845.594375 509.15125 
L 861.594375 509.15125 
" style="fill:none;stroke:#e46511;stroke-linecap:square;stroke-width:3;"/>
    </g>
    <g id="line2d_94"/>
    <g id="text_53">
     <!-- CRRI 3 -->
     <g transform="translate(867.994375 511.95125)scale(0.08 -0.08)">
      <use xlink:href="#DejaVuSans-67"/>
      <use x="69.824219" xlink:href="#DejaVuSans-82"/>
      <use x="139.306641" xlink:href="#DejaVuSans-82"/>
      <use x="208.789062" xlink:href="#DejaVuSans-73"/>
      <use x="238.28125" xlink:href="#DejaVuSans-32"/>
      <use x="270.068359" xlink:href="#DejaVuSans-51"/>
     </g>
    </g>
    <g id="line2d_95">
     <path d="M 845.594375 520.89375 
L 861.594375 520.89375 
" style="fill:none;stroke:#ae0868;stroke-linecap:square;stroke-width:3;"/>
    </g>
    <g id="line2d_96"/>
    <g id="text_54">
     <!-- CRRI 4 -->
     <g transform="translate(867.994375 523.69375)scale(0.08 -0.08)">
      <use xlink:href="#DejaVuSans-67"/>
      <use x="69.824219" xlink:href="#DejaVuSans-82"/>
      <use x="139.306641" xlink:href="#DejaVuSans-82"/>
      <use x="208.789062" xlink:href="#DejaVuSans-73"/>
      <use x="238.28125" xlink:href="#DejaVuSans-32"/>
      <use x="270.068359" xlink:href="#DejaVuSans-52"/>
     </g>
    </g>
    <g id="patch_23">
     <path d="M 845.594375 535.43625 
L 861.594375 535.43625 
L 861.594375 529.83625 
L 845.594375 529.83625 
z
" style="opacity:0.3;"/>
    </g>
    <g id="text_55">
     <!-- 1 Std. -->
     <defs>
      <path d="M 46 62.703125 
L 46 43.796875 
L 73.1875 43.796875 
L 73.1875 35.5 
L 46 35.5 
L 46 16.609375 
L 37.796875 16.609375 
L 37.796875 35.5 
L 10.59375 35.5 
L 10.59375 43.796875 
L 37.796875 43.796875 
L 37.796875 62.703125 
z
M 10.59375 8.296875 
L 73.1875 8.296875 
L 73.1875 0 
L 10.59375 0 
z
" id="DejaVuSans-177"/>
      <path d="M 53.515625 70.515625 
L 53.515625 60.890625 
Q 47.90625 63.578125 42.921875 64.890625 
Q 37.9375 66.21875 33.296875 66.21875 
Q 25.25 66.21875 20.875 63.09375 
Q 16.5 59.96875 16.5 54.203125 
Q 16.5 49.359375 19.40625 46.890625 
Q 22.3125 44.4375 30.421875 42.921875 
L 36.375 41.703125 
Q 47.40625 39.59375 52.65625 34.296875 
Q 57.90625 29 57.90625 20.125 
Q 57.90625 9.515625 50.796875 4.046875 
Q 43.703125 -1.421875 29.984375 -1.421875 
Q 24.8125 -1.421875 18.96875 -0.25 
Q 13.140625 0.921875 6.890625 3.21875 
L 6.890625 13.375 
Q 12.890625 10.015625 18.65625 8.296875 
Q 24.421875 6.59375 29.984375 6.59375 
Q 38.421875 6.59375 43.015625 9.90625 
Q 47.609375 13.234375 47.609375 19.390625 
Q 47.609375 24.75 44.3125 27.78125 
Q 41.015625 30.8125 33.5 32.328125 
L 27.484375 33.5 
Q 16.453125 35.6875 11.515625 40.375 
Q 6.59375 45.0625 6.59375 53.421875 
Q 6.59375 63.09375 13.40625 68.65625 
Q 20.21875 74.21875 32.171875 74.21875 
Q 37.3125 74.21875 42.625 73.28125 
Q 47.953125 72.359375 53.515625 70.515625 
z
" id="DejaVuSans-83"/>
     </defs>
     <g transform="translate(867.994375 535.43625)scale(0.08 -0.08)">
      <use xlink:href="#DejaVuSans-177"/>
      <use x="83.789062" xlink:href="#DejaVuSans-49"/>
      <use x="147.412109" xlink:href="#DejaVuSans-32"/>
      <use x="179.199219" xlink:href="#DejaVuSans-83"/>
      <use x="242.675781" xlink:href="#DejaVuSans-116"/>
      <use x="281.884766" xlink:href="#DejaVuSans-100"/>
      <use x="345.361328" xlink:href="#DejaVuSans-46"/>
     </g>
    </g>
    <g id="patch_24">
     <path d="M 845.594375 547.17875 
L 861.594375 547.17875 
L 861.594375 541.57875 
L 845.594375 541.57875 
z
" style="opacity:0.1;"/>
    </g>
    <g id="text_56">
     <!-- 2 Std. -->
     <g transform="translate(867.994375 547.17875)scale(0.08 -0.08)">
      <use xlink:href="#DejaVuSans-177"/>
      <use x="83.789062" xlink:href="#DejaVuSans-50"/>
      <use x="147.412109" xlink:href="#DejaVuSans-32"/>
      <use x="179.199219" xlink:href="#DejaVuSans-83"/>
      <use x="242.675781" xlink:href="#DejaVuSans-116"/>
      <use x="281.884766" xlink:href="#DejaVuSans-100"/>
      <use x="345.361328" xlink:href="#DejaVuSans-46"/>
     </g>
    </g>
   </g>
  </g>
  <g id="axes_5">
   <g id="matplotlib.axis_9">
    <g id="ytick_25">
     <g id="line2d_97">
      <defs>
       <path d="M 0 0 
L 3.5 0 
" id="m4d23bb01c9" style="stroke:#000000;stroke-width:0.8;"/>
      </defs>
      <g>
       <use style="stroke:#000000;stroke-width:0.8;" x="425.766875" xlink:href="#m4d23bb01c9" y="306.352665"/>
      </g>
     </g>
     <g id="text_57">
      <!-- 5 -->
      <g transform="translate(432.766875 310.911727)scale(0.12 -0.12)">
       <use xlink:href="#DejaVuSans-53"/>
      </g>
     </g>
    </g>
    <g id="ytick_26">
     <g id="line2d_98">
      <g>
       <use style="stroke:#000000;stroke-width:0.8;" x="425.766875" xlink:href="#m4d23bb01c9" y="277.969852"/>
      </g>
     </g>
     <g id="text_58">
      <!-- 6 -->
      <g transform="translate(432.766875 282.528915)scale(0.12 -0.12)">
       <use xlink:href="#DejaVuSans-54"/>
      </g>
     </g>
    </g>
    <g id="ytick_27">
     <g id="line2d_99">
      <g>
       <use style="stroke:#000000;stroke-width:0.8;" x="425.766875" xlink:href="#m4d23bb01c9" y="249.58704"/>
      </g>
     </g>
     <g id="text_59">
      <!-- 7 -->
      <g transform="translate(432.766875 254.146102)scale(0.12 -0.12)">
       <use xlink:href="#DejaVuSans-55"/>
      </g>
     </g>
    </g>
    <g id="ytick_28">
     <g id="line2d_100">
      <g>
       <use style="stroke:#000000;stroke-width:0.8;" x="425.766875" xlink:href="#m4d23bb01c9" y="221.204227"/>
      </g>
     </g>
     <g id="text_60">
      <!-- 8 -->
      <g transform="translate(432.766875 225.76329)scale(0.12 -0.12)">
       <use xlink:href="#DejaVuSans-56"/>
      </g>
     </g>
    </g>
    <g id="ytick_29">
     <g id="line2d_101">
      <g>
       <use style="stroke:#000000;stroke-width:0.8;" x="425.766875" xlink:href="#m4d23bb01c9" y="192.821415"/>
      </g>
     </g>
     <g id="text_61">
      <!-- 9 -->
      <g transform="translate(432.766875 197.380477)scale(0.12 -0.12)">
       <use xlink:href="#DejaVuSans-57"/>
      </g>
     </g>
    </g>
    <g id="ytick_30">
     <g id="line2d_102">
      <g>
       <use style="stroke:#000000;stroke-width:0.8;" x="425.766875" xlink:href="#m4d23bb01c9" y="164.438602"/>
      </g>
     </g>
     <g id="text_62">
      <!-- 10 -->
      <g transform="translate(432.766875 168.997665)scale(0.12 -0.12)">
       <use xlink:href="#DejaVuSans-49"/>
       <use x="63.623047" xlink:href="#DejaVuSans-48"/>
      </g>
     </g>
    </g>
    <g id="ytick_31">
     <g id="line2d_103">
      <g>
       <use style="stroke:#000000;stroke-width:0.8;" x="425.766875" xlink:href="#m4d23bb01c9" y="136.05579"/>
      </g>
     </g>
     <g id="text_63">
      <!-- 11 -->
      <g transform="translate(432.766875 140.614852)scale(0.12 -0.12)">
       <use xlink:href="#DejaVuSans-49"/>
       <use x="63.623047" xlink:href="#DejaVuSans-49"/>
      </g>
     </g>
    </g>
    <g id="text_64">
     <!-- Cases per 10,000 -->
     <defs>
      <path d="M 11.71875 12.40625 
L 22.015625 12.40625 
L 22.015625 4 
L 14.015625 -11.625 
L 7.71875 -11.625 
L 11.71875 4 
z
" id="DejaVuSans-44"/>
     </defs>
     <g transform="translate(462.674688 290.364531)rotate(-90)scale(0.14 -0.14)">
      <use xlink:href="#DejaVuSans-67"/>
      <use x="69.824219" xlink:href="#DejaVuSans-97"/>
      <use x="131.103516" xlink:href="#DejaVuSans-115"/>
      <use x="183.203125" xlink:href="#DejaVuSans-101"/>
      <use x="244.726562" xlink:href="#DejaVuSans-115"/>
      <use x="296.826172" xlink:href="#DejaVuSans-32"/>
      <use x="328.613281" xlink:href="#DejaVuSans-112"/>
      <use x="392.089844" xlink:href="#DejaVuSans-101"/>
      <use x="453.613281" xlink:href="#DejaVuSans-114"/>
      <use x="494.726562" xlink:href="#DejaVuSans-32"/>
      <use x="526.513672" xlink:href="#DejaVuSans-49"/>
      <use x="590.136719" xlink:href="#DejaVuSans-48"/>
      <use x="653.759766" xlink:href="#DejaVuSans-44"/>
      <use x="685.546875" xlink:href="#DejaVuSans-48"/>
      <use x="749.169922" xlink:href="#DejaVuSans-48"/>
      <use x="812.792969" xlink:href="#DejaVuSans-48"/>
     </g>
    </g>
   </g>
   <g id="line2d_104">
    <path clip-path="url(#p2d23996eb4)" d="M 83.454375 316.674091 
L 151.916875 296.758512 
L 220.379375 271.46228 
L 288.841875 238.730368 
L 357.304375 196.096366 
L 425.766875 141.355909 
" style="fill:none;stroke:#1f77b4;stroke-linecap:square;stroke-opacity:0;stroke-width:1.5;"/>
   </g>
   <g id="patch_25">
    <path d="M 83.454375 325.44 
L 83.454375 132.59 
" style="fill:none;stroke:#000000;stroke-linecap:square;stroke-linejoin:miter;"/>
   </g>
   <g id="patch_26">
    <path d="M 425.766875 325.44 
L 425.766875 132.59 
" style="fill:none;stroke:#000000;stroke-linecap:square;stroke-linejoin:miter;"/>
   </g>
   <g id="patch_27">
    <path d="M 83.454375 325.44 
L 425.766875 325.44 
" style="fill:none;stroke:#000000;stroke-linecap:square;stroke-linejoin:miter;"/>
   </g>
   <g id="patch_28">
    <path d="M 83.454375 132.59 
L 425.766875 132.59 
" style="fill:none;stroke:#000000;stroke-linecap:square;stroke-linejoin:miter;"/>
   </g>
  </g>
  <g id="axes_6">
   <g id="matplotlib.axis_10">
    <g id="ytick_32">
     <g id="line2d_105">
      <g>
       <use style="stroke:#000000;stroke-width:0.8;" x="425.766875" xlink:href="#m4d23bb01c9" y="596.515642"/>
      </g>
     </g>
     <g id="text_65">
      <!-- 10 -->
      <g transform="translate(432.766875 601.074704)scale(0.12 -0.12)">
       <use xlink:href="#DejaVuSans-49"/>
       <use x="63.623047" xlink:href="#DejaVuSans-48"/>
      </g>
     </g>
    </g>
    <g id="ytick_33">
     <g id="line2d_106">
      <g>
       <use style="stroke:#000000;stroke-width:0.8;" x="425.766875" xlink:href="#m4d23bb01c9" y="562.991058"/>
      </g>
     </g>
     <g id="text_66">
      <!-- 20 -->
      <g transform="translate(432.766875 567.550121)scale(0.12 -0.12)">
       <use xlink:href="#DejaVuSans-50"/>
       <use x="63.623047" xlink:href="#DejaVuSans-48"/>
      </g>
     </g>
    </g>
    <g id="ytick_34">
     <g id="line2d_107">
      <g>
       <use style="stroke:#000000;stroke-width:0.8;" x="425.766875" xlink:href="#m4d23bb01c9" y="529.466475"/>
      </g>
     </g>
     <g id="text_67">
      <!-- 30 -->
      <g transform="translate(432.766875 534.025537)scale(0.12 -0.12)">
       <use xlink:href="#DejaVuSans-51"/>
       <use x="63.623047" xlink:href="#DejaVuSans-48"/>
      </g>
     </g>
    </g>
    <g id="ytick_35">
     <g id="line2d_108">
      <g>
       <use style="stroke:#000000;stroke-width:0.8;" x="425.766875" xlink:href="#m4d23bb01c9" y="495.941891"/>
      </g>
     </g>
     <g id="text_68">
      <!-- 40 -->
      <g transform="translate(432.766875 500.500954)scale(0.12 -0.12)">
       <use xlink:href="#DejaVuSans-52"/>
       <use x="63.623047" xlink:href="#DejaVuSans-48"/>
      </g>
     </g>
    </g>
    <g id="ytick_36">
     <g id="line2d_109">
      <g>
       <use style="stroke:#000000;stroke-width:0.8;" x="425.766875" xlink:href="#m4d23bb01c9" y="462.417307"/>
      </g>
     </g>
     <g id="text_69">
      <!-- 50 -->
      <g transform="translate(432.766875 466.97637)scale(0.12 -0.12)">
       <use xlink:href="#DejaVuSans-53"/>
       <use x="63.623047" xlink:href="#DejaVuSans-48"/>
      </g>
     </g>
    </g>
    <g id="ytick_37">
     <g id="line2d_110">
      <g>
       <use style="stroke:#000000;stroke-width:0.8;" x="425.766875" xlink:href="#m4d23bb01c9" y="428.892724"/>
      </g>
     </g>
     <g id="text_70">
      <!-- 60 -->
      <g transform="translate(432.766875 433.451786)scale(0.12 -0.12)">
       <use xlink:href="#DejaVuSans-54"/>
       <use x="63.623047" xlink:href="#DejaVuSans-48"/>
      </g>
     </g>
    </g>
    <g id="text_71">
     <!-- Cases per 10,000 -->
     <g transform="translate(462.674688 576.964531)rotate(-90)scale(0.14 -0.14)">
      <use xlink:href="#DejaVuSans-67"/>
      <use x="69.824219" xlink:href="#DejaVuSans-97"/>
      <use x="131.103516" xlink:href="#DejaVuSans-115"/>
      <use x="183.203125" xlink:href="#DejaVuSans-101"/>
      <use x="244.726562" xlink:href="#DejaVuSans-115"/>
      <use x="296.826172" xlink:href="#DejaVuSans-32"/>
      <use x="328.613281" xlink:href="#DejaVuSans-112"/>
      <use x="392.089844" xlink:href="#DejaVuSans-101"/>
      <use x="453.613281" xlink:href="#DejaVuSans-114"/>
      <use x="494.726562" xlink:href="#DejaVuSans-32"/>
      <use x="526.513672" xlink:href="#DejaVuSans-49"/>
      <use x="590.136719" xlink:href="#DejaVuSans-48"/>
      <use x="653.759766" xlink:href="#DejaVuSans-44"/>
      <use x="685.546875" xlink:href="#DejaVuSans-48"/>
      <use x="749.169922" xlink:href="#DejaVuSans-48"/>
      <use x="812.792969" xlink:href="#DejaVuSans-48"/>
     </g>
    </g>
   </g>
   <g id="line2d_111">
    <path clip-path="url(#p34b35a81dd)" d="M 83.454375 603.274091 
L 151.916875 600.597477 
L 220.379375 599.259171 
L 288.841875 544.388595 
L 357.304375 474.796645 
L 425.766875 427.955909 
" style="fill:none;stroke:#1f77b4;stroke-linecap:square;stroke-opacity:0;stroke-width:1.5;"/>
   </g>
   <g id="patch_29">
    <path d="M 83.454375 612.04 
L 83.454375 419.19 
" style="fill:none;stroke:#000000;stroke-linecap:square;stroke-linejoin:miter;"/>
   </g>
   <g id="patch_30">
    <path d="M 425.766875 612.04 
L 425.766875 419.19 
" style="fill:none;stroke:#000000;stroke-linecap:square;stroke-linejoin:miter;"/>
   </g>
   <g id="patch_31">
    <path d="M 83.454375 612.04 
L 425.766875 612.04 
" style="fill:none;stroke:#000000;stroke-linecap:square;stroke-linejoin:miter;"/>
   </g>
   <g id="patch_32">
    <path d="M 83.454375 419.19 
L 425.766875 419.19 
" style="fill:none;stroke:#000000;stroke-linecap:square;stroke-linejoin:miter;"/>
   </g>
  </g>
  <g id="text_72">
   <!-- Hardeman County, TN COVID-19 -->
   <defs>
    <path d="M 9.8125 72.90625 
L 19.671875 72.90625 
L 19.671875 43.015625 
L 55.515625 43.015625 
L 55.515625 72.90625 
L 65.375 72.90625 
L 65.375 0 
L 55.515625 0 
L 55.515625 34.71875 
L 19.671875 34.71875 
L 19.671875 0 
L 9.8125 0 
z
" id="DejaVuSans-72"/>
    <path d="M -0.296875 72.90625 
L 61.375 72.90625 
L 61.375 64.59375 
L 35.5 64.59375 
L 35.5 0 
L 25.59375 0 
L 25.59375 64.59375 
L -0.296875 64.59375 
z
" id="DejaVuSans-84"/>
    <path d="M 9.8125 72.90625 
L 23.09375 72.90625 
L 55.421875 11.921875 
L 55.421875 72.90625 
L 64.984375 72.90625 
L 64.984375 0 
L 51.703125 0 
L 19.390625 60.984375 
L 19.390625 0 
L 9.8125 0 
z
" id="DejaVuSans-78"/>
    <path d="M 39.40625 66.21875 
Q 28.65625 66.21875 22.328125 58.203125 
Q 16.015625 50.203125 16.015625 36.375 
Q 16.015625 22.609375 22.328125 14.59375 
Q 28.65625 6.59375 39.40625 6.59375 
Q 50.140625 6.59375 56.421875 14.59375 
Q 62.703125 22.609375 62.703125 36.375 
Q 62.703125 50.203125 56.421875 58.203125 
Q 50.140625 66.21875 39.40625 66.21875 
z
M 39.40625 74.21875 
Q 54.734375 74.21875 63.90625 63.9375 
Q 73.09375 53.65625 73.09375 36.375 
Q 73.09375 19.140625 63.90625 8.859375 
Q 54.734375 -1.421875 39.40625 -1.421875 
Q 24.03125 -1.421875 14.8125 8.828125 
Q 5.609375 19.09375 5.609375 36.375 
Q 5.609375 53.65625 14.8125 63.9375 
Q 24.03125 74.21875 39.40625 74.21875 
z
" id="DejaVuSans-79"/>
    <path d="M 28.609375 0 
L 0.78125 72.90625 
L 11.078125 72.90625 
L 34.1875 11.53125 
L 57.328125 72.90625 
L 67.578125 72.90625 
L 39.796875 0 
z
" id="DejaVuSans-86"/>
    <path d="M 4.890625 31.390625 
L 31.203125 31.390625 
L 31.203125 23.390625 
L 4.890625 23.390625 
z
" id="DejaVuSans-45"/>
   </defs>
   <g transform="translate(281.93875 54.996094)scale(0.25 -0.25)">
    <use xlink:href="#DejaVuSans-72"/>
    <use x="75.195312" xlink:href="#DejaVuSans-97"/>
    <use x="136.474609" xlink:href="#DejaVuSans-114"/>
    <use x="175.837891" xlink:href="#DejaVuSans-100"/>
    <use x="239.314453" xlink:href="#DejaVuSans-101"/>
    <use x="300.837891" xlink:href="#DejaVuSans-109"/>
    <use x="398.25" xlink:href="#DejaVuSans-97"/>
    <use x="459.529297" xlink:href="#DejaVuSans-110"/>
    <use x="522.908203" xlink:href="#DejaVuSans-32"/>
    <use x="554.695312" xlink:href="#DejaVuSans-67"/>
    <use x="624.519531" xlink:href="#DejaVuSans-111"/>
    <use x="685.701172" xlink:href="#DejaVuSans-117"/>
    <use x="749.080078" xlink:href="#DejaVuSans-110"/>
    <use x="812.458984" xlink:href="#DejaVuSans-116"/>
    <use x="851.667969" xlink:href="#DejaVuSans-121"/>
    <use x="910.847656" xlink:href="#DejaVuSans-44"/>
    <use x="942.634766" xlink:href="#DejaVuSans-32"/>
    <use x="974.421875" xlink:href="#DejaVuSans-84"/>
    <use x="1035.505859" xlink:href="#DejaVuSans-78"/>
    <use x="1110.310547" xlink:href="#DejaVuSans-32"/>
    <use x="1142.097656" xlink:href="#DejaVuSans-67"/>
    <use x="1211.921875" xlink:href="#DejaVuSans-79"/>
    <use x="1288.882812" xlink:href="#DejaVuSans-86"/>
    <use x="1357.291016" xlink:href="#DejaVuSans-73"/>
    <use x="1386.783203" xlink:href="#DejaVuSans-68"/>
    <use x="1463.785156" xlink:href="#DejaVuSans-45"/>
    <use x="1499.869141" xlink:href="#DejaVuSans-49"/>
    <use x="1563.492188" xlink:href="#DejaVuSans-57"/>
   </g>
  </g>
 </g>
 <defs>
  <clipPath id="p2d23996eb4">
   <rect height="192.85" width="342.3125" x="83.454375" y="132.59"/>
  </clipPath>
  <clipPath id="p8e3c4ca91b">
   <rect height="192.85" width="342.3125" x="561.454375" y="132.59"/>
  </clipPath>
  <clipPath id="p34b35a81dd">
   <rect height="192.85" width="342.3125" x="83.454375" y="419.19"/>
  </clipPath>
  <clipPath id="p3a59463c78">
   <rect height="192.85" width="342.3125" x="561.454375" y="419.19"/>
  </clipPath>
 </defs>
</svg>
