<?xml version="1.0" encoding="utf-8" standalone="no"?>
<!DOCTYPE svg PUBLIC "-//W3C//DTD SVG 1.1//EN"
  "http://www.w3.org/Graphics/SVG/1.1/DTD/svg11.dtd">
<!-- Created with matplotlib (https://matplotlib.org/) -->
<svg height="648pt" version="1.1" viewBox="0 0 936 648" width="936pt" xmlns="http://www.w3.org/2000/svg" xmlns:xlink="http://www.w3.org/1999/xlink">
 <defs>
  <style type="text/css">
*{stroke-linecap:butt;stroke-linejoin:round;}
  </style>
 </defs>
 <g id="figure_1">
  <g id="patch_1">
   <path d="M 0 648 
L 936 648 
L 936 0 
L 0 0 
z
" style="fill:#ffffff;"/>
  </g>
  <g id="axes_1">
   <g id="patch_2">
    <path d="M 66.125 302.4 
L 438.4375 302.4 
L 438.4375 109.55 
L 66.125 109.55 
z
" style="fill:#ffffff;"/>
   </g>
   <g id="matplotlib.axis_1">
    <g id="xtick_1">
     <g id="line2d_1">
      <path clip-path="url(#pcfdb2c0f0a)" d="M 66.125 302.4 
L 66.125 109.55 
" style="fill:none;stroke:#000000;stroke-linecap:square;stroke-opacity:0.2;stroke-width:0.5;"/>
     </g>
     <g id="line2d_2">
      <defs>
       <path d="M 0 0 
L 0 3.5 
" id="mfdc2462633" style="stroke:#000000;stroke-width:0.8;"/>
      </defs>
      <g>
       <use style="stroke:#000000;stroke-width:0.8;" x="66.125" xlink:href="#mfdc2462633" y="302.4"/>
      </g>
     </g>
     <g id="text_1">
      <!-- 26 -->
      <defs>
       <path d="M 19.1875 8.296875 
L 53.609375 8.296875 
L 53.609375 0 
L 7.328125 0 
L 7.328125 8.296875 
Q 12.9375 14.109375 22.625 23.890625 
Q 32.328125 33.6875 34.8125 36.53125 
Q 39.546875 41.84375 41.421875 45.53125 
Q 43.3125 49.21875 43.3125 52.78125 
Q 43.3125 58.59375 39.234375 62.25 
Q 35.15625 65.921875 28.609375 65.921875 
Q 23.96875 65.921875 18.8125 64.3125 
Q 13.671875 62.703125 7.8125 59.421875 
L 7.8125 69.390625 
Q 13.765625 71.78125 18.9375 73 
Q 24.125 74.21875 28.421875 74.21875 
Q 39.75 74.21875 46.484375 68.546875 
Q 53.21875 62.890625 53.21875 53.421875 
Q 53.21875 48.921875 51.53125 44.890625 
Q 49.859375 40.875 45.40625 35.40625 
Q 44.1875 33.984375 37.640625 27.21875 
Q 31.109375 20.453125 19.1875 8.296875 
z
" id="DejaVuSans-50"/>
       <path d="M 33.015625 40.375 
Q 26.375 40.375 22.484375 35.828125 
Q 18.609375 31.296875 18.609375 23.390625 
Q 18.609375 15.53125 22.484375 10.953125 
Q 26.375 6.390625 33.015625 6.390625 
Q 39.65625 6.390625 43.53125 10.953125 
Q 47.40625 15.53125 47.40625 23.390625 
Q 47.40625 31.296875 43.53125 35.828125 
Q 39.65625 40.375 33.015625 40.375 
z
M 52.59375 71.296875 
L 52.59375 62.3125 
Q 48.875 64.0625 45.09375 64.984375 
Q 41.3125 65.921875 37.59375 65.921875 
Q 27.828125 65.921875 22.671875 59.328125 
Q 17.53125 52.734375 16.796875 39.40625 
Q 19.671875 43.65625 24.015625 45.921875 
Q 28.375 48.1875 33.59375 48.1875 
Q 44.578125 48.1875 50.953125 41.515625 
Q 57.328125 34.859375 57.328125 23.390625 
Q 57.328125 12.15625 50.6875 5.359375 
Q 44.046875 -1.421875 33.015625 -1.421875 
Q 20.359375 -1.421875 13.671875 8.265625 
Q 6.984375 17.96875 6.984375 36.375 
Q 6.984375 53.65625 15.1875 63.9375 
Q 23.390625 74.21875 37.203125 74.21875 
Q 40.921875 74.21875 44.703125 73.484375 
Q 48.484375 72.75 52.59375 71.296875 
z
" id="DejaVuSans-54"/>
      </defs>
      <g transform="translate(58.49 318.518125)scale(0.12 -0.12)">
       <use xlink:href="#DejaVuSans-50"/>
       <use x="63.623047" xlink:href="#DejaVuSans-54"/>
      </g>
     </g>
    </g>
    <g id="xtick_2">
     <g id="line2d_3">
      <path clip-path="url(#pcfdb2c0f0a)" d="M 235.357955 302.4 
L 235.357955 109.55 
" style="fill:none;stroke:#000000;stroke-linecap:square;stroke-opacity:0.2;stroke-width:0.5;"/>
     </g>
     <g id="line2d_4">
      <g>
       <use style="stroke:#000000;stroke-width:0.8;" x="235.357955" xlink:href="#mfdc2462633" y="302.4"/>
      </g>
     </g>
     <g id="text_2">
      <!-- 01 -->
      <defs>
       <path d="M 31.78125 66.40625 
Q 24.171875 66.40625 20.328125 58.90625 
Q 16.5 51.421875 16.5 36.375 
Q 16.5 21.390625 20.328125 13.890625 
Q 24.171875 6.390625 31.78125 6.390625 
Q 39.453125 6.390625 43.28125 13.890625 
Q 47.125 21.390625 47.125 36.375 
Q 47.125 51.421875 43.28125 58.90625 
Q 39.453125 66.40625 31.78125 66.40625 
z
M 31.78125 74.21875 
Q 44.046875 74.21875 50.515625 64.515625 
Q 56.984375 54.828125 56.984375 36.375 
Q 56.984375 17.96875 50.515625 8.265625 
Q 44.046875 -1.421875 31.78125 -1.421875 
Q 19.53125 -1.421875 13.0625 8.265625 
Q 6.59375 17.96875 6.59375 36.375 
Q 6.59375 54.828125 13.0625 64.515625 
Q 19.53125 74.21875 31.78125 74.21875 
z
" id="DejaVuSans-48"/>
       <path d="M 12.40625 8.296875 
L 28.515625 8.296875 
L 28.515625 63.921875 
L 10.984375 60.40625 
L 10.984375 69.390625 
L 28.421875 72.90625 
L 38.28125 72.90625 
L 38.28125 8.296875 
L 54.390625 8.296875 
L 54.390625 0 
L 12.40625 0 
z
" id="DejaVuSans-49"/>
      </defs>
      <g transform="translate(227.722955 318.518125)scale(0.12 -0.12)">
       <use xlink:href="#DejaVuSans-48"/>
       <use x="63.623047" xlink:href="#DejaVuSans-49"/>
      </g>
      <!-- May -->
      <defs>
       <path d="M 9.8125 72.90625 
L 24.515625 72.90625 
L 43.109375 23.296875 
L 61.8125 72.90625 
L 76.515625 72.90625 
L 76.515625 0 
L 66.890625 0 
L 66.890625 64.015625 
L 48.09375 14.015625 
L 38.1875 14.015625 
L 19.390625 64.015625 
L 19.390625 0 
L 9.8125 0 
z
" id="DejaVuSans-77"/>
       <path d="M 34.28125 27.484375 
Q 23.390625 27.484375 19.1875 25 
Q 14.984375 22.515625 14.984375 16.5 
Q 14.984375 11.71875 18.140625 8.90625 
Q 21.296875 6.109375 26.703125 6.109375 
Q 34.1875 6.109375 38.703125 11.40625 
Q 43.21875 16.703125 43.21875 25.484375 
L 43.21875 27.484375 
z
M 52.203125 31.203125 
L 52.203125 0 
L 43.21875 0 
L 43.21875 8.296875 
Q 40.140625 3.328125 35.546875 0.953125 
Q 30.953125 -1.421875 24.3125 -1.421875 
Q 15.921875 -1.421875 10.953125 3.296875 
Q 6 8.015625 6 15.921875 
Q 6 25.140625 12.171875 29.828125 
Q 18.359375 34.515625 30.609375 34.515625 
L 43.21875 34.515625 
L 43.21875 35.40625 
Q 43.21875 41.609375 39.140625 45 
Q 35.0625 48.390625 27.6875 48.390625 
Q 23 48.390625 18.546875 47.265625 
Q 14.109375 46.140625 10.015625 43.890625 
L 10.015625 52.203125 
Q 14.9375 54.109375 19.578125 55.046875 
Q 24.21875 56 28.609375 56 
Q 40.484375 56 46.34375 49.84375 
Q 52.203125 43.703125 52.203125 31.203125 
z
" id="DejaVuSans-97"/>
       <path d="M 32.171875 -5.078125 
Q 28.375 -14.84375 24.75 -17.8125 
Q 21.140625 -20.796875 15.09375 -20.796875 
L 7.90625 -20.796875 
L 7.90625 -13.28125 
L 13.1875 -13.28125 
Q 16.890625 -13.28125 18.9375 -11.515625 
Q 21 -9.765625 23.484375 -3.21875 
L 25.09375 0.875 
L 2.984375 54.6875 
L 12.5 54.6875 
L 29.59375 11.921875 
L 46.6875 54.6875 
L 56.203125 54.6875 
z
" id="DejaVuSans-121"/>
      </defs>
      <g transform="translate(222.952955 331.9555)scale(0.12 -0.12)">
       <use xlink:href="#DejaVuSans-77"/>
       <use x="86.279297" xlink:href="#DejaVuSans-97"/>
       <use x="147.558594" xlink:href="#DejaVuSans-121"/>
      </g>
      <!-- 2020 -->
      <g transform="translate(220.087955 345.392875)scale(0.12 -0.12)">
       <use xlink:href="#DejaVuSans-50"/>
       <use x="63.623047" xlink:href="#DejaVuSans-48"/>
       <use x="127.246094" xlink:href="#DejaVuSans-50"/>
       <use x="190.869141" xlink:href="#DejaVuSans-48"/>
      </g>
     </g>
    </g>
    <g id="xtick_3">
     <g id="line2d_5">
      <path clip-path="url(#pcfdb2c0f0a)" d="M 438.4375 302.4 
L 438.4375 109.55 
" style="fill:none;stroke:#000000;stroke-linecap:square;stroke-opacity:0.2;stroke-width:0.5;"/>
     </g>
     <g id="line2d_6">
      <g>
       <use style="stroke:#000000;stroke-width:0.8;" x="438.4375" xlink:href="#mfdc2462633" y="302.4"/>
      </g>
     </g>
     <g id="text_3">
      <!-- 07 -->
      <defs>
       <path d="M 8.203125 72.90625 
L 55.078125 72.90625 
L 55.078125 68.703125 
L 28.609375 0 
L 18.3125 0 
L 43.21875 64.59375 
L 8.203125 64.59375 
z
" id="DejaVuSans-55"/>
      </defs>
      <g transform="translate(430.8025 318.518125)scale(0.12 -0.12)">
       <use xlink:href="#DejaVuSans-48"/>
       <use x="63.623047" xlink:href="#DejaVuSans-55"/>
      </g>
     </g>
    </g>
    <g id="xtick_4">
     <g id="line2d_7">
      <defs>
       <path d="M 0 0 
L 0 2 
" id="m5c9d0b2bce" style="stroke:#000000;stroke-width:0.6;"/>
      </defs>
      <g>
       <use style="stroke:#000000;stroke-width:0.6;" x="99.971591" xlink:href="#m5c9d0b2bce" y="302.4"/>
      </g>
     </g>
     <g id="text_4">
      <!-- 27 -->
      <g transform="translate(92.336591 316.918125)scale(0.12 -0.12)">
       <use xlink:href="#DejaVuSans-50"/>
       <use x="63.623047" xlink:href="#DejaVuSans-55"/>
      </g>
     </g>
    </g>
    <g id="xtick_5">
     <g id="line2d_8">
      <g>
       <use style="stroke:#000000;stroke-width:0.6;" x="133.818182" xlink:href="#m5c9d0b2bce" y="302.4"/>
      </g>
     </g>
     <g id="text_5">
      <!-- 28 -->
      <defs>
       <path d="M 31.78125 34.625 
Q 24.75 34.625 20.71875 30.859375 
Q 16.703125 27.09375 16.703125 20.515625 
Q 16.703125 13.921875 20.71875 10.15625 
Q 24.75 6.390625 31.78125 6.390625 
Q 38.8125 6.390625 42.859375 10.171875 
Q 46.921875 13.96875 46.921875 20.515625 
Q 46.921875 27.09375 42.890625 30.859375 
Q 38.875 34.625 31.78125 34.625 
z
M 21.921875 38.8125 
Q 15.578125 40.375 12.03125 44.71875 
Q 8.5 49.078125 8.5 55.328125 
Q 8.5 64.0625 14.71875 69.140625 
Q 20.953125 74.21875 31.78125 74.21875 
Q 42.671875 74.21875 48.875 69.140625 
Q 55.078125 64.0625 55.078125 55.328125 
Q 55.078125 49.078125 51.53125 44.71875 
Q 48 40.375 41.703125 38.8125 
Q 48.828125 37.15625 52.796875 32.3125 
Q 56.78125 27.484375 56.78125 20.515625 
Q 56.78125 9.90625 50.3125 4.234375 
Q 43.84375 -1.421875 31.78125 -1.421875 
Q 19.734375 -1.421875 13.25 4.234375 
Q 6.78125 9.90625 6.78125 20.515625 
Q 6.78125 27.484375 10.78125 32.3125 
Q 14.796875 37.15625 21.921875 38.8125 
z
M 18.3125 54.390625 
Q 18.3125 48.734375 21.84375 45.5625 
Q 25.390625 42.390625 31.78125 42.390625 
Q 38.140625 42.390625 41.71875 45.5625 
Q 45.3125 48.734375 45.3125 54.390625 
Q 45.3125 60.0625 41.71875 63.234375 
Q 38.140625 66.40625 31.78125 66.40625 
Q 25.390625 66.40625 21.84375 63.234375 
Q 18.3125 60.0625 18.3125 54.390625 
z
" id="DejaVuSans-56"/>
      </defs>
      <g transform="translate(126.183182 316.918125)scale(0.12 -0.12)">
       <use xlink:href="#DejaVuSans-50"/>
       <use x="63.623047" xlink:href="#DejaVuSans-56"/>
      </g>
     </g>
    </g>
    <g id="xtick_6">
     <g id="line2d_9">
      <g>
       <use style="stroke:#000000;stroke-width:0.6;" x="167.664773" xlink:href="#m5c9d0b2bce" y="302.4"/>
      </g>
     </g>
     <g id="text_6">
      <!-- 29 -->
      <defs>
       <path d="M 10.984375 1.515625 
L 10.984375 10.5 
Q 14.703125 8.734375 18.5 7.8125 
Q 22.3125 6.890625 25.984375 6.890625 
Q 35.75 6.890625 40.890625 13.453125 
Q 46.046875 20.015625 46.78125 33.40625 
Q 43.953125 29.203125 39.59375 26.953125 
Q 35.25 24.703125 29.984375 24.703125 
Q 19.046875 24.703125 12.671875 31.3125 
Q 6.296875 37.9375 6.296875 49.421875 
Q 6.296875 60.640625 12.9375 67.421875 
Q 19.578125 74.21875 30.609375 74.21875 
Q 43.265625 74.21875 49.921875 64.515625 
Q 56.59375 54.828125 56.59375 36.375 
Q 56.59375 19.140625 48.40625 8.859375 
Q 40.234375 -1.421875 26.421875 -1.421875 
Q 22.703125 -1.421875 18.890625 -0.6875 
Q 15.09375 0.046875 10.984375 1.515625 
z
M 30.609375 32.421875 
Q 37.25 32.421875 41.125 36.953125 
Q 45.015625 41.5 45.015625 49.421875 
Q 45.015625 57.28125 41.125 61.84375 
Q 37.25 66.40625 30.609375 66.40625 
Q 23.96875 66.40625 20.09375 61.84375 
Q 16.21875 57.28125 16.21875 49.421875 
Q 16.21875 41.5 20.09375 36.953125 
Q 23.96875 32.421875 30.609375 32.421875 
z
" id="DejaVuSans-57"/>
      </defs>
      <g transform="translate(160.029773 316.918125)scale(0.12 -0.12)">
       <use xlink:href="#DejaVuSans-50"/>
       <use x="63.623047" xlink:href="#DejaVuSans-57"/>
      </g>
     </g>
    </g>
    <g id="xtick_7">
     <g id="line2d_10">
      <g>
       <use style="stroke:#000000;stroke-width:0.6;" x="201.511364" xlink:href="#m5c9d0b2bce" y="302.4"/>
      </g>
     </g>
     <g id="text_7">
      <!-- 30 -->
      <defs>
       <path d="M 40.578125 39.3125 
Q 47.65625 37.796875 51.625 33 
Q 55.609375 28.21875 55.609375 21.1875 
Q 55.609375 10.40625 48.1875 4.484375 
Q 40.765625 -1.421875 27.09375 -1.421875 
Q 22.515625 -1.421875 17.65625 -0.515625 
Q 12.796875 0.390625 7.625 2.203125 
L 7.625 11.71875 
Q 11.71875 9.328125 16.59375 8.109375 
Q 21.484375 6.890625 26.8125 6.890625 
Q 36.078125 6.890625 40.9375 10.546875 
Q 45.796875 14.203125 45.796875 21.1875 
Q 45.796875 27.640625 41.28125 31.265625 
Q 36.765625 34.90625 28.71875 34.90625 
L 20.21875 34.90625 
L 20.21875 43.015625 
L 29.109375 43.015625 
Q 36.375 43.015625 40.234375 45.921875 
Q 44.09375 48.828125 44.09375 54.296875 
Q 44.09375 59.90625 40.109375 62.90625 
Q 36.140625 65.921875 28.71875 65.921875 
Q 24.65625 65.921875 20.015625 65.03125 
Q 15.375 64.15625 9.8125 62.3125 
L 9.8125 71.09375 
Q 15.4375 72.65625 20.34375 73.4375 
Q 25.25 74.21875 29.59375 74.21875 
Q 40.828125 74.21875 47.359375 69.109375 
Q 53.90625 64.015625 53.90625 55.328125 
Q 53.90625 49.265625 50.4375 45.09375 
Q 46.96875 40.921875 40.578125 39.3125 
z
" id="DejaVuSans-51"/>
      </defs>
      <g transform="translate(193.876364 316.918125)scale(0.12 -0.12)">
       <use xlink:href="#DejaVuSans-51"/>
       <use x="63.623047" xlink:href="#DejaVuSans-48"/>
      </g>
     </g>
    </g>
    <g id="xtick_8">
     <g id="line2d_11">
      <g>
       <use style="stroke:#000000;stroke-width:0.6;" x="269.204545" xlink:href="#m5c9d0b2bce" y="302.4"/>
      </g>
     </g>
     <g id="text_8">
      <!-- 02 -->
      <g transform="translate(261.569545 316.918125)scale(0.12 -0.12)">
       <use xlink:href="#DejaVuSans-48"/>
       <use x="63.623047" xlink:href="#DejaVuSans-50"/>
      </g>
     </g>
    </g>
    <g id="xtick_9">
     <g id="line2d_12">
      <g>
       <use style="stroke:#000000;stroke-width:0.6;" x="303.051136" xlink:href="#m5c9d0b2bce" y="302.4"/>
      </g>
     </g>
     <g id="text_9">
      <!-- 03 -->
      <g transform="translate(295.416136 316.918125)scale(0.12 -0.12)">
       <use xlink:href="#DejaVuSans-48"/>
       <use x="63.623047" xlink:href="#DejaVuSans-51"/>
      </g>
     </g>
    </g>
    <g id="xtick_10">
     <g id="line2d_13">
      <g>
       <use style="stroke:#000000;stroke-width:0.6;" x="336.897727" xlink:href="#m5c9d0b2bce" y="302.4"/>
      </g>
     </g>
     <g id="text_10">
      <!-- 04 -->
      <defs>
       <path d="M 37.796875 64.3125 
L 12.890625 25.390625 
L 37.796875 25.390625 
z
M 35.203125 72.90625 
L 47.609375 72.90625 
L 47.609375 25.390625 
L 58.015625 25.390625 
L 58.015625 17.1875 
L 47.609375 17.1875 
L 47.609375 0 
L 37.796875 0 
L 37.796875 17.1875 
L 4.890625 17.1875 
L 4.890625 26.703125 
z
" id="DejaVuSans-52"/>
      </defs>
      <g transform="translate(329.262727 316.918125)scale(0.12 -0.12)">
       <use xlink:href="#DejaVuSans-48"/>
       <use x="63.623047" xlink:href="#DejaVuSans-52"/>
      </g>
     </g>
    </g>
    <g id="xtick_11">
     <g id="line2d_14">
      <g>
       <use style="stroke:#000000;stroke-width:0.6;" x="370.744318" xlink:href="#m5c9d0b2bce" y="302.4"/>
      </g>
     </g>
     <g id="text_11">
      <!-- 05 -->
      <defs>
       <path d="M 10.796875 72.90625 
L 49.515625 72.90625 
L 49.515625 64.59375 
L 19.828125 64.59375 
L 19.828125 46.734375 
Q 21.96875 47.46875 24.109375 47.828125 
Q 26.265625 48.1875 28.421875 48.1875 
Q 40.625 48.1875 47.75 41.5 
Q 54.890625 34.8125 54.890625 23.390625 
Q 54.890625 11.625 47.5625 5.09375 
Q 40.234375 -1.421875 26.90625 -1.421875 
Q 22.3125 -1.421875 17.546875 -0.640625 
Q 12.796875 0.140625 7.71875 1.703125 
L 7.71875 11.625 
Q 12.109375 9.234375 16.796875 8.0625 
Q 21.484375 6.890625 26.703125 6.890625 
Q 35.15625 6.890625 40.078125 11.328125 
Q 45.015625 15.765625 45.015625 23.390625 
Q 45.015625 31 40.078125 35.4375 
Q 35.15625 39.890625 26.703125 39.890625 
Q 22.75 39.890625 18.8125 39.015625 
Q 14.890625 38.140625 10.796875 36.28125 
z
" id="DejaVuSans-53"/>
      </defs>
      <g transform="translate(363.109318 316.918125)scale(0.12 -0.12)">
       <use xlink:href="#DejaVuSans-48"/>
       <use x="63.623047" xlink:href="#DejaVuSans-53"/>
      </g>
     </g>
    </g>
    <g id="xtick_12">
     <g id="line2d_15">
      <g>
       <use style="stroke:#000000;stroke-width:0.6;" x="404.590909" xlink:href="#m5c9d0b2bce" y="302.4"/>
      </g>
     </g>
     <g id="text_12">
      <!-- 06 -->
      <g transform="translate(396.955909 316.918125)scale(0.12 -0.12)">
       <use xlink:href="#DejaVuSans-48"/>
       <use x="63.623047" xlink:href="#DejaVuSans-54"/>
      </g>
     </g>
    </g>
   </g>
   <g id="matplotlib.axis_2">
    <g id="ytick_1">
     <g id="line2d_16">
      <path clip-path="url(#pcfdb2c0f0a)" d="M 66.125 270.766502 
L 438.4375 270.766502 
" style="fill:none;stroke:#000000;stroke-linecap:square;stroke-opacity:0.2;stroke-width:0.5;"/>
     </g>
     <g id="line2d_17">
      <defs>
       <path d="M 0 0 
L -3.5 0 
" id="m7d31716de4" style="stroke:#000000;stroke-width:0.8;"/>
      </defs>
      <g>
       <use style="stroke:#000000;stroke-width:0.8;" x="66.125" xlink:href="#m7d31716de4" y="270.766502"/>
      </g>
     </g>
     <g id="text_13">
      <!-- 5 -->
      <g transform="translate(51.49 275.325564)scale(0.12 -0.12)">
       <use xlink:href="#DejaVuSans-53"/>
      </g>
     </g>
    </g>
    <g id="ytick_2">
     <g id="line2d_18">
      <path clip-path="url(#pcfdb2c0f0a)" d="M 66.125 232.653854 
L 438.4375 232.653854 
" style="fill:none;stroke:#000000;stroke-linecap:square;stroke-opacity:0.2;stroke-width:0.5;"/>
     </g>
     <g id="line2d_19">
      <g>
       <use style="stroke:#000000;stroke-width:0.8;" x="66.125" xlink:href="#m7d31716de4" y="232.653854"/>
      </g>
     </g>
     <g id="text_14">
      <!-- 10 -->
      <g transform="translate(43.855 237.212916)scale(0.12 -0.12)">
       <use xlink:href="#DejaVuSans-49"/>
       <use x="63.623047" xlink:href="#DejaVuSans-48"/>
      </g>
     </g>
    </g>
    <g id="ytick_3">
     <g id="line2d_20">
      <path clip-path="url(#pcfdb2c0f0a)" d="M 66.125 194.541206 
L 438.4375 194.541206 
" style="fill:none;stroke:#000000;stroke-linecap:square;stroke-opacity:0.2;stroke-width:0.5;"/>
     </g>
     <g id="line2d_21">
      <g>
       <use style="stroke:#000000;stroke-width:0.8;" x="66.125" xlink:href="#m7d31716de4" y="194.541206"/>
      </g>
     </g>
     <g id="text_15">
      <!-- 15 -->
      <g transform="translate(43.855 199.100268)scale(0.12 -0.12)">
       <use xlink:href="#DejaVuSans-49"/>
       <use x="63.623047" xlink:href="#DejaVuSans-53"/>
      </g>
     </g>
    </g>
    <g id="ytick_4">
     <g id="line2d_22">
      <path clip-path="url(#pcfdb2c0f0a)" d="M 66.125 156.428557 
L 438.4375 156.428557 
" style="fill:none;stroke:#000000;stroke-linecap:square;stroke-opacity:0.2;stroke-width:0.5;"/>
     </g>
     <g id="line2d_23">
      <g>
       <use style="stroke:#000000;stroke-width:0.8;" x="66.125" xlink:href="#m7d31716de4" y="156.428557"/>
      </g>
     </g>
     <g id="text_16">
      <!-- 20 -->
      <g transform="translate(43.855 160.98762)scale(0.12 -0.12)">
       <use xlink:href="#DejaVuSans-50"/>
       <use x="63.623047" xlink:href="#DejaVuSans-48"/>
      </g>
     </g>
    </g>
    <g id="ytick_5">
     <g id="line2d_24">
      <path clip-path="url(#pcfdb2c0f0a)" d="M 66.125 118.315909 
L 438.4375 118.315909 
" style="fill:none;stroke:#000000;stroke-linecap:square;stroke-opacity:0.2;stroke-width:0.5;"/>
     </g>
     <g id="line2d_25">
      <g>
       <use style="stroke:#000000;stroke-width:0.8;" x="66.125" xlink:href="#m7d31716de4" y="118.315909"/>
      </g>
     </g>
     <g id="text_17">
      <!-- 25 -->
      <g transform="translate(43.855 122.874972)scale(0.12 -0.12)">
       <use xlink:href="#DejaVuSans-50"/>
       <use x="63.623047" xlink:href="#DejaVuSans-53"/>
      </g>
     </g>
    </g>
    <g id="text_18">
     <!-- Cases -->
     <defs>
      <path d="M 64.40625 67.28125 
L 64.40625 56.890625 
Q 59.421875 61.53125 53.78125 63.8125 
Q 48.140625 66.109375 41.796875 66.109375 
Q 29.296875 66.109375 22.65625 58.46875 
Q 16.015625 50.828125 16.015625 36.375 
Q 16.015625 21.96875 22.65625 14.328125 
Q 29.296875 6.6875 41.796875 6.6875 
Q 48.140625 6.6875 53.78125 8.984375 
Q 59.421875 11.28125 64.40625 15.921875 
L 64.40625 5.609375 
Q 59.234375 2.09375 53.4375 0.328125 
Q 47.65625 -1.421875 41.21875 -1.421875 
Q 24.65625 -1.421875 15.125 8.703125 
Q 5.609375 18.84375 5.609375 36.375 
Q 5.609375 53.953125 15.125 64.078125 
Q 24.65625 74.21875 41.21875 74.21875 
Q 47.75 74.21875 53.53125 72.484375 
Q 59.328125 70.75 64.40625 67.28125 
z
" id="DejaVuSans-67"/>
      <path d="M 44.28125 53.078125 
L 44.28125 44.578125 
Q 40.484375 46.53125 36.375 47.5 
Q 32.28125 48.484375 27.875 48.484375 
Q 21.1875 48.484375 17.84375 46.4375 
Q 14.5 44.390625 14.5 40.28125 
Q 14.5 37.15625 16.890625 35.375 
Q 19.28125 33.59375 26.515625 31.984375 
L 29.59375 31.296875 
Q 39.15625 29.25 43.1875 25.515625 
Q 47.21875 21.78125 47.21875 15.09375 
Q 47.21875 7.46875 41.1875 3.015625 
Q 35.15625 -1.421875 24.609375 -1.421875 
Q 20.21875 -1.421875 15.453125 -0.5625 
Q 10.6875 0.296875 5.421875 2 
L 5.421875 11.28125 
Q 10.40625 8.6875 15.234375 7.390625 
Q 20.0625 6.109375 24.8125 6.109375 
Q 31.15625 6.109375 34.5625 8.28125 
Q 37.984375 10.453125 37.984375 14.40625 
Q 37.984375 18.0625 35.515625 20.015625 
Q 33.0625 21.96875 24.703125 23.78125 
L 21.578125 24.515625 
Q 13.234375 26.265625 9.515625 29.90625 
Q 5.8125 33.546875 5.8125 39.890625 
Q 5.8125 47.609375 11.28125 51.796875 
Q 16.75 56 26.8125 56 
Q 31.78125 56 36.171875 55.265625 
Q 40.578125 54.546875 44.28125 53.078125 
z
" id="DejaVuSans-115"/>
      <path d="M 56.203125 29.59375 
L 56.203125 25.203125 
L 14.890625 25.203125 
Q 15.484375 15.921875 20.484375 11.0625 
Q 25.484375 6.203125 34.421875 6.203125 
Q 39.59375 6.203125 44.453125 7.46875 
Q 49.3125 8.734375 54.109375 11.28125 
L 54.109375 2.78125 
Q 49.265625 0.734375 44.1875 -0.34375 
Q 39.109375 -1.421875 33.890625 -1.421875 
Q 20.796875 -1.421875 13.15625 6.1875 
Q 5.515625 13.8125 5.515625 26.8125 
Q 5.515625 40.234375 12.765625 48.109375 
Q 20.015625 56 32.328125 56 
Q 43.359375 56 49.78125 48.890625 
Q 56.203125 41.796875 56.203125 29.59375 
z
M 47.21875 32.234375 
Q 47.125 39.59375 43.09375 43.984375 
Q 39.0625 48.390625 32.421875 48.390625 
Q 24.90625 48.390625 20.390625 44.140625 
Q 15.875 39.890625 15.1875 32.171875 
z
" id="DejaVuSans-101"/>
     </defs>
     <g transform="translate(36.943437 226.752969)rotate(-90)scale(0.14 -0.14)">
      <use xlink:href="#DejaVuSans-67"/>
      <use x="69.824219" xlink:href="#DejaVuSans-97"/>
      <use x="131.103516" xlink:href="#DejaVuSans-115"/>
      <use x="183.203125" xlink:href="#DejaVuSans-101"/>
      <use x="244.726562" xlink:href="#DejaVuSans-115"/>
     </g>
    </g>
   </g>
   <g id="line2d_26">
    <path clip-path="url(#pcfdb2c0f0a)" d="M 66.125 232.17347 
L 99.971591 226.284698 
L 133.818182 223.470092 
L 167.664773 223.780667 
L 201.511364 226.100845 
L 235.357955 226.287659 
L 269.204545 228.646113 
L 303.051136 230.76275 
L 336.897727 232.784051 
L 370.744318 233.570251 
L 404.590909 233.248854 
L 438.4375 230.30966 
" style="fill:none;stroke:#1f77b4;stroke-linecap:square;stroke-width:3;"/>
   </g>
   <g id="line2d_27">
    <defs>
     <path d="M -3 3 
L 3 -3 
M -3 -3 
L 3 3 
" id="m5ebb470709" style="stroke:#000000;"/>
    </defs>
    <g clip-path="url(#pcfdb2c0f0a)">
     <use style="stroke:#000000;" x="66.125" xlink:href="#m5ebb470709" y="118.315909"/>
     <use style="stroke:#000000;" x="99.971591" xlink:href="#m5ebb470709" y="270.766502"/>
     <use style="stroke:#000000;" x="133.818182" xlink:href="#m5ebb470709" y="179.296146"/>
     <use style="stroke:#000000;" x="167.664773" xlink:href="#m5ebb470709" y="217.408794"/>
     <use style="stroke:#000000;" x="201.511364" xlink:href="#m5ebb470709" y="171.673617"/>
     <use style="stroke:#000000;" x="235.357955" xlink:href="#m5ebb470709" y="247.898913"/>
     <use style="stroke:#000000;" x="269.204545" xlink:href="#m5ebb470709" y="293.634091"/>
     <use style="stroke:#000000;" x="303.051136" xlink:href="#m5ebb470709" y="209.786265"/>
     <use style="stroke:#000000;" x="336.897727" xlink:href="#m5ebb470709" y="286.011561"/>
     <use style="stroke:#000000;" x="370.744318" xlink:href="#m5ebb470709" y="263.143972"/>
     <use style="stroke:#000000;" x="404.590909" xlink:href="#m5ebb470709" y="156.428557"/>
     <use style="stroke:#000000;" x="438.4375" xlink:href="#m5ebb470709" y="263.143972"/>
    </g>
   </g>
   <g id="patch_3">
    <path d="M 66.125 302.4 
L 66.125 109.55 
" style="fill:none;stroke:#000000;stroke-linecap:square;stroke-linejoin:miter;"/>
   </g>
   <g id="patch_4">
    <path d="M 438.4375 302.4 
L 438.4375 109.55 
" style="fill:none;stroke:#000000;stroke-linecap:square;stroke-linejoin:miter;"/>
   </g>
   <g id="patch_5">
    <path d="M 66.125 302.4 
L 438.4375 302.4 
" style="fill:none;stroke:#000000;stroke-linecap:square;stroke-linejoin:miter;"/>
   </g>
   <g id="patch_6">
    <path d="M 66.125 109.55 
L 438.4375 109.55 
" style="fill:none;stroke:#000000;stroke-linecap:square;stroke-linejoin:miter;"/>
   </g>
   <g id="text_19">
    <!-- Daily Cases -->
    <defs>
     <path d="M 19.671875 64.796875 
L 19.671875 8.109375 
L 31.59375 8.109375 
Q 46.6875 8.109375 53.6875 14.9375 
Q 60.6875 21.78125 60.6875 36.53125 
Q 60.6875 51.171875 53.6875 57.984375 
Q 46.6875 64.796875 31.59375 64.796875 
z
M 9.8125 72.90625 
L 30.078125 72.90625 
Q 51.265625 72.90625 61.171875 64.09375 
Q 71.09375 55.28125 71.09375 36.53125 
Q 71.09375 17.671875 61.125 8.828125 
Q 51.171875 0 30.078125 0 
L 9.8125 0 
z
" id="DejaVuSans-68"/>
     <path d="M 9.421875 54.6875 
L 18.40625 54.6875 
L 18.40625 0 
L 9.421875 0 
z
M 9.421875 75.984375 
L 18.40625 75.984375 
L 18.40625 64.59375 
L 9.421875 64.59375 
z
" id="DejaVuSans-105"/>
     <path d="M 9.421875 75.984375 
L 18.40625 75.984375 
L 18.40625 0 
L 9.421875 0 
z
" id="DejaVuSans-108"/>
     <path id="DejaVuSans-32"/>
    </defs>
    <g transform="translate(194.117188 94.55)scale(0.2 -0.2)">
     <use xlink:href="#DejaVuSans-68"/>
     <use x="77.001953" xlink:href="#DejaVuSans-97"/>
     <use x="138.28125" xlink:href="#DejaVuSans-105"/>
     <use x="166.064453" xlink:href="#DejaVuSans-108"/>
     <use x="193.847656" xlink:href="#DejaVuSans-121"/>
     <use x="253.027344" xlink:href="#DejaVuSans-32"/>
     <use x="284.814453" xlink:href="#DejaVuSans-67"/>
     <use x="354.638672" xlink:href="#DejaVuSans-97"/>
     <use x="415.917969" xlink:href="#DejaVuSans-115"/>
     <use x="468.017578" xlink:href="#DejaVuSans-101"/>
     <use x="529.541016" xlink:href="#DejaVuSans-115"/>
    </g>
   </g>
   <g id="legend_1">
    <g id="patch_7">
     <path d="M 369.56875 136.235 
L 432.8375 136.235 
Q 434.4375 136.235 434.4375 134.635 
L 434.4375 115.15 
Q 434.4375 113.55 432.8375 113.55 
L 369.56875 113.55 
Q 367.96875 113.55 367.96875 115.15 
L 367.96875 134.635 
Q 367.96875 136.235 369.56875 136.235 
z
" style="fill:#ffffff;opacity:0.5;stroke:#cccccc;stroke-linejoin:miter;"/>
    </g>
    <g id="line2d_28">
     <path d="M 369.56875 118.42875 
L 385.56875 118.42875 
" style="fill:none;stroke:#1f77b4;stroke-linecap:square;stroke-width:3;"/>
    </g>
    <g id="line2d_29"/>
    <g id="text_20">
     <!-- Smoothed -->
     <defs>
      <path d="M 53.515625 70.515625 
L 53.515625 60.890625 
Q 47.90625 63.578125 42.921875 64.890625 
Q 37.9375 66.21875 33.296875 66.21875 
Q 25.25 66.21875 20.875 63.09375 
Q 16.5 59.96875 16.5 54.203125 
Q 16.5 49.359375 19.40625 46.890625 
Q 22.3125 44.4375 30.421875 42.921875 
L 36.375 41.703125 
Q 47.40625 39.59375 52.65625 34.296875 
Q 57.90625 29 57.90625 20.125 
Q 57.90625 9.515625 50.796875 4.046875 
Q 43.703125 -1.421875 29.984375 -1.421875 
Q 24.8125 -1.421875 18.96875 -0.25 
Q 13.140625 0.921875 6.890625 3.21875 
L 6.890625 13.375 
Q 12.890625 10.015625 18.65625 8.296875 
Q 24.421875 6.59375 29.984375 6.59375 
Q 38.421875 6.59375 43.015625 9.90625 
Q 47.609375 13.234375 47.609375 19.390625 
Q 47.609375 24.75 44.3125 27.78125 
Q 41.015625 30.8125 33.5 32.328125 
L 27.484375 33.5 
Q 16.453125 35.6875 11.515625 40.375 
Q 6.59375 45.0625 6.59375 53.421875 
Q 6.59375 63.09375 13.40625 68.65625 
Q 20.21875 74.21875 32.171875 74.21875 
Q 37.3125 74.21875 42.625 73.28125 
Q 47.953125 72.359375 53.515625 70.515625 
z
" id="DejaVuSans-83"/>
      <path d="M 52 44.1875 
Q 55.375 50.25 60.0625 53.125 
Q 64.75 56 71.09375 56 
Q 79.640625 56 84.28125 50.015625 
Q 88.921875 44.046875 88.921875 33.015625 
L 88.921875 0 
L 79.890625 0 
L 79.890625 32.71875 
Q 79.890625 40.578125 77.09375 44.375 
Q 74.3125 48.1875 68.609375 48.1875 
Q 61.625 48.1875 57.5625 43.546875 
Q 53.515625 38.921875 53.515625 30.90625 
L 53.515625 0 
L 44.484375 0 
L 44.484375 32.71875 
Q 44.484375 40.625 41.703125 44.40625 
Q 38.921875 48.1875 33.109375 48.1875 
Q 26.21875 48.1875 22.15625 43.53125 
Q 18.109375 38.875 18.109375 30.90625 
L 18.109375 0 
L 9.078125 0 
L 9.078125 54.6875 
L 18.109375 54.6875 
L 18.109375 46.1875 
Q 21.1875 51.21875 25.484375 53.609375 
Q 29.78125 56 35.6875 56 
Q 41.65625 56 45.828125 52.96875 
Q 50 49.953125 52 44.1875 
z
" id="DejaVuSans-109"/>
      <path d="M 30.609375 48.390625 
Q 23.390625 48.390625 19.1875 42.75 
Q 14.984375 37.109375 14.984375 27.296875 
Q 14.984375 17.484375 19.15625 11.84375 
Q 23.34375 6.203125 30.609375 6.203125 
Q 37.796875 6.203125 41.984375 11.859375 
Q 46.1875 17.53125 46.1875 27.296875 
Q 46.1875 37.015625 41.984375 42.703125 
Q 37.796875 48.390625 30.609375 48.390625 
z
M 30.609375 56 
Q 42.328125 56 49.015625 48.375 
Q 55.71875 40.765625 55.71875 27.296875 
Q 55.71875 13.875 49.015625 6.21875 
Q 42.328125 -1.421875 30.609375 -1.421875 
Q 18.84375 -1.421875 12.171875 6.21875 
Q 5.515625 13.875 5.515625 27.296875 
Q 5.515625 40.765625 12.171875 48.375 
Q 18.84375 56 30.609375 56 
z
" id="DejaVuSans-111"/>
      <path d="M 18.3125 70.21875 
L 18.3125 54.6875 
L 36.8125 54.6875 
L 36.8125 47.703125 
L 18.3125 47.703125 
L 18.3125 18.015625 
Q 18.3125 11.328125 20.140625 9.421875 
Q 21.96875 7.515625 27.59375 7.515625 
L 36.8125 7.515625 
L 36.8125 0 
L 27.59375 0 
Q 17.1875 0 13.234375 3.875 
Q 9.28125 7.765625 9.28125 18.015625 
L 9.28125 47.703125 
L 2.6875 47.703125 
L 2.6875 54.6875 
L 9.28125 54.6875 
L 9.28125 70.21875 
z
" id="DejaVuSans-116"/>
      <path d="M 54.890625 33.015625 
L 54.890625 0 
L 45.90625 0 
L 45.90625 32.71875 
Q 45.90625 40.484375 42.875 44.328125 
Q 39.84375 48.1875 33.796875 48.1875 
Q 26.515625 48.1875 22.3125 43.546875 
Q 18.109375 38.921875 18.109375 30.90625 
L 18.109375 0 
L 9.078125 0 
L 9.078125 75.984375 
L 18.109375 75.984375 
L 18.109375 46.1875 
Q 21.34375 51.125 25.703125 53.5625 
Q 30.078125 56 35.796875 56 
Q 45.21875 56 50.046875 50.171875 
Q 54.890625 44.34375 54.890625 33.015625 
z
" id="DejaVuSans-104"/>
      <path d="M 45.40625 46.390625 
L 45.40625 75.984375 
L 54.390625 75.984375 
L 54.390625 0 
L 45.40625 0 
L 45.40625 8.203125 
Q 42.578125 3.328125 38.25 0.953125 
Q 33.9375 -1.421875 27.875 -1.421875 
Q 17.96875 -1.421875 11.734375 6.484375 
Q 5.515625 14.40625 5.515625 27.296875 
Q 5.515625 40.1875 11.734375 48.09375 
Q 17.96875 56 27.875 56 
Q 33.9375 56 38.25 53.625 
Q 42.578125 51.265625 45.40625 46.390625 
z
M 14.796875 27.296875 
Q 14.796875 17.390625 18.875 11.75 
Q 22.953125 6.109375 30.078125 6.109375 
Q 37.203125 6.109375 41.296875 11.75 
Q 45.40625 17.390625 45.40625 27.296875 
Q 45.40625 37.203125 41.296875 42.84375 
Q 37.203125 48.484375 30.078125 48.484375 
Q 22.953125 48.484375 18.875 42.84375 
Q 14.796875 37.203125 14.796875 27.296875 
z
" id="DejaVuSans-100"/>
     </defs>
     <g transform="translate(391.96875 121.22875)scale(0.08 -0.08)">
      <use xlink:href="#DejaVuSans-83"/>
      <use x="63.476562" xlink:href="#DejaVuSans-109"/>
      <use x="160.888672" xlink:href="#DejaVuSans-111"/>
      <use x="222.070312" xlink:href="#DejaVuSans-111"/>
      <use x="283.251953" xlink:href="#DejaVuSans-116"/>
      <use x="322.460938" xlink:href="#DejaVuSans-104"/>
      <use x="385.839844" xlink:href="#DejaVuSans-101"/>
      <use x="447.363281" xlink:href="#DejaVuSans-100"/>
     </g>
    </g>
    <g id="line2d_30"/>
    <g id="line2d_31">
     <g>
      <use style="stroke:#000000;" x="377.56875" xlink:href="#m5ebb470709" y="130.17125"/>
     </g>
    </g>
    <g id="text_21">
     <!-- Raw -->
     <defs>
      <path d="M 44.390625 34.1875 
Q 47.5625 33.109375 50.5625 29.59375 
Q 53.5625 26.078125 56.59375 19.921875 
L 66.609375 0 
L 56 0 
L 46.6875 18.703125 
Q 43.0625 26.03125 39.671875 28.421875 
Q 36.28125 30.8125 30.421875 30.8125 
L 19.671875 30.8125 
L 19.671875 0 
L 9.8125 0 
L 9.8125 72.90625 
L 32.078125 72.90625 
Q 44.578125 72.90625 50.734375 67.671875 
Q 56.890625 62.453125 56.890625 51.90625 
Q 56.890625 45.015625 53.6875 40.46875 
Q 50.484375 35.9375 44.390625 34.1875 
z
M 19.671875 64.796875 
L 19.671875 38.921875 
L 32.078125 38.921875 
Q 39.203125 38.921875 42.84375 42.21875 
Q 46.484375 45.515625 46.484375 51.90625 
Q 46.484375 58.296875 42.84375 61.546875 
Q 39.203125 64.796875 32.078125 64.796875 
z
" id="DejaVuSans-82"/>
      <path d="M 4.203125 54.6875 
L 13.1875 54.6875 
L 24.421875 12.015625 
L 35.59375 54.6875 
L 46.1875 54.6875 
L 57.421875 12.015625 
L 68.609375 54.6875 
L 77.59375 54.6875 
L 63.28125 0 
L 52.6875 0 
L 40.921875 44.828125 
L 29.109375 0 
L 18.5 0 
z
" id="DejaVuSans-119"/>
     </defs>
     <g transform="translate(391.96875 132.97125)scale(0.08 -0.08)">
      <use xlink:href="#DejaVuSans-82"/>
      <use x="67.232422" xlink:href="#DejaVuSans-97"/>
      <use x="128.511719" xlink:href="#DejaVuSans-119"/>
     </g>
    </g>
   </g>
  </g>
  <g id="axes_2">
   <g id="patch_8">
    <path d="M 514.125 302.4 
L 886.4375 302.4 
L 886.4375 109.55 
L 514.125 109.55 
z
" style="fill:#ffffff;"/>
   </g>
   <g id="matplotlib.axis_3">
    <g id="xtick_13">
     <g id="line2d_32">
      <path clip-path="url(#p4ac0ca2dd0)" d="M 514.125 302.4 
L 514.125 109.55 
" style="fill:none;stroke:#000000;stroke-linecap:square;stroke-opacity:0.2;stroke-width:0.5;"/>
     </g>
     <g id="line2d_33">
      <g>
       <use style="stroke:#000000;stroke-width:0.8;" x="514.125" xlink:href="#mfdc2462633" y="302.4"/>
      </g>
     </g>
     <g id="text_22">
      <!-- 26 -->
      <g transform="translate(506.49 318.518125)scale(0.12 -0.12)">
       <use xlink:href="#DejaVuSans-50"/>
       <use x="63.623047" xlink:href="#DejaVuSans-54"/>
      </g>
     </g>
    </g>
    <g id="xtick_14">
     <g id="line2d_34">
      <path clip-path="url(#p4ac0ca2dd0)" d="M 683.357955 302.4 
L 683.357955 109.55 
" style="fill:none;stroke:#000000;stroke-linecap:square;stroke-opacity:0.2;stroke-width:0.5;"/>
     </g>
     <g id="line2d_35">
      <g>
       <use style="stroke:#000000;stroke-width:0.8;" x="683.357955" xlink:href="#mfdc2462633" y="302.4"/>
      </g>
     </g>
     <g id="text_23">
      <!-- 01 -->
      <g transform="translate(675.722955 318.518125)scale(0.12 -0.12)">
       <use xlink:href="#DejaVuSans-48"/>
       <use x="63.623047" xlink:href="#DejaVuSans-49"/>
      </g>
      <!-- May -->
      <g transform="translate(670.952955 331.9555)scale(0.12 -0.12)">
       <use xlink:href="#DejaVuSans-77"/>
       <use x="86.279297" xlink:href="#DejaVuSans-97"/>
       <use x="147.558594" xlink:href="#DejaVuSans-121"/>
      </g>
      <!-- 2020 -->
      <g transform="translate(668.087955 345.392875)scale(0.12 -0.12)">
       <use xlink:href="#DejaVuSans-50"/>
       <use x="63.623047" xlink:href="#DejaVuSans-48"/>
       <use x="127.246094" xlink:href="#DejaVuSans-50"/>
       <use x="190.869141" xlink:href="#DejaVuSans-48"/>
      </g>
     </g>
    </g>
    <g id="xtick_15">
     <g id="line2d_36">
      <path clip-path="url(#p4ac0ca2dd0)" d="M 886.4375 302.4 
L 886.4375 109.55 
" style="fill:none;stroke:#000000;stroke-linecap:square;stroke-opacity:0.2;stroke-width:0.5;"/>
     </g>
     <g id="line2d_37">
      <g>
       <use style="stroke:#000000;stroke-width:0.8;" x="886.4375" xlink:href="#mfdc2462633" y="302.4"/>
      </g>
     </g>
     <g id="text_24">
      <!-- 07 -->
      <g transform="translate(878.8025 318.518125)scale(0.12 -0.12)">
       <use xlink:href="#DejaVuSans-48"/>
       <use x="63.623047" xlink:href="#DejaVuSans-55"/>
      </g>
     </g>
    </g>
    <g id="xtick_16">
     <g id="line2d_38">
      <g>
       <use style="stroke:#000000;stroke-width:0.6;" x="547.971591" xlink:href="#m5c9d0b2bce" y="302.4"/>
      </g>
     </g>
     <g id="text_25">
      <!-- 27 -->
      <g transform="translate(540.336591 316.918125)scale(0.12 -0.12)">
       <use xlink:href="#DejaVuSans-50"/>
       <use x="63.623047" xlink:href="#DejaVuSans-55"/>
      </g>
     </g>
    </g>
    <g id="xtick_17">
     <g id="line2d_39">
      <g>
       <use style="stroke:#000000;stroke-width:0.6;" x="581.818182" xlink:href="#m5c9d0b2bce" y="302.4"/>
      </g>
     </g>
     <g id="text_26">
      <!-- 28 -->
      <g transform="translate(574.183182 316.918125)scale(0.12 -0.12)">
       <use xlink:href="#DejaVuSans-50"/>
       <use x="63.623047" xlink:href="#DejaVuSans-56"/>
      </g>
     </g>
    </g>
    <g id="xtick_18">
     <g id="line2d_40">
      <g>
       <use style="stroke:#000000;stroke-width:0.6;" x="615.664773" xlink:href="#m5c9d0b2bce" y="302.4"/>
      </g>
     </g>
     <g id="text_27">
      <!-- 29 -->
      <g transform="translate(608.029773 316.918125)scale(0.12 -0.12)">
       <use xlink:href="#DejaVuSans-50"/>
       <use x="63.623047" xlink:href="#DejaVuSans-57"/>
      </g>
     </g>
    </g>
    <g id="xtick_19">
     <g id="line2d_41">
      <g>
       <use style="stroke:#000000;stroke-width:0.6;" x="649.511364" xlink:href="#m5c9d0b2bce" y="302.4"/>
      </g>
     </g>
     <g id="text_28">
      <!-- 30 -->
      <g transform="translate(641.876364 316.918125)scale(0.12 -0.12)">
       <use xlink:href="#DejaVuSans-51"/>
       <use x="63.623047" xlink:href="#DejaVuSans-48"/>
      </g>
     </g>
    </g>
    <g id="xtick_20">
     <g id="line2d_42">
      <g>
       <use style="stroke:#000000;stroke-width:0.6;" x="717.204545" xlink:href="#m5c9d0b2bce" y="302.4"/>
      </g>
     </g>
     <g id="text_29">
      <!-- 02 -->
      <g transform="translate(709.569545 316.918125)scale(0.12 -0.12)">
       <use xlink:href="#DejaVuSans-48"/>
       <use x="63.623047" xlink:href="#DejaVuSans-50"/>
      </g>
     </g>
    </g>
    <g id="xtick_21">
     <g id="line2d_43">
      <g>
       <use style="stroke:#000000;stroke-width:0.6;" x="751.051136" xlink:href="#m5c9d0b2bce" y="302.4"/>
      </g>
     </g>
     <g id="text_30">
      <!-- 03 -->
      <g transform="translate(743.416136 316.918125)scale(0.12 -0.12)">
       <use xlink:href="#DejaVuSans-48"/>
       <use x="63.623047" xlink:href="#DejaVuSans-51"/>
      </g>
     </g>
    </g>
    <g id="xtick_22">
     <g id="line2d_44">
      <g>
       <use style="stroke:#000000;stroke-width:0.6;" x="784.897727" xlink:href="#m5c9d0b2bce" y="302.4"/>
      </g>
     </g>
     <g id="text_31">
      <!-- 04 -->
      <g transform="translate(777.262727 316.918125)scale(0.12 -0.12)">
       <use xlink:href="#DejaVuSans-48"/>
       <use x="63.623047" xlink:href="#DejaVuSans-52"/>
      </g>
     </g>
    </g>
    <g id="xtick_23">
     <g id="line2d_45">
      <g>
       <use style="stroke:#000000;stroke-width:0.6;" x="818.744318" xlink:href="#m5c9d0b2bce" y="302.4"/>
      </g>
     </g>
     <g id="text_32">
      <!-- 05 -->
      <g transform="translate(811.109318 316.918125)scale(0.12 -0.12)">
       <use xlink:href="#DejaVuSans-48"/>
       <use x="63.623047" xlink:href="#DejaVuSans-53"/>
      </g>
     </g>
    </g>
    <g id="xtick_24">
     <g id="line2d_46">
      <g>
       <use style="stroke:#000000;stroke-width:0.6;" x="852.590909" xlink:href="#m5c9d0b2bce" y="302.4"/>
      </g>
     </g>
     <g id="text_33">
      <!-- 06 -->
      <g transform="translate(844.955909 316.918125)scale(0.12 -0.12)">
       <use xlink:href="#DejaVuSans-48"/>
       <use x="63.623047" xlink:href="#DejaVuSans-54"/>
      </g>
     </g>
    </g>
   </g>
   <g id="matplotlib.axis_4">
    <g id="ytick_6">
     <g id="line2d_47">
      <path clip-path="url(#p4ac0ca2dd0)" d="M 514.125 300.009298 
L 886.4375 300.009298 
" style="fill:none;stroke:#000000;stroke-linecap:square;stroke-opacity:0.2;stroke-width:0.5;"/>
     </g>
     <g id="line2d_48">
      <g>
       <use style="stroke:#000000;stroke-width:0.8;" x="514.125" xlink:href="#m7d31716de4" y="300.009298"/>
      </g>
     </g>
     <g id="text_34">
      <!-- 100 -->
      <g transform="translate(484.22 304.56836)scale(0.12 -0.12)">
       <use xlink:href="#DejaVuSans-49"/>
       <use x="63.623047" xlink:href="#DejaVuSans-48"/>
       <use x="127.246094" xlink:href="#DejaVuSans-48"/>
      </g>
     </g>
    </g>
    <g id="ytick_7">
     <g id="line2d_49">
      <path clip-path="url(#p4ac0ca2dd0)" d="M 514.125 268.133264 
L 886.4375 268.133264 
" style="fill:none;stroke:#000000;stroke-linecap:square;stroke-opacity:0.2;stroke-width:0.5;"/>
     </g>
     <g id="line2d_50">
      <g>
       <use style="stroke:#000000;stroke-width:0.8;" x="514.125" xlink:href="#m7d31716de4" y="268.133264"/>
      </g>
     </g>
     <g id="text_35">
      <!-- 120 -->
      <g transform="translate(484.22 272.692327)scale(0.12 -0.12)">
       <use xlink:href="#DejaVuSans-49"/>
       <use x="63.623047" xlink:href="#DejaVuSans-50"/>
       <use x="127.246094" xlink:href="#DejaVuSans-48"/>
      </g>
     </g>
    </g>
    <g id="ytick_8">
     <g id="line2d_51">
      <path clip-path="url(#p4ac0ca2dd0)" d="M 514.125 236.257231 
L 886.4375 236.257231 
" style="fill:none;stroke:#000000;stroke-linecap:square;stroke-opacity:0.2;stroke-width:0.5;"/>
     </g>
     <g id="line2d_52">
      <g>
       <use style="stroke:#000000;stroke-width:0.8;" x="514.125" xlink:href="#m7d31716de4" y="236.257231"/>
      </g>
     </g>
     <g id="text_36">
      <!-- 140 -->
      <g transform="translate(484.22 240.816294)scale(0.12 -0.12)">
       <use xlink:href="#DejaVuSans-49"/>
       <use x="63.623047" xlink:href="#DejaVuSans-52"/>
       <use x="127.246094" xlink:href="#DejaVuSans-48"/>
      </g>
     </g>
    </g>
    <g id="ytick_9">
     <g id="line2d_53">
      <path clip-path="url(#p4ac0ca2dd0)" d="M 514.125 204.381198 
L 886.4375 204.381198 
" style="fill:none;stroke:#000000;stroke-linecap:square;stroke-opacity:0.2;stroke-width:0.5;"/>
     </g>
     <g id="line2d_54">
      <g>
       <use style="stroke:#000000;stroke-width:0.8;" x="514.125" xlink:href="#m7d31716de4" y="204.381198"/>
      </g>
     </g>
     <g id="text_37">
      <!-- 160 -->
      <g transform="translate(484.22 208.940261)scale(0.12 -0.12)">
       <use xlink:href="#DejaVuSans-49"/>
       <use x="63.623047" xlink:href="#DejaVuSans-54"/>
       <use x="127.246094" xlink:href="#DejaVuSans-48"/>
      </g>
     </g>
    </g>
    <g id="ytick_10">
     <g id="line2d_55">
      <path clip-path="url(#p4ac0ca2dd0)" d="M 514.125 172.505165 
L 886.4375 172.505165 
" style="fill:none;stroke:#000000;stroke-linecap:square;stroke-opacity:0.2;stroke-width:0.5;"/>
     </g>
     <g id="line2d_56">
      <g>
       <use style="stroke:#000000;stroke-width:0.8;" x="514.125" xlink:href="#m7d31716de4" y="172.505165"/>
      </g>
     </g>
     <g id="text_38">
      <!-- 180 -->
      <g transform="translate(484.22 177.064228)scale(0.12 -0.12)">
       <use xlink:href="#DejaVuSans-49"/>
       <use x="63.623047" xlink:href="#DejaVuSans-56"/>
       <use x="127.246094" xlink:href="#DejaVuSans-48"/>
      </g>
     </g>
    </g>
    <g id="ytick_11">
     <g id="line2d_57">
      <path clip-path="url(#p4ac0ca2dd0)" d="M 514.125 140.629132 
L 886.4375 140.629132 
" style="fill:none;stroke:#000000;stroke-linecap:square;stroke-opacity:0.2;stroke-width:0.5;"/>
     </g>
     <g id="line2d_58">
      <g>
       <use style="stroke:#000000;stroke-width:0.8;" x="514.125" xlink:href="#m7d31716de4" y="140.629132"/>
      </g>
     </g>
     <g id="text_39">
      <!-- 200 -->
      <g transform="translate(484.22 145.188195)scale(0.12 -0.12)">
       <use xlink:href="#DejaVuSans-50"/>
       <use x="63.623047" xlink:href="#DejaVuSans-48"/>
       <use x="127.246094" xlink:href="#DejaVuSans-48"/>
      </g>
     </g>
    </g>
    <g id="text_40">
     <!-- Cases -->
     <g transform="translate(477.308438 226.752969)rotate(-90)scale(0.14 -0.14)">
      <use xlink:href="#DejaVuSans-67"/>
      <use x="69.824219" xlink:href="#DejaVuSans-97"/>
      <use x="131.103516" xlink:href="#DejaVuSans-115"/>
      <use x="183.203125" xlink:href="#DejaVuSans-101"/>
      <use x="244.726562" xlink:href="#DejaVuSans-115"/>
     </g>
    </g>
   </g>
   <g id="line2d_59">
    <path clip-path="url(#p4ac0ca2dd0)" d="M 514.125 293.634091 
L 547.971591 285.665083 
L 581.818182 258.570455 
L 615.664773 239.444835 
L 649.511364 210.756405 
L 683.357955 198.005992 
L 717.204545 194.818388 
L 751.051136 174.098967 
L 784.897727 169.317562 
L 818.744318 159.754752 
L 852.590909 127.878719 
L 886.4375 118.315909 
" style="fill:none;stroke:#1f77b4;stroke-linecap:square;stroke-width:3;"/>
   </g>
   <g id="patch_9">
    <path d="M 514.125 302.4 
L 514.125 109.55 
" style="fill:none;stroke:#000000;stroke-linecap:square;stroke-linejoin:miter;"/>
   </g>
   <g id="patch_10">
    <path d="M 886.4375 302.4 
L 886.4375 109.55 
" style="fill:none;stroke:#000000;stroke-linecap:square;stroke-linejoin:miter;"/>
   </g>
   <g id="patch_11">
    <path d="M 514.125 302.4 
L 886.4375 302.4 
" style="fill:none;stroke:#000000;stroke-linecap:square;stroke-linejoin:miter;"/>
   </g>
   <g id="patch_12">
    <path d="M 514.125 109.55 
L 886.4375 109.55 
" style="fill:none;stroke:#000000;stroke-linecap:square;stroke-linejoin:miter;"/>
   </g>
   <g id="text_41">
    <!-- Cumulative Cases -->
    <defs>
     <path d="M 8.5 21.578125 
L 8.5 54.6875 
L 17.484375 54.6875 
L 17.484375 21.921875 
Q 17.484375 14.15625 20.5 10.265625 
Q 23.53125 6.390625 29.59375 6.390625 
Q 36.859375 6.390625 41.078125 11.03125 
Q 45.3125 15.671875 45.3125 23.6875 
L 45.3125 54.6875 
L 54.296875 54.6875 
L 54.296875 0 
L 45.3125 0 
L 45.3125 8.40625 
Q 42.046875 3.421875 37.71875 1 
Q 33.40625 -1.421875 27.6875 -1.421875 
Q 18.265625 -1.421875 13.375 4.4375 
Q 8.5 10.296875 8.5 21.578125 
z
M 31.109375 56 
z
" id="DejaVuSans-117"/>
     <path d="M 2.984375 54.6875 
L 12.5 54.6875 
L 29.59375 8.796875 
L 46.6875 54.6875 
L 56.203125 54.6875 
L 35.6875 0 
L 23.484375 0 
z
" id="DejaVuSans-118"/>
    </defs>
    <g transform="translate(610.345312 94.55)scale(0.2 -0.2)">
     <use xlink:href="#DejaVuSans-67"/>
     <use x="69.824219" xlink:href="#DejaVuSans-117"/>
     <use x="133.203125" xlink:href="#DejaVuSans-109"/>
     <use x="230.615234" xlink:href="#DejaVuSans-117"/>
     <use x="293.994141" xlink:href="#DejaVuSans-108"/>
     <use x="321.777344" xlink:href="#DejaVuSans-97"/>
     <use x="383.056641" xlink:href="#DejaVuSans-116"/>
     <use x="422.265625" xlink:href="#DejaVuSans-105"/>
     <use x="450.048828" xlink:href="#DejaVuSans-118"/>
     <use x="509.228516" xlink:href="#DejaVuSans-101"/>
     <use x="570.751953" xlink:href="#DejaVuSans-32"/>
     <use x="602.539062" xlink:href="#DejaVuSans-67"/>
     <use x="672.363281" xlink:href="#DejaVuSans-97"/>
     <use x="733.642578" xlink:href="#DejaVuSans-115"/>
     <use x="785.742188" xlink:href="#DejaVuSans-101"/>
     <use x="847.265625" xlink:href="#DejaVuSans-115"/>
    </g>
   </g>
  </g>
  <g id="axes_3">
   <g id="patch_13">
    <path d="M 66.125 589 
L 438.4375 589 
L 438.4375 396.15 
L 66.125 396.15 
z
" style="fill:#ffffff;"/>
   </g>
   <g id="matplotlib.axis_5">
    <g id="xtick_25">
     <g id="line2d_60">
      <path clip-path="url(#paf5f9c6885)" d="M 66.125 589 
L 66.125 396.15 
" style="fill:none;stroke:#000000;stroke-linecap:square;stroke-opacity:0.2;stroke-width:0.5;"/>
     </g>
     <g id="line2d_61">
      <g>
       <use style="stroke:#000000;stroke-width:0.8;" x="66.125" xlink:href="#mfdc2462633" y="589"/>
      </g>
     </g>
     <g id="text_42">
      <!-- 26 -->
      <g transform="translate(58.49 605.118125)scale(0.12 -0.12)">
       <use xlink:href="#DejaVuSans-50"/>
       <use x="63.623047" xlink:href="#DejaVuSans-54"/>
      </g>
     </g>
    </g>
    <g id="xtick_26">
     <g id="line2d_62">
      <path clip-path="url(#paf5f9c6885)" d="M 235.357955 589 
L 235.357955 396.15 
" style="fill:none;stroke:#000000;stroke-linecap:square;stroke-opacity:0.2;stroke-width:0.5;"/>
     </g>
     <g id="line2d_63">
      <g>
       <use style="stroke:#000000;stroke-width:0.8;" x="235.357955" xlink:href="#mfdc2462633" y="589"/>
      </g>
     </g>
     <g id="text_43">
      <!-- 01 -->
      <g transform="translate(227.722955 605.118125)scale(0.12 -0.12)">
       <use xlink:href="#DejaVuSans-48"/>
       <use x="63.623047" xlink:href="#DejaVuSans-49"/>
      </g>
      <!-- May -->
      <g transform="translate(222.952955 618.5555)scale(0.12 -0.12)">
       <use xlink:href="#DejaVuSans-77"/>
       <use x="86.279297" xlink:href="#DejaVuSans-97"/>
       <use x="147.558594" xlink:href="#DejaVuSans-121"/>
      </g>
      <!-- 2020 -->
      <g transform="translate(220.087955 631.992875)scale(0.12 -0.12)">
       <use xlink:href="#DejaVuSans-50"/>
       <use x="63.623047" xlink:href="#DejaVuSans-48"/>
       <use x="127.246094" xlink:href="#DejaVuSans-50"/>
       <use x="190.869141" xlink:href="#DejaVuSans-48"/>
      </g>
     </g>
    </g>
    <g id="xtick_27">
     <g id="line2d_64">
      <path clip-path="url(#paf5f9c6885)" d="M 438.4375 589 
L 438.4375 396.15 
" style="fill:none;stroke:#000000;stroke-linecap:square;stroke-opacity:0.2;stroke-width:0.5;"/>
     </g>
     <g id="line2d_65">
      <g>
       <use style="stroke:#000000;stroke-width:0.8;" x="438.4375" xlink:href="#mfdc2462633" y="589"/>
      </g>
     </g>
     <g id="text_44">
      <!-- 07 -->
      <g transform="translate(430.8025 605.118125)scale(0.12 -0.12)">
       <use xlink:href="#DejaVuSans-48"/>
       <use x="63.623047" xlink:href="#DejaVuSans-55"/>
      </g>
     </g>
    </g>
    <g id="xtick_28">
     <g id="line2d_66">
      <g>
       <use style="stroke:#000000;stroke-width:0.6;" x="99.971591" xlink:href="#m5c9d0b2bce" y="589"/>
      </g>
     </g>
     <g id="text_45">
      <!-- 27 -->
      <g transform="translate(92.336591 603.518125)scale(0.12 -0.12)">
       <use xlink:href="#DejaVuSans-50"/>
       <use x="63.623047" xlink:href="#DejaVuSans-55"/>
      </g>
     </g>
    </g>
    <g id="xtick_29">
     <g id="line2d_67">
      <g>
       <use style="stroke:#000000;stroke-width:0.6;" x="133.818182" xlink:href="#m5c9d0b2bce" y="589"/>
      </g>
     </g>
     <g id="text_46">
      <!-- 28 -->
      <g transform="translate(126.183182 603.518125)scale(0.12 -0.12)">
       <use xlink:href="#DejaVuSans-50"/>
       <use x="63.623047" xlink:href="#DejaVuSans-56"/>
      </g>
     </g>
    </g>
    <g id="xtick_30">
     <g id="line2d_68">
      <g>
       <use style="stroke:#000000;stroke-width:0.6;" x="167.664773" xlink:href="#m5c9d0b2bce" y="589"/>
      </g>
     </g>
     <g id="text_47">
      <!-- 29 -->
      <g transform="translate(160.029773 603.518125)scale(0.12 -0.12)">
       <use xlink:href="#DejaVuSans-50"/>
       <use x="63.623047" xlink:href="#DejaVuSans-57"/>
      </g>
     </g>
    </g>
    <g id="xtick_31">
     <g id="line2d_69">
      <g>
       <use style="stroke:#000000;stroke-width:0.6;" x="201.511364" xlink:href="#m5c9d0b2bce" y="589"/>
      </g>
     </g>
     <g id="text_48">
      <!-- 30 -->
      <g transform="translate(193.876364 603.518125)scale(0.12 -0.12)">
       <use xlink:href="#DejaVuSans-51"/>
       <use x="63.623047" xlink:href="#DejaVuSans-48"/>
      </g>
     </g>
    </g>
    <g id="xtick_32">
     <g id="line2d_70">
      <g>
       <use style="stroke:#000000;stroke-width:0.6;" x="269.204545" xlink:href="#m5c9d0b2bce" y="589"/>
      </g>
     </g>
     <g id="text_49">
      <!-- 02 -->
      <g transform="translate(261.569545 603.518125)scale(0.12 -0.12)">
       <use xlink:href="#DejaVuSans-48"/>
       <use x="63.623047" xlink:href="#DejaVuSans-50"/>
      </g>
     </g>
    </g>
    <g id="xtick_33">
     <g id="line2d_71">
      <g>
       <use style="stroke:#000000;stroke-width:0.6;" x="303.051136" xlink:href="#m5c9d0b2bce" y="589"/>
      </g>
     </g>
     <g id="text_50">
      <!-- 03 -->
      <g transform="translate(295.416136 603.518125)scale(0.12 -0.12)">
       <use xlink:href="#DejaVuSans-48"/>
       <use x="63.623047" xlink:href="#DejaVuSans-51"/>
      </g>
     </g>
    </g>
    <g id="xtick_34">
     <g id="line2d_72">
      <g>
       <use style="stroke:#000000;stroke-width:0.6;" x="336.897727" xlink:href="#m5c9d0b2bce" y="589"/>
      </g>
     </g>
     <g id="text_51">
      <!-- 04 -->
      <g transform="translate(329.262727 603.518125)scale(0.12 -0.12)">
       <use xlink:href="#DejaVuSans-48"/>
       <use x="63.623047" xlink:href="#DejaVuSans-52"/>
      </g>
     </g>
    </g>
    <g id="xtick_35">
     <g id="line2d_73">
      <g>
       <use style="stroke:#000000;stroke-width:0.6;" x="370.744318" xlink:href="#m5c9d0b2bce" y="589"/>
      </g>
     </g>
     <g id="text_52">
      <!-- 05 -->
      <g transform="translate(363.109318 603.518125)scale(0.12 -0.12)">
       <use xlink:href="#DejaVuSans-48"/>
       <use x="63.623047" xlink:href="#DejaVuSans-53"/>
      </g>
     </g>
    </g>
    <g id="xtick_36">
     <g id="line2d_74">
      <g>
       <use style="stroke:#000000;stroke-width:0.6;" x="404.590909" xlink:href="#m5c9d0b2bce" y="589"/>
      </g>
     </g>
     <g id="text_53">
      <!-- 06 -->
      <g transform="translate(396.955909 603.518125)scale(0.12 -0.12)">
       <use xlink:href="#DejaVuSans-48"/>
       <use x="63.623047" xlink:href="#DejaVuSans-54"/>
      </g>
     </g>
    </g>
   </g>
   <g id="matplotlib.axis_6">
    <g id="ytick_12">
     <g id="line2d_75">
      <path clip-path="url(#paf5f9c6885)" d="M 66.125 580.234091 
L 438.4375 580.234091 
" style="fill:none;stroke:#000000;stroke-linecap:square;stroke-opacity:0.2;stroke-width:0.5;"/>
     </g>
     <g id="line2d_76">
      <g>
       <use style="stroke:#000000;stroke-width:0.8;" x="66.125" xlink:href="#m7d31716de4" y="580.234091"/>
      </g>
     </g>
     <g id="text_54">
      <!-- 0.00 -->
      <defs>
       <path d="M 10.6875 12.40625 
L 21 12.40625 
L 21 0 
L 10.6875 0 
z
" id="DejaVuSans-46"/>
      </defs>
      <g transform="translate(32.40625 584.793153)scale(0.12 -0.12)">
       <use xlink:href="#DejaVuSans-48"/>
       <use x="63.623047" xlink:href="#DejaVuSans-46"/>
       <use x="95.410156" xlink:href="#DejaVuSans-48"/>
       <use x="159.033203" xlink:href="#DejaVuSans-48"/>
      </g>
     </g>
    </g>
    <g id="ytick_13">
     <g id="line2d_77">
      <path clip-path="url(#paf5f9c6885)" d="M 66.125 548.282652 
L 438.4375 548.282652 
" style="fill:none;stroke:#000000;stroke-linecap:square;stroke-opacity:0.2;stroke-width:0.5;"/>
     </g>
     <g id="line2d_78">
      <g>
       <use style="stroke:#000000;stroke-width:0.8;" x="66.125" xlink:href="#m7d31716de4" y="548.282652"/>
      </g>
     </g>
     <g id="text_55">
      <!-- 0.02 -->
      <g transform="translate(32.40625 552.841714)scale(0.12 -0.12)">
       <use xlink:href="#DejaVuSans-48"/>
       <use x="63.623047" xlink:href="#DejaVuSans-46"/>
       <use x="95.410156" xlink:href="#DejaVuSans-48"/>
       <use x="159.033203" xlink:href="#DejaVuSans-50"/>
      </g>
     </g>
    </g>
    <g id="ytick_14">
     <g id="line2d_79">
      <path clip-path="url(#paf5f9c6885)" d="M 66.125 516.331213 
L 438.4375 516.331213 
" style="fill:none;stroke:#000000;stroke-linecap:square;stroke-opacity:0.2;stroke-width:0.5;"/>
     </g>
     <g id="line2d_80">
      <g>
       <use style="stroke:#000000;stroke-width:0.8;" x="66.125" xlink:href="#m7d31716de4" y="516.331213"/>
      </g>
     </g>
     <g id="text_56">
      <!-- 0.04 -->
      <g transform="translate(32.40625 520.890275)scale(0.12 -0.12)">
       <use xlink:href="#DejaVuSans-48"/>
       <use x="63.623047" xlink:href="#DejaVuSans-46"/>
       <use x="95.410156" xlink:href="#DejaVuSans-48"/>
       <use x="159.033203" xlink:href="#DejaVuSans-52"/>
      </g>
     </g>
    </g>
    <g id="ytick_15">
     <g id="line2d_81">
      <path clip-path="url(#paf5f9c6885)" d="M 66.125 484.379773 
L 438.4375 484.379773 
" style="fill:none;stroke:#000000;stroke-linecap:square;stroke-opacity:0.2;stroke-width:0.5;"/>
     </g>
     <g id="line2d_82">
      <g>
       <use style="stroke:#000000;stroke-width:0.8;" x="66.125" xlink:href="#m7d31716de4" y="484.379773"/>
      </g>
     </g>
     <g id="text_57">
      <!-- 0.06 -->
      <g transform="translate(32.40625 488.938836)scale(0.12 -0.12)">
       <use xlink:href="#DejaVuSans-48"/>
       <use x="63.623047" xlink:href="#DejaVuSans-46"/>
       <use x="95.410156" xlink:href="#DejaVuSans-48"/>
       <use x="159.033203" xlink:href="#DejaVuSans-54"/>
      </g>
     </g>
    </g>
    <g id="ytick_16">
     <g id="line2d_83">
      <path clip-path="url(#paf5f9c6885)" d="M 66.125 452.428334 
L 438.4375 452.428334 
" style="fill:none;stroke:#000000;stroke-linecap:square;stroke-opacity:0.2;stroke-width:0.5;"/>
     </g>
     <g id="line2d_84">
      <g>
       <use style="stroke:#000000;stroke-width:0.8;" x="66.125" xlink:href="#m7d31716de4" y="452.428334"/>
      </g>
     </g>
     <g id="text_58">
      <!-- 0.08 -->
      <g transform="translate(32.40625 456.987397)scale(0.12 -0.12)">
       <use xlink:href="#DejaVuSans-48"/>
       <use x="63.623047" xlink:href="#DejaVuSans-46"/>
       <use x="95.410156" xlink:href="#DejaVuSans-48"/>
       <use x="159.033203" xlink:href="#DejaVuSans-56"/>
      </g>
     </g>
    </g>
    <g id="ytick_17">
     <g id="line2d_85">
      <path clip-path="url(#paf5f9c6885)" d="M 66.125 420.476895 
L 438.4375 420.476895 
" style="fill:none;stroke:#000000;stroke-linecap:square;stroke-opacity:0.2;stroke-width:0.5;"/>
     </g>
     <g id="line2d_86">
      <g>
       <use style="stroke:#000000;stroke-width:0.8;" x="66.125" xlink:href="#m7d31716de4" y="420.476895"/>
      </g>
     </g>
     <g id="text_59">
      <!-- 0.10 -->
      <g transform="translate(32.40625 425.035958)scale(0.12 -0.12)">
       <use xlink:href="#DejaVuSans-48"/>
       <use x="63.623047" xlink:href="#DejaVuSans-46"/>
       <use x="95.410156" xlink:href="#DejaVuSans-49"/>
       <use x="159.033203" xlink:href="#DejaVuSans-48"/>
      </g>
     </g>
    </g>
    <g id="text_60">
     <!-- Days${}^{-1}$ -->
     <defs>
      <path d="M 10.59375 35.5 
L 73.1875 35.5 
L 73.1875 27.203125 
L 10.59375 27.203125 
z
" id="DejaVuSans-8722"/>
     </defs>
     <g transform="translate(25.46625 517.565)rotate(-90)scale(0.14 -0.14)">
      <use transform="translate(0 0.684375)" xlink:href="#DejaVuSans-68"/>
      <use transform="translate(77.001953 0.684375)" xlink:href="#DejaVuSans-97"/>
      <use transform="translate(138.28125 0.684375)" xlink:href="#DejaVuSans-121"/>
      <use transform="translate(197.460938 0.684375)" xlink:href="#DejaVuSans-115"/>
      <use transform="translate(250.517578 38.965625)scale(0.7)" xlink:href="#DejaVuSans-8722"/>
      <use transform="translate(309.169922 38.965625)scale(0.7)" xlink:href="#DejaVuSans-49"/>
     </g>
    </g>
   </g>
   <g id="line2d_87">
    <path clip-path="url(#paf5f9c6885)" d="M 66.125 404.915909 
L 99.971591 416.516819 
L 133.818182 432.692488 
L 167.664773 451.826493 
L 201.511364 472.036589 
L 235.357955 491.600361 
L 269.204545 508.815907 
L 303.051136 523.790925 
L 336.897727 536.302494 
L 370.744318 546.400524 
L 404.590909 554.559291 
L 438.4375 560.191652 
" style="fill:none;stroke:#1f77b4;stroke-linecap:square;stroke-width:3;"/>
   </g>
   <g id="line2d_88">
    <path clip-path="url(#paf5f9c6885)" d="M 66.125 580.234091 
L 438.4375 580.234091 
" style="fill:none;stroke:#000000;stroke-linecap:square;stroke-opacity:0.4;stroke-width:2;"/>
   </g>
   <g id="patch_14">
    <path d="M 66.125 589 
L 66.125 396.15 
" style="fill:none;stroke:#000000;stroke-linecap:square;stroke-linejoin:miter;"/>
   </g>
   <g id="patch_15">
    <path d="M 438.4375 589 
L 438.4375 396.15 
" style="fill:none;stroke:#000000;stroke-linecap:square;stroke-linejoin:miter;"/>
   </g>
   <g id="patch_16">
    <path d="M 66.125 589 
L 438.4375 589 
" style="fill:none;stroke:#000000;stroke-linecap:square;stroke-linejoin:miter;"/>
   </g>
   <g id="patch_17">
    <path d="M 66.125 396.15 
L 438.4375 396.15 
" style="fill:none;stroke:#000000;stroke-linecap:square;stroke-linejoin:miter;"/>
   </g>
   <g id="text_61">
    <!-- Logarithmic Growth Rate -->
    <defs>
     <path d="M 9.8125 72.90625 
L 19.671875 72.90625 
L 19.671875 8.296875 
L 55.171875 8.296875 
L 55.171875 0 
L 9.8125 0 
z
" id="DejaVuSans-76"/>
     <path d="M 45.40625 27.984375 
Q 45.40625 37.75 41.375 43.109375 
Q 37.359375 48.484375 30.078125 48.484375 
Q 22.859375 48.484375 18.828125 43.109375 
Q 14.796875 37.75 14.796875 27.984375 
Q 14.796875 18.265625 18.828125 12.890625 
Q 22.859375 7.515625 30.078125 7.515625 
Q 37.359375 7.515625 41.375 12.890625 
Q 45.40625 18.265625 45.40625 27.984375 
z
M 54.390625 6.78125 
Q 54.390625 -7.171875 48.1875 -13.984375 
Q 42 -20.796875 29.203125 -20.796875 
Q 24.46875 -20.796875 20.265625 -20.09375 
Q 16.0625 -19.390625 12.109375 -17.921875 
L 12.109375 -9.1875 
Q 16.0625 -11.328125 19.921875 -12.34375 
Q 23.78125 -13.375 27.78125 -13.375 
Q 36.625 -13.375 41.015625 -8.765625 
Q 45.40625 -4.15625 45.40625 5.171875 
L 45.40625 9.625 
Q 42.625 4.78125 38.28125 2.390625 
Q 33.9375 0 27.875 0 
Q 17.828125 0 11.671875 7.65625 
Q 5.515625 15.328125 5.515625 27.984375 
Q 5.515625 40.671875 11.671875 48.328125 
Q 17.828125 56 27.875 56 
Q 33.9375 56 38.28125 53.609375 
Q 42.625 51.21875 45.40625 46.390625 
L 45.40625 54.6875 
L 54.390625 54.6875 
z
" id="DejaVuSans-103"/>
     <path d="M 41.109375 46.296875 
Q 39.59375 47.171875 37.8125 47.578125 
Q 36.03125 48 33.890625 48 
Q 26.265625 48 22.1875 43.046875 
Q 18.109375 38.09375 18.109375 28.8125 
L 18.109375 0 
L 9.078125 0 
L 9.078125 54.6875 
L 18.109375 54.6875 
L 18.109375 46.1875 
Q 20.953125 51.171875 25.484375 53.578125 
Q 30.03125 56 36.53125 56 
Q 37.453125 56 38.578125 55.875 
Q 39.703125 55.765625 41.0625 55.515625 
z
" id="DejaVuSans-114"/>
     <path d="M 48.78125 52.59375 
L 48.78125 44.1875 
Q 44.96875 46.296875 41.140625 47.34375 
Q 37.3125 48.390625 33.40625 48.390625 
Q 24.65625 48.390625 19.8125 42.84375 
Q 14.984375 37.3125 14.984375 27.296875 
Q 14.984375 17.28125 19.8125 11.734375 
Q 24.65625 6.203125 33.40625 6.203125 
Q 37.3125 6.203125 41.140625 7.25 
Q 44.96875 8.296875 48.78125 10.40625 
L 48.78125 2.09375 
Q 45.015625 0.34375 40.984375 -0.53125 
Q 36.96875 -1.421875 32.421875 -1.421875 
Q 20.0625 -1.421875 12.78125 6.34375 
Q 5.515625 14.109375 5.515625 27.296875 
Q 5.515625 40.671875 12.859375 48.328125 
Q 20.21875 56 33.015625 56 
Q 37.15625 56 41.109375 55.140625 
Q 45.0625 54.296875 48.78125 52.59375 
z
" id="DejaVuSans-99"/>
     <path d="M 59.515625 10.40625 
L 59.515625 29.984375 
L 43.40625 29.984375 
L 43.40625 38.09375 
L 69.28125 38.09375 
L 69.28125 6.78125 
Q 63.578125 2.734375 56.6875 0.65625 
Q 49.8125 -1.421875 42 -1.421875 
Q 24.90625 -1.421875 15.25 8.5625 
Q 5.609375 18.5625 5.609375 36.375 
Q 5.609375 54.25 15.25 64.234375 
Q 24.90625 74.21875 42 74.21875 
Q 49.125 74.21875 55.546875 72.453125 
Q 61.96875 70.703125 67.390625 67.28125 
L 67.390625 56.78125 
Q 61.921875 61.421875 55.765625 63.765625 
Q 49.609375 66.109375 42.828125 66.109375 
Q 29.4375 66.109375 22.71875 58.640625 
Q 16.015625 51.171875 16.015625 36.375 
Q 16.015625 21.625 22.71875 14.15625 
Q 29.4375 6.6875 42.828125 6.6875 
Q 48.046875 6.6875 52.140625 7.59375 
Q 56.25 8.5 59.515625 10.40625 
z
" id="DejaVuSans-71"/>
    </defs>
    <g transform="translate(127.654687 381.15)scale(0.2 -0.2)">
     <use xlink:href="#DejaVuSans-76"/>
     <use x="53.962891" xlink:href="#DejaVuSans-111"/>
     <use x="115.144531" xlink:href="#DejaVuSans-103"/>
     <use x="178.621094" xlink:href="#DejaVuSans-97"/>
     <use x="239.900391" xlink:href="#DejaVuSans-114"/>
     <use x="281.013672" xlink:href="#DejaVuSans-105"/>
     <use x="308.796875" xlink:href="#DejaVuSans-116"/>
     <use x="348.005859" xlink:href="#DejaVuSans-104"/>
     <use x="411.384766" xlink:href="#DejaVuSans-109"/>
     <use x="508.796875" xlink:href="#DejaVuSans-105"/>
     <use x="536.580078" xlink:href="#DejaVuSans-99"/>
     <use x="591.560547" xlink:href="#DejaVuSans-32"/>
     <use x="623.347656" xlink:href="#DejaVuSans-71"/>
     <use x="700.837891" xlink:href="#DejaVuSans-114"/>
     <use x="739.701172" xlink:href="#DejaVuSans-111"/>
     <use x="800.882812" xlink:href="#DejaVuSans-119"/>
     <use x="882.669922" xlink:href="#DejaVuSans-116"/>
     <use x="921.878906" xlink:href="#DejaVuSans-104"/>
     <use x="985.257812" xlink:href="#DejaVuSans-32"/>
     <use x="1017.044922" xlink:href="#DejaVuSans-82"/>
     <use x="1084.277344" xlink:href="#DejaVuSans-97"/>
     <use x="1145.556641" xlink:href="#DejaVuSans-116"/>
     <use x="1184.765625" xlink:href="#DejaVuSans-101"/>
    </g>
   </g>
  </g>
  <g id="axes_4">
   <g id="patch_18">
    <path d="M 514.125 589 
L 886.4375 589 
L 886.4375 396.15 
L 514.125 396.15 
z
" style="fill:#ffffff;"/>
   </g>
   <g id="PolyCollection_1">
    <path clip-path="url(#p0ecca8b1a9)" d="M 514.125 413.770666 
L 514.125 442.103221 
L 547.971591 446.348394 
L 581.818182 452.791918 
L 615.664773 461.576114 
L 649.511364 474.091303 
L 683.357955 487.573603 
L 717.204545 501.149309 
L 751.051136 514.299308 
L 784.897727 526.594594 
L 818.744318 537.732207 
L 852.590909 547.606898 
L 886.4375 555.970036 
L 886.4375 533.833145 
L 886.4375 533.833145 
L 852.590909 525.470007 
L 818.744318 515.595316 
L 784.897727 504.457703 
L 751.051136 492.162417 
L 717.204545 479.012418 
L 683.357955 465.436712 
L 649.511364 451.954411 
L 615.664773 439.439223 
L 581.818182 428.596764 
L 547.971591 419.957067 
L 514.125 413.770666 
z
" style="fill-opacity:0.2;"/>
   </g>
   <g id="PolyCollection_2">
    <path clip-path="url(#p0ecca8b1a9)" d="M 514.125 404.915909 
L 514.125 455.531436 
L 547.971591 458.564852 
L 581.818182 464.01579 
L 615.664773 474.858249 
L 649.511364 487.373437 
L 683.357955 500.855738 
L 717.204545 514.431444 
L 751.051136 527.581443 
L 784.897727 539.876729 
L 818.744318 551.014342 
L 852.590909 560.889033 
L 886.4375 569.252171 
L 886.4375 524.978388 
L 886.4375 524.978388 
L 852.590909 516.61525 
L 818.744318 506.740559 
L 784.897727 495.602947 
L 751.051136 483.30766 
L 717.204545 470.157662 
L 683.357955 456.581956 
L 649.511364 443.099655 
L 615.664773 430.584467 
L 581.818182 419.742007 
L 547.971591 411.102311 
L 514.125 404.915909 
z
" style="fill-opacity:0.1;"/>
   </g>
   <g id="matplotlib.axis_7">
    <g id="xtick_37">
     <g id="line2d_89">
      <path clip-path="url(#p0ecca8b1a9)" d="M 514.125 589 
L 514.125 396.15 
" style="fill:none;stroke:#000000;stroke-linecap:square;stroke-opacity:0.2;stroke-width:0.5;"/>
     </g>
     <g id="line2d_90">
      <g>
       <use style="stroke:#000000;stroke-width:0.8;" x="514.125" xlink:href="#mfdc2462633" y="589"/>
      </g>
     </g>
     <g id="text_62">
      <!-- 26 -->
      <g transform="translate(506.49 605.118125)scale(0.12 -0.12)">
       <use xlink:href="#DejaVuSans-50"/>
       <use x="63.623047" xlink:href="#DejaVuSans-54"/>
      </g>
     </g>
    </g>
    <g id="xtick_38">
     <g id="line2d_91">
      <path clip-path="url(#p0ecca8b1a9)" d="M 683.357955 589 
L 683.357955 396.15 
" style="fill:none;stroke:#000000;stroke-linecap:square;stroke-opacity:0.2;stroke-width:0.5;"/>
     </g>
     <g id="line2d_92">
      <g>
       <use style="stroke:#000000;stroke-width:0.8;" x="683.357955" xlink:href="#mfdc2462633" y="589"/>
      </g>
     </g>
     <g id="text_63">
      <!-- 01 -->
      <g transform="translate(675.722955 605.118125)scale(0.12 -0.12)">
       <use xlink:href="#DejaVuSans-48"/>
       <use x="63.623047" xlink:href="#DejaVuSans-49"/>
      </g>
      <!-- May -->
      <g transform="translate(670.952955 618.5555)scale(0.12 -0.12)">
       <use xlink:href="#DejaVuSans-77"/>
       <use x="86.279297" xlink:href="#DejaVuSans-97"/>
       <use x="147.558594" xlink:href="#DejaVuSans-121"/>
      </g>
      <!-- 2020 -->
      <g transform="translate(668.087955 631.992875)scale(0.12 -0.12)">
       <use xlink:href="#DejaVuSans-50"/>
       <use x="63.623047" xlink:href="#DejaVuSans-48"/>
       <use x="127.246094" xlink:href="#DejaVuSans-50"/>
       <use x="190.869141" xlink:href="#DejaVuSans-48"/>
      </g>
     </g>
    </g>
    <g id="xtick_39">
     <g id="line2d_93">
      <path clip-path="url(#p0ecca8b1a9)" d="M 886.4375 589 
L 886.4375 396.15 
" style="fill:none;stroke:#000000;stroke-linecap:square;stroke-opacity:0.2;stroke-width:0.5;"/>
     </g>
     <g id="line2d_94">
      <g>
       <use style="stroke:#000000;stroke-width:0.8;" x="886.4375" xlink:href="#mfdc2462633" y="589"/>
      </g>
     </g>
     <g id="text_64">
      <!-- 07 -->
      <g transform="translate(878.8025 605.118125)scale(0.12 -0.12)">
       <use xlink:href="#DejaVuSans-48"/>
       <use x="63.623047" xlink:href="#DejaVuSans-55"/>
      </g>
     </g>
    </g>
    <g id="xtick_40">
     <g id="line2d_95">
      <g>
       <use style="stroke:#000000;stroke-width:0.6;" x="547.971591" xlink:href="#m5c9d0b2bce" y="589"/>
      </g>
     </g>
     <g id="text_65">
      <!-- 27 -->
      <g transform="translate(540.336591 603.518125)scale(0.12 -0.12)">
       <use xlink:href="#DejaVuSans-50"/>
       <use x="63.623047" xlink:href="#DejaVuSans-55"/>
      </g>
     </g>
    </g>
    <g id="xtick_41">
     <g id="line2d_96">
      <g>
       <use style="stroke:#000000;stroke-width:0.6;" x="581.818182" xlink:href="#m5c9d0b2bce" y="589"/>
      </g>
     </g>
     <g id="text_66">
      <!-- 28 -->
      <g transform="translate(574.183182 603.518125)scale(0.12 -0.12)">
       <use xlink:href="#DejaVuSans-50"/>
       <use x="63.623047" xlink:href="#DejaVuSans-56"/>
      </g>
     </g>
    </g>
    <g id="xtick_42">
     <g id="line2d_97">
      <g>
       <use style="stroke:#000000;stroke-width:0.6;" x="615.664773" xlink:href="#m5c9d0b2bce" y="589"/>
      </g>
     </g>
     <g id="text_67">
      <!-- 29 -->
      <g transform="translate(608.029773 603.518125)scale(0.12 -0.12)">
       <use xlink:href="#DejaVuSans-50"/>
       <use x="63.623047" xlink:href="#DejaVuSans-57"/>
      </g>
     </g>
    </g>
    <g id="xtick_43">
     <g id="line2d_98">
      <g>
       <use style="stroke:#000000;stroke-width:0.6;" x="649.511364" xlink:href="#m5c9d0b2bce" y="589"/>
      </g>
     </g>
     <g id="text_68">
      <!-- 30 -->
      <g transform="translate(641.876364 603.518125)scale(0.12 -0.12)">
       <use xlink:href="#DejaVuSans-51"/>
       <use x="63.623047" xlink:href="#DejaVuSans-48"/>
      </g>
     </g>
    </g>
    <g id="xtick_44">
     <g id="line2d_99">
      <g>
       <use style="stroke:#000000;stroke-width:0.6;" x="717.204545" xlink:href="#m5c9d0b2bce" y="589"/>
      </g>
     </g>
     <g id="text_69">
      <!-- 02 -->
      <g transform="translate(709.569545 603.518125)scale(0.12 -0.12)">
       <use xlink:href="#DejaVuSans-48"/>
       <use x="63.623047" xlink:href="#DejaVuSans-50"/>
      </g>
     </g>
    </g>
    <g id="xtick_45">
     <g id="line2d_100">
      <g>
       <use style="stroke:#000000;stroke-width:0.6;" x="751.051136" xlink:href="#m5c9d0b2bce" y="589"/>
      </g>
     </g>
     <g id="text_70">
      <!-- 03 -->
      <g transform="translate(743.416136 603.518125)scale(0.12 -0.12)">
       <use xlink:href="#DejaVuSans-48"/>
       <use x="63.623047" xlink:href="#DejaVuSans-51"/>
      </g>
     </g>
    </g>
    <g id="xtick_46">
     <g id="line2d_101">
      <g>
       <use style="stroke:#000000;stroke-width:0.6;" x="784.897727" xlink:href="#m5c9d0b2bce" y="589"/>
      </g>
     </g>
     <g id="text_71">
      <!-- 04 -->
      <g transform="translate(777.262727 603.518125)scale(0.12 -0.12)">
       <use xlink:href="#DejaVuSans-48"/>
       <use x="63.623047" xlink:href="#DejaVuSans-52"/>
      </g>
     </g>
    </g>
    <g id="xtick_47">
     <g id="line2d_102">
      <g>
       <use style="stroke:#000000;stroke-width:0.6;" x="818.744318" xlink:href="#m5c9d0b2bce" y="589"/>
      </g>
     </g>
     <g id="text_72">
      <!-- 05 -->
      <g transform="translate(811.109318 603.518125)scale(0.12 -0.12)">
       <use xlink:href="#DejaVuSans-48"/>
       <use x="63.623047" xlink:href="#DejaVuSans-53"/>
      </g>
     </g>
    </g>
    <g id="xtick_48">
     <g id="line2d_103">
      <g>
       <use style="stroke:#000000;stroke-width:0.6;" x="852.590909" xlink:href="#m5c9d0b2bce" y="589"/>
      </g>
     </g>
     <g id="text_73">
      <!-- 06 -->
      <g transform="translate(844.955909 603.518125)scale(0.12 -0.12)">
       <use xlink:href="#DejaVuSans-48"/>
       <use x="63.623047" xlink:href="#DejaVuSans-54"/>
      </g>
     </g>
    </g>
   </g>
   <g id="matplotlib.axis_8">
    <g id="ytick_18">
     <g id="line2d_104">
      <path clip-path="url(#p0ecca8b1a9)" d="M 514.125 580.234091 
L 886.4375 580.234091 
" style="fill:none;stroke:#000000;stroke-linecap:square;stroke-opacity:0.2;stroke-width:0.5;"/>
     </g>
     <g id="line2d_105">
      <g>
       <use style="stroke:#000000;stroke-width:0.8;" x="514.125" xlink:href="#m7d31716de4" y="580.234091"/>
      </g>
     </g>
     <g id="text_74">
      <!-- 1.0 -->
      <g transform="translate(488.04125 584.793153)scale(0.12 -0.12)">
       <use xlink:href="#DejaVuSans-49"/>
       <use x="63.623047" xlink:href="#DejaVuSans-46"/>
       <use x="95.410156" xlink:href="#DejaVuSans-48"/>
      </g>
     </g>
    </g>
    <g id="ytick_19">
     <g id="line2d_106">
      <path clip-path="url(#p0ecca8b1a9)" d="M 514.125 544.815065 
L 886.4375 544.815065 
" style="fill:none;stroke:#000000;stroke-linecap:square;stroke-opacity:0.2;stroke-width:0.5;"/>
     </g>
     <g id="line2d_107">
      <g>
       <use style="stroke:#000000;stroke-width:0.8;" x="514.125" xlink:href="#m7d31716de4" y="544.815065"/>
      </g>
     </g>
     <g id="text_75">
      <!-- 1.2 -->
      <g transform="translate(488.04125 549.374127)scale(0.12 -0.12)">
       <use xlink:href="#DejaVuSans-49"/>
       <use x="63.623047" xlink:href="#DejaVuSans-46"/>
       <use x="95.410156" xlink:href="#DejaVuSans-50"/>
      </g>
     </g>
    </g>
    <g id="ytick_20">
     <g id="line2d_108">
      <path clip-path="url(#p0ecca8b1a9)" d="M 514.125 509.396039 
L 886.4375 509.396039 
" style="fill:none;stroke:#000000;stroke-linecap:square;stroke-opacity:0.2;stroke-width:0.5;"/>
     </g>
     <g id="line2d_109">
      <g>
       <use style="stroke:#000000;stroke-width:0.8;" x="514.125" xlink:href="#m7d31716de4" y="509.396039"/>
      </g>
     </g>
     <g id="text_76">
      <!-- 1.4 -->
      <g transform="translate(488.04125 513.955101)scale(0.12 -0.12)">
       <use xlink:href="#DejaVuSans-49"/>
       <use x="63.623047" xlink:href="#DejaVuSans-46"/>
       <use x="95.410156" xlink:href="#DejaVuSans-52"/>
      </g>
     </g>
    </g>
    <g id="ytick_21">
     <g id="line2d_110">
      <path clip-path="url(#p0ecca8b1a9)" d="M 514.125 473.977013 
L 886.4375 473.977013 
" style="fill:none;stroke:#000000;stroke-linecap:square;stroke-opacity:0.2;stroke-width:0.5;"/>
     </g>
     <g id="line2d_111">
      <g>
       <use style="stroke:#000000;stroke-width:0.8;" x="514.125" xlink:href="#m7d31716de4" y="473.977013"/>
      </g>
     </g>
     <g id="text_77">
      <!-- 1.6 -->
      <g transform="translate(488.04125 478.536075)scale(0.12 -0.12)">
       <use xlink:href="#DejaVuSans-49"/>
       <use x="63.623047" xlink:href="#DejaVuSans-46"/>
       <use x="95.410156" xlink:href="#DejaVuSans-54"/>
      </g>
     </g>
    </g>
    <g id="ytick_22">
     <g id="line2d_112">
      <path clip-path="url(#p0ecca8b1a9)" d="M 514.125 438.557987 
L 886.4375 438.557987 
" style="fill:none;stroke:#000000;stroke-linecap:square;stroke-opacity:0.2;stroke-width:0.5;"/>
     </g>
     <g id="line2d_113">
      <g>
       <use style="stroke:#000000;stroke-width:0.8;" x="514.125" xlink:href="#m7d31716de4" y="438.557987"/>
      </g>
     </g>
     <g id="text_78">
      <!-- 1.8 -->
      <g transform="translate(488.04125 443.117049)scale(0.12 -0.12)">
       <use xlink:href="#DejaVuSans-49"/>
       <use x="63.623047" xlink:href="#DejaVuSans-46"/>
       <use x="95.410156" xlink:href="#DejaVuSans-56"/>
      </g>
     </g>
    </g>
    <g id="ytick_23">
     <g id="line2d_114">
      <path clip-path="url(#p0ecca8b1a9)" d="M 514.125 403.138961 
L 886.4375 403.138961 
" style="fill:none;stroke:#000000;stroke-linecap:square;stroke-opacity:0.2;stroke-width:0.5;"/>
     </g>
     <g id="line2d_115">
      <g>
       <use style="stroke:#000000;stroke-width:0.8;" x="514.125" xlink:href="#m7d31716de4" y="403.138961"/>
      </g>
     </g>
     <g id="text_79">
      <!-- 2.0 -->
      <g transform="translate(488.04125 407.698023)scale(0.12 -0.12)">
       <use xlink:href="#DejaVuSans-50"/>
       <use x="63.623047" xlink:href="#DejaVuSans-46"/>
       <use x="95.410156" xlink:href="#DejaVuSans-48"/>
      </g>
     </g>
    </g>
   </g>
   <g id="line2d_116">
    <path clip-path="url(#p0ecca8b1a9)" d="M 514.125 422.625422 
L 547.971591 428.811824 
L 581.818182 437.45152 
L 615.664773 448.29398 
L 649.511364 460.809168 
L 683.357955 474.291469 
L 717.204545 487.867175 
L 751.051136 501.017173 
L 784.897727 513.31246 
L 818.744318 524.450072 
L 852.590909 534.324763 
L 886.4375 542.687901 
" style="fill:none;stroke:#1f77b4;stroke-linecap:square;stroke-opacity:0;stroke-width:1.5;"/>
   </g>
   <g id="line2d_117">
    <path clip-path="url(#p0ecca8b1a9)" d="M 514.125 422.625422 
L 516.945549 423.140956 
L 519.766098 423.656489 
L 522.586648 424.172023 
L 525.407197 424.687556 
L 528.227746 425.203089 
L 531.048295 425.718623 
L 533.868845 426.234156 
L 536.689394 426.74969 
L 539.509943 427.265223 
L 542.330492 427.780757 
L 545.151042 428.29629 
L 547.971591 428.811824 
L 550.79214 429.531798 
L 553.612689 430.251773 
L 556.433239 430.971748 
L 559.253788 431.691723 
L 562.074337 432.411697 
L 564.894886 433.131672 
L 567.715436 433.851647 
L 570.535985 434.571622 
L 573.356534 435.291596 
L 576.177083 436.011571 
L 578.997633 436.731546 
L 581.818182 437.45152 
L 584.638731 438.355059 
L 587.45928 439.258597 
L 590.27983 440.162135 
L 593.100379 441.065673 
L 595.920928 441.969212 
L 598.741477 442.87275 
L 601.562027 443.776288 
L 604.382576 444.679827 
L 607.203125 445.583365 
L 610.023674 446.486903 
L 612.844223 447.390441 
L 615.664773 448.29398 
L 618.485322 449.336912 
L 621.305871 450.379844 
L 624.12642 451.422777 
L 626.94697 452.465709 
L 629.767519 453.508641 
L 632.588068 454.551574 
L 635.408617 455.594506 
L 638.229167 456.637438 
L 641.049716 457.680371 
L 643.870265 458.723303 
L 646.690814 459.766235 
L 649.511364 460.809168 
L 652.331913 461.932693 
L 655.152462 463.056218 
L 657.973011 464.179743 
L 660.793561 465.303268 
L 663.61411 466.426793 
L 666.434659 467.550318 
L 669.255208 468.673843 
L 672.075758 469.797368 
L 674.896307 470.920893 
L 677.716856 472.044418 
L 680.537405 473.167944 
L 683.357955 474.291469 
L 686.178504 475.422777 
L 688.999053 476.554086 
L 691.819602 477.685395 
L 694.640152 478.816704 
L 697.460701 479.948013 
L 700.28125 481.079322 
L 703.101799 482.21063 
L 705.922348 483.341939 
L 708.742898 484.473248 
L 711.563447 485.604557 
L 714.383996 486.735866 
L 717.204545 487.867175 
L 720.025095 488.963008 
L 722.845644 490.058841 
L 725.666193 491.154674 
L 728.486742 492.250508 
L 731.307292 493.346341 
L 734.127841 494.442174 
L 736.94839 495.538007 
L 739.768939 496.633841 
L 742.589489 497.729674 
L 745.410038 498.825507 
L 748.230587 499.92134 
L 751.051136 501.017173 
L 753.871686 502.041781 
L 756.692235 503.066388 
L 759.512784 504.090995 
L 762.333333 505.115602 
L 765.153883 506.140209 
L 767.974432 507.164817 
L 770.794981 508.189424 
L 773.61553 509.214031 
L 776.43608 510.238638 
L 779.256629 511.263245 
L 782.077178 512.287852 
L 784.897727 513.31246 
L 787.718277 514.240594 
L 790.538826 515.168728 
L 793.359375 516.096863 
L 796.179924 517.024997 
L 799.000473 517.953132 
L 801.821023 518.881266 
L 804.641572 519.8094 
L 807.462121 520.737535 
L 810.28267 521.665669 
L 813.10322 522.593804 
L 815.923769 523.521938 
L 818.744318 524.450072 
L 821.564867 525.272963 
L 824.385417 526.095854 
L 827.205966 526.918745 
L 830.026515 527.741636 
" style="fill:none;stroke:#ae0868;stroke-linecap:square;stroke-width:3;"/>
   </g>
   <g id="line2d_118">
    <path clip-path="url(#p0ecca8b1a9)" d="M 830.026515 527.741636 
L 832.847064 528.564527 
L 835.667614 529.387418 
L 838.488163 530.210309 
L 841.308712 531.0332 
L 844.129261 531.85609 
L 846.949811 532.678981 
L 849.77036 533.501872 
L 852.590909 534.324763 
L 855.411458 535.021691 
L 858.232008 535.718619 
L 861.052557 536.415548 
L 863.873106 537.112476 
L 866.693655 537.809404 
L 869.514205 538.506332 
L 872.334754 539.20326 
L 875.155303 539.900188 
L 877.975852 540.597117 
L 880.796402 541.294045 
L 883.616951 541.990973 
L 886.4375 542.687901 
" style="fill:none;stroke:#e46511;stroke-linecap:square;stroke-width:3;"/>
   </g>
   <g id="line2d_119">
    <path clip-path="url(#p0ecca8b1a9)" d="M 514.125 580.234091 
L 886.4375 580.234091 
" style="fill:none;stroke:#000000;stroke-linecap:square;stroke-opacity:0.4;stroke-width:2;"/>
   </g>
   <g id="patch_19">
    <path d="M 514.125 589 
L 514.125 396.15 
" style="fill:none;stroke:#000000;stroke-linecap:square;stroke-linejoin:miter;"/>
   </g>
   <g id="patch_20">
    <path d="M 886.4375 589 
L 886.4375 396.15 
" style="fill:none;stroke:#000000;stroke-linecap:square;stroke-linejoin:miter;"/>
   </g>
   <g id="patch_21">
    <path d="M 514.125 589 
L 886.4375 589 
" style="fill:none;stroke:#000000;stroke-linecap:square;stroke-linejoin:miter;"/>
   </g>
   <g id="patch_22">
    <path d="M 514.125 396.15 
L 886.4375 396.15 
" style="fill:none;stroke:#000000;stroke-linecap:square;stroke-linejoin:miter;"/>
   </g>
   <g id="text_80">
    <!-- Cerner Reopening Risk Index and $R_e$ -->
    <defs>
     <path d="M 54.890625 33.015625 
L 54.890625 0 
L 45.90625 0 
L 45.90625 32.71875 
Q 45.90625 40.484375 42.875 44.328125 
Q 39.84375 48.1875 33.796875 48.1875 
Q 26.515625 48.1875 22.3125 43.546875 
Q 18.109375 38.921875 18.109375 30.90625 
L 18.109375 0 
L 9.078125 0 
L 9.078125 54.6875 
L 18.109375 54.6875 
L 18.109375 46.1875 
Q 21.34375 51.125 25.703125 53.5625 
Q 30.078125 56 35.796875 56 
Q 45.21875 56 50.046875 50.171875 
Q 54.890625 44.34375 54.890625 33.015625 
z
" id="DejaVuSans-110"/>
     <path d="M 18.109375 8.203125 
L 18.109375 -20.796875 
L 9.078125 -20.796875 
L 9.078125 54.6875 
L 18.109375 54.6875 
L 18.109375 46.390625 
Q 20.953125 51.265625 25.265625 53.625 
Q 29.59375 56 35.59375 56 
Q 45.5625 56 51.78125 48.09375 
Q 58.015625 40.1875 58.015625 27.296875 
Q 58.015625 14.40625 51.78125 6.484375 
Q 45.5625 -1.421875 35.59375 -1.421875 
Q 29.59375 -1.421875 25.265625 0.953125 
Q 20.953125 3.328125 18.109375 8.203125 
z
M 48.6875 27.296875 
Q 48.6875 37.203125 44.609375 42.84375 
Q 40.53125 48.484375 33.40625 48.484375 
Q 26.265625 48.484375 22.1875 42.84375 
Q 18.109375 37.203125 18.109375 27.296875 
Q 18.109375 17.390625 22.1875 11.75 
Q 26.265625 6.109375 33.40625 6.109375 
Q 40.53125 6.109375 44.609375 11.75 
Q 48.6875 17.390625 48.6875 27.296875 
z
" id="DejaVuSans-112"/>
     <path d="M 9.078125 75.984375 
L 18.109375 75.984375 
L 18.109375 31.109375 
L 44.921875 54.6875 
L 56.390625 54.6875 
L 27.390625 29.109375 
L 57.625 0 
L 45.90625 0 
L 18.109375 26.703125 
L 18.109375 0 
L 9.078125 0 
z
" id="DejaVuSans-107"/>
     <path d="M 9.8125 72.90625 
L 19.671875 72.90625 
L 19.671875 0 
L 9.8125 0 
z
" id="DejaVuSans-73"/>
     <path d="M 54.890625 54.6875 
L 35.109375 28.078125 
L 55.90625 0 
L 45.3125 0 
L 29.390625 21.484375 
L 13.484375 0 
L 2.875 0 
L 24.125 28.609375 
L 4.6875 54.6875 
L 15.28125 54.6875 
L 29.78125 35.203125 
L 44.28125 54.6875 
z
" id="DejaVuSans-120"/>
     <path d="M 25.203125 64.796875 
L 20.21875 38.921875 
L 32.90625 38.921875 
Q 40.375 38.921875 44.984375 43.046875 
Q 49.609375 47.171875 49.609375 53.8125 
Q 49.609375 59.125 46.5 61.953125 
Q 43.40625 64.796875 37.59375 64.796875 
z
M 43.3125 35.015625 
Q 46.4375 34.28125 48.515625 31.390625 
Q 50.59375 28.515625 53.328125 19.921875 
L 59.515625 0 
L 49.125 0 
L 43.40625 18.703125 
Q 41.21875 25.921875 38.328125 28.359375 
Q 35.453125 30.8125 29.5 30.8125 
L 18.609375 30.8125 
L 12.59375 0 
L 2.6875 0 
L 16.890625 72.90625 
L 39.109375 72.90625 
Q 49.21875 72.90625 54.609375 68.328125 
Q 60.015625 63.765625 60.015625 55.171875 
Q 60.015625 47.5625 55.421875 41.984375 
Q 50.828125 36.421875 43.3125 35.015625 
z
" id="DejaVuSans-Oblique-82"/>
     <path d="M 48.09375 32.234375 
Q 48.25 33.015625 48.3125 33.84375 
Q 48.390625 34.671875 48.390625 35.5 
Q 48.390625 41.453125 44.890625 44.921875 
Q 41.40625 48.390625 35.40625 48.390625 
Q 28.71875 48.390625 23.578125 44.15625 
Q 18.453125 39.9375 15.828125 32.171875 
z
M 55.90625 25.203125 
L 14.109375 25.203125 
Q 13.8125 23.34375 13.71875 22.265625 
Q 13.625 21.1875 13.625 20.40625 
Q 13.625 13.625 17.796875 9.90625 
Q 21.96875 6.203125 29.59375 6.203125 
Q 35.453125 6.203125 40.671875 7.515625 
Q 45.90625 8.84375 50.390625 11.375 
L 48.6875 2.484375 
Q 43.84375 0.53125 38.6875 -0.4375 
Q 33.546875 -1.421875 28.21875 -1.421875 
Q 16.84375 -1.421875 10.71875 4.015625 
Q 4.59375 9.46875 4.59375 19.484375 
Q 4.59375 28.03125 7.640625 35.375 
Q 10.6875 42.71875 16.609375 48.484375 
Q 20.40625 52.09375 25.65625 54.046875 
Q 30.90625 56 36.8125 56 
Q 46.09375 56 51.578125 50.4375 
Q 57.078125 44.875 57.078125 35.5 
Q 57.078125 33.25 56.78125 30.6875 
Q 56.5 28.125 55.90625 25.203125 
z
" id="DejaVuSans-Oblique-101"/>
    </defs>
    <g transform="translate(518.18125 381.15)scale(0.2 -0.2)">
     <use transform="translate(0 0.015625)" xlink:href="#DejaVuSans-67"/>
     <use transform="translate(69.824219 0.015625)" xlink:href="#DejaVuSans-101"/>
     <use transform="translate(131.347656 0.015625)" xlink:href="#DejaVuSans-114"/>
     <use transform="translate(172.460938 0.015625)" xlink:href="#DejaVuSans-110"/>
     <use transform="translate(235.839844 0.015625)" xlink:href="#DejaVuSans-101"/>
     <use transform="translate(297.363281 0.015625)" xlink:href="#DejaVuSans-114"/>
     <use transform="translate(338.476562 0.015625)" xlink:href="#DejaVuSans-32"/>
     <use transform="translate(370.263672 0.015625)" xlink:href="#DejaVuSans-82"/>
     <use transform="translate(439.746094 0.015625)" xlink:href="#DejaVuSans-101"/>
     <use transform="translate(501.269531 0.015625)" xlink:href="#DejaVuSans-111"/>
     <use transform="translate(562.451172 0.015625)" xlink:href="#DejaVuSans-112"/>
     <use transform="translate(625.927734 0.015625)" xlink:href="#DejaVuSans-101"/>
     <use transform="translate(687.451172 0.015625)" xlink:href="#DejaVuSans-110"/>
     <use transform="translate(750.830078 0.015625)" xlink:href="#DejaVuSans-105"/>
     <use transform="translate(778.613281 0.015625)" xlink:href="#DejaVuSans-110"/>
     <use transform="translate(841.992188 0.015625)" xlink:href="#DejaVuSans-103"/>
     <use transform="translate(905.46875 0.015625)" xlink:href="#DejaVuSans-32"/>
     <use transform="translate(937.255859 0.015625)" xlink:href="#DejaVuSans-82"/>
     <use transform="translate(1006.738281 0.015625)" xlink:href="#DejaVuSans-105"/>
     <use transform="translate(1034.521484 0.015625)" xlink:href="#DejaVuSans-115"/>
     <use transform="translate(1086.621094 0.015625)" xlink:href="#DejaVuSans-107"/>
     <use transform="translate(1144.53125 0.015625)" xlink:href="#DejaVuSans-32"/>
     <use transform="translate(1176.318359 0.015625)" xlink:href="#DejaVuSans-73"/>
     <use transform="translate(1205.810547 0.015625)" xlink:href="#DejaVuSans-110"/>
     <use transform="translate(1269.189453 0.015625)" xlink:href="#DejaVuSans-100"/>
     <use transform="translate(1332.666016 0.015625)" xlink:href="#DejaVuSans-101"/>
     <use transform="translate(1394.189453 0.015625)" xlink:href="#DejaVuSans-120"/>
     <use transform="translate(1453.369141 0.015625)" xlink:href="#DejaVuSans-32"/>
     <use transform="translate(1485.15625 0.015625)" xlink:href="#DejaVuSans-97"/>
     <use transform="translate(1546.435547 0.015625)" xlink:href="#DejaVuSans-110"/>
     <use transform="translate(1609.814453 0.015625)" xlink:href="#DejaVuSans-100"/>
     <use transform="translate(1673.291016 0.015625)" xlink:href="#DejaVuSans-32"/>
     <use transform="translate(1705.078125 0.015625)" xlink:href="#DejaVuSans-Oblique-82"/>
     <use transform="translate(1774.560547 -16.390625)scale(0.7)" xlink:href="#DejaVuSans-Oblique-101"/>
    </g>
   </g>
   <g id="legend_2">
    <g id="patch_23">
     <path d="M 828.265 469.805 
L 880.8375 469.805 
Q 882.4375 469.805 882.4375 468.205 
L 882.4375 401.75 
Q 882.4375 400.15 880.8375 400.15 
L 828.265 400.15 
Q 826.665 400.15 826.665 401.75 
L 826.665 468.205 
Q 826.665 469.805 828.265 469.805 
z
" style="fill:#ffffff;opacity:0.5;stroke:#cccccc;stroke-linejoin:miter;"/>
    </g>
    <g id="line2d_120">
     <path d="M 828.265 405.02875 
L 844.265 405.02875 
" style="fill:none;stroke:#008fe0;stroke-linecap:square;stroke-width:3;"/>
    </g>
    <g id="line2d_121"/>
    <g id="text_81">
     <!-- CRRI 1 -->
     <g transform="translate(850.665 407.82875)scale(0.08 -0.08)">
      <use xlink:href="#DejaVuSans-67"/>
      <use x="69.824219" xlink:href="#DejaVuSans-82"/>
      <use x="139.306641" xlink:href="#DejaVuSans-82"/>
      <use x="208.789062" xlink:href="#DejaVuSans-73"/>
      <use x="238.28125" xlink:href="#DejaVuSans-32"/>
      <use x="270.068359" xlink:href="#DejaVuSans-49"/>
     </g>
    </g>
    <g id="line2d_122">
     <path d="M 828.265 416.77125 
L 844.265 416.77125 
" style="fill:none;stroke:#bc70c7;stroke-linecap:square;stroke-width:3;"/>
    </g>
    <g id="line2d_123"/>
    <g id="text_82">
     <!-- CRRI 2 -->
     <g transform="translate(850.665 419.57125)scale(0.08 -0.08)">
      <use xlink:href="#DejaVuSans-67"/>
      <use x="69.824219" xlink:href="#DejaVuSans-82"/>
      <use x="139.306641" xlink:href="#DejaVuSans-82"/>
      <use x="208.789062" xlink:href="#DejaVuSans-73"/>
      <use x="238.28125" xlink:href="#DejaVuSans-32"/>
      <use x="270.068359" xlink:href="#DejaVuSans-50"/>
     </g>
    </g>
    <g id="line2d_124">
     <path d="M 828.265 428.51375 
L 844.265 428.51375 
" style="fill:none;stroke:#e46511;stroke-linecap:square;stroke-width:3;"/>
    </g>
    <g id="line2d_125"/>
    <g id="text_83">
     <!-- CRRI 3 -->
     <g transform="translate(850.665 431.31375)scale(0.08 -0.08)">
      <use xlink:href="#DejaVuSans-67"/>
      <use x="69.824219" xlink:href="#DejaVuSans-82"/>
      <use x="139.306641" xlink:href="#DejaVuSans-82"/>
      <use x="208.789062" xlink:href="#DejaVuSans-73"/>
      <use x="238.28125" xlink:href="#DejaVuSans-32"/>
      <use x="270.068359" xlink:href="#DejaVuSans-51"/>
     </g>
    </g>
    <g id="line2d_126">
     <path d="M 828.265 440.25625 
L 844.265 440.25625 
" style="fill:none;stroke:#ae0868;stroke-linecap:square;stroke-width:3;"/>
    </g>
    <g id="line2d_127"/>
    <g id="text_84">
     <!-- CRRI 4 -->
     <g transform="translate(850.665 443.05625)scale(0.08 -0.08)">
      <use xlink:href="#DejaVuSans-67"/>
      <use x="69.824219" xlink:href="#DejaVuSans-82"/>
      <use x="139.306641" xlink:href="#DejaVuSans-82"/>
      <use x="208.789062" xlink:href="#DejaVuSans-73"/>
      <use x="238.28125" xlink:href="#DejaVuSans-32"/>
      <use x="270.068359" xlink:href="#DejaVuSans-52"/>
     </g>
    </g>
    <g id="patch_24">
     <path d="M 828.265 454.79875 
L 844.265 454.79875 
L 844.265 449.19875 
L 828.265 449.19875 
z
" style="opacity:0.3;"/>
    </g>
    <g id="text_85">
     <!-- 1 Std. -->
     <defs>
      <path d="M 46 62.703125 
L 46 43.796875 
L 73.1875 43.796875 
L 73.1875 35.5 
L 46 35.5 
L 46 16.609375 
L 37.796875 16.609375 
L 37.796875 35.5 
L 10.59375 35.5 
L 10.59375 43.796875 
L 37.796875 43.796875 
L 37.796875 62.703125 
z
M 10.59375 8.296875 
L 73.1875 8.296875 
L 73.1875 0 
L 10.59375 0 
z
" id="DejaVuSans-177"/>
     </defs>
     <g transform="translate(850.665 454.79875)scale(0.08 -0.08)">
      <use xlink:href="#DejaVuSans-177"/>
      <use x="83.789062" xlink:href="#DejaVuSans-49"/>
      <use x="147.412109" xlink:href="#DejaVuSans-32"/>
      <use x="179.199219" xlink:href="#DejaVuSans-83"/>
      <use x="242.675781" xlink:href="#DejaVuSans-116"/>
      <use x="281.884766" xlink:href="#DejaVuSans-100"/>
      <use x="345.361328" xlink:href="#DejaVuSans-46"/>
     </g>
    </g>
    <g id="patch_25">
     <path d="M 828.265 466.54125 
L 844.265 466.54125 
L 844.265 460.94125 
L 828.265 460.94125 
z
" style="opacity:0.1;"/>
    </g>
    <g id="text_86">
     <!-- 2 Std. -->
     <g transform="translate(850.665 466.54125)scale(0.08 -0.08)">
      <use xlink:href="#DejaVuSans-177"/>
      <use x="83.789062" xlink:href="#DejaVuSans-50"/>
      <use x="147.412109" xlink:href="#DejaVuSans-32"/>
      <use x="179.199219" xlink:href="#DejaVuSans-83"/>
      <use x="242.675781" xlink:href="#DejaVuSans-116"/>
      <use x="281.884766" xlink:href="#DejaVuSans-100"/>
      <use x="345.361328" xlink:href="#DejaVuSans-46"/>
     </g>
    </g>
   </g>
  </g>
  <g id="text_87">
   <!-- Randolph County, IL COVID-19 -->
   <defs>
    <path d="M 11.71875 12.40625 
L 22.015625 12.40625 
L 22.015625 4 
L 14.015625 -11.625 
L 7.71875 -11.625 
L 11.71875 4 
z
" id="DejaVuSans-44"/>
    <path d="M 39.40625 66.21875 
Q 28.65625 66.21875 22.328125 58.203125 
Q 16.015625 50.203125 16.015625 36.375 
Q 16.015625 22.609375 22.328125 14.59375 
Q 28.65625 6.59375 39.40625 6.59375 
Q 50.140625 6.59375 56.421875 14.59375 
Q 62.703125 22.609375 62.703125 36.375 
Q 62.703125 50.203125 56.421875 58.203125 
Q 50.140625 66.21875 39.40625 66.21875 
z
M 39.40625 74.21875 
Q 54.734375 74.21875 63.90625 63.9375 
Q 73.09375 53.65625 73.09375 36.375 
Q 73.09375 19.140625 63.90625 8.859375 
Q 54.734375 -1.421875 39.40625 -1.421875 
Q 24.03125 -1.421875 14.8125 8.828125 
Q 5.609375 19.09375 5.609375 36.375 
Q 5.609375 53.65625 14.8125 63.9375 
Q 24.03125 74.21875 39.40625 74.21875 
z
" id="DejaVuSans-79"/>
    <path d="M 28.609375 0 
L 0.78125 72.90625 
L 11.078125 72.90625 
L 34.1875 11.53125 
L 57.328125 72.90625 
L 67.578125 72.90625 
L 39.796875 0 
z
" id="DejaVuSans-86"/>
    <path d="M 4.890625 31.390625 
L 31.203125 31.390625 
L 31.203125 23.390625 
L 4.890625 23.390625 
z
" id="DejaVuSans-45"/>
   </defs>
   <g transform="translate(277.408203 31.956094)scale(0.25 -0.25)">
    <use xlink:href="#DejaVuSans-82"/>
    <use x="67.232422" xlink:href="#DejaVuSans-97"/>
    <use x="128.511719" xlink:href="#DejaVuSans-110"/>
    <use x="191.890625" xlink:href="#DejaVuSans-100"/>
    <use x="255.367188" xlink:href="#DejaVuSans-111"/>
    <use x="316.548828" xlink:href="#DejaVuSans-108"/>
    <use x="344.332031" xlink:href="#DejaVuSans-112"/>
    <use x="407.808594" xlink:href="#DejaVuSans-104"/>
    <use x="471.1875" xlink:href="#DejaVuSans-32"/>
    <use x="502.974609" xlink:href="#DejaVuSans-67"/>
    <use x="572.798828" xlink:href="#DejaVuSans-111"/>
    <use x="633.980469" xlink:href="#DejaVuSans-117"/>
    <use x="697.359375" xlink:href="#DejaVuSans-110"/>
    <use x="760.738281" xlink:href="#DejaVuSans-116"/>
    <use x="799.947266" xlink:href="#DejaVuSans-121"/>
    <use x="859.126953" xlink:href="#DejaVuSans-44"/>
    <use x="890.914062" xlink:href="#DejaVuSans-32"/>
    <use x="922.701172" xlink:href="#DejaVuSans-73"/>
    <use x="952.193359" xlink:href="#DejaVuSans-76"/>
    <use x="1007.90625" xlink:href="#DejaVuSans-32"/>
    <use x="1039.693359" xlink:href="#DejaVuSans-67"/>
    <use x="1109.517578" xlink:href="#DejaVuSans-79"/>
    <use x="1186.478516" xlink:href="#DejaVuSans-86"/>
    <use x="1254.886719" xlink:href="#DejaVuSans-73"/>
    <use x="1284.378906" xlink:href="#DejaVuSans-68"/>
    <use x="1361.380859" xlink:href="#DejaVuSans-45"/>
    <use x="1397.464844" xlink:href="#DejaVuSans-49"/>
    <use x="1461.087891" xlink:href="#DejaVuSans-57"/>
   </g>
  </g>
 </g>
 <defs>
  <clipPath id="pcfdb2c0f0a">
   <rect height="192.85" width="372.3125" x="66.125" y="109.55"/>
  </clipPath>
  <clipPath id="p4ac0ca2dd0">
   <rect height="192.85" width="372.3125" x="514.125" y="109.55"/>
  </clipPath>
  <clipPath id="paf5f9c6885">
   <rect height="192.85" width="372.3125" x="66.125" y="396.15"/>
  </clipPath>
  <clipPath id="p0ecca8b1a9">
   <rect height="192.85" width="372.3125" x="514.125" y="396.15"/>
  </clipPath>
 </defs>
</svg>
